<svg width="390" height="320" viewBox="0 0 390 320" fill="none" xmlns="http://www.w3.org/2000/svg">
<path d="M111.355 74.9758C111.355 73.8568 112.296 72.9496 113.457 72.9496H215.386L257.419 113.474V252.266C257.419 253.386 256.478 254.293 255.317 254.293H113.457C112.296 254.293 111.355 253.386 111.355 252.266V74.9758Z" fill="#D5EAF7"/>
<path d="M82.5703 95.7905C82.5703 95.1801 83.0833 94.6849 83.7164 94.6849H103.587C104.22 94.6849 104.733 95.1801 104.733 95.7905C104.733 96.4009 104.22 96.8953 103.587 96.8953H83.7164C83.0833 96.8953 82.5703 96.4009 82.5703 95.7905Z" fill="#D5EAF7"/>
<path d="M82.5703 105.369C82.5703 104.758 83.0833 104.264 83.7164 104.264H117.343C117.976 104.264 118.489 104.758 118.489 105.369C118.489 105.979 117.976 106.474 117.343 106.474H83.7164C83.0833 106.474 82.5703 105.979 82.5703 105.369Z" fill="#D5EAF7"/>
<path d="M82.5703 137.788C82.5703 137.178 83.0833 136.682 83.7164 136.682H124.985C125.618 136.682 126.131 137.178 126.131 137.788C126.131 138.398 125.618 138.893 124.985 138.893H83.7164C83.0833 138.893 82.5703 138.398 82.5703 137.788Z" fill="#D5EAF7"/>
<path d="M82.5703 147.367C82.5703 146.756 83.0833 146.261 83.7164 146.261H102.058C102.691 146.261 103.205 146.756 103.205 147.367C103.205 147.977 102.691 148.471 102.058 148.471H83.7164C83.0833 148.471 82.5703 147.977 82.5703 147.367Z" fill="#D5EAF7"/>
<path d="M82.5703 156.944C82.5703 156.333 83.0833 155.839 83.7164 155.839H119.635C120.269 155.839 120.781 156.333 120.781 156.944C120.781 157.554 120.269 158.049 119.635 158.049H83.7164C83.0833 158.049 82.5703 157.554 82.5703 156.944Z" fill="#D5EAF7"/>
<path d="M107.79 95.7905C107.79 95.1801 108.303 94.6849 108.936 94.6849H136.449C137.082 94.6849 137.595 95.1801 137.595 95.7905C137.595 96.4009 137.082 96.8953 136.449 96.8953H108.936C108.303 96.8953 107.79 96.4009 107.79 95.7905Z" fill="#D5EAF7"/>
<path d="M82.5703 114.947C82.5703 114.337 83.0833 113.842 83.7164 113.842H136.449C137.082 113.842 137.595 114.337 137.595 114.947C137.595 115.558 137.082 116.052 136.449 116.052H83.7164C83.0833 116.052 82.5703 115.558 82.5703 114.947Z" fill="#D5EAF7"/>
<path d="M87.9199 128.209C87.9199 127.599 88.4336 127.103 89.0667 127.103H108.172C108.805 127.103 109.318 127.599 109.318 128.209C109.318 128.819 108.805 129.314 108.172 129.314H89.0667C88.4336 129.314 87.9199 128.819 87.9199 128.209Z" fill="#D5EAF7"/>
<path d="M106.261 147.367C106.261 146.756 106.774 146.261 107.407 146.261H136.448C137.081 146.261 137.594 146.756 137.594 147.367C137.594 147.977 137.081 148.471 136.448 148.471H107.407C106.774 148.471 106.261 147.977 106.261 147.367Z" fill="#D5EAF7"/>
<path d="M139.888 95.7905C139.888 95.1801 140.402 94.6849 141.034 94.6849H174.66C175.293 94.6849 175.807 95.1801 175.807 95.7905C175.807 96.4009 175.293 96.8953 174.66 96.8953H141.034C140.402 96.8953 139.888 96.4009 139.888 95.7905Z" fill="#D5EAF7"/>
<path d="M87.9199 86.2119C87.9199 85.6015 88.4336 85.1071 89.0667 85.1071H116.578C117.211 85.1071 117.725 85.6015 117.725 86.2119C117.725 86.8223 117.211 87.3175 116.578 87.3175H89.0667C88.4336 87.3175 87.9199 86.8223 87.9199 86.2119Z" fill="#D5EAF7"/>
<path d="M121.546 86.2119C121.546 85.6015 122.059 85.1071 122.692 85.1071H145.619C146.252 85.1071 146.765 85.6015 146.765 86.2119C146.765 86.8223 146.252 87.3175 145.619 87.3175H122.692C122.059 87.3175 121.546 86.8223 121.546 86.2119Z" fill="#D5EAF7"/>
<path d="M149.058 86.2119C149.058 85.6015 149.57 85.1071 150.204 85.1071H174.659C175.292 85.1071 175.806 85.6015 175.806 86.2119C175.806 86.8223 175.292 87.3175 174.659 87.3175H150.204C149.57 87.3175 149.058 86.8223 149.058 86.2119Z" fill="#D5EAF7"/>
<path d="M121.546 105.369C121.546 104.758 122.059 104.264 122.692 104.264H159.376C160.009 104.264 160.521 104.758 160.521 105.369C160.521 105.979 160.009 106.474 159.376 106.474H122.692C122.059 106.474 121.546 105.979 121.546 105.369Z" fill="#D5EAF7"/>
<path d="M139.888 114.947C139.888 114.337 140.402 113.842 141.034 113.842H167.018C167.651 113.842 168.165 114.337 168.165 114.947C168.165 115.558 167.651 116.052 167.018 116.052H141.034C140.402 116.052 139.888 115.558 139.888 114.947Z" fill="#D5EAF7"/>
<path d="M112.375 128.209C112.375 127.599 112.888 127.103 113.521 127.103H158.611C159.244 127.103 159.757 127.599 159.757 128.209C159.757 128.819 159.244 129.314 158.611 129.314H113.521C112.888 129.314 112.375 128.819 112.375 128.209Z" fill="#D5EAF7"/>
<path d="M128.424 137.788C128.424 137.178 128.937 136.682 129.57 136.682H174.66C175.293 136.682 175.806 137.178 175.806 137.788C175.806 138.398 175.293 138.893 174.66 138.893H129.57C128.937 138.893 128.424 138.398 128.424 137.788Z" fill="#D5EAF7"/>
<path d="M139.888 147.367C139.888 146.756 140.402 146.261 141.034 146.261H162.432C163.066 146.261 163.579 146.756 163.579 147.367C163.579 147.977 163.066 148.471 162.432 148.471H141.034C140.402 148.471 139.888 147.977 139.888 147.367Z" fill="#D5EAF7"/>
<path d="M123.075 156.944C123.075 156.333 123.589 155.839 124.222 155.839H170.839C171.473 155.839 171.986 156.333 171.986 156.944C171.986 157.554 171.473 158.049 170.839 158.049H124.222C123.589 158.049 123.075 157.554 123.075 156.944Z" fill="#D5EAF7"/>
<path d="M227.997 183.348C227.997 182.722 228.523 182.215 229.172 182.215H249.551C250.201 182.215 250.727 182.722 250.727 183.348C250.727 183.974 250.201 184.482 249.551 184.482H229.172C228.523 184.482 227.997 183.974 227.997 183.348Z" fill="#D5EAF7"/>
<path d="M227.997 193.172C227.997 192.545 228.523 192.038 229.172 192.038H263.66C264.309 192.038 264.835 192.545 264.835 193.172C264.835 193.797 264.309 194.305 263.66 194.305H229.172C228.523 194.305 227.997 193.797 227.997 193.172Z" fill="#D5EAF7"/>
<path d="M227.997 226.42C227.997 225.795 228.523 225.287 229.172 225.287H271.498C272.147 225.287 272.673 225.795 272.673 226.42C272.673 227.047 272.147 227.554 271.498 227.554H229.172C228.523 227.554 227.997 227.047 227.997 226.42Z" fill="#D5EAF7"/>
<path d="M227.997 236.244C227.997 235.619 228.523 235.111 229.172 235.111H247.983C248.633 235.111 249.159 235.619 249.159 236.244C249.159 236.871 248.633 237.378 247.983 237.378H229.172C228.523 237.378 227.997 236.871 227.997 236.244Z" fill="#D5EAF7"/>
<path d="M227.997 246.068C227.997 245.442 228.523 244.934 229.172 244.934H266.011C266.66 244.934 267.186 245.442 267.186 246.068C267.186 246.694 266.66 247.202 266.011 247.202H229.172C228.523 247.202 227.997 246.694 227.997 246.068Z" fill="#D5EAF7"/>
<path d="M233.484 216.597C233.484 215.97 234.01 215.463 234.66 215.463H254.254C254.904 215.463 255.43 215.97 255.43 216.597C255.43 217.222 254.904 217.73 254.254 217.73H234.66C234.01 217.73 233.484 217.222 233.484 216.597Z" fill="#D5EAF7"/>
<path d="M252.294 236.244C252.294 235.619 252.821 235.111 253.47 235.111H283.255C283.904 235.111 284.43 235.619 284.43 236.244C284.43 236.871 283.904 237.378 283.255 237.378H253.47C252.821 237.378 252.294 236.871 252.294 236.244Z" fill="#D5EAF7"/>
<path d="M233.484 173.525C233.484 172.898 234.01 172.391 234.66 172.391H262.876C263.526 172.391 264.052 172.898 264.052 173.525C264.052 174.15 263.526 174.658 262.876 174.658H234.66C234.01 174.658 233.484 174.15 233.484 173.525Z" fill="#D5EAF7"/>
<path d="M258.565 216.597C258.565 215.97 259.091 215.463 259.74 215.463H305.984C306.634 215.463 307.16 215.97 307.16 216.597C307.16 217.222 306.634 217.73 305.984 217.73H259.74C259.091 217.73 258.565 217.222 258.565 216.597Z" fill="#D5EAF7"/>
<path d="M275.025 226.42C275.025 225.795 275.552 225.287 276.201 225.287H322.445C323.094 225.287 323.621 225.795 323.621 226.42C323.621 227.047 323.094 227.554 322.445 227.554H276.201C275.552 227.554 275.025 227.047 275.025 226.42Z" fill="#D5EAF7"/>
<path d="M286.782 236.244C286.782 235.619 287.309 235.111 287.958 235.111H309.904C310.554 235.111 311.08 235.619 311.08 236.244C311.08 236.871 310.554 237.378 309.904 237.378H287.958C287.309 237.378 286.782 236.871 286.782 236.244Z" fill="#D5EAF7"/>
<path d="M269.539 246.068C269.539 245.442 270.065 244.934 270.714 244.934H318.526C319.176 244.934 319.702 245.442 319.702 246.068C319.702 246.694 319.176 247.202 318.526 247.202H270.714C270.065 247.202 269.539 246.694 269.539 246.068Z" fill="#D5EAF7"/>
<path d="M127.818 59.3328C127.818 58.5069 128.518 57.8066 129.419 57.8066H231.146L272.881 98.0429V236.624C272.881 237.449 272.181 238.15 271.279 238.15H129.419C128.518 238.15 127.818 237.449 127.818 236.624V59.3328Z" fill="white" stroke="#37A9EF"/>
<path d="M136.577 156.53C136.577 155.69 137.282 155.01 138.152 155.01H226.421C227.292 155.01 227.997 155.69 227.997 156.53C227.997 157.369 227.292 158.05 226.421 158.05H138.152C137.282 158.05 136.577 157.369 136.577 156.53Z" fill="#37A9EF" fill-opacity="0.58"/>
<path d="M136.577 196.04C136.577 195.201 137.282 194.521 138.152 194.521H194.897C195.767 194.521 196.472 195.201 196.472 196.04C196.472 196.88 195.767 197.56 194.897 197.56H138.152C137.282 197.56 136.577 196.88 136.577 196.04Z" fill="#37A9EF" fill-opacity="0.58"/>
<path d="M136.577 209.21C136.577 208.371 137.282 207.69 138.152 207.69H163.372C164.243 207.69 164.949 208.371 164.949 209.21C164.949 210.05 164.243 210.73 163.372 210.73H138.152C137.282 210.73 136.577 210.05 136.577 209.21Z" fill="#37A9EF" fill-opacity="0.58"/>
<path d="M136.577 222.381C136.577 221.542 137.282 220.861 138.152 220.861H187.541C188.411 220.861 189.117 221.542 189.117 222.381C189.117 223.22 188.411 223.9 187.541 223.9H138.152C137.282 223.9 136.577 223.22 136.577 222.381Z" fill="#37A9EF" fill-opacity="0.58"/>
<path d="M136.577 169.7C136.577 168.861 137.282 168.181 138.152 168.181H210.658C211.529 168.181 212.235 168.861 212.235 169.7C212.235 170.539 211.529 171.22 210.658 171.22H138.152C137.282 171.22 136.577 170.539 136.577 169.7Z" fill="#37A9EF" fill-opacity="0.58"/>
<path d="M136.577 182.87C136.577 182.03 137.282 181.35 138.152 181.35H171.779C172.649 181.35 173.354 182.03 173.354 182.87C173.354 183.71 172.649 184.39 171.779 184.39H138.152C137.282 184.39 136.577 183.71 136.577 182.87Z" fill="#37A9EF" fill-opacity="0.58"/>
<path d="M169.152 209.21C169.152 208.371 169.857 207.69 170.728 207.69H210.659C211.529 207.69 212.234 208.371 212.234 209.21C212.234 210.05 211.529 210.73 210.659 210.73H170.728C169.857 210.73 169.152 210.05 169.152 209.21Z" fill="#37A9EF" fill-opacity="0.58"/>
<path d="M136.577 87.6394C136.577 86.8002 137.282 86.1202 138.152 86.1202H160.22C161.09 86.1202 161.796 86.8002 161.796 87.6394C161.796 88.4794 161.09 89.1594 160.22 89.1594H138.152C137.282 89.1594 136.577 88.4794 136.577 87.6394Z" fill="#37A9EF" fill-opacity="0.58"/>
<path d="M136.577 74.4693C136.577 73.63 137.282 72.9496 138.152 72.9496H187.541C188.411 72.9496 189.117 73.63 189.117 74.4693C189.117 75.3085 188.411 75.9889 187.541 75.9889H138.152C137.282 75.9889 136.577 75.3085 136.577 74.4693Z" fill="#37A9EF" fill-opacity="0.58"/>
<path d="M167.05 87.6394C167.05 86.8002 167.756 86.1202 168.626 86.1202H223.269C224.139 86.1202 224.844 86.8002 224.844 87.6394C224.844 88.4794 224.139 89.1594 223.269 89.1594H168.626C167.756 89.1594 167.05 88.4794 167.05 87.6394Z" fill="#37A9EF" fill-opacity="0.58"/>
<path d="M136.577 100.81C136.577 99.9703 137.282 99.2903 138.152 99.2903H175.982C176.852 99.2903 177.558 99.9703 177.558 100.81C177.558 101.649 176.852 102.329 175.982 102.329H138.152C137.282 102.329 136.577 101.649 136.577 100.81Z" fill="#37A9EF" fill-opacity="0.58"/>
<path d="M136.577 114.486C136.577 113.367 137.518 112.46 138.679 112.46H262.674C263.834 112.46 264.775 113.367 264.775 114.486V142.853C264.775 143.972 263.834 144.879 262.674 144.879H138.679C137.518 144.879 136.577 143.972 136.577 142.853V114.486Z" fill="#37A9EF" fill-opacity="0.45"/>
<path d="M182.812 100.81C182.812 99.9703 183.518 99.2903 184.389 99.2903H218.015C218.885 99.2903 219.591 99.9703 219.591 100.81C219.591 101.649 218.885 102.329 218.015 102.329H184.389C183.518 102.329 182.812 101.649 182.812 100.81Z" fill="#37A9EF" fill-opacity="0.58"/>
<path d="M215.387 169.7C215.387 168.861 216.093 168.181 216.964 168.181H252.691C253.562 168.181 254.268 168.861 254.268 169.7C254.268 170.539 253.562 171.22 252.691 171.22H216.964C216.093 171.22 215.387 170.539 215.387 169.7Z" fill="#37A9EF" fill-opacity="0.58"/>
<path d="M177.558 182.87C177.558 182.03 178.264 181.35 179.134 181.35H241.132C242.003 181.35 242.709 182.03 242.709 182.87C242.709 183.71 242.003 184.39 241.132 184.39H179.134C178.264 184.39 177.558 183.71 177.558 182.87Z" fill="#37A9EF" fill-opacity="0.58"/>
<path d="M199.625 196.04C199.625 195.201 200.331 194.521 201.202 194.521H263.199C264.07 194.521 264.776 195.201 264.776 196.04C264.776 196.88 264.07 197.56 263.199 197.56H201.202C200.331 197.56 199.625 196.88 199.625 196.04Z" fill="#37A9EF" fill-opacity="0.58"/>
<path d="M215.387 209.21C215.387 208.371 216.093 207.69 216.964 207.69H246.386C247.257 207.69 247.963 208.371 247.963 209.21C247.963 210.05 247.257 210.73 246.386 210.73H216.964C216.093 210.73 215.387 210.05 215.387 209.21Z" fill="#37A9EF" fill-opacity="0.58"/>
<path d="M192.269 222.381C192.269 221.542 192.975 220.861 193.846 220.861H257.945C258.816 220.861 259.521 221.542 259.521 222.381C259.521 223.22 258.816 223.9 257.945 223.9H193.846C192.975 223.9 192.269 223.22 192.269 222.381Z" fill="#37A9EF" fill-opacity="0.58"/>
<path d="M231.349 95.804V57.3066L273.381 97.8304H233.45C232.29 97.8304 231.349 96.9232 231.349 95.804Z" fill="#37A9EF"/>
</svg>
