<svg width="390" height="320" viewBox="0 0 390 320" fill="none" xmlns="http://www.w3.org/2000/svg">
<path d="M112.545 76.0479C112.545 74.942 113.475 74.0456 114.622 74.0456H215.368L256.913 114.09V251.238C256.913 252.344 255.983 253.241 254.836 253.241H114.622C113.475 253.241 112.545 252.344 112.545 251.238V76.0479Z" fill="#D5EAF7"/>
<path d="M128.823 60.5902C128.823 59.7776 129.511 59.088 130.399 59.088H230.944L272.191 98.8438V235.781C272.191 236.593 271.502 237.283 270.613 237.283H130.399C129.51 237.283 128.823 236.593 128.823 235.781V60.5902Z" fill="white" stroke="#37A9EF"/>
<path d="M231.146 96.6297V58.588L272.69 98.6313H233.222C232.075 98.6313 231.146 97.7353 231.146 96.6297Z" fill="#37A9EF"/>
<path d="M250.68 167.647C250.68 194.463 228.128 216.2 200.307 216.2C172.487 216.2 149.934 194.463 149.934 167.647C149.934 140.832 172.487 119.095 200.307 119.095C228.128 119.095 250.68 140.832 250.68 167.647Z" fill="#37A9EF" fill-opacity="0.23"/>
<path fill-rule="evenodd" clip-rule="evenodd" d="M200.828 125.602C197.673 125.602 194.599 125.927 191.637 126.544C190.796 126.719 189.967 126.205 189.785 125.394C189.603 124.583 190.137 123.784 190.978 123.609C194.155 122.946 197.451 122.598 200.828 122.598C201.689 122.598 202.386 123.27 202.386 124.1C202.386 124.93 201.689 125.602 200.828 125.602ZM186.434 126.347C186.738 127.123 186.332 127.99 185.527 128.283C171.04 133.558 160.195 146.112 157.707 161.374C157.573 162.193 156.775 162.753 155.925 162.624C155.075 162.495 154.494 161.726 154.628 160.907C157.292 144.57 168.899 131.126 184.426 125.474C185.231 125.18 186.13 125.572 186.434 126.347Z" fill="white"/>
<path d="M199.141 181.226C197.743 181.226 196.601 180.119 196.726 178.776C196.922 176.647 197.331 174.857 197.954 173.408C198.802 171.433 200.626 169.115 203.426 166.453C206.225 163.765 208.022 161.873 208.813 160.775C209.633 159.65 210.255 158.429 210.68 157.113C211.133 155.769 211.358 154.246 211.358 152.545C211.358 149.116 210.412 146.428 208.516 144.48C206.65 142.505 204.034 141.517 200.668 141.517C197.275 141.517 194.532 142.463 192.439 144.357C190.915 145.733 189.938 147.477 189.508 149.586C189.242 150.892 188.151 151.969 186.77 151.969C185.361 151.969 184.201 150.853 184.404 149.509C184.915 146.141 186.42 143.367 188.918 141.188C192.001 138.472 195.918 137.114 200.668 137.114C205.533 137.114 209.365 138.499 212.165 141.27C214.993 144.013 216.407 147.745 216.407 152.463C216.407 155.425 215.714 158.21 214.328 160.816C212.942 163.395 210.312 166.413 206.438 169.869C203.781 172.037 202.228 175.019 201.78 178.817C201.624 180.141 200.524 181.226 199.141 181.226ZM195.918 194.97C195.918 194.038 196.215 193.256 196.808 192.625C197.43 191.967 198.293 191.637 199.396 191.637C200.471 191.637 201.319 191.967 201.941 192.625C202.592 193.256 202.917 194.038 202.917 194.97C202.917 195.876 202.592 196.644 201.941 197.275C201.319 197.878 200.471 198.181 199.396 198.181C198.293 198.181 197.43 197.878 196.808 197.275C196.215 196.644 195.918 195.876 195.918 194.97Z" fill="#37A9EF"/>
<path d="M184.729 74.0456H143.184C142.323 74.0456 141.626 74.7179 141.626 75.5473V75.5473C141.626 76.3766 142.323 77.0489 143.184 77.0489H184.729C185.589 77.0489 186.287 76.3766 186.287 75.5473C186.287 74.7179 185.589 74.0456 184.729 74.0456Z" fill="#37A9EF"/>
<path d="M222.119 87.0601H143.184C142.323 87.0601 141.626 87.7324 141.626 88.5617V88.5617C141.626 89.3911 142.323 90.0634 143.184 90.0634H222.119C222.98 90.0634 223.677 89.3911 223.677 88.5617C223.677 87.7324 222.98 87.0601 222.119 87.0601Z" fill="#37A9EF"/>
</svg>
