<svg width="24" height="28" viewBox="0 0 24 28" fill="none" xmlns="http://www.w3.org/2000/svg">
<path d="M1.71427 0H17L24 7V26.25C24 27.2169 23.232 28 22.2857 28H1.71427C0.76796 28 0 27.2169 0 26.25V1.74998C0 0.783142 0.768048 0 1.71427 0Z" fill="#AB93D8"/>
<path d="M17 5V0L24 7H19C17.8954 7 17 6.10457 17 5Z" fill="#8664C6"/>
<path d="M9.18408 17.6816H6.87256L6.43311 19H5.03125L7.41309 12.6016H8.63477L11.0298 19H9.62793L9.18408 17.6816ZM7.22852 16.6138H8.82812L8.02393 14.2188L7.22852 16.6138Z" fill="white"/>
<path d="M13.0293 19H11.7109V12.6016H13.0293V19Z" fill="white"/>
<path d="M18.105 16.3853H15.5737V19H14.2554V12.6016H18.4214V13.6694H15.5737V15.3218H18.105V16.3853Z" fill="white"/>
</svg>
