<svg width="24" height="28" viewBox="0 0 24 28" fill="none" xmlns="http://www.w3.org/2000/svg">
<path d="M1.71427 0H17L24 7V26.25C24 27.2169 23.232 28 22.2857 28H1.71427C0.76796 28 0 27.2169 0 26.25V1.74998C0 0.783142 0.768048 0 1.71427 0Z" fill="#FFA978"/>
<path d="M17 5V0L24 7H19C17.8954 7 17 6.10457 17 5Z" fill="#FF833E"/>
<path d="M8.18408 17.6816H5.87256L5.43311 19H4.03125L6.41309 12.6016H7.63477L10.0298 19H8.62793L8.18408 17.6816ZM6.22852 16.6138H7.82812L7.02393 14.2188L6.22852 16.6138Z" fill="white"/>
<path d="M12.6489 17.4136L14.0991 12.6016H15.5669L13.3389 19H11.9634L9.74414 12.6016H11.2075L12.6489 17.4136Z" fill="white"/>
<path d="M17.5752 19H16.2568V12.6016H17.5752V19Z" fill="white"/>
</svg>
