<svg width="24" height="28" viewBox="0 0 24 28" fill="none" xmlns="http://www.w3.org/2000/svg">
<path d="M1.71427 0H17L24 7V26.25C24 27.2169 23.232 28 22.2857 28H1.71427C0.76796 28 0 27.2169 0 26.25V1.74998C0 0.783142 0.768048 0 1.71427 0Z" fill="#60BDD4"/>
<path d="M17 5V0L24 7H19C17.8954 7 17 6.10457 17 5Z" fill="#1CA1C1"/>
<path d="M9.59424 16.8687C9.54443 17.5571 9.28955 18.0991 8.82959 18.4946C8.37256 18.8901 7.76904 19.0879 7.01904 19.0879C6.19873 19.0879 5.55273 18.8125 5.08105 18.2617C4.6123 17.708 4.37793 16.9492 4.37793 15.9854V15.5942C4.37793 14.979 4.48633 14.437 4.70312 13.9683C4.91992 13.4995 5.229 13.1406 5.63037 12.8916C6.03467 12.6396 6.50342 12.5137 7.03662 12.5137C7.7749 12.5137 8.36963 12.7114 8.8208 13.1069C9.27197 13.5024 9.53271 14.0576 9.60303 14.7725H8.28467C8.25244 14.3594 8.13672 14.0605 7.9375 13.876C7.74121 13.6885 7.44092 13.5947 7.03662 13.5947C6.59717 13.5947 6.26758 13.7529 6.04785 14.0693C5.83105 14.3828 5.71973 14.8706 5.71387 15.5327V16.0161C5.71387 16.7075 5.81787 17.2129 6.02588 17.5322C6.23682 17.8516 6.56787 18.0112 7.01904 18.0112C7.42627 18.0112 7.72949 17.9189 7.92871 17.7344C8.13086 17.5469 8.24658 17.2583 8.27588 16.8687H9.59424Z" fill="white"/>
<path d="M13.7778 17.3213C13.7778 17.0723 13.6899 16.8818 13.5142 16.75C13.3384 16.6152 13.022 16.4746 12.5649 16.3281C12.1079 16.1787 11.7461 16.0322 11.4795 15.8887C10.7529 15.4961 10.3896 14.9673 10.3896 14.3022C10.3896 13.9565 10.4863 13.6489 10.6797 13.3794C10.876 13.1069 11.1558 12.8945 11.519 12.7422C11.8853 12.5898 12.2954 12.5137 12.7495 12.5137C13.2065 12.5137 13.6138 12.5972 13.9712 12.7642C14.3286 12.9282 14.6055 13.1611 14.8018 13.4629C15.001 13.7646 15.1006 14.1074 15.1006 14.4912H13.7822C13.7822 14.1982 13.6899 13.9712 13.5054 13.8101C13.3208 13.646 13.0615 13.564 12.7275 13.564C12.4053 13.564 12.1548 13.6328 11.9761 13.7705C11.7974 13.9053 11.708 14.084 11.708 14.3066C11.708 14.5146 11.812 14.689 12.02 14.8296C12.231 14.9702 12.54 15.1021 12.9473 15.2251C13.6973 15.4507 14.2437 15.7305 14.5864 16.0645C14.9292 16.3984 15.1006 16.8145 15.1006 17.3125C15.1006 17.8662 14.8911 18.3013 14.4722 18.6177C14.0532 18.9312 13.4893 19.0879 12.7803 19.0879C12.2881 19.0879 11.8398 18.9985 11.4355 18.8198C11.0312 18.6382 10.7222 18.3906 10.5083 18.0771C10.2974 17.7637 10.1919 17.4004 10.1919 16.9873H11.5146C11.5146 17.6934 11.9365 18.0464 12.7803 18.0464C13.0938 18.0464 13.3384 17.9834 13.5142 17.8574C13.6899 17.7285 13.7778 17.5498 13.7778 17.3213Z" fill="white"/>
<path d="M19.3149 17.3213C19.3149 17.0723 19.2271 16.8818 19.0513 16.75C18.8755 16.6152 18.5591 16.4746 18.1021 16.3281C17.645 16.1787 17.2832 16.0322 17.0166 15.8887C16.29 15.4961 15.9268 14.9673 15.9268 14.3022C15.9268 13.9565 16.0234 13.6489 16.2168 13.3794C16.4131 13.1069 16.6929 12.8945 17.0562 12.7422C17.4224 12.5898 17.8325 12.5137 18.2866 12.5137C18.7437 12.5137 19.1509 12.5972 19.5083 12.7642C19.8657 12.9282 20.1426 13.1611 20.3389 13.4629C20.5381 13.7646 20.6377 14.1074 20.6377 14.4912H19.3193C19.3193 14.1982 19.2271 13.9712 19.0425 13.8101C18.8579 13.646 18.5986 13.564 18.2646 13.564C17.9424 13.564 17.6919 13.6328 17.5132 13.7705C17.3345 13.9053 17.2451 14.084 17.2451 14.3066C17.2451 14.5146 17.3491 14.689 17.5571 14.8296C17.7681 14.9702 18.0771 15.1021 18.4844 15.2251C19.2344 15.4507 19.7808 15.7305 20.1235 16.0645C20.4663 16.3984 20.6377 16.8145 20.6377 17.3125C20.6377 17.8662 20.4282 18.3013 20.0093 18.6177C19.5903 18.9312 19.0264 19.0879 18.3174 19.0879C17.8252 19.0879 17.377 18.9985 16.9727 18.8198C16.5684 18.6382 16.2593 18.3906 16.0454 18.0771C15.8345 17.7637 15.729 17.4004 15.729 16.9873H17.0518C17.0518 17.6934 17.4736 18.0464 18.3174 18.0464C18.6309 18.0464 18.8755 17.9834 19.0513 17.8574C19.2271 17.7285 19.3149 17.5498 19.3149 17.3213Z" fill="white"/>
</svg>
