<svg width="24" height="28" viewBox="0 0 24 28" fill="none" xmlns="http://www.w3.org/2000/svg">
<path d="M1.71427 0H17L24 7V26.25C24 27.2169 23.232 28 22.2857 28H1.71427C0.76796 28 0 27.2169 0 26.25V1.74998C0 0.783142 0.768048 0 1.71427 0Z" fill="#6CA3F0"/>
<path d="M8.25439 9.85449L9.11572 5.30176H10.4297L9.01025 11.7002H7.68311L6.6416 7.41992L5.6001 11.7002H4.27295L2.85352 5.30176H4.16748L5.0332 9.8457L6.08789 5.30176H7.2041L8.25439 9.85449Z" fill="white"/>
<path d="M12 11.5C12 11.2239 12.2239 11 12.5 11H20.5C20.7761 11 21 11.2239 21 11.5C21 11.7761 20.7761 12 20.5 12H12.5C12.2239 12 12 11.7761 12 11.5Z" fill="white"/>
<path d="M3 15.5C3 15.2239 3.22386 15 3.5 15H20.5C20.7761 15 21 15.2239 21 15.5C21 15.7761 20.7761 16 20.5 16H3.5C3.22386 16 3 15.7761 3 15.5Z" fill="white"/>
<path d="M3 19.5C3 19.2239 3.22386 19 3.5 19H20.5C20.7761 19 21 19.2239 21 19.5C21 19.7761 20.7761 20 20.5 20H3.5C3.22386 20 3 19.7761 3 19.5Z" fill="white"/>
<path d="M3 23.5C3 23.2239 3.22386 23 3.5 23H20.5C20.7761 23 21 23.2239 21 23.5C21 23.7761 20.7761 24 20.5 24H3.5C3.22386 24 3 23.7761 3 23.5Z" fill="white"/>
<path d="M17 5V0L24 7H19C17.8954 7 17 6.10457 17 5Z" fill="#2F7AE2"/>
</svg>
