<svg width="24" height="28" viewBox="0 0 24 28" fill="none" xmlns="http://www.w3.org/2000/svg">
<path d="M1.71427 0H17L24 7V26.25C24 27.2169 23.232 28 22.2857 28H1.71427C0.76796 28 0 27.2169 0 26.25V1.74998C0 0.783142 0.768048 0 1.71427 0Z" fill="#49C1B1"/>
<path d="M17 5V0L24 7H19C17.8954 7 17 6.10457 17 5Z" fill="#3B988B"/>
<path d="M10.6338 18.1914C10.3965 18.4756 10.061 18.6968 9.62744 18.855C9.19385 19.0103 8.71338 19.0879 8.18604 19.0879C7.63232 19.0879 7.146 18.9678 6.72705 18.7275C6.31104 18.4844 5.98877 18.1328 5.76025 17.6729C5.53467 17.2129 5.41895 16.6724 5.41309 16.0513V15.6162C5.41309 14.9775 5.52002 14.4253 5.73389 13.9595C5.95068 13.4907 6.26123 13.1333 6.66553 12.8872C7.07275 12.6382 7.54883 12.5137 8.09375 12.5137C8.85254 12.5137 9.4458 12.6953 9.87354 13.0586C10.3013 13.4189 10.5547 13.9448 10.6338 14.6362H9.35059C9.29199 14.27 9.16162 14.002 8.95947 13.832C8.76025 13.6621 8.48486 13.5771 8.1333 13.5771C7.68506 13.5771 7.34375 13.7456 7.10938 14.0825C6.875 14.4194 6.75635 14.9204 6.75342 15.5854V15.9941C6.75342 16.665 6.88086 17.1719 7.13574 17.5146C7.39062 17.8574 7.76416 18.0288 8.25635 18.0288C8.75146 18.0288 9.10449 17.9233 9.31543 17.7124V16.6094H8.11572V15.6382H10.6338V18.1914Z" fill="white"/>
<path d="M13.1079 19H11.7896V12.6016H13.1079V19Z" fill="white"/>
<path d="M18.1836 16.3853H15.6523V19H14.334V12.6016H18.5V13.6694H15.6523V15.3218H18.1836V16.3853Z" fill="white"/>
</svg>
