<svg width="24" height="28" viewBox="0 0 24 28" fill="none" xmlns="http://www.w3.org/2000/svg">
<path d="M1.71427 0H17L24 7V26.25C24 27.2169 23.232 28 22.2857 28H1.71427C0.76796 28 0 27.2169 0 26.25V1.74998C0 0.783142 0.768048 0 1.71427 0Z" fill="#60BDD4"/>
<path d="M17 5V0L24 7H19C17.8954 7 17 6.10457 17 5Z" fill="#1CA1C1"/>
<path d="M6.13672 19H4.96484V16.5625H2.67969V19H1.50781V13.3125H2.67969V15.6172H4.96484V13.3125H6.13672V19Z" fill="white"/>
<path d="M11.3281 14.2617H9.58594V19H8.41406V14.2617H6.69531V13.3125H11.3281V14.2617Z" fill="white"/>
<path d="M13.5312 13.3125L14.9922 17.4375L16.4453 13.3125H17.9844V19H16.8086V17.4453L16.9258 14.7617L15.3906 19H14.5859L13.0547 14.7656L13.1719 17.4453V19H12V13.3125H13.5312Z" fill="white"/>
<path d="M20.1797 18.0586H22.668V19H19.0078V13.3125H20.1797V18.0586Z" fill="white"/>
</svg>
