<svg width="24" height="28" viewBox="0 0 24 28" fill="none" xmlns="http://www.w3.org/2000/svg">
<path d="M1.71427 0H17L24 7V26.25C24 27.2169 23.232 28 22.2857 28H1.71427C0.76796 28 0 27.2169 0 26.25V1.74998C0 0.783142 0.768048 0 1.71427 0Z" fill="#49C1B1"/>
<path d="M17 5V0L24 7H19C17.8954 7 17 6.10457 17 5Z" fill="#3B988B"/>
<path fill-rule="evenodd" clip-rule="evenodd" d="M3 11C3 10.4477 3.44772 10 4 10H20C20.5523 10 21 10.4477 21 11V24C21 24.5523 20.5523 25 20 25H4C3.44772 25 3 24.5523 3 24V11ZM20 17.8333V11H4V20.1415L6.38506 17.4914C6.98092 16.8293 8.01908 16.8293 8.61494 17.4914L10.6692 19.7739C10.8781 20.006 11.2461 19.992 11.4368 19.7449L15.3011 14.7355C15.9067 13.9504 17.0939 13.9585 17.6888 14.7517L20 17.8333ZM4 21.6363L7.12835 18.1604C7.32697 17.9397 7.67303 17.9397 7.87165 18.1604L9.92593 20.4429C10.5524 21.139 11.6565 21.0972 12.2285 20.3557L16.0929 15.3463C16.2948 15.0846 16.6905 15.0873 16.8888 15.3517L20 19.5V24H4V21.6363Z" fill="white"/>
<path fill-rule="evenodd" clip-rule="evenodd" d="M10 15C10.5523 15 11 14.5523 11 14C11 13.4477 10.5523 13 10 13C9.44772 13 9 13.4477 9 14C9 14.5523 9.44772 15 10 15ZM10 16C11.1046 16 12 15.1046 12 14C12 12.8954 11.1046 12 10 12C8.89543 12 8 12.8954 8 14C8 15.1046 8.89543 16 10 16Z" fill="white"/>
</svg>
