<svg width="24" height="28" viewBox="0 0 24 28" fill="none" xmlns="http://www.w3.org/2000/svg">
<path d="M1.71427 0H17L24 7V26.25C24 27.2169 23.232 28 22.2857 28H1.71427C0.76796 28 0 27.2169 0 26.25V1.74998C0 0.783142 0.768048 0 1.71427 0Z" fill="#60BDD4"/>
<path d="M17 5V0L24 7H19C17.8954 7 17 6.10457 17 5Z" fill="#1CA1C1"/>
<path d="M9.15088 12.6016H10.4692V17.0312C10.4692 17.4385 10.3784 17.7988 10.1968 18.1123C10.0181 18.4229 9.76465 18.6631 9.43652 18.833C9.1084 19.0029 8.73779 19.0879 8.32471 19.0879C7.64795 19.0879 7.12061 18.9165 6.74268 18.5737C6.36475 18.228 6.17578 17.7402 6.17578 17.1104H7.50293C7.50293 17.4238 7.56885 17.6553 7.70068 17.8047C7.83252 17.9541 8.04053 18.0288 8.32471 18.0288C8.57666 18.0288 8.77734 17.9424 8.92676 17.7695C9.07617 17.5967 9.15088 17.3506 9.15088 17.0312V12.6016Z" fill="white"/>
<path d="M14.9165 17.3213C14.9165 17.0723 14.8286 16.8818 14.6528 16.75C14.4771 16.6152 14.1606 16.4746 13.7036 16.3281C13.2466 16.1787 12.8848 16.0322 12.6182 15.8887C11.8916 15.4961 11.5283 14.9673 11.5283 14.3022C11.5283 13.9565 11.625 13.6489 11.8184 13.3794C12.0146 13.1069 12.2944 12.8945 12.6577 12.7422C13.0239 12.5898 13.4341 12.5137 13.8882 12.5137C14.3452 12.5137 14.7524 12.5972 15.1099 12.7642C15.4673 12.9282 15.7441 13.1611 15.9404 13.4629C16.1396 13.7646 16.2393 14.1074 16.2393 14.4912H14.9209C14.9209 14.1982 14.8286 13.9712 14.644 13.8101C14.4595 13.646 14.2002 13.564 13.8662 13.564C13.5439 13.564 13.2935 13.6328 13.1147 13.7705C12.936 13.9053 12.8467 14.084 12.8467 14.3066C12.8467 14.5146 12.9507 14.689 13.1587 14.8296C13.3696 14.9702 13.6787 15.1021 14.0859 15.2251C14.8359 15.4507 15.3823 15.7305 15.7251 16.0645C16.0679 16.3984 16.2393 16.8145 16.2393 17.3125C16.2393 17.8662 16.0298 18.3013 15.6108 18.6177C15.1919 18.9312 14.6279 19.0879 13.9189 19.0879C13.4268 19.0879 12.9785 18.9985 12.5742 18.8198C12.1699 18.6382 11.8608 18.3906 11.647 18.0771C11.436 17.7637 11.3306 17.4004 11.3306 16.9873H12.6533C12.6533 17.6934 13.0752 18.0464 13.9189 18.0464C14.2324 18.0464 14.4771 17.9834 14.6528 17.8574C14.8286 17.7285 14.9165 17.5498 14.9165 17.3213Z" fill="white"/>
</svg>
