<svg width="24" height="28" viewBox="0 0 24 28" fill="none" xmlns="http://www.w3.org/2000/svg">
<path d="M1.71427 0H17L24 7V26.25C24 27.2169 23.232 28 22.2857 28H1.71427C0.76796 28 0 27.2169 0 26.25V1.74998C0 0.783142 0.768048 0 1.71427 0Z" fill="#AB93D8"/>
<path d="M17 5V0L24 7H19C17.8954 7 17 6.10457 17 5Z" fill="#8664C6"/>
<path d="M4.29395 12.6016L5.9375 17.2422L7.57227 12.6016H9.30371V19H7.98096V17.251L8.11279 14.2319L6.38574 19H5.48047L3.75781 14.2363L3.88965 17.251V19H2.57129V12.6016H4.29395Z" fill="white"/>
<path d="M14.0762 16.5918H14.8013V17.6157H14.0762V19H12.8062V17.6157H10.1826L10.1255 16.8159L12.793 12.6016H14.0762V16.5918ZM11.3911 16.5918H12.8062V14.333L12.7227 14.478L11.3911 16.5918Z" fill="white"/>
<path d="M19.2354 17.6816H16.9238L16.4844 19H15.0825L17.4644 12.6016H18.686L21.0811 19H19.6792L19.2354 17.6816ZM17.2798 16.6138H18.8794L18.0752 14.2188L17.2798 16.6138Z" fill="white"/>
</svg>
