<svg width="24" height="28" viewBox="0 0 24 28" fill="none" xmlns="http://www.w3.org/2000/svg">
<path d="M1.71427 0H17L24 7V26.25C24 27.2169 23.232 28 22.2857 28H1.71427C0.76796 28 0 27.2169 0 26.25V1.74998C0 0.783142 0.768048 0 1.71427 0Z" fill="#60BDD4"/>
<path d="M17 5V0L24 7H19C17.8954 7 17 6.10457 17 5Z" fill="#1CA1C1"/>
<path d="M7.29395 12.6016L8.9375 17.2422L10.5723 12.6016H12.3037V19H10.981V17.251L11.1128 14.2319L9.38574 19H8.48047L6.75781 14.2363L6.88965 17.251V19H5.57129V12.6016H7.29395Z" fill="white"/>
<path d="M13.4551 19V12.6016H15.4238C15.9863 12.6016 16.4888 12.729 16.9312 12.9839C17.3765 13.2358 17.7236 13.5962 17.9727 14.0649C18.2217 14.5308 18.3462 15.061 18.3462 15.6558V15.9502C18.3462 16.5449 18.2231 17.0737 17.9771 17.5366C17.7339 17.9995 17.3896 18.3584 16.9443 18.6133C16.499 18.8682 15.9966 18.9971 15.437 19H13.4551ZM14.7734 13.6694V17.9409H15.4106C15.9263 17.9409 16.3203 17.7725 16.5928 17.4355C16.8652 17.0986 17.0044 16.6167 17.0103 15.9897V15.6514C17.0103 15.001 16.8755 14.5088 16.606 14.1748C16.3364 13.8379 15.9424 13.6694 15.4238 13.6694H14.7734Z" fill="white"/>
</svg>
