<svg width="24" height="28" viewBox="0 0 24 28" fill="none" xmlns="http://www.w3.org/2000/svg">
<path d="M1.71427 0H17L24 7V26.25C24 27.2169 23.232 28 22.2857 28H1.71427C0.76796 28 0 27.2169 0 26.25V1.74998C0 0.783142 0.768048 0 1.71427 0Z" fill="#AB93D8"/>
<path d="M17 5V0L24 7H19C17.8954 7 17 6.10457 17 5Z" fill="#8664C6"/>
<path d="M5.29395 12.6016L6.9375 17.2422L8.57227 12.6016H10.3037V19H8.98096V17.251L9.11279 14.2319L7.38574 19H6.48047L4.75781 14.2363L4.88965 17.251V19H3.57129V12.6016H5.29395Z" fill="white"/>
<path d="M12.8569 19H11.5386V12.6016H12.8569V19Z" fill="white"/>
<path d="M14.083 19V12.6016H16.0518C16.6143 12.6016 17.1167 12.729 17.5591 12.9839C18.0044 13.2358 18.3516 13.5962 18.6006 14.0649C18.8496 14.5308 18.9741 15.061 18.9741 15.6558V15.9502C18.9741 16.5449 18.8511 17.0737 18.605 17.5366C18.3618 17.9995 18.0176 18.3584 17.5723 18.6133C17.127 18.8682 16.6245 18.9971 16.0649 19H14.083ZM15.4014 13.6694V17.9409H16.0386C16.5542 17.9409 16.9482 17.7725 17.2207 17.4355C17.4932 17.0986 17.6323 16.6167 17.6382 15.9897V15.6514C17.6382 15.001 17.5034 14.5088 17.2339 14.1748C16.9644 13.8379 16.5703 13.6694 16.0518 13.6694H15.4014Z" fill="white"/>
</svg>
