<svg width="24" height="28" viewBox="0 0 24 28" fill="none" xmlns="http://www.w3.org/2000/svg">
<path d="M1.71427 0H17L24 7V26.25C24 27.2169 23.232 28 22.2857 28H1.71427C0.76796 28 0 27.2169 0 26.25V1.74998C0 0.783142 0.768048 0 1.71427 0Z" fill="#FFA978"/>
<path d="M17 5V0L24 7H19C17.8954 7 17 6.10457 17 5Z" fill="#FF833E"/>
<path d="M4.29395 12.6016L5.9375 17.2422L7.57227 12.6016H9.30371V19H7.98096V17.251L8.11279 14.2319L6.38574 19H5.48047L3.75781 14.2363L3.88965 17.251V19H2.57129V12.6016H4.29395Z" fill="white"/>
<path d="M15.7109 15.9458C15.7109 16.5757 15.5996 17.1279 15.377 17.6025C15.1543 18.0771 14.835 18.4434 14.4189 18.7012C14.0059 18.959 13.5312 19.0879 12.9951 19.0879C12.4648 19.0879 11.9917 18.9604 11.5757 18.7056C11.1597 18.4507 10.8374 18.0874 10.6089 17.6157C10.3804 17.1411 10.2646 16.5962 10.2617 15.981V15.6646C10.2617 15.0347 10.3745 14.481 10.6001 14.0034C10.8286 13.5229 11.1494 13.1553 11.5625 12.9004C11.9785 12.6426 12.4531 12.5137 12.9863 12.5137C13.5195 12.5137 13.9927 12.6426 14.4058 12.9004C14.8218 13.1553 15.1426 13.5229 15.3682 14.0034C15.5967 14.481 15.7109 15.0332 15.7109 15.6602V15.9458ZM14.375 15.6558C14.375 14.9849 14.2549 14.4751 14.0146 14.1265C13.7744 13.7778 13.4316 13.6035 12.9863 13.6035C12.5439 13.6035 12.2026 13.7764 11.9624 14.1221C11.7222 14.4648 11.6006 14.9688 11.5977 15.6338V15.9458C11.5977 16.5991 11.7178 17.106 11.958 17.4663C12.1982 17.8267 12.5439 18.0068 12.9951 18.0068C13.4375 18.0068 13.7773 17.834 14.0146 17.4883C14.252 17.1396 14.3721 16.6328 14.375 15.9678V15.6558Z" fill="white"/>
<path d="M18.9365 17.4136L20.3867 12.6016H21.8545L19.6265 19H18.251L16.0317 12.6016H17.4951L18.9365 17.4136Z" fill="white"/>
</svg>
