<svg width="24" height="28" viewBox="0 0 24 28" fill="none" xmlns="http://www.w3.org/2000/svg">
<path d="M1.71427 0H17L24 7V26.25C24 27.2169 23.232 28 22.2857 28H1.71427C0.76796 28 0 27.2169 0 26.25V1.74998C0 0.783142 0.768048 0 1.71427 0Z" fill="#AB93D8"/>
<path d="M17 5V0L24 7H19C17.8954 7 17 6.10457 17 5Z" fill="#8664C6"/>
<path d="M4.29395 12.6016L5.9375 17.2422L7.57227 12.6016H9.30371V19H7.98096V17.251L8.11279 14.2319L6.38574 19H5.48047L3.75781 14.2363L3.88965 17.251V19H2.57129V12.6016H4.29395Z" fill="white"/>
<path d="M11.7734 16.7456V19H10.4551V12.6016H12.9512C13.4316 12.6016 13.8535 12.6895 14.2168 12.8652C14.583 13.041 14.8643 13.2915 15.0605 13.6167C15.2568 13.939 15.355 14.3066 15.355 14.7197C15.355 15.3467 15.1396 15.8418 14.709 16.2051C14.2812 16.5654 13.688 16.7456 12.9292 16.7456H11.7734ZM11.7734 15.6777H12.9512C13.2998 15.6777 13.5649 15.5957 13.7466 15.4316C13.9312 15.2676 14.0234 15.0332 14.0234 14.7285C14.0234 14.415 13.9312 14.1616 13.7466 13.9683C13.562 13.7749 13.3071 13.6753 12.9819 13.6694H11.7734V15.6777Z" fill="white"/>
<path d="M17.4204 15.2383H18.0972C18.4194 15.2383 18.6582 15.1577 18.8135 14.9966C18.9688 14.8354 19.0464 14.6216 19.0464 14.355C19.0464 14.0972 18.9688 13.8965 18.8135 13.7529C18.6611 13.6094 18.4502 13.5376 18.1807 13.5376C17.9375 13.5376 17.7339 13.605 17.5698 13.7397C17.4058 13.8716 17.3237 14.0444 17.3237 14.2583H16.0537C16.0537 13.9243 16.1431 13.6255 16.3218 13.3618C16.5034 13.0952 16.7554 12.8872 17.0776 12.7378C17.4028 12.5884 17.7603 12.5137 18.1499 12.5137C18.8267 12.5137 19.3569 12.6763 19.7407 13.0015C20.1245 13.3237 20.3164 13.769 20.3164 14.3374C20.3164 14.6304 20.2271 14.8999 20.0483 15.146C19.8696 15.3921 19.6353 15.5811 19.3452 15.7129C19.7056 15.8418 19.9736 16.0352 20.1494 16.293C20.3281 16.5508 20.4175 16.8555 20.4175 17.207C20.4175 17.7754 20.2095 18.231 19.7935 18.5737C19.3804 18.9165 18.8325 19.0879 18.1499 19.0879C17.5112 19.0879 16.9883 18.9194 16.5811 18.5825C16.1768 18.2456 15.9746 17.8003 15.9746 17.2466H17.2446C17.2446 17.4868 17.334 17.6831 17.5127 17.8354C17.6943 17.9878 17.917 18.064 18.1807 18.064C18.4824 18.064 18.7183 17.9849 18.8882 17.8267C19.061 17.6655 19.1475 17.4531 19.1475 17.1895C19.1475 16.5508 18.7959 16.2314 18.0928 16.2314H17.4204V15.2383Z" fill="white"/>
</svg>
