<svg width="24" height="28" viewBox="0 0 24 28" fill="none" xmlns="http://www.w3.org/2000/svg">
<path d="M1.71427 0H17L24 7V26.25C24 27.2169 23.232 28 22.2857 28H1.71427C0.76796 28 0 27.2169 0 26.25V1.74998C0 0.783142 0.768048 0 1.71427 0Z" fill="#60BDD4"/>
<path d="M17 5V0L24 7H19C17.8954 7 17 6.10457 17 5Z" fill="#1CA1C1"/>
<path d="M4.88965 16.7456V19H3.57129V12.6016H6.06738C6.54785 12.6016 6.96973 12.6895 7.33301 12.8652C7.69922 13.041 7.98047 13.2915 8.17676 13.6167C8.37305 13.939 8.47119 14.3066 8.47119 14.7197C8.47119 15.3467 8.25586 15.8418 7.8252 16.2051C7.39746 16.5654 6.8042 16.7456 6.04541 16.7456H4.88965ZM4.88965 15.6777H6.06738C6.41602 15.6777 6.68115 15.5957 6.86279 15.4316C7.04736 15.2676 7.13965 15.0332 7.13965 14.7285C7.13965 14.415 7.04736 14.1616 6.86279 13.9683C6.67822 13.7749 6.42334 13.6753 6.09814 13.6694H4.88965V15.6777Z" fill="white"/>
<path d="M14.5884 19H13.27V16.2578H10.6992V19H9.38086V12.6016H10.6992V15.1943H13.27V12.6016H14.5884V19Z" fill="white"/>
<path d="M17.0625 16.7456V19H15.7441V12.6016H18.2402C18.7207 12.6016 19.1426 12.6895 19.5059 12.8652C19.8721 13.041 20.1533 13.2915 20.3496 13.6167C20.5459 13.939 20.644 14.3066 20.644 14.7197C20.644 15.3467 20.4287 15.8418 19.998 16.2051C19.5703 16.5654 18.9771 16.7456 18.2183 16.7456H17.0625ZM17.0625 15.6777H18.2402C18.5889 15.6777 18.854 15.5957 19.0356 15.4316C19.2202 15.2676 19.3125 15.0332 19.3125 14.7285C19.3125 14.415 19.2202 14.1616 19.0356 13.9683C18.8511 13.7749 18.5962 13.6753 18.271 13.6694H17.0625V15.6777Z" fill="white"/>
</svg>
