<svg width="24" height="28" viewBox="0 0 24 28" fill="none" xmlns="http://www.w3.org/2000/svg">
<path d="M1.71427 0H17L24 7V26.25C24 27.2169 23.232 28 22.2857 28H1.71427C0.76796 28 0 27.2169 0 26.25V1.74998C0 0.783142 0.768048 0 1.71427 0Z" fill="#49C1B1"/>
<path d="M17 5V0L24 7H19C17.8954 7 17 6.10457 17 5Z" fill="#3B988B"/>
<path d="M4.88965 16.7456V19H3.57129V12.6016H6.06738C6.54785 12.6016 6.96973 12.6895 7.33301 12.8652C7.69922 13.041 7.98047 13.2915 8.17676 13.6167C8.37305 13.939 8.47119 14.3066 8.47119 14.7197C8.47119 15.3467 8.25586 15.8418 7.8252 16.2051C7.39746 16.5654 6.8042 16.7456 6.04541 16.7456H4.88965ZM4.88965 15.6777H6.06738C6.41602 15.6777 6.68115 15.5957 6.86279 15.4316C7.04736 15.2676 7.13965 15.0332 7.13965 14.7285C7.13965 14.415 7.04736 14.1616 6.86279 13.9683C6.67822 13.7749 6.42334 13.6753 6.09814 13.6694H4.88965V15.6777Z" fill="white"/>
<path d="M14.584 19H13.2656L10.6992 14.79V19H9.38086V12.6016H10.6992L13.27 16.8203V12.6016H14.584V19Z" fill="white"/>
<path d="M20.7979 18.1914C20.5605 18.4756 20.2251 18.6968 19.7915 18.855C19.3579 19.0103 18.8774 19.0879 18.3501 19.0879C17.7964 19.0879 17.3101 18.9678 16.8911 18.7275C16.4751 18.4844 16.1528 18.1328 15.9243 17.6729C15.6987 17.2129 15.583 16.6724 15.5771 16.0513V15.6162C15.5771 14.9775 15.6841 14.4253 15.8979 13.9595C16.1147 13.4907 16.4253 13.1333 16.8296 12.8872C17.2368 12.6382 17.7129 12.5137 18.2578 12.5137C19.0166 12.5137 19.6099 12.6953 20.0376 13.0586C20.4653 13.4189 20.7188 13.9448 20.7979 14.6362H19.5146C19.4561 14.27 19.3257 14.002 19.1235 13.832C18.9243 13.6621 18.6489 13.5771 18.2974 13.5771C17.8491 13.5771 17.5078 13.7456 17.2734 14.0825C17.0391 14.4194 16.9204 14.9204 16.9175 15.5854V15.9941C16.9175 16.665 17.0449 17.1719 17.2998 17.5146C17.5547 17.8574 17.9282 18.0288 18.4204 18.0288C18.9155 18.0288 19.2686 17.9233 19.4795 17.7124V16.6094H18.2798V15.6382H20.7979V18.1914Z" fill="white"/>
</svg>
