<svg width="24" height="28" viewBox="0 0 24 28" fill="none" xmlns="http://www.w3.org/2000/svg">
<path d="M1.71427 0H17L24 7V26.25C24 27.2169 23.232 28 22.2857 28H1.71427C0.76796 28 0 27.2169 0 26.25V1.74998C0 0.783142 0.768048 0 1.71427 0Z" fill="#F17399"/>
<path d="M17 5V0L24 7H19C17.8954 7 17 6.10457 17 5Z" fill="#EA366C"/>
<path d="M5.93994 15.6577H4.88965V18H3.57129V11.6016H5.94873C6.70459 11.6016 7.2876 11.77 7.69775 12.1069C8.10791 12.4438 8.31299 12.9199 8.31299 13.5352C8.31299 13.9717 8.21777 14.3364 8.02734 14.6294C7.83984 14.9194 7.5542 15.1509 7.17041 15.3237L8.55469 17.9385V18H7.13965L5.93994 15.6577ZM4.88965 14.5898H5.95312C6.28418 14.5898 6.54053 14.5063 6.72217 14.3394C6.90381 14.1694 6.99463 13.9365 6.99463 13.6406C6.99463 13.3389 6.9082 13.1016 6.73535 12.9287C6.56543 12.7559 6.30322 12.6694 5.94873 12.6694H4.88965V14.5898Z" fill="white"/>
<path d="M12.9316 16.6816H10.6201L10.1807 18H8.77881L11.1606 11.6016H12.3823L14.7773 18H13.3755L12.9316 16.6816ZM10.9761 15.6138H12.5757L11.7715 13.2188L10.9761 15.6138Z" fill="white"/>
<path d="M17.7437 15.6577H16.6934V18H15.375V11.6016H17.7524C18.5083 11.6016 19.0913 11.77 19.5015 12.1069C19.9116 12.4438 20.1167 12.9199 20.1167 13.5352C20.1167 13.9717 20.0215 14.3364 19.8311 14.6294C19.6436 14.9194 19.3579 15.1509 18.9741 15.3237L20.3584 17.9385V18H18.9434L17.7437 15.6577ZM16.6934 14.5898H17.7568C18.0879 14.5898 18.3442 14.5063 18.5259 14.3394C18.7075 14.1694 18.7983 13.9365 18.7983 13.6406C18.7983 13.3389 18.7119 13.1016 18.5391 12.9287C18.3691 12.7559 18.1069 12.6694 17.7524 12.6694H16.6934V14.5898Z" fill="white"/>
<path d="M0 24L0 23H15V24H0Z" fill="white"/>
<path fill-rule="evenodd" clip-rule="evenodd" d="M16.2058 25.6511C15.5047 25.5109 15 24.8953 15 24.1803V22.8199C15 22.1048 15.5047 21.4892 16.2058 21.349L19.2058 20.749C20.134 20.5634 21 21.2733 21 22.2199V24.7803C21 25.7268 20.134 26.4368 19.2058 26.2511L16.2058 25.6511ZM16 24.1803C16 24.4186 16.1682 24.6238 16.4019 24.6705L19.4019 25.2705C19.7113 25.3324 20 25.0958 20 24.7803V22.2199C20 21.9043 19.7113 21.6677 19.4019 21.7296L16.4019 22.3296C16.1682 22.3763 16 22.5815 16 22.8199V24.1803Z" fill="white"/>
<path d="M11.5 21C11.2239 21 11 21.2239 11 21.5V23H12V21.5C12 21.2239 11.7761 21 11.5 21Z" fill="white"/>
<path d="M7.5 21C7.22386 21 7 21.2239 7 21.5V23H8V21.5C8 21.2239 7.77614 21 7.5 21Z" fill="white"/>
<path d="M3.5 21C3.22386 21 3 21.2239 3 21.5V23H4V21.5C4 21.2239 3.77614 21 3.5 21Z" fill="white"/>
<path d="M13.5 26C13.7761 26 14 25.7761 14 25.5V24H13V25.5C13 25.7761 13.2239 26 13.5 26Z" fill="white"/>
<path d="M9.5 26C9.77614 26 10 25.7761 10 25.5V24H9V25.5C9 25.7761 9.22386 26 9.5 26Z" fill="white"/>
<path d="M5.5 26C5.77614 26 6 25.7761 6 25.5V24H5V25.5C5 25.7761 5.22386 26 5.5 26Z" fill="white"/>
<path d="M1.5 26C1.77614 26 2 25.7761 2 25.5L2 24H1L1 25.5C1 25.7761 1.22386 26 1.5 26Z" fill="white"/>
</svg>
