<svg width="24" height="28" viewBox="0 0 24 28" fill="none" xmlns="http://www.w3.org/2000/svg">
<path d="M1.71427 0H17L24 7V26.25C24 27.2169 23.232 28 22.2857 28H1.71427C0.76796 28 0 27.2169 0 26.25V1.74998C0 0.783142 0.768048 0 1.71427 0Z" fill="#49C1B1"/>
<path d="M17 5V0L24 7H19C17.8954 7 17 6.10457 17 5Z" fill="#3B988B"/>
<path d="M7.78906 14.2617H6.04688V19H4.875V14.2617H3.15625V13.3125H7.78906V14.2617Z" fill="white"/>
<path d="M9.70703 19H8.53516V13.3125H9.70703V19Z" fill="white"/>
<path d="M14.2188 16.6758H11.9688V19H10.7969V13.3125H14.5V14.2617H11.9688V15.7305H14.2188V16.6758Z" fill="white"/>
<path d="M18.6016 16.6758H16.3516V19H15.1797V13.3125H18.8828V14.2617H16.3516V15.7305H18.6016V16.6758Z" fill="white"/>
</svg>
