<svg width="24" height="28" viewBox="0 0 24 28" fill="none" xmlns="http://www.w3.org/2000/svg">
<path d="M1.71427 0H17L24 7V26.25C24 27.2169 23.232 28 22.2857 28H1.71427C0.76796 28 0 27.2169 0 26.25V1.74998C0 0.783142 0.768048 0 1.71427 0Z" fill="#AB93D8"/>
<path d="M17 5V0L24 7H19C17.8954 7 17 6.10457 17 5Z" fill="#8664C6"/>
<path d="M7.55518 17.1543L8.4165 12.6016H9.73047L8.31104 19H6.98389L5.94238 14.7197L4.90088 19H3.57373L2.1543 12.6016H3.46826L4.33398 17.1455L5.38867 12.6016H6.50488L7.55518 17.1543Z" fill="white"/>
<path d="M13.8657 17.6816H11.5542L11.1147 19H9.71289L12.0947 12.6016H13.3164L15.7114 19H14.3096L13.8657 17.6816ZM11.9102 16.6138H13.5098L12.7056 14.2188L11.9102 16.6138Z" fill="white"/>
<path d="M18.3306 17.4136L19.7808 12.6016H21.2485L19.0205 19H17.645L15.4258 12.6016H16.8892L18.3306 17.4136Z" fill="white"/>
</svg>
