<svg width="24" height="28" viewBox="0 0 24 28" fill="none" xmlns="http://www.w3.org/2000/svg">
<path d="M1.71427 0H17L24 7V26.25C24 27.2169 23.232 28 22.2857 28H1.71427C0.76796 28 0 27.2169 0 26.25V1.74998C0 0.783142 0.768048 0 1.71427 0Z" fill="#AB93D8"/>
<path d="M17 5V0L24 7H19C17.8954 7 17 6.10457 17 5Z" fill="#8664C6"/>
<path fill-rule="evenodd" clip-rule="evenodd" d="M17 11.2467C17 10.9268 16.7038 10.6892 16.3915 10.7586L9.39153 12.3142C9.16277 12.365 9 12.5679 9 12.8023V14.3716L14.8876 13.0129C15.1566 12.9508 15.4251 13.1186 15.4872 13.3877C15.5493 13.6567 15.3815 13.9252 15.1124 13.9873L9 15.3978V22.5V22.5001C8.99995 23.8808 7.88068 25 6.5 25C5.11929 25 4 23.8807 4 22.5C4 21.1193 5.11929 20 6.5 20C7.0628 20 7.58217 20.186 8 20.4998V12.8023C8 12.0992 8.4883 11.4905 9.1746 11.338L16.1746 9.78242C17.1114 9.57425 18 10.2871 18 11.2467V20.5C18 20.5 18 20.5001 18 20.5001C18 21.8808 16.8807 23 15.5 23C14.1193 23 13 21.8807 13 20.5C13 19.1193 14.1193 18 15.5 18C16.0628 18 16.5822 18.186 17 18.4998V11.2467ZM17 20.5C17 19.6716 16.3284 19 15.5 19C14.6716 19 14 19.6716 14 20.5C14 21.3284 14.6716 22 15.5 22C16.3284 22 17 21.3285 17 20.5001C17 20.5001 17 20.5 17 20.5ZM6.5 21C7.32843 21 8 21.6716 8 22.5V22.5001C7.99995 23.3285 7.3284 24 6.5 24C5.67157 24 5 23.3284 5 22.5C5 21.6716 5.67157 21 6.5 21Z" fill="white"/>
</svg>
