<svg width="24" height="28" viewBox="0 0 24 28" fill="none" xmlns="http://www.w3.org/2000/svg">
<path d="M1.71427 0H17L24 7V26.25C24 27.2169 23.232 28 22.2857 28H1.71427C0.76796 28 0 27.2169 0 26.25V1.74998C0 0.783142 0.768048 0 1.71427 0Z" fill="#FFA978"/>
<path d="M17 5V0L24 7H19C17.8954 7 17 6.10457 17 5Z" fill="#FF833E"/>
<path fill-rule="evenodd" clip-rule="evenodd" d="M9 13.3706C9 12.5989 9.83721 12.118 10.5039 12.5069L15.0116 15.1363C15.6731 15.5222 15.6731 16.478 15.0116 16.8639L10.5039 19.4934C9.83721 19.8823 9 19.4014 9 18.6296V13.3706ZM14.5077 16.0001L10 13.3706V18.6296L14.5077 16.0001Z" fill="white"/>
<path fill-rule="evenodd" clip-rule="evenodd" d="M18 10H6V22H18V10ZM6 9C5.44772 9 5 9.44772 5 10V22C5 22.5523 5.44772 23 6 23H18C18.5523 23 19 22.5523 19 22V10C19 9.44772 18.5523 9 18 9H6Z" fill="white"/>
</svg>
