<svg width="390" height="320" viewBox="0 0 390 320" fill="none" xmlns="http://www.w3.org/2000/svg">
<path d="M334.391 206.232C334.391 231.118 313.466 251.293 287.653 251.293C261.841 251.293 240.916 231.118 240.916 206.232C240.916 181.346 261.841 161.172 287.653 161.172C313.466 161.172 334.391 181.346 334.391 206.232Z" fill="#D5EAF7"/>
<path d="M82.0063 84.0696C82.0063 76.3272 88.5168 70.0508 96.5466 70.0508H168.318C171.262 70.0508 174.137 70.9123 176.561 72.5212L197.562 86.4552C199.987 88.064 202.861 88.9256 205.806 88.9256H298.039C306.07 88.9256 312.58 95.2016 312.58 102.944V205.231C312.58 212.974 306.07 219.25 298.039 219.25H96.5475C88.5168 219.25 82.0063 212.974 82.0063 205.231V84.0696Z" fill="#D5EAF7"/>
<path d="M82.0063 97.0865C82.0063 89.3441 88.5168 83.0681 96.5466 83.0681H168.318C171.262 83.0681 174.137 83.9297 176.561 85.5385L197.562 99.4721C199.987 101.081 202.861 101.942 205.806 101.942H298.039C306.07 101.942 312.58 108.219 312.58 115.962V218.248C312.58 225.99 306.07 232.267 298.039 232.267H96.5475C88.5168 232.267 82.0063 225.99 82.0063 218.248V97.0865Z" fill="#37A9EF"/>
<path d="M146.401 139.143C146.401 138.037 147.33 137.14 148.478 137.14H248.185C249.333 137.14 250.263 138.037 250.263 139.143V161.172C250.263 162.278 249.333 163.175 248.185 163.175H148.478C147.33 163.175 146.401 162.278 146.401 161.172V139.143Z" fill="white" fill-opacity="0.29"/>
<path fill-rule="evenodd" clip-rule="evenodd" d="M150.799 160.019L151.196 159.094C151.317 159.143 151.451 159.17 151.594 159.17H152.609V160.171H151.594C151.312 160.171 151.044 160.117 150.799 160.019ZM244.054 160.171V159.17H245.069C245.212 159.17 245.346 159.143 245.467 159.094L245.864 160.019C245.619 160.117 245.351 160.171 245.069 160.171H244.054ZM247.146 143.148H246.108V142.147C246.108 142.009 246.08 141.881 246.029 141.764L246.989 141.38C247.091 141.616 247.146 141.875 247.146 142.147V143.148ZM152.609 140.144H151.594C151.312 140.144 151.044 140.199 150.799 140.296L151.196 141.221C151.317 141.173 151.451 141.146 151.594 141.146H152.609V140.144ZM149.517 157.167H150.555V158.168C150.555 158.306 150.583 158.435 150.634 158.551L149.674 158.935C149.572 158.699 149.517 158.44 149.517 158.168V157.167ZM149.517 155.164H150.555V153.162H149.517V155.164ZM149.517 151.159H150.555V149.156H149.517V151.159ZM149.517 147.154H150.555V145.151H149.517V147.154ZM149.517 143.148H150.555V142.147C150.555 142.009 150.583 141.881 150.634 141.764L149.674 141.38C149.572 141.616 149.517 141.875 149.517 142.147V143.148ZM154.642 140.144V141.146H156.674V140.144H154.642ZM158.706 140.144V141.146H160.738V140.144H158.706ZM162.77 140.144V141.146H164.802V140.144H162.77ZM166.835 140.144V141.146H168.867V140.144H166.835ZM170.899 140.144V141.146H172.931V140.144H170.899ZM174.962 140.144V141.146H176.994V140.144H174.962ZM179.027 140.144V141.146H181.059V140.144H179.027ZM183.091 140.144V141.146H185.123V140.144H183.091ZM187.155 140.144V141.146H189.187V140.144H187.155ZM191.219 140.144V141.146H193.252V140.144H191.219ZM195.284 140.144V141.146H197.316V140.144H195.284ZM199.347 140.144V141.146H201.379V140.144H199.347ZM203.412 140.144V141.146H205.444V140.144H203.412ZM207.476 140.144V141.146H209.508V140.144H207.476ZM211.54 140.144V141.146H213.572V140.144H211.54ZM215.604 140.144V141.146H217.637V140.144H215.604ZM219.669 140.144V141.146H221.701V140.144H219.669ZM223.732 140.144V141.146H225.764V140.144H223.732ZM227.796 140.144V141.146H229.829V140.144H227.796ZM231.861 140.144V141.146H233.893V140.144H231.861ZM235.925 140.144V141.146H237.957V140.144H235.925ZM239.989 140.144V141.146H242.021V140.144H239.989ZM244.054 140.144V141.146H245.069C245.212 141.146 245.346 141.173 245.467 141.221L245.864 140.296C245.619 140.199 245.351 140.144 245.069 140.144H244.054ZM247.146 145.151H246.108V147.154H247.146V145.151ZM247.146 149.156H246.108V151.159H247.146V149.156ZM247.146 153.162H246.108V155.164H247.146V153.162ZM247.146 157.167H246.108V158.168C246.108 158.306 246.08 158.435 246.029 158.551L246.989 158.935C247.091 158.699 247.146 158.44 247.146 158.168V157.167ZM242.021 160.171V159.17H239.989V160.171H242.021ZM237.957 160.171V159.17H235.925V160.171H237.957ZM233.893 160.171V159.17H231.861V160.171H233.893ZM229.829 160.171V159.17H227.796V160.171H229.829ZM225.764 160.171V159.17H223.732V160.171H225.764ZM221.701 160.171V159.17H219.669V160.171H221.701ZM217.637 160.171V159.17H215.604V160.171H217.637ZM213.572 160.171V159.17H211.54V160.171H213.572ZM209.508 160.171V159.17H207.476V160.171H209.508ZM205.444 160.171V159.17H203.412V160.171H205.444ZM201.379 160.171V159.17H199.347V160.171H201.379ZM197.316 160.171V159.17H195.284V160.171H197.316ZM193.252 160.171V159.17H191.219V160.171H193.252ZM189.187 160.171V159.17H187.155V160.171H189.187ZM185.123 160.171V159.17H183.091V160.171H185.123ZM181.059 160.171V159.17H179.027V160.171H181.059ZM176.994 160.171V159.17H174.962V160.171H176.994ZM172.931 160.171V159.17H170.899V160.171H172.931ZM168.867 160.171V159.17H166.835V160.171H168.867ZM164.802 160.171V159.17H162.77V160.171H164.802ZM160.738 160.171V159.17H158.706V160.171H160.738ZM156.674 160.171V159.17H154.642V160.171H156.674Z" fill="#37A9EF"/>
<path d="M331.275 206.232C331.275 229.459 311.745 248.288 287.653 248.288C263.561 248.288 244.031 229.459 244.031 206.232C244.031 183.006 263.561 164.176 287.653 164.176C311.745 164.176 331.275 183.006 331.275 206.232Z" fill="white"/>
<path fill-rule="evenodd" clip-rule="evenodd" d="M283.256 187.439C284.27 188.417 284.27 190.002 283.256 190.98L270.033 203.729H311.541C312.974 203.729 314.137 204.849 314.137 206.232C314.137 207.615 312.974 208.736 311.541 208.736H270.033L283.256 221.485C284.27 222.462 284.27 224.047 283.256 225.025C282.242 226.002 280.599 226.002 279.585 225.025L261.928 208.002C260.914 207.025 260.914 205.44 261.928 204.462L279.585 187.439C280.599 186.461 282.242 186.461 283.256 187.439Z" fill="#37A9EF"/>
<path fill-rule="evenodd" clip-rule="evenodd" d="M287.653 171.686C284.968 171.686 282.355 171.97 279.842 172.51C279.002 172.69 278.17 172.178 277.983 171.369C277.797 170.559 278.326 169.757 279.166 169.577C281.899 168.991 284.739 168.682 287.653 168.682C288.513 168.682 289.211 169.355 289.211 170.185C289.211 171.014 288.513 171.686 287.653 171.686ZM274.222 172.546C274.565 173.307 274.202 174.192 273.413 174.522C260.705 179.834 251.821 192.034 251.821 206.233C251.821 207.062 251.123 207.734 250.263 207.734C249.402 207.734 248.705 207.062 248.705 206.233C248.705 190.795 258.367 177.537 272.173 171.766C272.962 171.436 273.88 171.785 274.222 172.546Z" fill="#D5EAF7"/>
</svg>
