<svg width="390" height="320" viewBox="0 0 390 320" fill="none" xmlns="http://www.w3.org/2000/svg">
<path d="M129.783 76.0589C129.783 74.9529 130.713 74.0562 131.861 74.0562H272.074C273.222 74.0562 274.151 74.9529 274.151 76.0589V251.293C274.151 252.398 273.222 253.295 272.074 253.295H131.861C130.713 253.295 129.783 252.398 129.783 251.293V76.0589Z" fill="#D5EAF7"/>
<path d="M115.243 65.0442C115.243 63.9381 116.173 63.0415 117.32 63.0415H257.534C258.68 63.0415 259.611 63.9381 259.611 65.0442V240.278C259.611 241.384 258.68 242.281 257.534 242.281H117.32C116.173 242.281 115.243 241.384 115.243 240.278V65.0442Z" fill="white"/>
<path d="M253.379 67.5463C254.267 67.5463 254.956 68.236 254.956 69.049V236.416C254.956 237.138 254.324 237.775 253.481 237.775H121.372C120.528 237.775 119.897 237.138 119.897 236.416V68.9059C119.897 68.183 120.528 67.5466 121.372 67.5466C136.732 67.5466 152.093 67.5464 167.454 67.5461C196.095 67.5457 224.737 67.5453 253.379 67.5463Z" fill="#D5EAF7" stroke="#37A9EF"/>
<path d="M119.397 238.275V148.272C204.613 192.844 170.956 71.6964 255.456 126.752V238.275H119.397Z" fill="#2C9DE3"/>
<path d="M119.397 238.275V171.669C191.723 208.513 184.562 108.603 255.456 152.538V238.275H119.397Z" fill="#37A9EF"/>
<path d="M131.238 94.6168C131.238 103.902 139.044 111.428 148.675 111.428C158.305 111.428 166.112 103.902 166.112 94.6168C166.112 85.3328 158.305 77.8062 148.675 77.8062C139.044 77.8062 131.238 85.3328 131.238 94.6168Z" fill="#37A9EF"/>
<path d="M138.215 94.6167C138.215 100.188 142.899 104.703 148.677 104.703C154.455 104.703 159.139 100.188 159.139 94.6167C159.139 89.0462 154.455 84.5302 148.677 84.5302C142.899 84.5302 138.215 89.0462 138.215 94.6167Z" fill="#D5EAF7"/>
</svg>
