<svg width="390" height="320" viewBox="0 0 390 320" fill="none" xmlns="http://www.w3.org/2000/svg">
<path fill-rule="evenodd" clip-rule="evenodd" d="M273.803 38.4723C273.812 38.192 274.053 37.9711 274.344 37.9787C275.05 37.9974 275.757 38.0381 276.464 38.1005C276.753 38.126 276.966 38.3731 276.94 38.6522C276.913 38.9314 276.657 39.137 276.368 39.1114C275.684 39.051 274.999 39.0115 274.315 38.9935C274.025 38.9859 273.795 38.7524 273.803 38.4723ZM270.676 38.5896C270.707 38.8683 270.497 39.1185 270.209 39.1484C269.528 39.2188 268.85 39.3118 268.175 39.4278C267.889 39.4771 267.616 39.2932 267.564 39.0172C267.514 38.7413 267.704 38.4776 267.99 38.4284C268.689 38.3082 269.391 38.2119 270.096 38.1391C270.385 38.1091 270.645 38.3109 270.676 38.5896ZM280.037 39.1123C280.098 38.8382 280.379 38.6639 280.662 38.7231C281.35 38.866 282.036 39.0287 282.719 39.2106C283 39.2851 283.164 39.5647 283.087 39.8349C283.009 40.1051 282.719 40.2637 282.439 40.1891C281.775 40.0123 281.109 39.8543 280.441 39.7154C280.156 39.6563 279.975 39.3863 280.037 39.1123ZM264.531 39.7555C264.622 40.0218 264.472 40.3087 264.196 40.3966C263.55 40.602 262.908 40.8306 262.272 41.0828C262.002 41.1893 261.695 41.0655 261.585 40.8062C261.473 40.5469 261.602 40.2503 261.871 40.1438C262.531 39.8824 263.196 39.6455 263.866 39.4325C264.142 39.3447 264.44 39.4893 264.531 39.7555ZM286.057 40.7971C286.164 40.5364 286.47 40.4088 286.74 40.512C287.394 40.7612 288.042 41.0277 288.687 41.311C288.951 41.4273 289.068 41.7283 288.948 41.9834C288.827 42.2384 288.515 42.351 288.25 42.2347C287.622 41.9584 286.989 41.6987 286.353 41.4559C286.082 41.3527 285.95 41.0577 286.057 40.7971ZM258.781 42.1467C258.928 42.3886 258.843 42.6995 258.592 42.8411C258.007 43.171 257.429 43.5231 256.857 43.8979C256.617 44.0554 256.29 43.9952 256.126 43.7633C255.963 43.5315 256.025 43.2158 256.266 43.0583C256.857 42.6707 257.456 42.3065 258.06 41.9651C258.311 41.8235 258.633 41.9047 258.781 42.1467ZM291.732 43.3699C291.877 43.1271 292.199 43.0442 292.451 43.1846C293.058 43.5231 293.659 43.8767 294.255 44.2449C294.5 44.3963 294.571 44.7103 294.414 44.9462C294.257 45.1822 293.931 45.2507 293.687 45.0994C293.104 44.7395 292.517 44.3939 291.923 44.0633C291.672 43.923 291.586 43.6125 291.732 43.3699ZM253.657 45.6172C253.85 45.8272 253.829 46.148 253.611 46.3337C253.355 46.5529 253.099 46.7773 252.845 47.0071C252.588 47.2551 252.341 47.5055 252.103 47.7579C251.907 47.9652 251.573 47.9804 251.358 47.7917C251.143 47.6031 251.128 47.282 251.324 47.0747C251.575 46.8084 251.836 46.5448 252.107 46.2839L252.118 46.2729C252.381 46.0343 252.647 45.801 252.914 45.5732C253.132 45.3875 253.464 45.4072 253.657 45.6172ZM296.974 46.69C297.152 46.4684 297.483 46.4279 297.713 46.5995C298.266 47.013 298.813 47.4396 299.353 47.8791C299.575 48.0599 299.603 48.3802 299.416 48.5943C299.228 48.8084 298.895 48.8354 298.674 48.6544C298.145 48.2243 297.61 47.8067 297.068 47.4021C296.838 47.2305 296.796 46.9117 296.974 46.69ZM249.482 50.2183C249.732 50.3611 249.815 50.6725 249.667 50.9137C249.308 51.4983 248.989 52.093 248.711 52.6974C248.593 52.9535 248.282 53.0687 248.016 52.9547C247.75 52.8407 247.63 52.5407 247.749 52.2846C248.044 51.6441 248.381 51.0146 248.761 50.3965C248.909 50.1553 249.232 50.0755 249.482 50.2183ZM301.722 50.6394C301.928 50.4411 302.261 50.4408 302.467 50.639C302.963 51.1163 303.45 51.6052 303.929 52.1053C304.126 52.3113 304.113 52.6324 303.899 52.8225C303.686 53.0127 303.352 52.9998 303.155 52.7938C302.686 52.3039 302.209 51.8249 301.722 51.3572C301.517 51.1591 301.517 50.8377 301.722 50.6394ZM305.929 55.1223C306.158 54.9493 306.489 54.9878 306.669 55.2084C307.101 55.7405 307.525 56.2827 307.938 56.8345C308.108 57.0618 308.055 57.3791 307.82 57.5432C307.584 57.7074 307.255 57.6562 307.084 57.429C306.679 56.8879 306.265 56.3565 305.84 55.8349C305.66 55.6143 305.7 55.2953 305.929 55.1223ZM247.076 55.8529C247.361 55.9058 247.548 56.1719 247.493 56.4471C247.365 57.0931 247.272 57.7495 247.214 58.4161C247.19 58.6955 246.936 58.9031 246.646 58.8798C246.356 58.8565 246.141 58.6111 246.165 58.3318C246.225 57.6304 246.323 56.9382 246.459 56.2555C246.514 55.9803 246.79 55.7999 247.076 55.8529ZM309.551 60.0578C309.799 59.912 310.124 59.988 310.275 60.2275C310.64 60.8059 310.994 61.3931 311.338 61.9887C311.479 62.2338 311.388 62.5428 311.134 62.679C310.88 62.8152 310.559 62.7271 310.418 62.482C310.081 61.898 309.733 61.3223 309.375 60.7553C309.224 60.5158 309.303 60.2035 309.551 60.0578ZM246.685 61.92C246.975 61.8926 247.232 62.0964 247.26 62.3754C247.329 63.0427 247.426 63.7191 247.551 64.4042C247.601 64.6803 247.41 64.9435 247.124 64.9922C246.838 65.0407 246.565 64.8564 246.514 64.5803C246.385 63.8712 246.283 63.1693 246.213 62.4749C246.184 62.1959 246.395 61.9475 246.685 61.92ZM312.546 65.3711C312.81 65.2546 313.123 65.3667 313.243 65.6217C313.536 66.2385 313.817 66.8629 314.086 67.4945C314.197 67.7539 314.068 68.0503 313.798 68.1568C313.529 68.2632 313.222 68.1393 313.112 67.8799C312.848 67.2607 312.573 66.6486 312.285 66.0439C312.165 65.7889 312.281 65.4878 312.546 65.3711ZM247.861 67.9287C248.14 67.8478 248.433 67.9997 248.517 68.2681C248.717 68.907 248.937 69.5523 249.178 70.2042C249.275 70.4683 249.132 70.7586 248.857 70.8524C248.584 70.9463 248.283 70.8082 248.185 70.544C247.94 69.8776 247.714 69.2167 247.509 68.5612C247.425 68.2928 247.583 68.0097 247.861 67.9287ZM173.168 69.7861C173.171 69.5058 173.41 69.2812 173.7 69.2845C174.429 69.2927 175.157 69.3059 175.885 69.3239C176.175 69.3311 176.405 69.564 176.398 69.8443C176.39 70.1245 176.149 70.3459 175.858 70.3387C175.135 70.3208 174.411 70.3078 173.688 70.2996C173.397 70.2963 173.164 70.0664 173.168 69.7861ZM169.865 69.7938C169.87 70.0741 169.638 70.3051 169.347 70.3099C168.624 70.3216 167.901 70.3385 167.178 70.3605C166.888 70.3694 166.645 70.1495 166.635 69.8693C166.626 69.5891 166.854 69.3547 167.145 69.3459C167.873 69.3237 168.601 69.3067 169.33 69.2948C169.62 69.2901 169.86 69.5135 169.865 69.7938ZM179.698 69.9689C179.713 69.689 179.961 69.4739 180.251 69.4887C180.979 69.5255 181.706 69.567 182.432 69.613C182.722 69.6313 182.942 69.873 182.923 70.1527C182.903 70.4324 182.653 70.6443 182.363 70.6259C181.641 70.5803 180.919 70.5391 180.196 70.5024C179.905 70.4877 179.682 70.2488 179.698 69.9689ZM163.336 70.0183C163.354 70.298 163.134 70.539 162.843 70.5564C162.121 70.5999 161.4 70.6487 160.679 70.7031C160.39 70.725 160.137 70.5162 160.113 70.2367C160.091 69.9572 160.307 69.7129 160.597 69.6911C161.323 69.6362 162.05 69.587 162.778 69.5432C163.068 69.5258 163.318 69.7384 163.336 70.0183ZM186.216 70.4021C186.242 70.123 186.498 69.9173 186.788 69.9428C187.514 70.0067 188.238 70.0749 188.961 70.1473C189.25 70.1763 189.46 70.4258 189.43 70.7046C189.4 70.9835 189.141 71.186 188.852 71.157C188.134 71.0851 187.413 71.0172 186.692 70.9538C186.403 70.9283 186.189 70.6813 186.216 70.4021ZM156.826 70.5371C156.858 70.8157 156.65 71.0667 156.361 71.0979C156.002 71.1365 155.643 71.1766 155.285 71.2181C154.93 71.2593 154.575 71.3017 154.223 71.3453C153.934 71.381 153.67 71.1845 153.633 70.9065C153.596 70.6284 153.8 70.3741 154.088 70.3384C154.444 70.2944 154.801 70.2517 155.159 70.2103C155.52 70.1683 155.882 70.1279 156.244 70.0889C156.533 70.0579 156.793 70.2585 156.826 70.5371ZM192.712 71.0727C192.749 70.7946 193.013 70.5982 193.301 70.6339C194.024 70.7236 194.746 70.8174 195.465 70.9151C195.753 70.9542 195.953 71.2109 195.913 71.4884C195.872 71.766 195.606 71.9594 195.319 71.9203C194.603 71.8231 193.886 71.7299 193.167 71.6408C192.878 71.6051 192.675 71.3507 192.712 71.0727ZM150.468 71.3471C150.514 71.6239 150.319 71.8843 150.031 71.9287C149.341 72.0359 148.654 72.1479 147.97 72.2647C147.684 72.3135 147.411 72.1295 147.36 71.8535C147.309 71.5775 147.5 71.314 147.786 71.2651C148.476 71.1473 149.168 71.0344 149.865 70.9265C150.152 70.882 150.421 71.0703 150.468 71.3471ZM314.871 70.9893C315.148 70.9036 315.445 71.0506 315.533 71.3175C315.747 71.9611 315.95 72.6112 316.139 73.2675C316.216 73.5375 316.053 73.8173 315.772 73.8923C315.493 73.9675 315.202 73.8093 315.124 73.5392C314.939 72.896 314.741 72.2587 314.531 71.6277C314.442 71.3608 314.594 71.075 314.871 70.9893ZM199.178 71.97C199.226 71.6934 199.497 71.5062 199.784 71.5519C200.504 71.6663 201.221 71.7847 201.936 71.9068C202.223 71.9557 202.413 72.2191 202.363 72.4951C202.312 72.7711 202.039 72.9553 201.753 72.9064C201.042 72.7851 200.328 72.6673 199.612 72.5535C199.325 72.5078 199.131 72.2466 199.178 71.97ZM144.28 72.4298C144.341 72.7041 144.159 72.9734 143.874 73.0314C143.179 73.173 142.488 73.3197 141.802 73.4715C141.518 73.534 141.236 73.3633 141.17 73.09C141.105 72.8168 141.283 72.5445 141.566 72.4819C142.259 72.3289 142.956 72.1809 143.657 72.0381C143.941 71.9802 144.22 72.1555 144.28 72.4298ZM205.607 73.0863C205.664 72.8115 205.942 72.6335 206.227 72.6887C206.943 72.8275 207.657 72.9699 208.367 73.1159C208.652 73.1743 208.833 73.4439 208.772 73.718C208.711 73.9922 208.432 74.1671 208.147 74.1087C207.441 73.9636 206.732 73.822 206.02 73.6839C205.734 73.6287 205.55 73.3611 205.607 73.0863ZM138.103 73.8209C138.178 74.0918 138.011 74.3698 137.73 74.4417C137.059 74.6133 136.393 74.7899 135.732 74.9712C135.452 75.0478 135.161 74.8913 135.081 74.6217C135.001 74.352 135.164 74.0713 135.444 73.9947C136.112 73.8118 136.783 73.6337 137.459 73.4606C137.741 73.3887 138.029 73.5499 138.103 73.8209ZM250.037 73.6805C250.303 73.5667 250.614 73.682 250.732 73.9382C251.014 74.5496 251.311 75.1659 251.622 75.7871C251.748 76.0396 251.639 76.3431 251.377 76.4649C251.115 76.5868 250.8 76.481 250.674 76.2286C250.358 75.5983 250.056 74.9723 249.77 74.3505C249.652 74.0944 249.772 73.7944 250.037 73.6805ZM211.992 74.4168C212.059 74.1441 212.343 73.9755 212.626 74.0402C213.338 74.2029 214.045 74.369 214.748 74.5383C215.03 74.6061 215.202 74.8816 215.132 75.1536C215.062 75.4256 214.776 75.5911 214.493 75.5232C213.794 75.3549 213.09 75.1897 212.382 75.0279C212.099 74.9631 211.925 74.6896 211.992 74.4168ZM132.026 75.5159C132.115 75.7826 131.964 76.0687 131.687 76.155C131.018 76.3635 130.355 76.577 129.695 76.7955C129.42 76.8866 129.121 76.7455 129.026 76.4804C128.932 76.2153 129.078 75.9265 129.353 75.8354C130.019 75.6149 130.688 75.3995 131.363 75.1891C131.64 75.1028 131.936 75.2491 132.026 75.5159ZM218.329 75.9609C218.406 75.6906 218.695 75.5315 218.976 75.6058C219.68 75.7923 220.381 75.982 221.076 76.1747C221.356 76.2521 221.518 76.5332 221.437 76.8027C221.357 77.0721 221.065 77.2278 220.786 77.1503C220.094 76.9588 219.398 76.7703 218.697 76.5847C218.417 76.5105 218.252 76.2312 218.329 75.9609ZM316.491 76.8319C316.776 76.7784 317.053 76.9582 317.108 77.2334C317.242 77.8956 317.362 78.5632 317.469 79.2358C317.513 79.5129 317.316 79.772 317.029 79.8145C316.741 79.8571 316.473 79.667 316.429 79.3899C316.323 78.7305 316.205 78.0761 316.074 77.4269C316.019 77.1517 316.205 76.8853 316.491 76.8319ZM126.089 77.5116C126.193 77.7732 126.058 78.067 125.787 78.1678C125.124 78.4138 124.466 78.6651 123.813 78.9213C123.544 79.0271 123.237 78.9023 123.127 78.6427C123.018 78.383 123.147 78.0868 123.416 77.9811C124.076 77.7224 124.739 77.4688 125.408 77.2204C125.68 77.1197 125.984 77.2501 126.089 77.5116ZM224.601 77.7188C224.688 77.4514 224.984 77.3026 225.262 77.3865C225.961 77.598 226.655 77.8125 227.343 78.0296C227.619 78.1168 227.77 78.4035 227.679 78.6699C227.588 78.9363 227.291 79.0816 227.015 78.9944C226.331 78.7786 225.642 78.5654 224.946 78.3551C224.668 78.2711 224.514 77.9863 224.601 77.7188ZM252.827 79.171C253.082 79.0363 253.402 79.1266 253.542 79.3724C253.88 79.968 254.229 80.5672 254.59 81.1712C254.735 81.4136 254.648 81.724 254.396 81.864C254.144 82.004 253.822 81.92 253.677 81.6776C253.313 81.068 252.96 80.4624 252.618 79.8599C252.479 79.6141 252.572 79.3056 252.827 79.171ZM230.803 79.6986C230.901 79.4345 231.202 79.2967 231.476 79.3907C232.166 79.6279 232.85 79.8677 233.526 80.1096C233.798 80.2072 233.938 80.4992 233.837 80.7624C233.735 81.0248 233.432 81.1592 233.159 81.0616C232.487 80.8208 231.809 80.5824 231.122 80.3472C230.849 80.2528 230.705 79.9627 230.803 79.6986ZM120.216 79.8477C120.337 80.1032 120.219 80.404 119.954 80.5192C119.321 80.796 118.692 81.0768 118.069 81.3632C117.806 81.4832 117.492 81.376 117.367 81.1224C117.242 80.8696 117.354 80.5664 117.616 80.4464C118.246 80.1576 118.88 79.8735 119.52 79.5945C119.785 79.4789 120.097 79.5923 120.216 79.8477ZM236.918 81.9136C237.028 81.6536 237.335 81.528 237.604 81.6336C238.287 81.8992 238.961 82.168 239.626 82.4384C239.894 82.5472 240.019 82.8448 239.906 83.1032C239.794 83.3616 239.484 83.4824 239.217 83.3736C238.556 83.1048 237.888 82.8384 237.21 82.5744C236.94 82.4696 236.81 82.1736 236.918 81.9136ZM114.521 82.4944C114.656 82.7424 114.557 83.0496 114.299 83.18C113.678 83.4944 113.062 83.8136 112.451 84.1384C112.196 84.2736 111.877 84.184 111.737 83.9384C111.596 83.6928 111.689 83.384 111.943 83.2488C112.561 82.9216 113.183 82.5984 113.81 82.2808C114.068 82.1512 114.385 82.2464 114.521 82.4944ZM317.381 82.8128C317.671 82.792 317.923 83.0024 317.945 83.2816C317.996 83.9568 318.034 84.6368 318.058 85.32C318.068 85.6 317.841 85.8352 317.551 85.8448C317.26 85.8544 317.016 85.6352 317.006 85.3552C316.982 84.6848 316.946 84.0184 316.895 83.356C316.873 83.0768 317.091 82.8328 317.381 82.8128ZM242.929 84.388C243.051 84.1336 243.364 84.0224 243.628 84.14C243.958 84.2872 244.287 84.4344 244.611 84.5824C244.874 84.7024 244.987 85.0048 244.863 85.2584C244.739 85.512 244.426 85.62 244.162 85.5008C243.84 85.3536 243.514 85.208 243.187 85.0616C242.923 84.944 242.807 84.6432 242.929 84.388ZM256.01 84.456C256.257 84.3072 256.582 84.38 256.735 84.6184C257.111 85.1992 257.495 85.7832 257.888 86.3704C258.046 86.6064 257.975 86.9208 257.73 87.072C257.486 87.224 257.16 87.156 257.003 86.9208C256.608 86.3288 256.221 85.7408 255.842 85.1552C255.688 84.9168 255.764 84.604 256.01 84.456ZM109.016 85.4512C109.166 85.6912 109.086 86.0032 108.837 86.1488C108.233 86.5008 107.633 86.8576 107.04 87.22C106.794 87.3696 106.469 87.2992 106.313 87.0624C106.158 86.8248 106.231 86.5112 106.477 86.3616C107.077 85.996 107.682 85.6352 108.293 85.2792C108.542 85.1344 108.866 85.2112 109.016 85.4512ZM103.678 88.7424C103.843 88.9728 103.783 89.2896 103.544 89.4488C102.972 89.8296 102.407 90.216 101.846 90.6064C101.61 90.7704 101.281 90.7192 101.11 90.492C100.94 90.2648 100.993 89.9472 101.229 89.7832C101.796 89.3888 102.368 88.9992 102.945 88.6136C103.185 88.4544 103.513 88.512 103.678 88.7424ZM317.536 88.86C317.826 88.8728 318.051 89.1096 318.038 89.3896C318.008 90.0624 317.965 90.7392 317.906 91.4184C317.882 91.6984 317.628 91.9064 317.339 91.8832C317.049 91.86 316.834 91.6152 316.857 91.336C316.914 90.6688 316.956 90.0056 316.986 89.3456C317 89.0656 317.245 88.848 317.536 88.86ZM259.462 89.592C259.703 89.4344 260.03 89.4952 260.193 89.7272C260.588 90.2872 260.99 90.8512 261.397 91.4168C261.563 91.6472 261.504 91.9632 261.265 92.1232C261.026 92.2832 260.698 92.2256 260.533 91.996C260.123 91.4272 259.719 90.8608 259.323 90.2976C259.159 90.0656 259.221 89.7496 259.462 89.592ZM98.568 92.3416C98.7481 92.5616 98.709 92.8808 98.4809 93.0544C97.9315 93.4712 97.388 93.8936 96.8512 94.32C96.6263 94.4976 96.2944 94.4664 96.1102 94.2504C95.9251 94.0336 95.9575 93.7136 96.1815 93.536C96.725 93.1048 97.2735 92.6784 97.8287 92.2568C98.0568 92.0832 98.3879 92.1216 98.568 92.3416ZM263.102 94.6248C263.338 94.4608 263.667 94.512 263.837 94.74C264.244 95.2848 264.657 95.832 265.073 96.3816C265.245 96.608 265.193 96.9256 264.959 97.0904C264.725 97.256 264.395 97.2072 264.223 96.9808C263.805 96.4296 263.392 95.88 262.983 95.3328C262.813 95.1056 262.867 94.788 263.102 94.6248ZM316.966 94.8792C317.253 94.9232 317.448 95.1832 317.404 95.46C317.348 95.7976 317.289 96.1352 317.227 96.4736C317.165 96.8152 317.099 97.1552 317.033 97.4944C316.979 97.7696 316.703 97.9512 316.417 97.8984C316.132 97.8464 315.944 97.5808 315.998 97.3056C316.064 96.9704 316.128 96.6336 316.19 96.2968C316.251 95.964 316.309 95.6328 316.363 95.3016C316.409 95.0248 316.678 94.836 316.966 94.8792ZM93.7129 96.2344C93.9071 96.4432 93.8888 96.7648 93.6722 96.9512C93.1495 97.4032 92.6325 97.86 92.1214 98.3208C91.9098 98.512 91.5762 98.5016 91.3779 98.2968C91.1787 98.092 91.1903 97.7712 91.4019 97.5792C91.9189 97.1136 92.4408 96.6528 92.9694 96.196C93.186 96.0088 93.5187 96.0264 93.7129 96.2344ZM266.875 99.5832C267.107 99.4152 267.437 99.4608 267.611 99.6848C268.027 100.219 268.445 100.755 268.868 101.293C269.044 101.516 268.998 101.834 268.766 102.004C268.534 102.173 268.204 102.129 268.028 101.906C267.605 101.366 267.185 100.83 266.769 100.294C266.594 100.07 266.641 99.7512 266.875 99.5832ZM89.125 100.418C89.3325 100.614 89.3349 100.935 89.1316 101.135C88.6396 101.619 88.1542 102.106 87.6745 102.598C87.4754 102.802 87.1418 102.813 86.9302 102.621C86.7186 102.429 86.7078 102.107 86.907 101.903C87.3916 101.406 87.8828 100.913 88.3799 100.425C88.584 100.224 88.9167 100.222 89.125 100.418ZM315.749 100.896C316.031 100.962 316.205 101.235 316.137 101.508C315.969 102.182 315.793 102.849 315.61 103.511C315.534 103.782 315.245 103.943 314.965 103.87C314.684 103.798 314.517 103.52 314.592 103.249C314.774 102.595 314.947 101.935 315.113 101.27C315.181 100.998 315.466 100.83 315.749 100.896ZM270.7 104.447C270.931 104.276 271.261 104.318 271.438 104.54C271.87 105.082 272.304 105.624 272.741 106.168C272.919 106.39 272.876 106.709 272.647 106.881C272.417 107.052 272.086 107.011 271.908 106.79C271.471 106.244 271.036 105.701 270.604 105.159C270.427 104.937 270.47 104.618 270.7 104.447ZM84.8118 104.89C85.0325 105.073 85.0566 105.393 84.8674 105.606C84.4118 106.114 83.9637 106.627 83.5215 107.144C83.3364 107.36 83.0045 107.391 82.7804 107.213C82.5561 107.034 82.5242 106.714 82.7093 106.498C83.1564 105.976 83.6094 105.457 84.0691 104.942C84.2591 104.73 84.5919 104.706 84.8118 104.89ZM314.064 106.816C314.341 106.902 314.493 107.188 314.403 107.455C314.184 108.109 313.958 108.758 313.723 109.401C313.626 109.665 313.326 109.804 313.051 109.711C312.778 109.618 312.633 109.328 312.729 109.064C312.961 108.43 313.185 107.789 313.402 107.143C313.49 106.876 313.787 106.73 314.064 106.816ZM274.582 109.282C274.811 109.11 275.143 109.149 275.321 109.37C275.755 109.906 276.191 110.444 276.628 110.984C276.807 111.205 276.767 111.523 276.537 111.696C276.308 111.869 275.978 111.83 275.799 111.609C275.361 111.07 274.925 110.531 274.49 109.994C274.312 109.773 274.353 109.454 274.582 109.282ZM80.8149 109.614C81.047 109.783 81.0933 110.102 80.9182 110.325C80.497 110.863 80.0826 111.405 79.6748 111.95C79.5048 112.178 79.1758 112.23 78.9399 112.066C78.704 111.902 78.6507 111.584 78.8207 111.357C79.2329 110.806 79.6518 110.258 80.0775 109.714C80.2526 109.49 80.5828 109.446 80.8149 109.614ZM311.915 112.583C312.183 112.69 312.312 112.987 312.201 113.246C311.93 113.882 311.65 114.511 311.364 115.134C311.245 115.39 310.935 115.506 310.668 115.392C310.403 115.278 310.283 114.978 310.401 114.722C310.684 114.107 310.96 113.486 311.228 112.859C311.339 112.6 311.647 112.477 311.915 112.583ZM278.501 114.113C278.73 113.94 279.061 113.978 279.24 114.199L280.542 115.801C280.721 116.022 280.681 116.341 280.452 116.514C280.223 116.686 279.892 116.648 279.713 116.427L278.411 114.826C278.232 114.605 278.272 114.286 278.501 114.113ZM77.1479 114.575C77.3909 114.73 77.4585 115.044 77.2989 115.278C76.9142 115.843 76.5364 116.411 76.1655 116.982C76.0111 117.22 75.6863 117.292 75.4398 117.143C75.1934 116.994 75.1186 116.682 75.273 116.444C75.6479 115.866 76.0299 115.292 76.4188 114.721C76.5784 114.487 76.9048 114.422 77.1479 114.575ZM309.298 118.163C309.557 118.291 309.66 118.597 309.528 118.846C309.202 119.462 308.868 120.07 308.528 120.672C308.389 120.918 308.069 121.008 307.814 120.874C307.558 120.74 307.464 120.431 307.604 120.186C307.94 119.592 308.268 118.992 308.59 118.385C308.722 118.135 309.039 118.036 309.298 118.163ZM282.421 118.939C282.65 118.766 282.981 118.806 283.159 119.026C283.592 119.562 284.025 120.097 284.459 120.634C284.638 120.855 284.596 121.174 284.367 121.346C284.137 121.518 283.807 121.478 283.628 121.258C283.195 120.721 282.763 120.186 282.329 119.651C282.15 119.43 282.192 119.111 282.421 118.939ZM73.8246 119.756C74.0775 119.894 74.1663 120.204 74.0229 120.448C73.6769 121.036 73.3381 121.627 73.0063 122.222C72.8685 122.469 72.5492 122.561 72.2932 122.428C72.0372 122.295 71.9414 121.987 72.0792 121.741C72.4146 121.14 72.7572 120.542 73.1069 119.947C73.2503 119.703 73.5716 119.618 73.8246 119.756ZM306.21 123.528C306.457 123.676 306.533 123.989 306.379 124.227C306.004 124.81 305.621 125.386 305.232 125.954C305.071 126.188 304.745 126.253 304.502 126.098C304.26 125.944 304.193 125.629 304.354 125.395C304.737 124.834 305.114 124.266 305.485 123.692C305.638 123.454 305.963 123.381 306.21 123.528ZM286.313 123.766C286.544 123.595 286.874 123.636 287.052 123.858C287.483 124.398 287.915 124.938 288.345 125.479C288.523 125.702 288.479 126.02 288.248 126.19C288.018 126.361 287.687 126.319 287.511 126.097C287.08 125.556 286.649 125.017 286.218 124.478C286.04 124.256 286.083 123.938 286.313 123.766ZM70.8547 125.145C71.1165 125.266 71.2261 125.57 71.0995 125.822C70.7959 126.428 70.4994 127.037 70.2099 127.647C70.0891 127.902 69.7768 128.015 69.5123 127.898C69.2479 127.782 69.1314 127.481 69.2521 127.226C69.5447 126.608 69.8445 125.993 70.1515 125.381C70.278 125.128 70.5929 125.022 70.8547 125.145ZM302.671 128.614C302.903 128.781 302.951 129.099 302.778 129.324C302.35 129.877 301.915 130.422 301.473 130.96C301.292 131.179 300.961 131.217 300.734 131.042C300.506 130.868 300.468 130.549 300.648 130.33C301.083 129.8 301.512 129.262 301.934 128.717C302.107 128.492 302.438 128.446 302.671 128.614ZM290.177 128.63C290.409 128.461 290.739 128.505 290.915 128.729C291.341 129.271 291.767 129.815 292.19 130.359C292.365 130.584 292.318 130.902 292.085 131.07C291.852 131.238 291.523 131.193 291.347 130.969C290.925 130.426 290.5 129.883 290.075 129.341C289.9 129.118 289.946 128.799 290.177 128.63ZM68.2592 130.705C68.5287 130.81 68.6588 131.106 68.5497 131.366C68.2875 131.99 68.0326 132.617 67.785 133.246C67.6818 133.508 67.3778 133.64 67.1059 133.541C66.8341 133.441 66.6974 133.148 66.8005 132.886C67.0508 132.25 67.3086 131.616 67.5737 130.985C67.6827 130.725 67.9897 130.6 68.2592 130.705ZM298.684 133.394C298.901 133.581 298.919 133.902 298.726 134.11C298.252 134.624 297.771 135.128 297.285 135.625C297.085 135.828 296.751 135.837 296.54 135.644C296.329 135.452 296.32 135.13 296.52 134.927C296.999 134.438 297.473 133.941 297.94 133.435C298.133 133.226 298.466 133.207 298.684 133.394ZM293.981 133.53C294.215 133.363 294.545 133.411 294.717 133.637C295.137 134.187 295.555 134.738 295.972 135.29C296.143 135.517 296.091 135.834 295.857 135.999C295.621 136.164 295.291 136.114 295.121 135.887C294.706 135.338 294.288 134.788 293.869 134.239C293.697 134.013 293.747 133.695 293.981 133.53ZM66.0484 136.415C66.3245 136.503 66.4744 136.79 66.3832 137.056C66.1639 137.697 65.952 138.339 65.7474 138.983C65.6624 139.251 65.368 139.402 65.09 139.32C64.8119 139.238 64.6555 138.954 64.7406 138.686C64.9473 138.034 65.1616 137.386 65.3833 136.738C65.4745 136.472 65.7722 136.327 66.0484 136.415ZM294.282 137.813C294.482 138.018 294.472 138.338 294.259 138.53C293.738 139.002 293.211 139.466 292.678 139.919C292.46 140.105 292.127 140.085 291.935 139.875C291.742 139.665 291.763 139.344 291.981 139.158C292.506 138.711 293.025 138.255 293.539 137.79C293.751 137.598 294.084 137.609 294.282 137.813ZM297.712 138.489C297.949 138.326 298.278 138.38 298.446 138.609C298.854 139.163 299.259 139.718 299.663 140.274C299.83 140.504 299.771 140.821 299.533 140.981C299.294 141.142 298.967 141.086 298.8 140.856C298.398 140.302 297.994 139.749 297.587 139.196C297.419 138.967 297.475 138.65 297.712 138.489ZM289.485 141.839C289.663 142.06 289.622 142.379 289.393 142.551C288.832 142.974 288.266 143.388 287.694 143.792C287.459 143.958 287.13 143.909 286.958 143.683C286.786 143.457 286.837 143.139 287.071 142.974C287.634 142.575 288.193 142.168 288.745 141.751C288.974 141.579 289.305 141.618 289.485 141.839ZM64.2314 142.253C64.5129 142.322 64.682 142.6 64.6092 142.871C64.4339 143.524 64.2662 144.179 64.106 144.835C64.0395 145.108 63.756 145.277 63.473 145.213C63.1899 145.149 63.0145 144.875 63.0811 144.602C63.243 143.939 63.4126 143.277 63.5898 142.617C63.6627 142.346 63.9498 142.182 64.2314 142.253ZM301.344 143.518C301.585 143.361 301.911 143.422 302.075 143.654C302.472 144.218 302.865 144.785 303.255 145.35C303.416 145.584 303.35 145.899 303.108 146.054C302.866 146.21 302.539 146.146 302.378 145.913C301.989 145.349 301.598 144.786 301.203 144.222C301.039 143.99 301.103 143.674 301.344 143.518ZM216.782 144.81C216.955 144.585 217.285 144.538 217.518 144.705C217.802 144.908 218.087 145.108 218.374 145.305C218.61 145.468 218.666 145.785 218.496 146.013C218.328 146.241 217.998 146.294 217.762 146.131C217.471 145.93 217.18 145.727 216.891 145.52C216.658 145.353 216.609 145.035 216.782 144.81ZM284.331 145.422C284.488 145.658 284.417 145.972 284.172 146.123C283.571 146.496 282.964 146.858 282.353 147.211C282.104 147.355 281.781 147.277 281.632 147.037C281.482 146.796 281.563 146.484 281.813 146.34C282.414 145.994 283.011 145.636 283.604 145.27C283.849 145.118 284.174 145.186 284.331 145.422ZM221.158 147.702C221.308 147.462 221.632 147.385 221.881 147.53C222.483 147.88 223.088 148.218 223.697 148.542C223.951 148.678 224.043 148.987 223.902 149.233C223.762 149.478 223.442 149.566 223.187 149.431C222.566 149.099 221.949 148.755 221.337 148.398C221.088 148.254 221.008 147.942 221.158 147.702ZM62.8164 148.195C63.1021 148.247 63.2898 148.513 63.2356 148.788C63.1056 149.45 62.9831 150.114 62.8684 150.778C62.8206 151.054 62.5493 151.242 62.2626 151.195C61.9757 151.15 61.7819 150.888 61.8297 150.611C61.9458 149.939 62.0696 149.269 62.2011 148.599C62.2552 148.324 62.5307 148.143 62.8164 148.195ZM278.848 148.531C278.98 148.78 278.879 149.086 278.621 149.214C277.987 149.53 277.35 149.834 276.709 150.128C276.447 150.249 276.132 150.142 276.007 149.888C275.883 149.635 275.994 149.332 276.257 149.212C276.888 148.922 277.515 148.622 278.138 148.313C278.396 148.184 278.714 148.282 278.848 148.531ZM304.84 148.617C305.085 148.466 305.41 148.535 305.567 148.772C305.95 149.351 306.329 149.932 306.704 150.512C306.859 150.75 306.783 151.063 306.537 151.211C306.289 151.36 305.965 151.287 305.811 151.049C305.438 150.472 305.061 149.894 304.679 149.318C304.522 149.082 304.594 148.767 304.84 148.617ZM226.747 150.614C226.868 150.359 227.18 150.246 227.445 150.362C228.084 150.644 228.728 150.912 229.374 151.167C229.643 151.273 229.771 151.57 229.662 151.829C229.552 152.089 229.244 152.213 228.975 152.106C228.316 151.846 227.66 151.573 227.008 151.286C226.744 151.17 226.627 150.869 226.747 150.614ZM273.086 151.118C273.194 151.378 273.062 151.674 272.792 151.778C272.129 152.033 271.462 152.277 270.793 152.51C270.519 152.605 270.217 152.468 270.118 152.204C270.02 151.941 270.161 151.65 270.435 151.554C271.094 151.326 271.75 151.086 272.403 150.834C272.672 150.731 272.978 150.858 273.086 151.118ZM232.655 152.881C232.744 152.614 233.04 152.466 233.317 152.552C233.983 152.758 234.653 152.951 235.325 153.131C235.606 153.206 235.77 153.486 235.692 153.756C235.614 154.026 235.324 154.185 235.044 154.11C234.359 153.926 233.676 153.729 232.996 153.518C232.719 153.433 232.566 153.147 232.655 152.881ZM267.087 153.15C267.167 153.419 267.006 153.701 266.726 153.778C266.04 153.967 265.352 154.146 264.662 154.312C264.379 154.38 264.093 154.215 264.023 153.943C263.952 153.671 264.124 153.395 264.406 153.327C265.085 153.163 265.761 152.988 266.436 152.802C266.715 152.725 267.007 152.88 267.087 153.15ZM308.183 153.822C308.433 153.679 308.756 153.759 308.904 154C309.265 154.587 309.621 155.175 309.971 155.763C310.116 156.006 310.029 156.317 309.778 156.456C309.526 156.596 309.204 156.513 309.058 156.27C308.71 155.686 308.356 155.102 307.998 154.518C307.85 154.276 307.932 153.965 308.183 153.822ZM238.794 154.463C238.849 154.189 239.126 154.009 239.412 154.063C240.099 154.193 240.789 154.31 241.48 154.414C241.767 154.457 241.964 154.717 241.919 154.994C241.874 155.27 241.605 155.46 241.317 155.417C240.613 155.311 239.91 155.192 239.209 155.059C238.924 155.006 238.738 154.738 238.794 154.463ZM260.907 154.586C260.957 154.862 260.766 155.126 260.48 155.174C259.778 155.295 259.075 155.403 258.37 155.499C258.082 155.539 257.816 155.346 257.775 155.068C257.734 154.79 257.934 154.534 258.222 154.494C258.914 154.4 259.606 154.294 260.296 154.175C260.582 154.126 260.855 154.31 260.907 154.586ZM61.8116 154.215C62.1002 154.249 62.3058 154.502 62.2707 154.78C62.1865 155.449 62.1099 156.118 62.041 156.789C62.0123 157.067 61.7545 157.271 61.4651 157.243C61.1758 157.216 60.9645 156.967 60.9931 156.688C61.0628 156.01 61.1403 155.334 61.2254 154.658C61.2605 154.379 61.523 154.181 61.8116 154.215ZM245.084 155.351C245.106 155.072 245.36 154.863 245.649 154.886C246.347 154.938 247.046 154.979 247.745 155.006C248.036 155.018 248.262 155.254 248.25 155.534C248.238 155.814 247.993 156.033 247.702 156.021C246.99 155.993 246.278 155.951 245.566 155.898C245.277 155.875 245.06 155.631 245.084 155.351ZM254.606 155.391C254.626 155.67 254.407 155.913 254.117 155.932C253.405 155.98 252.693 156.015 251.98 156.038C251.689 156.047 251.445 155.827 251.436 155.547C251.426 155.267 251.655 155.032 251.945 155.023C252.645 155.001 253.345 154.966 254.044 154.92C254.335 154.9 254.586 155.111 254.606 155.391ZM311.336 159.151C311.592 159.018 311.911 159.11 312.049 159.358C312.384 159.957 312.714 160.557 313.037 161.157C313.171 161.406 313.07 161.712 312.812 161.842C312.554 161.97 312.237 161.874 312.103 161.625C311.782 161.03 311.455 160.434 311.122 159.839C310.984 159.592 311.08 159.285 311.336 159.151ZM61.2232 160.284C61.5135 160.299 61.7361 160.539 61.7203 160.818C61.6823 161.491 61.6521 162.165 61.6296 162.838C61.6203 163.118 61.3772 163.338 61.0865 163.329C60.7959 163.32 60.5679 163.086 60.5773 162.806C60.5999 162.125 60.6304 161.444 60.6689 160.763C60.6846 160.484 60.9328 160.269 61.2232 160.284ZM314.237 164.594C314.499 164.473 314.814 164.58 314.939 164.833C315.246 165.453 315.547 166.074 315.839 166.694C315.96 166.949 315.844 167.25 315.579 167.366C315.314 167.482 315.001 167.37 314.881 167.114C314.591 166.5 314.294 165.885 313.989 165.27C313.864 165.018 313.975 164.714 314.237 164.594ZM61.0555 166.378C61.3462 166.375 61.5849 166.599 61.5885 166.879C61.5973 167.553 61.6138 168.226 61.6382 168.9C61.6483 169.18 61.421 169.415 61.1305 169.425C60.8399 169.434 60.5961 169.215 60.5859 168.935C60.5612 168.254 60.5445 167.573 60.5357 166.892C60.532 166.612 60.7648 166.382 61.0555 166.378ZM316.829 170.158C317.099 170.053 317.406 170.178 317.516 170.438C317.788 171.08 318.051 171.722 318.305 172.365C318.409 172.627 318.272 172.92 318.001 173.02C317.729 173.12 317.425 172.989 317.321 172.727C317.07 172.092 316.809 171.456 316.541 170.82C316.431 170.561 316.561 170.265 316.829 170.158ZM61.3119 172.471C61.6017 172.449 61.8555 172.658 61.8786 172.937C61.9342 173.607 61.9977 174.278 62.0691 174.947C62.0987 175.226 61.8883 175.475 61.5991 175.504C61.3098 175.533 61.0512 175.33 61.0215 175.051C60.9494 174.374 60.8853 173.696 60.829 173.018C60.8059 172.738 61.022 172.494 61.3119 172.471ZM319.058 175.894C319.335 175.807 319.632 175.952 319.722 176.219C319.944 176.873 320.155 177.526 320.357 178.179C320.44 178.448 320.281 178.73 320.003 178.81C319.724 178.89 319.431 178.738 319.348 178.469C319.15 177.824 318.94 177.179 318.721 176.534C318.631 176.268 318.782 175.981 319.058 175.894ZM61.9931 178.531C62.2807 178.49 62.5485 178.681 62.5912 178.958C62.6939 179.625 62.8045 180.29 62.9229 180.955C62.9721 181.232 62.7798 181.494 62.4932 181.542C62.2066 181.589 61.9344 181.403 61.8852 181.127C61.7653 180.455 61.6536 179.782 61.5497 179.107C61.507 178.83 61.7055 178.572 61.9931 178.531ZM320.825 181.784C321.108 181.72 321.392 181.89 321.458 182.162C321.619 182.826 321.769 183.488 321.907 184.15C321.965 184.426 321.78 184.694 321.495 184.749C321.21 184.804 320.933 184.626 320.875 184.351C320.739 183.699 320.592 183.047 320.432 182.394C320.366 182.121 320.542 181.848 320.825 181.784ZM63.0984 184.531C63.3824 184.471 63.6631 184.645 63.7252 184.918C63.8747 185.577 64.032 186.234 64.1972 186.89C64.2658 187.162 64.0924 187.437 63.8099 187.503C63.5273 187.569 63.2426 187.402 63.174 187.13C63.0069 186.466 62.8478 185.802 62.6966 185.135C62.6345 184.862 62.8143 184.591 63.0984 184.531ZM322.019 187.79C322.308 187.754 322.572 187.951 322.609 188.229C322.7 188.91 322.778 189.589 322.843 190.268C322.869 190.547 322.656 190.794 322.367 190.82C322.077 190.846 321.821 190.64 321.795 190.361C321.731 189.694 321.655 189.027 321.565 188.359C321.528 188.082 321.731 187.826 322.019 187.79ZM64.625 190.446C64.9042 190.367 65.1964 190.522 65.2778 190.791C65.4733 191.437 65.6765 192.082 65.8875 192.725C65.9752 192.992 65.8216 193.277 65.5444 193.362C65.2672 193.446 64.9714 193.298 64.8836 193.031C64.6702 192.381 64.4646 191.729 64.267 191.075C64.1856 190.806 64.3459 190.525 64.625 190.446ZM322.532 193.877C322.823 193.874 323.061 194.098 323.064 194.378C323.072 195.066 323.065 195.754 323.043 196.44C323.033 196.72 322.791 196.94 322.499 196.931C322.209 196.922 321.981 196.688 321.99 196.408C322.012 195.737 322.019 195.064 322.011 194.39C322.008 194.11 322.241 193.88 322.532 193.877ZM66.5689 196.251C66.8418 196.154 67.1444 196.289 67.2447 196.552C67.4847 197.182 67.7326 197.81 67.9882 198.436C68.0946 198.697 67.9617 198.991 67.6911 199.094C67.4206 199.197 67.1149 199.069 67.0084 198.808C66.7499 198.174 66.4992 197.539 66.2563 196.902C66.1561 196.639 66.296 196.348 66.5689 196.251ZM322.26 199.977C322.549 200.01 322.755 200.263 322.719 200.542C322.634 201.222 322.532 201.902 322.414 202.58C322.365 202.856 322.094 203.042 321.807 202.996C321.52 202.95 321.327 202.688 321.375 202.411C321.491 201.749 321.591 201.085 321.675 200.419C321.709 200.141 321.972 199.943 322.26 199.977ZM68.9194 201.912C69.1848 201.798 69.4962 201.912 69.615 202.168C69.8996 202.781 70.1918 203.392 70.4918 204.001C70.6165 204.254 70.5048 204.557 70.2421 204.677C69.9795 204.798 69.6655 204.69 69.5407 204.437C69.2373 203.821 68.9417 203.202 68.6538 202.582C68.5351 202.326 68.654 202.026 68.9194 201.912ZM321.131 205.998C321.412 206.071 321.579 206.349 321.504 206.62C321.323 207.274 321.125 207.927 320.91 208.578C320.822 208.846 320.527 208.994 320.25 208.909C319.973 208.824 319.819 208.538 319.907 208.271C320.116 207.634 320.31 206.997 320.486 206.358C320.562 206.087 320.85 205.926 321.131 205.998ZM71.6613 207.396C71.918 207.265 72.2368 207.358 72.3733 207.606C72.7022 208.202 73.0388 208.796 73.3829 209.386C73.5253 209.631 73.4352 209.941 73.1816 210.078C72.9281 210.215 72.6072 210.128 72.4649 209.884C72.1167 209.286 71.7763 208.686 71.4437 208.082C71.3072 207.835 71.4046 207.528 71.6613 207.396ZM319.139 211.803C319.406 211.913 319.531 212.21 319.418 212.469C319.145 213.092 318.854 213.713 318.547 214.333C318.422 214.586 318.108 214.694 317.845 214.573C317.583 214.452 317.472 214.149 317.597 213.896C317.897 213.29 318.181 212.682 318.448 212.073C318.562 211.814 318.871 211.694 319.139 211.803ZM74.786 212.693C75.0328 212.544 75.3574 212.618 75.5111 212.855C75.8796 213.426 76.2556 213.994 76.639 214.56C76.7981 214.794 76.7298 215.109 76.4865 215.262C76.2431 215.416 75.9169 215.35 75.7577 215.115C75.37 214.543 74.9898 213.969 74.6171 213.391C74.4635 213.154 74.5391 212.841 74.786 212.693ZM316.363 217.259C316.615 217.402 316.698 217.712 316.551 217.954C316.186 218.554 315.803 219.153 315.404 219.75C315.246 219.986 314.92 220.054 314.676 219.902C314.431 219.75 314.362 219.435 314.518 219.2C314.91 218.614 315.285 218.028 315.643 217.44C315.791 217.198 316.112 217.118 316.363 217.259ZM78.2807 217.782C78.5167 217.619 78.8457 217.67 79.0155 217.898C79.4205 218.441 79.8327 218.981 80.2523 219.518C80.4272 219.741 80.3808 220.059 80.1486 220.228C79.9164 220.397 79.5863 220.352 79.4113 220.128C78.9872 219.586 78.5704 219.04 78.1609 218.491C77.991 218.264 78.0446 217.946 78.2807 217.782ZM312.9 222.347C313.131 222.517 313.178 222.835 313.002 223.058C312.575 223.602 312.134 224.144 311.677 224.684C311.494 224.902 311.162 224.934 310.937 224.758C310.711 224.581 310.677 224.261 310.861 224.043C311.31 223.512 311.743 222.98 312.162 222.446C312.338 222.222 312.668 222.178 312.9 222.347ZM82.1151 222.632C82.3393 222.454 82.6712 222.484 82.8562 222.7C83.2999 223.218 83.7505 223.734 84.2085 224.246C84.3985 224.458 84.3736 224.778 84.1538 224.962C83.933 225.145 83.6011 225.121 83.4111 224.909C82.9482 224.391 82.4925 223.87 82.044 223.346C81.859 223.13 81.8908 222.81 82.1151 222.632ZM308.825 227.091C309.039 227.282 309.05 227.603 308.852 227.808C308.386 228.29 307.908 228.771 307.416 229.251C307.212 229.45 306.879 229.453 306.672 229.255C306.465 229.058 306.463 228.737 306.667 228.538C307.152 228.065 307.623 227.591 308.081 227.117C308.279 226.911 308.613 226.9 308.825 227.091ZM86.2589 227.216C86.4705 227.024 86.8041 227.034 87.0032 227.238C87.4829 227.73 87.9691 228.219 88.4628 228.704C88.667 228.905 88.6636 229.226 88.4554 229.422C88.2479 229.618 87.9152 229.615 87.7111 229.415C87.2124 228.925 86.7203 228.43 86.2357 227.934C86.0365 227.729 86.0465 227.408 86.2589 227.216ZM304.349 231.394C304.544 231.602 304.528 231.923 304.312 232.111C303.771 232.584 303.216 233.054 302.648 233.523C302.428 233.706 302.095 233.681 301.906 233.468C301.716 233.255 301.742 232.935 301.963 232.753C302.524 232.29 303.072 231.825 303.606 231.358C303.822 231.17 304.154 231.186 304.349 231.394ZM90.7107 231.547C90.9091 231.343 91.2426 231.333 91.455 231.525C91.9612 231.982 92.4749 232.437 92.9943 232.888C93.2109 233.076 93.2283 233.397 93.0333 233.605C92.8391 233.814 92.5064 233.83 92.2898 233.642C91.7646 233.187 91.2459 232.728 90.7348 232.265C90.5224 232.073 90.5116 231.752 90.7107 231.547ZM299.558 235.318C299.737 235.539 299.697 235.858 299.468 236.03C298.916 236.446 298.353 236.861 297.779 237.274C297.546 237.441 297.216 237.395 297.042 237.17C296.868 236.946 296.916 236.628 297.149 236.46C297.717 236.051 298.274 235.642 298.82 235.23C299.049 235.058 299.379 235.098 299.558 235.318ZM95.4521 235.618C95.638 235.402 95.9699 235.373 96.194 235.551C96.7242 235.975 97.2619 236.396 97.8054 236.813C98.0328 236.987 98.0701 237.306 97.8892 237.526C97.7083 237.745 97.3772 237.782 97.1491 237.607C96.6006 237.186 96.0579 236.762 95.5218 236.333C95.2978 236.154 95.2671 235.834 95.4521 235.618ZM294.34 239.031C294.504 239.262 294.443 239.578 294.203 239.737C293.645 240.104 293.078 240.471 292.502 240.837C292.259 240.991 291.932 240.926 291.773 240.692C291.613 240.458 291.68 240.143 291.923 239.989C292.494 239.626 293.055 239.263 293.608 238.898C293.848 238.741 294.175 238.8 294.34 239.031ZM100.394 239.37C100.565 239.144 100.896 239.095 101.13 239.262C101.696 239.662 102.27 240.059 102.849 240.453C103.086 240.614 103.143 240.93 102.976 241.16C102.808 241.389 102.48 241.444 102.242 241.282C101.657 240.886 101.079 240.485 100.506 240.08C100.272 239.914 100.222 239.597 100.394 239.37ZM289.165 242.286C289.317 242.526 289.239 242.838 288.991 242.984C288.388 243.34 287.775 243.695 287.153 244.049C286.903 244.191 286.58 244.111 286.433 243.87C286.285 243.628 286.368 243.317 286.619 243.174C287.235 242.823 287.843 242.471 288.442 242.118C288.69 241.972 289.014 242.047 289.165 242.286ZM105.58 242.858C105.738 242.622 106.064 242.556 106.307 242.708C106.89 243.073 107.478 243.434 108.072 243.79C108.319 243.939 108.393 244.252 108.24 244.49C108.086 244.728 107.761 244.8 107.515 244.652C106.916 244.292 106.322 243.927 105.734 243.56C105.49 243.407 105.421 243.093 105.58 242.858ZM283.531 245.462C283.671 245.708 283.578 246.016 283.323 246.151C282.739 246.461 282.148 246.77 281.549 247.078C281.292 247.21 280.973 247.117 280.836 246.869C280.7 246.622 280.797 246.314 281.053 246.182C281.648 245.876 282.236 245.57 282.816 245.262C283.071 245.126 283.391 245.217 283.531 245.462ZM110.987 246.075C111.133 245.832 111.454 245.748 111.706 245.887C112.305 246.219 112.91 246.546 113.52 246.87C113.775 247.006 113.867 247.314 113.727 247.56C113.586 247.806 113.266 247.895 113.012 247.76C112.396 247.433 111.787 247.102 111.182 246.768C110.93 246.628 110.843 246.318 110.987 246.075ZM278.097 248.235C278.228 248.486 278.122 248.79 277.863 248.916C277.234 249.221 276.596 249.525 275.952 249.827C275.69 249.95 275.375 249.846 275.248 249.594C275.12 249.342 275.229 249.038 275.49 248.914C276.132 248.614 276.765 248.312 277.39 248.009C277.65 247.883 277.966 247.984 278.097 248.235ZM116.501 248.974C116.632 248.724 116.949 248.624 117.208 248.751C117.835 249.057 118.465 249.359 119.103 249.658C119.364 249.78 119.474 250.083 119.346 250.336C119.219 250.588 118.904 250.693 118.642 250.57C118.001 250.27 117.363 249.965 116.733 249.657C116.473 249.53 116.369 249.224 116.501 248.974ZM272.249 250.96C272.37 251.215 272.255 251.516 271.99 251.634C271.825 251.706 271.66 251.779 271.495 251.852C271.321 251.929 271.145 252.005 270.97 252.082C270.653 252.22 270.336 252.357 270.016 252.494C269.751 252.606 269.439 252.491 269.322 252.234C269.205 251.978 269.324 251.678 269.59 251.565C269.907 251.43 270.222 251.294 270.536 251.157C270.877 251.008 271.214 250.86 271.55 250.711C271.815 250.594 272.128 250.706 272.249 250.96ZM122.218 251.624C122.336 251.368 122.647 251.254 122.912 251.367C123.542 251.638 124.177 251.905 124.817 252.169C125.085 252.278 125.208 252.577 125.095 252.834C124.98 253.093 124.671 253.212 124.403 253.102C123.759 252.837 123.119 252.567 122.484 252.294C122.219 252.181 122.099 251.881 122.218 251.624ZM266.44 253.409C266.548 253.669 266.418 253.965 266.149 254.07C265.501 254.322 264.849 254.57 264.194 254.814C263.922 254.914 263.618 254.784 263.513 254.522C263.409 254.261 263.543 253.967 263.814 253.866C264.465 253.625 265.112 253.378 265.754 253.128C266.024 253.023 266.331 253.149 266.44 253.409ZM128.035 253.993C128.142 253.731 128.447 253.602 128.717 253.704C129.378 253.953 130.043 254.197 130.714 254.438C130.986 254.536 131.125 254.828 131.023 255.091C130.921 255.354 130.619 255.487 130.346 255.39C129.671 255.146 129 254.9 128.335 254.65C128.064 254.548 127.93 254.254 128.035 253.993ZM260.575 255.566C260.672 255.83 260.528 256.119 260.253 256.213C259.596 256.435 258.935 256.654 258.271 256.868C257.996 256.958 257.698 256.814 257.605 256.549C257.513 256.283 257.661 255.995 257.937 255.906C258.596 255.693 259.251 255.476 259.904 255.254C260.178 255.162 260.479 255.301 260.575 255.566ZM133.953 256.096C134.046 255.83 134.346 255.688 134.621 255.778C135.279 255.994 135.942 256.206 136.609 256.414C136.885 256.5 137.037 256.786 136.947 257.053C136.858 257.319 136.561 257.466 136.284 257.379C135.612 257.17 134.945 256.957 134.283 256.74C134.007 256.65 133.86 256.362 133.953 256.096ZM254.624 257.468C254.709 257.736 254.552 258.02 254.274 258.102C253.605 258.298 252.934 258.49 252.26 258.679C251.98 258.758 251.688 258.603 251.606 258.334C251.526 258.065 251.686 257.783 251.966 257.705C252.635 257.517 253.303 257.326 253.967 257.13C254.245 257.049 254.54 257.2 254.624 257.468ZM140.014 257.962C140.096 257.694 140.388 257.539 140.667 257.618C141.01 257.714 141.354 257.81 141.7 257.905C142.031 257.996 142.363 258.086 142.697 258.176C142.977 258.25 143.141 258.53 143.064 258.801C142.986 259.07 142.695 259.229 142.416 259.154C142.08 259.064 141.745 258.973 141.411 258.882C141.063 258.786 140.717 258.69 140.372 258.592C140.092 258.514 139.932 258.232 140.014 257.962ZM248.591 259.138C248.665 259.409 248.496 259.686 248.215 259.758C247.541 259.928 246.865 260.095 246.186 260.258C245.904 260.326 245.619 260.161 245.548 259.889C245.478 259.617 245.649 259.341 245.932 259.274C246.606 259.111 247.278 258.945 247.948 258.775C248.229 258.704 248.517 258.866 248.591 259.138ZM146.089 259.57C146.16 259.298 146.445 259.133 146.727 259.201C147.4 259.363 148.076 259.522 148.757 259.678C149.039 259.742 149.214 260.016 149.147 260.289C149.08 260.562 148.796 260.73 148.513 260.666C147.829 260.509 147.149 260.349 146.472 260.186C146.189 260.118 146.018 259.842 146.089 259.57ZM242.503 260.584C242.567 260.858 242.388 261.129 242.105 261.19C241.423 261.338 240.739 261.482 240.053 261.622C239.768 261.68 239.489 261.505 239.429 261.23C239.368 260.956 239.55 260.686 239.834 260.629C240.516 260.489 241.196 260.346 241.874 260.2C242.158 260.138 242.439 260.31 242.503 260.584ZM152.202 260.951C152.262 260.677 152.542 260.502 152.826 260.56C153.502 260.698 154.181 260.834 154.863 260.966C155.148 261.022 155.333 261.289 155.276 261.564C155.218 261.838 154.941 262.017 154.656 261.962C153.97 261.829 153.287 261.693 152.607 261.553C152.322 261.495 152.142 261.226 152.202 260.951ZM236.36 261.822C236.414 262.098 236.226 262.363 235.94 262.415C235.255 262.54 234.568 262.661 233.879 262.779C233.593 262.828 233.32 262.644 233.269 262.368C233.218 262.091 233.409 261.828 233.696 261.779C234.38 261.662 235.064 261.542 235.745 261.418C236.031 261.366 236.306 261.547 236.36 261.822ZM158.351 262.125C158.401 261.849 158.675 261.665 158.962 261.714C159.645 261.831 160.332 261.946 161.021 262.057C161.307 262.102 161.502 262.364 161.453 262.641C161.405 262.917 161.134 263.104 160.848 263.058C160.155 262.946 159.464 262.831 158.777 262.714C158.491 262.664 158.3 262.401 158.351 262.125ZM230.181 262.862C230.226 263.139 230.03 263.398 229.742 263.442C229.052 263.545 228.36 263.645 227.667 263.742C227.379 263.782 227.112 263.589 227.07 263.311C227.029 263.034 227.228 262.777 227.516 262.737C228.206 262.641 228.894 262.541 229.581 262.438C229.868 262.395 230.137 262.585 230.181 262.862ZM164.545 263.106C164.587 262.829 164.854 262.637 165.142 262.677C165.827 262.774 166.515 262.866 167.205 262.956C167.493 262.994 167.694 263.25 167.655 263.527C167.616 263.805 167.352 264 167.064 263.962C166.37 263.872 165.679 263.778 164.99 263.682C164.702 263.641 164.503 263.383 164.545 263.106ZM223.969 263.712C224.004 263.99 223.799 264.244 223.511 264.278C222.818 264.361 222.125 264.44 221.43 264.516C221.141 264.547 220.88 264.347 220.848 264.069C220.815 263.79 221.022 263.538 221.312 263.507C222.002 263.431 222.693 263.353 223.381 263.27C223.67 263.236 223.933 263.434 223.969 263.712ZM170.761 263.902C170.794 263.623 171.056 263.423 171.344 263.455C172.035 263.532 172.727 263.605 173.42 263.675C173.709 263.705 173.919 263.954 173.889 264.233C173.859 264.512 173.599 264.714 173.31 264.685C172.613 264.614 171.918 264.541 171.224 264.464C170.935 264.432 170.728 264.18 170.761 263.902ZM217.735 264.379C217.762 264.658 217.549 264.906 217.259 264.931C216.564 264.994 215.867 265.054 215.17 265.11C214.88 265.133 214.626 264.926 214.601 264.646C214.577 264.367 214.793 264.122 215.083 264.098C215.776 264.042 216.469 263.983 217.161 263.921C217.451 263.894 217.707 264.1 217.735 264.379ZM177.004 264.519C177.029 264.24 177.284 264.033 177.574 264.057C178.265 264.114 178.958 264.168 179.651 264.218C179.941 264.24 180.158 264.483 180.136 264.763C180.115 265.042 179.861 265.252 179.572 265.23C178.874 265.18 178.179 265.126 177.484 265.068C177.194 265.044 176.98 264.798 177.004 264.519ZM211.48 264.869C211.5 265.149 211.28 265.39 210.989 265.408C210.292 265.451 209.594 265.491 208.897 265.528C208.607 265.543 208.359 265.329 208.342 265.049C208.326 264.769 208.549 264.53 208.839 264.514C209.534 264.478 210.227 264.438 210.921 264.394C211.212 264.377 211.462 264.589 211.48 264.869ZM183.259 264.963C183.276 264.683 183.525 264.47 183.815 264.486C184.509 264.523 185.204 264.558 185.9 264.59C186.19 264.604 186.414 264.842 186.401 265.122C186.387 265.402 186.14 265.618 185.85 265.605C185.15 265.573 184.452 265.538 183.755 265.499C183.464 265.483 183.243 265.243 183.259 264.963ZM205.216 265.186C205.226 265.466 204.999 265.701 204.709 265.711C204.011 265.735 203.312 265.756 202.614 265.774C202.323 265.782 202.081 265.561 202.073 265.28C202.066 265 202.296 264.767 202.586 264.759C203.281 264.742 203.976 264.721 204.671 264.697C204.962 264.686 205.206 264.906 205.216 265.186ZM189.528 265.238C189.537 264.957 189.779 264.737 190.069 264.745C190.764 264.764 191.459 264.78 192.154 264.794C192.445 264.799 192.676 265.031 192.67 265.311C192.664 265.591 192.424 265.814 192.133 265.809C191.434 265.795 190.737 265.779 190.039 265.759C189.748 265.751 189.519 265.518 189.528 265.238ZM198.945 265.333C198.947 265.613 198.713 265.842 198.422 265.844C197.723 265.85 197.024 265.852 196.325 265.851C196.035 265.85 195.799 265.623 195.8 265.343C195.8 265.062 196.036 264.835 196.327 264.836C197.022 264.837 197.718 264.834 198.414 264.829C198.705 264.827 198.942 265.052 198.945 265.333Z" fill="#37A9EF"/>
<path d="M248.517 62.8165C248.943 60.6116 251.141 59.1564 253.428 59.5662L298.797 67.6947C301.084 68.1045 302.594 70.2241 302.168 72.4289L293.737 116.169C293.312 118.374 291.114 119.83 288.827 119.419L243.458 111.291C241.171 110.881 239.662 108.762 240.087 106.557L248.517 62.8165Z" fill="#37A9EF"/>
<path fill-rule="evenodd" clip-rule="evenodd" d="M272.064 74.3071C272.202 73.5881 273.06 73.242 273.688 73.6515L283.945 80.3352C284.293 80.5616 284.468 80.9648 284.391 81.3616L283.281 87.1184C283.143 87.8376 282.285 88.1832 281.657 87.7736L273.108 82.2032L269.792 99.4088L269.777 99.4064C269.762 99.5392 269.741 99.672 269.715 99.8056C269.081 103.092 265.791 105.258 262.366 104.645C258.941 104.03 256.678 100.87 257.311 97.5832C257.945 94.2968 261.235 92.1304 264.66 92.744C266.056 92.9944 267.259 93.668 268.152 94.6008L272.064 74.3071ZM274.802 77.3013C274.487 77.0966 274.059 77.2696 273.989 77.6291L273.609 79.6053L280.543 84.124C280.858 84.3288 281.287 84.156 281.356 83.796L281.673 82.1472C281.712 81.9488 281.624 81.7472 281.451 81.6336L274.802 77.3013Z" fill="white"/>
<path d="M64.919 81.8679C64.7028 81.3471 64.9652 80.7567 65.505 80.5479L136.559 53.1108C137.099 52.9024 137.713 53.1553 137.928 53.6758L175.472 144.048C175.688 144.569 175.426 145.159 174.886 145.368L103.832 172.805C103.291 173.014 102.679 172.761 102.462 172.24L64.919 81.8679Z" fill="white"/>
<path d="M69.6555 82.653L69.6558 82.6528L135.04 57.4053L135.04 57.4052C135.337 57.2903 135.659 57.4364 135.767 57.6957C135.767 57.6958 135.767 57.6958 135.767 57.6959L171.039 142.601L171.039 142.601C171.143 142.85 171.025 143.15 170.735 143.262C170.735 143.262 170.735 143.262 170.735 143.262L105.351 168.51L105.351 168.51C105.052 168.625 104.731 168.479 104.623 168.219L69.3515 83.3147C69.3515 83.3147 69.3515 83.3146 69.3514 83.3146C69.2479 83.0648 69.3664 82.7643 69.6555 82.653Z" fill="#37A9EF" fill-opacity="0.07" stroke="#37A9EF"/>
<path d="M171.893 143.352L152.91 97.6568C120.136 136.572 111.241 68.633 81.0322 112.734L104.554 169.354L171.893 143.352Z" fill="#37A9EF" fill-opacity="0.14"/>
<path d="M171.893 143.353L157.836 109.516C129.815 142.056 112.274 89.9312 86.459 125.799L104.554 169.355L171.893 143.353Z" fill="#37A9EF" fill-opacity="0.56"/>
<path d="M136.695 72.4873C138.655 77.2051 136.277 82.5614 131.383 84.451C126.49 86.3406 120.934 84.0478 118.974 79.33C117.014 74.6122 119.392 69.2559 124.285 67.3663C129.179 65.4767 134.735 67.7695 136.695 72.4873Z" fill="#37A9EF" fill-opacity="0.18"/>
<path d="M133.151 73.8563C134.327 76.6869 132.9 79.9007 129.964 81.0342C127.028 82.1686 123.694 80.7926 122.518 77.9619C121.343 75.1312 122.769 71.9175 125.706 70.7837C128.641 69.6499 131.975 71.0256 133.151 73.8563Z" fill="#37A9EF" fill-opacity="0.48"/>
<path d="M78.5642 199.807C79.1314 197.633 81.42 196.313 83.6763 196.86L126.565 207.256C128.821 207.802 130.19 210.009 129.622 212.184L118.839 253.534C118.273 255.708 115.984 257.028 113.728 256.482L70.8386 246.086C68.5828 245.538 67.2138 243.332 67.7809 241.157L78.5642 199.807Z" fill="#37A9EF"/>
<path fill-rule="evenodd" clip-rule="evenodd" d="M93.3667 244.278C103.393 246.709 113.565 240.842 116.085 231.176C118.606 221.509 112.522 211.703 102.496 209.273C92.4697 206.842 82.2978 212.709 79.7769 222.375C77.256 232.041 83.3404 241.848 93.3667 244.278ZM92.8531 246.247C104.008 248.951 115.324 242.425 118.128 231.671C120.932 220.917 114.164 210.008 103.009 207.304C91.8548 204.6 80.539 211.125 77.7346 221.88C74.9302 232.633 81.6991 243.543 92.8531 246.247Z" fill="white"/>
<path fill-rule="evenodd" clip-rule="evenodd" d="M93.1268 218.945C93.5325 217.386 95.5655 216.879 96.7056 218.051L105.798 227.401C106.861 228.496 106.369 230.287 104.882 230.729L92.3816 234.449C90.8125 234.916 89.318 233.549 89.718 232.013L93.1268 218.945ZM104.261 228.789L95.1689 219.439L91.7609 232.509L104.261 228.789Z" fill="white"/>
<path d="M179.595 174.653L179.595 174.653L148.741 213.48C148.741 213.48 148.741 213.48 148.741 213.48C148.567 213.701 148.605 214.015 148.843 214.19C148.843 214.19 148.843 214.19 148.843 214.19L189.528 244.241L179.595 174.653ZM179.595 174.653C179.778 174.422 180.133 174.372 180.383 174.556M179.595 174.653L180.383 174.556M190.316 244.144L190.316 244.144L221.17 205.317L190.316 244.144ZM190.316 244.144C190.133 244.375 189.778 244.425 189.529 244.242L190.316 244.144ZM180.383 174.556L180.383 174.556M180.383 174.556L180.383 174.556M180.383 174.556L221.069 204.607C221.306 204.782 221.345 205.097 221.17 205.317L180.383 174.556Z" fill="#D5EAF7" stroke="#37A9EF"/>
<path fill-rule="evenodd" clip-rule="evenodd" d="M183.5 200.49C183.558 201.049 183.137 201.546 182.558 201.603L174.358 202.406L175.843 210.222C175.948 210.774 175.569 211.302 174.997 211.403C174.424 211.504 173.876 211.139 173.771 210.587L172.287 202.771C172.065 201.606 172.923 200.506 174.146 200.386L182.346 199.583C182.924 199.526 183.441 199.933 183.5 200.49Z" fill="#37A9EF"/>
<path fill-rule="evenodd" clip-rule="evenodd" d="M194.984 208.807C194.413 208.908 194.033 209.438 194.139 209.989L195.623 217.805L187.423 218.607C186.844 218.664 186.423 219.162 186.481 219.72C186.54 220.278 187.057 220.684 187.636 220.627L195.836 219.825C197.059 219.705 197.916 218.605 197.694 217.439L196.21 209.623C196.105 209.071 195.557 208.706 194.984 208.807Z" fill="#37A9EF"/>
<path fill-rule="evenodd" clip-rule="evenodd" d="M195.837 202.69C196.164 203.153 196.04 203.785 195.559 204.1L175.183 217.481C174.703 217.797 174.048 217.677 173.72 217.214C173.393 216.75 173.517 216.118 173.998 215.803L194.374 202.422C194.854 202.106 195.51 202.226 195.837 202.69Z" fill="#37A9EF"/>
<path d="M242.119 262.88L328.733 250.273C329.308 250.19 329.704 249.672 329.617 249.118L242.119 262.88ZM242.119 262.88C241.544 262.964 241.008 262.582 240.92 262.028L242.119 262.88ZM287.347 142.328L287.347 142.328C287.23 142.244 287.078 142.207 286.927 142.228C286.927 142.229 286.927 142.229 286.927 142.229L224.64 151.295L287.347 142.328ZM287.347 142.328L315.35 162.261L315.35 162.261M287.347 142.328L315.35 162.261M315.35 162.261C315.468 162.345 315.542 162.466 315.562 162.596L315.562 162.597M315.35 162.261L315.562 162.597M315.562 162.597L329.123 249.195L329.123 249.195M315.562 162.597L329.123 249.195M329.123 249.195C329.165 249.458 328.978 249.732 328.662 249.778L328.661 249.778M329.123 249.195L328.661 249.778M328.661 249.778L242.047 262.385L242.046 262.385M328.661 249.778L242.046 262.385M242.046 262.385C241.727 262.432 241.457 262.219 241.414 261.951L242.046 262.385ZM224.177 151.878C224.177 151.878 224.177 151.878 224.177 151.878L241.414 261.95L224.177 151.878ZM224.177 151.878C224.136 151.615 224.323 151.341 224.64 151.295L224.177 151.878Z" fill="white" stroke="#37A9EF"/>
<path d="M316.043 162.097L287.282 141.643L290.898 164.73C290.984 165.284 291.521 165.666 292.096 165.582L316.043 162.097Z" fill="#37A9EF"/>
<path d="M232.946 161.871L257.197 158.342L257.354 159.346L233.104 162.875L232.946 161.871Z" fill="#37A9EF"/>
<path d="M234.675 172.914L286.733 165.336L286.89 166.34L234.833 173.917L234.675 172.914Z" fill="#37A9EF"/>
<path d="M236.404 183.954L309.285 173.346L309.442 174.35L236.561 184.958L236.404 183.954Z" fill="#37A9EF"/>
<path d="M238.134 194.997L311.015 184.389L311.172 185.392L238.292 196L238.134 194.997Z" fill="#37A9EF"/>
<path d="M239.863 206.037L312.744 195.429L312.901 196.433L240.02 207.041L239.863 206.037Z" fill="#37A9EF"/>
<path d="M241.592 217.079L314.473 206.471L314.63 207.475L241.749 218.083L241.592 217.079Z" fill="#37A9EF"/>
<path d="M243.32 228.121L316.201 217.513L316.358 218.517L243.478 229.125L243.32 228.121Z" fill="#37A9EF"/>
<path d="M245.05 239.163L317.931 228.555L318.088 229.559L245.208 240.167L245.05 239.163Z" fill="#37A9EF"/>
<path d="M246.779 250.204L319.66 239.596L319.817 240.6L246.936 251.208L246.779 250.204Z" fill="#37A9EF"/>
<path fill-rule="evenodd" clip-rule="evenodd" d="M288.226 142.778C288.4 143.003 288.352 143.322 288.119 143.489C287.829 143.697 287.537 143.903 287.245 144.106C287.009 144.27 286.68 144.219 286.51 143.991C286.34 143.764 286.393 143.447 286.629 143.283C286.918 143.082 287.204 142.88 287.49 142.674C287.723 142.507 288.053 142.554 288.226 142.778ZM283.821 145.74C283.976 145.977 283.902 146.29 283.657 146.44C283.044 146.811 282.428 147.173 281.806 147.524C281.556 147.666 281.233 147.584 281.086 147.342C280.939 147.101 281.023 146.79 281.273 146.648C281.885 146.302 282.492 145.946 283.095 145.581C283.341 145.431 283.666 145.502 283.821 145.74ZM278.237 148.836C278.367 149.086 278.263 149.392 278.003 149.518C277.357 149.831 276.707 150.134 276.053 150.425C275.789 150.542 275.477 150.432 275.355 150.178C275.232 149.923 275.347 149.622 275.611 149.503C276.254 149.217 276.894 148.919 277.53 148.61C277.79 148.485 278.106 148.586 278.237 148.836ZM226.457 150.482C226.58 150.228 226.892 150.117 227.156 150.235C227.479 150.379 227.803 150.52 228.127 150.657C228.394 150.77 228.515 151.069 228.398 151.326C228.281 151.582 227.97 151.699 227.704 151.586C227.373 151.446 227.043 151.303 226.714 151.156C226.45 151.038 226.335 150.737 226.457 150.482ZM272.368 151.396C272.472 151.658 272.337 151.951 272.065 152.052C271.391 152.302 270.712 152.542 270.031 152.769C269.757 152.861 269.457 152.72 269.362 152.455C269.266 152.19 269.412 151.902 269.686 151.81C270.356 151.586 271.023 151.35 271.688 151.105C271.959 151.004 272.264 151.134 272.368 151.396ZM231.416 152.468C231.511 152.203 231.811 152.063 232.086 152.155C232.757 152.38 233.431 152.592 234.108 152.79C234.386 152.871 234.544 153.155 234.459 153.423C234.375 153.691 234.081 153.842 233.803 153.762C233.113 153.559 232.425 153.344 231.74 153.114C231.465 153.022 231.32 152.733 231.416 152.468ZM266.263 153.378C266.34 153.649 266.174 153.928 265.893 154.002C265.195 154.185 264.495 154.356 263.793 154.515C263.51 154.579 263.227 154.41 263.161 154.137C263.094 153.864 263.269 153.591 263.552 153.526C264.243 153.37 264.931 153.202 265.617 153.022C265.897 152.949 266.187 153.108 266.263 153.378ZM237.597 154.212C237.659 153.938 237.94 153.766 238.224 153.826C238.917 153.972 239.613 154.105 240.31 154.225C240.596 154.274 240.787 154.538 240.736 154.814C240.685 155.09 240.411 155.274 240.125 155.225C239.415 155.102 238.705 154.966 237.998 154.817C237.715 154.757 237.534 154.486 237.597 154.212ZM259.979 154.746C260.026 155.022 259.831 155.282 259.544 155.327C258.829 155.439 258.114 155.538 257.399 155.624C257.11 155.659 256.847 155.462 256.81 155.184C256.775 154.906 256.979 154.652 257.268 154.617C257.971 154.532 258.673 154.435 259.375 154.326C259.662 154.281 259.933 154.469 259.979 154.746ZM243.949 155.243C243.978 154.964 244.235 154.761 244.525 154.789C245.231 154.856 245.938 154.91 246.646 154.952C246.936 154.97 247.157 155.21 247.139 155.49C247.122 155.77 246.872 155.982 246.582 155.966C245.861 155.923 245.14 155.867 244.42 155.798C244.131 155.771 243.92 155.522 243.949 155.243ZM253.58 155.459C253.595 155.739 253.372 155.978 253.081 155.993C252.359 156.029 251.638 156.052 250.916 156.062C250.624 156.066 250.385 155.842 250.381 155.562C250.377 155.282 250.609 155.051 250.9 155.046C251.609 155.037 252.318 155.014 253.027 154.979C253.318 154.964 253.565 155.179 253.58 155.459Z" fill="#37A9EF" fill-opacity="0.3"/>
<path fill-rule="evenodd" clip-rule="evenodd" d="M197.199 131.915C200.106 131.915 202.463 129.642 202.463 126.839C202.463 124.036 200.106 121.763 197.199 121.763C194.291 121.763 191.934 124.036 191.934 126.839C191.934 129.642 194.291 131.915 197.199 131.915ZM197.199 132.93C200.688 132.93 203.516 130.203 203.516 126.839C203.516 123.475 200.688 120.749 197.199 120.749C193.71 120.749 190.881 123.475 190.881 126.839C190.881 130.203 193.71 132.93 197.199 132.93Z" fill="#37A9EF"/>
<path fill-rule="evenodd" clip-rule="evenodd" d="M197.199 134.961C201.85 134.961 205.622 131.325 205.622 126.839C205.622 122.355 201.85 118.719 197.199 118.719C192.546 118.719 188.775 122.355 188.775 126.839C188.775 131.325 192.546 134.961 197.199 134.961ZM197.199 135.976C202.432 135.976 206.675 131.886 206.675 126.839C206.675 121.794 202.432 117.703 197.199 117.703C191.965 117.703 187.722 121.794 187.722 126.839C187.722 131.886 191.965 135.976 197.199 135.976Z" fill="#37A9EF" fill-opacity="0.2"/>
<path fill-rule="evenodd" clip-rule="evenodd" d="M197.199 138.006C203.596 138.006 208.781 133.006 208.781 126.839C208.781 120.672 203.596 115.673 197.199 115.673C190.802 115.673 185.617 120.672 185.617 126.839C185.617 133.006 190.802 138.006 197.199 138.006ZM197.199 139.021C204.178 139.021 209.834 133.567 209.834 126.839C209.834 120.111 204.178 114.658 197.199 114.658C190.221 114.658 184.564 120.111 184.564 126.839C184.564 133.567 190.221 139.021 197.199 139.021Z" fill="#37A9EF" fill-opacity="0.1"/>
<path d="M196.146 126.341L207.395 148.61L209.436 140.82L216.27 146.918L218.981 144.094L212.146 137.996L220.045 135.433L196.146 126.341Z" fill="#37A9EF"/>
</svg>
