<svg width="24" height="28" viewBox="0 0 24 28" fill="none" xmlns="http://www.w3.org/2000/svg">
<path d="M1.71427 0H17L24 7V26.25C24 27.2169 23.232 28 22.2857 28H1.71427C0.76796 28 0 27.2169 0 26.25V1.74998C0 0.783142 0.768048 0 1.71427 0Z" fill="#F17399"/>
<path d="M17 5V0L24 7H19C17.8954 7 17 6.10457 17 5Z" fill="#EA366C"/>
<path fill-rule="evenodd" clip-rule="evenodd" d="M9.34948 16.2058C9.4897 15.5047 10.1053 15 10.8203 15H11.0006V14H9.5006C9.22446 14 9.0006 13.7761 9.0006 13.5C9.0006 13.2239 9.22446 13 9.5006 13H11.0006V10H9.5006C9.22446 10 9.0006 9.77614 9.0006 9.5C9.0006 9.22386 9.22446 9 9.5006 9H11.0006L11.0006 6H9.5006C9.22446 6 9.0006 5.77614 9.0006 5.5C9.0006 5.22386 9.22446 5 9.5006 5H11.0006V2L9.5006 2C9.22446 2 9.0006 1.77614 9.0006 1.5C9.0006 1.22386 9.22446 1 9.5006 1L11.0006 1V0L12.0006 0V3L13.5006 3C13.7767 3 14.0006 3.22386 14.0006 3.5C14.0006 3.77614 13.7767 4 13.5006 4L12.0006 4L12.0006 7H13.5006C13.7767 7 14.0006 7.22386 14.0006 7.5C14.0006 7.77614 13.7767 8 13.5006 8H12.0006V11H13.5006C13.7767 11 14.0006 11.2239 14.0006 11.5C14.0006 11.7761 13.7767 12 13.5006 12H12.0006L12.0006 15H12.1807C12.8958 15 13.5114 15.5047 13.6516 16.2058L14.2516 19.2058C14.4372 20.134 13.7273 21 12.7807 21H10.2203C9.27378 21 8.56384 20.134 8.74948 19.2058L9.34948 16.2058ZM10.8203 16C10.582 16 10.3768 16.1682 10.3301 16.4019L9.73006 19.4019C9.66818 19.7113 9.90482 20 10.2203 20H12.7807C13.0963 20 13.3329 19.7113 13.271 19.4019L12.671 16.4019C12.6243 16.1682 12.4191 16 12.1807 16H10.8203Z" fill="white"/>
</svg>
