<svg width="24" height="28" viewBox="0 0 24 28" fill="none" xmlns="http://www.w3.org/2000/svg">
<path d="M1.71427 0H17L24 7V26.25C24 27.2169 23.232 28 22.2857 28H1.71427C0.76796 28 0 27.2169 0 26.25V1.74998C0 0.783142 0.768048 0 1.71427 0Z" fill="#60BDD4"/>
<path d="M17 5V0L24 7H19C17.8954 7 17 6.10457 17 5Z" fill="#1CA1C1"/>
<path fill-rule="evenodd" clip-rule="evenodd" d="M14.478 9.14718C14.5592 8.88324 14.4111 8.60345 14.1472 8.52224C13.8832 8.44103 13.6035 8.58916 13.5222 8.85309L9.52224 21.8531C9.44103 22.117 9.58916 22.3968 9.85309 22.478C10.117 22.5592 10.3968 22.4111 10.478 22.1472L14.478 9.14718ZM7.85355 11.6464C8.04882 11.8417 8.04882 12.1583 7.85355 12.3536L4.70711 15.5L7.85355 18.6464C8.04882 18.8417 8.04882 19.1583 7.85355 19.3536C7.65829 19.5488 7.34171 19.5488 7.14645 19.3536L3.64645 15.8536C3.45118 15.6583 3.45118 15.3417 3.64645 15.1464L7.14645 11.6464C7.34171 11.4512 7.65829 11.4512 7.85355 11.6464ZM16.1464 11.6464C15.9512 11.8417 15.9512 12.1583 16.1464 12.3536L19.2929 15.5L16.1464 18.6464C15.9512 18.8417 15.9512 19.1583 16.1464 19.3536C16.3417 19.5488 16.6583 19.5488 16.8536 19.3536L20.3536 15.8536C20.5488 15.6583 20.5488 15.3417 20.3536 15.1464L16.8536 11.6464C16.6583 11.4512 16.3417 11.4512 16.1464 11.6464Z" fill="white"/>
</svg>
