<svg width="24" height="28" viewBox="0 0 24 28" fill="none" xmlns="http://www.w3.org/2000/svg">
<path d="M1.71427 0H17L24 7V26.25C24 27.2169 23.232 28 22.2857 28H1.71427C0.76796 28 0 27.2169 0 26.25V1.74998C0 0.783142 0.768048 0 1.71427 0Z" fill="#6CA3F0"/>
<path d="M17 5V0L24 7H19C17.8954 7 17 6.10457 17 5Z" fill="#2F7AE2"/>
<path d="M12 6.5C12 6.22386 11.7761 6 11.5 6H3.5C3.22386 6 3 6.22386 3 6.5V6.5C3 6.77614 3.22386 7 3.5 7H11.5C11.7761 7 12 6.77614 12 6.5V6.5Z" fill="white"/>
<path d="M21 10.5C21 10.2239 20.7761 10 20.5 10H3.5C3.22386 10 3 10.2239 3 10.5V10.5C3 10.7761 3.22386 11 3.5 11H20.5C20.7761 11 21 10.7761 21 10.5V10.5Z" fill="white"/>
<path d="M21 14.5C21 14.2239 20.7761 14 20.5 14H3.5C3.22386 14 3 14.2239 3 14.5V14.5C3 14.7761 3.22386 15 3.5 15H20.5C20.7761 15 21 14.7761 21 14.5V14.5Z" fill="white"/>
<path d="M21 18.5C21 18.2239 20.7761 18 20.5 18H3.5C3.22386 18 3 18.2239 3 18.5V18.5C3 18.7761 3.22386 19 3.5 19H20.5C20.7761 19 21 18.7761 21 18.5V18.5Z" fill="white"/>
<path d="M21 22.5C21 22.2239 20.7761 22 20.5 22H3.5C3.22386 22 3 22.2239 3 22.5V22.5C3 22.7761 3.22386 23 3.5 23H20.5C20.7761 23 21 22.7761 21 22.5V22.5Z" fill="white"/>
</svg>
