<svg width="24" height="28" viewBox="0 0 24 28" fill="none" xmlns="http://www.w3.org/2000/svg">
<path d="M1.71427 0H17L24 7V26.25C24 27.2169 23.232 28 22.2857 28H1.71427C0.76796 28 0 27.2169 0 26.25V1.74998C0 0.783142 0.768048 0 1.71427 0Z" fill="#CCCCCC"/>
<path d="M17 5V0L24 7H19C17.8954 7 17 6.10457 17 5Z" fill="#A2A2A2"/>
<path d="M11.6987 19.2461C11.3983 19.2461 11.1507 18.999 11.1871 18.7009C11.2136 18.4837 11.2546 18.2982 11.3103 18.1445C11.408 17.875 11.6072 17.5762 11.908 17.248L12.6756 16.457C13.0037 16.0859 13.1677 15.6875 13.1677 15.2617C13.1677 14.8516 13.0603 14.5312 12.8455 14.3008C12.6306 14.0664 12.3181 13.9492 11.908 13.9492C11.5095 13.9492 11.1892 14.0547 10.947 14.2656C10.8385 14.3602 10.7543 14.4692 10.6944 14.5928C10.5646 14.8605 10.3426 15.1152 10.0451 15.1152V15.1152C9.74503 15.1152 9.49386 14.8664 9.56628 14.5751C9.66318 14.1855 9.86562 13.8558 10.1736 13.5859C10.6189 13.1953 11.197 13 11.908 13C12.6463 13 13.2205 13.1992 13.6306 13.5977C14.0447 13.9922 14.2517 14.5352 14.2517 15.2266C14.2517 15.9102 13.9353 16.584 13.3025 17.248L12.6638 17.8809C12.4713 18.0945 12.3438 18.3712 12.2813 18.7112C12.2276 19.0031 11.9955 19.2461 11.6987 19.2461V19.2461ZM11.1052 21.1035C11.1052 20.9277 11.158 20.7812 11.2634 20.6641C11.3728 20.543 11.533 20.4824 11.7439 20.4824C11.9549 20.4824 12.115 20.543 12.2244 20.6641C12.3338 20.7812 12.3884 20.9277 12.3884 21.1035C12.3884 21.2793 12.3338 21.4258 12.2244 21.543C12.115 21.6562 11.9549 21.7129 11.7439 21.7129C11.533 21.7129 11.3728 21.6562 11.2634 21.543C11.158 21.4258 11.1052 21.2793 11.1052 21.1035Z" fill="white"/>
<path fill-rule="evenodd" clip-rule="evenodd" d="M12 24C15.866 24 19 20.866 19 17C19 13.134 15.866 10 12 10C8.13401 10 5 13.134 5 17C5 20.866 8.13401 24 12 24ZM12 25C16.4183 25 20 21.4183 20 17C20 12.5817 16.4183 9 12 9C7.58172 9 4 12.5817 4 17C4 21.4183 7.58172 25 12 25Z" fill="white"/>
</svg>
