<svg width="470" height="400" viewBox="0 0 470 400" fill="none" xmlns="http://www.w3.org/2000/svg">
<path d="M409.508 222.814C386.331 170.409 441.499 119.555 423.247 74.4948C404.995 29.4348 345.643 35.0675 261.185 54.4644C176.727 73.8613 118.465 33.6489 74.6567 54.4644C45.2722 68.4263 47.3926 113.296 69.6504 161.486C108.595 245.802 17.7934 278.842 45.2722 327.493C72.751 376.143 164.181 326.538 228.642 331.709C266.259 332.3 291.519 337.977 338.163 352.988C427.628 381.78 452.411 319.822 409.508 222.814Z" fill="#DDF1F6"/>
<path fill-rule="evenodd" clip-rule="evenodd" d="M335.645 160.912C335.73 160.47 336.24 160.259 336.613 160.513L348.368 168.524C348.574 168.664 348.677 168.914 348.63 169.159L347.22 176.514C347.136 176.956 346.626 177.167 346.253 176.913L336.574 170.317L332.96 189.174L332.945 189.172C332.927 189.317 332.905 189.463 332.877 189.609C332.186 193.211 328.678 195.565 325.041 194.868C321.404 194.171 319.015 190.686 319.706 187.085C320.396 183.483 323.904 181.129 327.541 181.826C329.023 182.11 330.299 182.857 331.242 183.887L335.645 160.912ZM338.01 164.684C337.861 164.583 337.657 164.667 337.623 164.844L337.181 167.147C337.144 167.343 337.226 167.543 337.391 167.655L344.856 172.742C345.005 172.843 345.209 172.759 345.243 172.582L345.715 170.118C345.734 170.02 345.693 169.92 345.61 169.864L338.01 164.684Z" fill="#1CA1C1" fill-opacity="0.17"/>
<path fill-rule="evenodd" clip-rule="evenodd" d="M376.645 109.503C376.451 109.096 376.738 108.625 377.188 108.609L384.47 108.354C384.719 108.345 384.95 108.485 385.057 108.71L386.581 111.915C386.774 112.322 386.488 112.794 386.038 112.809L379.966 113.022L384.541 122.644L384.534 122.648C384.573 122.719 384.611 122.792 384.646 122.866C385.52 124.704 384.724 126.909 382.868 127.791C381.012 128.674 378.8 127.899 377.926 126.062C377.052 124.224 377.848 122.019 379.704 121.136C380.46 120.777 381.276 120.692 382.036 120.843L376.645 109.503ZM378.928 110.025C378.748 110.031 378.633 110.22 378.711 110.383L379.134 111.272C379.22 111.453 379.404 111.565 379.604 111.558L384.297 111.393C384.477 111.387 384.592 111.198 384.515 111.036L384.021 109.997C383.978 109.907 383.886 109.851 383.786 109.855L378.928 110.025Z" fill="#1CA1C1" fill-opacity="0.17"/>
<path fill-rule="evenodd" clip-rule="evenodd" d="M98.0496 169.066C97.9155 168.636 98.2658 168.209 98.7136 168.257L110.764 169.546C111.012 169.572 111.22 169.744 111.295 169.982L113.168 175.99C113.302 176.419 112.952 176.846 112.504 176.798L102.559 175.734L107.502 191.587L107.49 191.591C107.536 191.71 107.578 191.83 107.616 191.953C108.56 194.981 106.847 198.208 103.789 199.162C100.731 200.115 97.4874 198.433 96.5432 195.406C95.5991 192.378 97.3125 189.15 100.37 188.197C101.617 187.808 102.894 187.857 104.034 188.257L98.0496 169.066ZM101.405 170.859C101.226 170.839 101.086 171.01 101.139 171.182L101.715 173.027C101.774 173.217 101.941 173.354 102.139 173.376L109.812 174.196C109.992 174.216 110.132 174.045 110.078 173.873L109.454 171.871C109.424 171.776 109.341 171.708 109.242 171.697L101.405 170.859Z" fill="#1CA1C1" fill-opacity="0.17"/>
<path fill-rule="evenodd" clip-rule="evenodd" d="M141.318 101.724C141.011 101.501 140.576 101.67 140.5 102.041L136.11 123.216C135.258 122.255 134.097 121.55 132.74 121.268C129.409 120.578 126.152 122.7 125.467 126.009C124.781 129.318 126.925 132.56 130.256 133.25C133.586 133.941 136.843 131.818 137.529 128.51C137.556 128.375 137.58 128.241 137.598 128.107L137.611 128.11L141.203 110.786L151.273 118.115L148.256 132.672C147.403 131.711 146.243 131.006 144.885 130.724C141.554 130.034 138.298 132.156 137.612 135.465C136.926 138.774 139.07 142.016 142.401 142.706C145.732 143.397 148.988 141.274 149.674 137.966C149.702 137.831 149.725 137.697 149.744 137.564L149.757 137.566L153.594 119.009C153.606 118.979 153.616 118.947 153.623 118.913L155.046 112.049C155.088 111.847 155.008 111.64 154.841 111.519L141.318 101.724ZM142.25 105.732C142.281 105.583 142.456 105.516 142.579 105.606L152.269 112.706C152.335 112.754 152.367 112.836 152.35 112.917L151.872 115.223C151.841 115.372 151.667 115.439 151.544 115.349L141.962 108.33C141.83 108.233 141.766 108.068 141.799 107.907L142.25 105.732Z" fill="#1CA1C1" fill-opacity="0.17"/>
<path fill-rule="evenodd" clip-rule="evenodd" d="M323.543 77.7947C323.304 77.7416 323.091 77.952 323.14 78.1912L325.95 91.8346C325.2 91.4838 324.334 91.3629 323.459 91.543C321.313 91.985 319.929 94.0715 320.368 96.2033C320.807 98.3352 322.903 99.7051 325.049 99.2631C327.195 98.8211 328.579 96.7346 328.14 94.6028C328.122 94.5163 328.102 94.4311 328.079 94.3472L328.087 94.3454L325.788 83.1836L333.615 84.9467L335.547 94.3261C334.797 93.9753 333.931 93.8544 333.056 94.0346C330.91 94.4766 329.526 96.5631 329.965 98.6949C330.404 100.827 332.5 102.197 334.646 101.755C336.792 101.313 338.176 99.2261 337.737 97.0943C337.719 97.0078 337.699 96.9226 337.675 96.8387L337.684 96.837L335.215 84.8832C335.215 84.862 335.213 84.8403 335.208 84.8184L334.298 80.396C334.271 80.2662 334.17 80.1642 334.041 80.1353L323.543 77.7947ZM325.118 79.9273C325.098 79.8313 325.184 79.747 325.28 79.7689L332.823 81.4933C332.874 81.5051 332.914 81.5458 332.925 81.5974L333.231 83.0836C333.251 83.1796 333.164 83.2639 333.069 83.242L325.61 81.5369C325.507 81.5133 325.428 81.432 325.406 81.3286L325.118 79.9273Z" fill="#1CA1C1" fill-opacity="0.17"/>
<path d="M151.637 85.7602C151.637 84.3776 152.758 83.2568 154.14 83.2568H275.552L325.619 133.324V304.802C325.619 306.185 324.498 307.306 323.115 307.306H154.14C152.758 307.306 151.637 306.185 151.637 304.802V85.7602Z" fill="white"/>
<path d="M275.552 130.82V83.2568L325.619 133.324H278.055C276.673 133.324 275.552 132.203 275.552 130.82Z" fill="#BBE3ED"/>
<path fill-rule="evenodd" clip-rule="evenodd" d="M252.834 167.888C254.057 167.075 255.709 167.407 256.523 168.631C260.167 174.112 262.291 180.694 262.291 187.763C262.291 194.832 260.167 201.414 256.523 206.895C255.709 208.119 254.057 208.451 252.834 207.638C251.61 206.824 251.277 205.172 252.091 203.948C255.173 199.313 256.968 193.752 256.968 187.763C256.968 181.774 255.173 176.213 252.091 171.578C251.277 170.354 251.61 168.702 252.834 167.888Z" fill="#1CA1C1"/>
<path fill-rule="evenodd" clip-rule="evenodd" d="M257.868 157.605C258.97 156.632 260.652 156.737 261.624 157.839C268.662 165.813 272.935 176.293 272.935 187.764C272.935 199.236 268.662 209.716 261.624 217.69C260.652 218.792 258.97 218.897 257.868 217.924C256.766 216.951 256.661 215.27 257.634 214.168C263.846 207.129 267.613 197.89 267.613 187.764C267.613 177.639 263.846 168.4 257.634 161.361C256.661 160.259 256.766 158.578 257.868 157.605Z" fill="#1CA1C1" fill-opacity="0.7"/>
<path fill-rule="evenodd" clip-rule="evenodd" d="M263.051 147.89C264.08 146.84 265.765 146.824 266.814 147.853C277.157 157.992 283.58 172.13 283.58 187.763C283.58 203.395 277.157 217.533 266.814 227.672C265.765 228.701 264.08 228.685 263.051 227.635C262.022 226.586 262.039 224.901 263.088 223.872C272.452 214.692 278.257 201.908 278.257 187.763C278.257 173.618 272.452 160.833 263.088 151.653C262.039 150.624 262.022 148.94 263.051 147.89Z" fill="#1CA1C1" fill-opacity="0.4"/>
<path d="M192.941 178.384C192.941 175.619 195.183 173.377 197.948 173.377H209.213V204.669H197.948C195.183 204.669 192.941 202.427 192.941 199.662V178.384Z" fill="#1CA1C1"/>
<path fill-rule="evenodd" clip-rule="evenodd" d="M215.472 175.66V202.386L241.757 216.015V162.03L215.472 175.66ZM211.717 204.669L241.856 220.297C243.523 221.161 245.512 219.951 245.512 218.074V159.972C245.512 158.094 243.523 156.885 241.856 157.749L211.717 173.377V204.669Z" fill="#1CA1C1"/>
<path d="M74.0303 268.846C74.0303 267.809 74.8709 266.968 75.9078 266.968C76.9447 266.968 77.7853 267.809 77.7853 268.846V278.145C77.7853 279.182 76.9447 280.022 75.9078 280.022C74.8709 280.022 74.0303 279.182 74.0303 278.145V268.846Z" fill="#ADDDE9"/>
<path d="M81.54 264.929C81.54 263.892 82.3806 263.052 83.4175 263.052C84.4545 263.052 85.295 263.892 85.295 264.929V282.061C85.295 283.098 84.4545 283.938 83.4175 283.938C82.3806 283.938 81.54 283.098 81.54 282.061V264.929Z" fill="#ADDDE9"/>
<path d="M89.0508 249.265C89.0508 248.228 89.8914 247.387 90.9283 247.387C91.9652 247.387 92.8058 248.228 92.8058 249.265V296.421C92.8058 297.458 91.9652 298.298 90.9283 298.298C89.8914 298.298 89.0508 297.458 89.0508 296.421V249.265Z" fill="#ADDDE9"/>
<path d="M96.5605 261.013C96.5605 259.976 97.4011 259.136 98.4381 259.136C99.475 259.136 100.316 259.976 100.316 261.013V285.977C100.316 287.014 99.475 287.855 98.4381 287.855C97.4011 287.855 96.5605 287.014 96.5605 285.977V261.013Z" fill="#ADDDE9"/>
<path d="M104.07 264.929C104.07 263.892 104.911 263.052 105.948 263.052C106.985 263.052 107.825 263.892 107.825 264.929V282.061C107.825 283.098 106.985 283.938 105.948 283.938C104.911 283.938 104.07 283.098 104.07 282.061V264.929Z" fill="#ADDDE9"/>
<path d="M111.58 271.457C111.58 270.42 112.421 269.579 113.458 269.579C114.494 269.579 115.335 270.42 115.335 271.457V275.534C115.335 276.571 114.494 277.412 113.458 277.412C112.421 277.412 111.58 276.571 111.58 275.534V271.457Z" fill="#ADDDE9"/>
<path d="M366.921 266.02C366.921 264.983 367.761 264.142 368.798 264.142C369.835 264.142 370.676 264.983 370.676 266.02V283.151C370.676 284.188 369.835 285.029 368.798 285.029C367.761 285.029 366.921 284.188 366.921 283.151V266.02Z" fill="#ADDDE9"/>
<path d="M374.431 250.355C374.431 249.318 375.271 248.478 376.308 248.478C377.345 248.478 378.186 249.318 378.186 250.355V297.511C378.186 298.548 377.345 299.388 376.308 299.388C375.271 299.388 374.431 298.548 374.431 297.511V250.355Z" fill="#ADDDE9"/>
<path d="M381.94 262.104C381.94 261.067 382.781 260.226 383.818 260.226C384.855 260.226 385.695 261.067 385.695 262.104V287.068C385.695 288.104 384.855 288.945 383.818 288.945C382.781 288.945 381.94 288.104 381.94 287.068V262.104Z" fill="#ADDDE9"/>
<path d="M389.451 266.02C389.451 264.983 390.292 264.142 391.329 264.142C392.366 264.142 393.206 264.983 393.206 266.02V283.151C393.206 284.188 392.366 285.029 391.329 285.029C390.292 285.029 389.451 284.188 389.451 283.151V266.02Z" fill="#ADDDE9"/>
<path d="M396.961 272.547C396.961 271.51 397.802 270.669 398.838 270.669C399.875 270.669 400.716 271.51 400.716 272.547V276.624C400.716 277.661 399.875 278.502 398.838 278.502C397.802 278.502 396.961 277.661 396.961 276.624V272.547Z" fill="#ADDDE9"/>
<path d="M119.091 262.318C119.091 261.282 119.931 260.441 120.968 260.441C122.005 260.441 122.846 261.282 122.846 262.318V284.672C122.846 285.708 122.005 286.549 120.968 286.549C119.931 286.549 119.091 285.708 119.091 284.672V262.318Z" fill="#ADDDE9"/>
<path d="M126.601 258.402C126.601 257.365 127.441 256.524 128.478 256.524C129.515 256.524 130.356 257.365 130.356 258.402V288.588C130.356 289.624 129.515 290.465 128.478 290.465C127.441 290.465 126.601 289.624 126.601 288.588V258.402Z" fill="#ADDDE9"/>
<path d="M134.11 249.265C134.11 248.228 134.951 247.387 135.988 247.387C137.025 247.387 137.865 248.228 137.865 249.265V296.421C137.865 297.458 137.025 298.298 135.988 298.298C134.951 298.298 134.11 297.458 134.11 296.421V249.265Z" fill="#ADDDE9"/>
<path d="M141.62 253.18C141.62 252.143 142.461 251.303 143.498 251.303C144.535 251.303 145.375 252.143 145.375 253.18V293.809C145.375 294.846 144.535 295.687 143.498 295.687C142.461 295.687 141.62 294.846 141.62 293.809V253.18Z" fill="#ADDDE9"/>
<path d="M149.131 262.318C149.131 261.282 149.971 260.441 151.008 260.441C152.045 260.441 152.886 261.282 152.886 262.318V284.672C152.886 285.708 152.045 286.549 151.008 286.549C149.971 286.549 149.131 285.708 149.131 284.672V262.318Z" fill="#ADDDE9"/>
<path d="M156.641 266.235C156.641 265.198 157.481 264.357 158.518 264.357C159.555 264.357 160.396 265.198 160.396 266.235V280.756C160.396 281.793 159.555 282.633 158.518 282.633C157.481 282.633 156.641 281.793 156.641 280.756V266.235Z" fill="#ADDDE9"/>
<path d="M164.15 257.097C164.15 256.06 164.991 255.22 166.028 255.22C167.065 255.22 167.905 256.06 167.905 257.097V289.894C167.905 290.931 167.065 291.771 166.028 291.771C164.991 291.771 164.15 290.931 164.15 289.894V257.097Z" fill="#ADDDE9"/>
<path d="M171.66 261.013C171.66 259.976 172.501 259.136 173.538 259.136C174.575 259.136 175.415 259.976 175.415 261.013V285.977C175.415 287.014 174.575 287.855 173.538 287.855C172.501 287.855 171.66 287.014 171.66 285.977V261.013Z" fill="#ADDDE9"/>
<path d="M179.171 270.15C179.171 269.114 180.011 268.273 181.048 268.273C182.085 268.273 182.926 269.114 182.926 270.15V276.839C182.926 277.876 182.085 278.716 181.048 278.716C180.011 278.716 179.171 277.876 179.171 276.839V270.15Z" fill="#ADDDE9"/>
<path d="M186.681 263.624C186.681 262.587 187.521 261.747 188.558 261.747C189.595 261.747 190.436 262.587 190.436 263.624V283.366C190.436 284.403 189.595 285.244 188.558 285.244C187.521 285.244 186.681 284.403 186.681 283.366V263.624Z" fill="#ADDDE9"/>
<path d="M194.19 257.097C194.19 256.06 195.031 255.22 196.068 255.22C197.105 255.22 197.945 256.06 197.945 257.097V293.81C197.945 294.847 197.105 295.687 196.068 295.687C195.031 295.687 194.19 294.847 194.19 293.81V257.097Z" fill="#ADDDE9"/>
<path d="M201.7 245.348C201.7 244.311 202.541 243.471 203.578 243.471C204.615 243.471 205.455 244.311 205.455 245.348V297.726C205.455 298.763 204.615 299.603 203.578 299.603C202.541 299.603 201.7 298.763 201.7 297.726V245.348Z" fill="#ADDDE9"/>
<path d="M209.211 259.708C209.211 258.671 210.052 257.83 211.088 257.83C212.125 257.83 212.966 258.671 212.966 259.708V287.282C212.966 288.319 212.125 289.16 211.088 289.16C210.052 289.16 209.211 288.319 209.211 287.282V259.708Z" fill="#ADDDE9"/>
<path d="M216.721 268.846C216.721 267.809 217.561 266.968 218.598 266.968C219.635 266.968 220.476 267.809 220.476 268.846V278.145C220.476 279.182 219.635 280.022 218.598 280.022C217.561 280.022 216.721 279.182 216.721 278.145V268.846Z" fill="#ADDDE9"/>
<path d="M224.23 264.929C224.23 263.892 225.071 263.052 226.108 263.052C227.145 263.052 227.985 263.892 227.985 264.929V282.061C227.985 283.098 227.145 283.938 226.108 283.938C225.071 283.938 224.23 283.098 224.23 282.061V264.929Z" fill="#ADDDE9"/>
<path d="M231.74 249.265C231.74 248.228 232.581 247.387 233.618 247.387C234.655 247.387 235.495 248.228 235.495 249.265V296.421C235.495 297.458 234.655 298.298 233.618 298.298C232.581 298.298 231.74 297.458 231.74 296.421V249.265Z" fill="#ADDDE9"/>
<path d="M239.251 261.013C239.251 259.976 240.092 259.136 241.128 259.136C242.165 259.136 243.006 259.976 243.006 261.013V285.977C243.006 287.014 242.165 287.855 241.128 287.855C240.092 287.855 239.251 287.014 239.251 285.977V261.013Z" fill="#ADDDE9"/>
<path d="M246.761 264.929C246.761 263.892 247.601 263.052 248.638 263.052C249.675 263.052 250.516 263.892 250.516 264.929V282.061C250.516 283.098 249.675 283.938 248.638 283.938C247.601 283.938 246.761 283.098 246.761 282.061V264.929Z" fill="#ADDDE9"/>
<path d="M254.271 271.457C254.271 270.42 255.111 269.579 256.148 269.579C257.185 269.579 258.026 270.42 258.026 271.457V275.534C258.026 276.571 257.185 277.412 256.148 277.412C255.111 277.412 254.271 276.571 254.271 275.534V271.457Z" fill="#ADDDE9"/>
<path d="M261.78 262.318C261.78 261.282 262.621 260.441 263.658 260.441C264.695 260.441 265.535 261.282 265.535 262.318V284.672C265.535 285.708 264.695 286.549 263.658 286.549C262.621 286.549 261.78 285.708 261.78 284.672V262.318Z" fill="#ADDDE9"/>
<path d="M269.291 258.402C269.291 257.365 270.132 256.524 271.169 256.524C272.205 256.524 273.046 257.365 273.046 258.402V288.588C273.046 289.624 272.205 290.465 271.169 290.465C270.132 290.465 269.291 289.624 269.291 288.588V258.402Z" fill="#ADDDE9"/>
<path d="M276.801 249.265C276.801 248.228 277.641 247.387 278.678 247.387C279.715 247.387 280.556 248.228 280.556 249.265V296.421C280.556 297.458 279.715 298.298 278.678 298.298C277.641 298.298 276.801 297.458 276.801 296.421V249.265Z" fill="#ADDDE9"/>
<path d="M284.311 253.18C284.311 252.143 285.151 251.303 286.188 251.303C287.225 251.303 288.066 252.143 288.066 253.18V293.809C288.066 294.846 287.225 295.687 286.188 295.687C285.151 295.687 284.311 294.846 284.311 293.809V253.18Z" fill="#ADDDE9"/>
<path d="M291.82 262.318C291.82 261.282 292.661 260.441 293.698 260.441C294.735 260.441 295.575 261.282 295.575 262.318V284.672C295.575 285.708 294.735 286.549 293.698 286.549C292.661 286.549 291.82 285.708 291.82 284.672V262.318Z" fill="#ADDDE9"/>
<path d="M299.331 266.235C299.331 265.198 300.172 264.357 301.209 264.357C302.245 264.357 303.086 265.198 303.086 266.235V280.756C303.086 281.793 302.245 282.633 301.209 282.633C300.172 282.633 299.331 281.793 299.331 280.756V266.235Z" fill="#ADDDE9"/>
<path d="M306.841 257.097C306.841 256.06 307.681 255.22 308.718 255.22C309.755 255.22 310.596 256.06 310.596 257.097V289.894C310.596 290.931 309.755 291.771 308.718 291.771C307.681 291.771 306.841 290.931 306.841 289.894V257.097Z" fill="#ADDDE9"/>
<path d="M314.351 261.013C314.351 259.976 315.191 259.136 316.228 259.136C317.265 259.136 318.106 259.976 318.106 261.013V285.977C318.106 287.014 317.265 287.855 316.228 287.855C315.191 287.855 314.351 287.014 314.351 285.977V261.013Z" fill="#ADDDE9"/>
<path d="M321.86 270.15C321.86 269.114 322.701 268.273 323.738 268.273C324.775 268.273 325.615 269.114 325.615 270.15V276.839C325.615 277.876 324.775 278.716 323.738 278.716C322.701 278.716 321.86 277.876 321.86 276.839V270.15Z" fill="#ADDDE9"/>
<path d="M329.371 263.624C329.371 262.587 330.212 261.747 331.249 261.747C332.286 261.747 333.126 262.587 333.126 263.624V283.366C333.126 284.403 332.286 285.244 331.249 285.244C330.212 285.244 329.371 284.403 329.371 283.366V263.624Z" fill="#ADDDE9"/>
<path d="M336.881 257.097C336.881 256.06 337.721 255.22 338.758 255.22C339.795 255.22 340.636 256.06 340.636 257.097V293.81C340.636 294.847 339.795 295.687 338.758 295.687C337.721 295.687 336.881 294.847 336.881 293.81V257.097Z" fill="#ADDDE9"/>
<path d="M344.391 245.348C344.391 244.311 345.231 243.471 346.268 243.471C347.305 243.471 348.146 244.311 348.146 245.348V297.726C348.146 298.763 347.305 299.603 346.268 299.603C345.231 299.603 344.391 298.763 344.391 297.726V245.348Z" fill="#ADDDE9"/>
<path d="M351.9 259.708C351.9 258.671 352.741 257.83 353.778 257.83C354.815 257.83 355.655 258.671 355.655 259.708V287.282C355.655 288.319 354.815 289.16 353.778 289.16C352.741 289.16 351.9 288.319 351.9 287.282V259.708Z" fill="#ADDDE9"/>
<path d="M359.411 268.846C359.411 267.809 360.252 266.968 361.289 266.968C362.326 266.968 363.166 267.809 363.166 268.846V278.145C363.166 279.182 362.326 280.022 361.289 280.022C360.252 280.022 359.411 279.182 359.411 278.145V268.846Z" fill="#ADDDE9"/>
</svg>
