<svg width="470" height="400" viewBox="0 0 470 400" fill="none" xmlns="http://www.w3.org/2000/svg">
<path d="M409.267 222.96C385.819 169.94 441.634 118.489 423.168 72.8998C404.701 27.3108 344.653 33.0096 259.203 52.6342C173.753 72.2588 114.808 31.5743 70.4852 52.6342C40.7558 66.76 42.901 112.157 65.4202 160.912C104.822 246.218 19.1696 290.006 44.9196 335.595C70.6695 381.184 161.06 327.902 226.278 333.134C264.337 333.731 289.894 339.475 337.085 354.662C427.6 383.792 452.674 321.107 409.267 222.96Z" fill="#DDF1F6"/>
<path d="M334.283 158.938C334.283 160.686 332.866 162.104 331.117 162.104C329.369 162.104 327.951 160.686 327.951 158.938C327.951 157.189 329.369 155.772 331.117 155.772C332.866 155.772 334.283 157.189 334.283 158.938Z" fill="#C0E5EE" fill-opacity="0.97"/>
<path d="M346.947 158.938C346.947 160.686 345.53 162.104 343.781 162.104C342.033 162.104 340.615 160.686 340.615 158.938C340.615 157.189 342.033 155.772 343.781 155.772C345.53 155.772 346.947 157.189 346.947 158.938Z" fill="#C0E5EE" fill-opacity="0.97"/>
<path d="M359.611 158.938C359.611 160.686 358.194 162.104 356.445 162.104C354.697 162.104 353.279 160.686 353.279 158.938C353.279 157.189 354.697 155.772 356.445 155.772C358.194 155.772 359.611 157.189 359.611 158.938Z" fill="#C0E5EE" fill-opacity="0.97"/>
<path d="M134.198 93.7197C134.198 92.321 135.332 91.187 136.731 91.187H259.568L310.223 141.842V315.333C310.223 316.732 309.089 317.866 307.69 317.866H136.731C135.332 317.866 134.198 316.732 134.198 315.333V93.7197Z" fill="#1CA1C1" fill-opacity="0.15"/>
<path d="M150.154 308.115C150.154 309.724 148.85 311.028 147.242 311.028C145.633 311.028 144.329 309.724 144.329 308.115C144.329 306.507 145.633 305.203 147.242 305.203C148.85 305.203 150.154 306.507 150.154 308.115Z" fill="#DFF2F6"/>
<path d="M161.805 308.115C161.805 309.724 160.501 311.028 158.892 311.028C157.284 311.028 155.979 309.724 155.979 308.115C155.979 306.507 157.284 305.203 158.892 305.203C160.501 305.203 161.805 306.507 161.805 308.115Z" fill="#DFF2F6"/>
<path d="M173.454 308.115C173.454 309.724 172.15 311.028 170.542 311.028C168.933 311.028 167.629 309.724 167.629 308.115C167.629 306.507 168.933 305.203 170.542 305.203C172.15 305.203 173.454 306.507 173.454 308.115Z" fill="#DFF2F6"/>
<path d="M110.138 115.321C110.138 114.581 110.737 113.982 111.477 113.982H123.974C124.714 113.982 125.313 114.581 125.313 115.321V115.321C125.313 116.06 124.714 116.66 123.974 116.66H111.477C110.737 116.66 110.138 116.06 110.138 115.321V115.321Z" fill="white" fill-opacity="0.68"/>
<path d="M110.138 126.926C110.138 126.186 110.737 125.587 111.477 125.587H123.974C124.714 125.587 125.313 126.186 125.313 126.926V126.926C125.313 127.665 124.714 128.265 123.974 128.265H111.477C110.737 128.265 110.138 127.665 110.138 126.926V126.926Z" fill="white" fill-opacity="0.68"/>
<path d="M110.138 138.531C110.138 137.791 110.737 137.192 111.477 137.192H123.974C124.714 137.192 125.313 137.791 125.313 138.531V138.531C125.313 139.27 124.714 139.87 123.974 139.87H111.477C110.737 139.87 110.138 139.27 110.138 138.531V138.531Z" fill="white" fill-opacity="0.68"/>
<path d="M110.138 150.136C110.138 149.396 110.737 148.797 111.477 148.797H123.974C124.714 148.797 125.313 149.396 125.313 150.136V150.136C125.313 150.875 124.714 151.475 123.974 151.475H111.477C110.737 151.475 110.138 150.875 110.138 150.136V150.136Z" fill="white" fill-opacity="0.68"/>
<path d="M110.138 161.74C110.138 161.001 110.737 160.401 111.477 160.401H123.974C124.714 160.401 125.313 161.001 125.313 161.74V161.74C125.313 162.48 124.714 163.079 123.974 163.079H111.477C110.737 163.079 110.138 162.48 110.138 161.74V161.74Z" fill="white" fill-opacity="0.68"/>
<path d="M110.138 173.345C110.138 172.606 110.737 172.006 111.477 172.006H123.974C124.714 172.006 125.313 172.606 125.313 173.345V173.345C125.313 174.085 124.714 174.684 123.974 174.684H111.477C110.737 174.684 110.138 174.085 110.138 173.345V173.345Z" fill="white" fill-opacity="0.68"/>
<path d="M110.138 184.95C110.138 184.211 110.737 183.611 111.477 183.611H123.974C124.714 183.611 125.313 184.211 125.313 184.95V184.95C125.313 185.69 124.714 186.289 123.974 186.289H111.477C110.737 186.289 110.138 185.69 110.138 184.95V184.95Z" fill="white" fill-opacity="0.68"/>
<path d="M110.138 196.555C110.138 195.816 110.737 195.216 111.477 195.216H123.974C124.714 195.216 125.313 195.816 125.313 196.555V196.555C125.313 197.295 124.714 197.894 123.974 197.894H111.477C110.737 197.894 110.138 197.295 110.138 196.555V196.555Z" fill="white" fill-opacity="0.68"/>
<path d="M129.777 115.321C129.777 114.581 130.377 113.982 131.116 113.982H157.897C158.636 113.982 159.236 114.581 159.236 115.321V115.321C159.236 116.06 158.636 116.66 157.897 116.66H131.116C130.377 116.66 129.777 116.06 129.777 115.321V115.321Z" fill="white" fill-opacity="0.68"/>
<path d="M129.777 126.926C129.777 126.186 130.377 125.587 131.116 125.587H148.97C149.71 125.587 150.309 126.186 150.309 126.926V126.926C150.309 127.665 149.71 128.265 148.97 128.265H131.116C130.377 128.265 129.777 127.665 129.777 126.926V126.926Z" fill="white" fill-opacity="0.68"/>
<path d="M129.777 138.531C129.777 137.791 130.377 137.192 131.116 137.192H173.073C173.812 137.192 174.412 137.791 174.412 138.531V138.531C174.412 139.27 173.812 139.87 173.073 139.87H131.116C130.377 139.87 129.777 139.27 129.777 138.531V138.531Z" fill="white" fill-opacity="0.68"/>
<path d="M129.777 150.136C129.777 149.396 130.377 148.797 131.116 148.797H164.146C164.885 148.797 165.485 149.396 165.485 150.136V150.136C165.485 150.875 164.885 151.475 164.146 151.475H131.116C130.377 151.475 129.777 150.875 129.777 150.136V150.136Z" fill="white" fill-opacity="0.68"/>
<path d="M129.777 161.74C129.777 161.001 130.377 160.401 131.116 160.401H140.043C140.783 160.401 141.382 161.001 141.382 161.74V161.74C141.382 162.48 140.783 163.079 140.043 163.079H131.116C130.377 163.079 129.777 162.48 129.777 161.74V161.74Z" fill="white" fill-opacity="0.68"/>
<path d="M129.777 173.345C129.777 172.606 130.377 172.006 131.116 172.006H157.897C158.636 172.006 159.236 172.606 159.236 173.345V173.345C159.236 174.085 158.636 174.684 157.897 174.684H131.116C130.377 174.684 129.777 174.085 129.777 173.345V173.345Z" fill="white" fill-opacity="0.68"/>
<path d="M129.777 184.95C129.777 184.211 130.377 183.611 131.116 183.611H173.073C173.812 183.611 174.412 184.211 174.412 184.95V184.95C174.412 185.69 173.812 186.289 173.073 186.289H131.116C130.377 186.289 129.777 185.69 129.777 184.95V184.95Z" fill="white" fill-opacity="0.68"/>
<path d="M129.777 196.555C129.777 195.816 130.377 195.216 131.116 195.216H151.648C152.388 195.216 152.987 195.816 152.987 196.555V196.555C152.987 197.295 152.388 197.894 151.648 197.894H131.116C130.377 197.894 129.777 197.295 129.777 196.555V196.555Z" fill="white" fill-opacity="0.68"/>
<path d="M163.698 115.321C163.698 114.581 164.298 113.982 165.037 113.982H217.706C218.445 113.982 219.045 114.581 219.045 115.321V115.321C219.045 116.06 218.445 116.66 217.706 116.66H165.037C164.298 116.66 163.698 116.06 163.698 115.321V115.321Z" fill="white" fill-opacity="0.68"/>
<path d="M154.771 126.926C154.771 126.186 155.371 125.587 156.111 125.587H191.818C192.557 125.587 193.157 126.186 193.157 126.926V126.926C193.157 127.665 192.557 128.265 191.818 128.265H156.111C155.371 128.265 154.771 127.665 154.771 126.926V126.926Z" fill="white" fill-opacity="0.68"/>
<path d="M177.089 138.531C177.089 137.791 177.688 137.192 178.428 137.192H208.779C209.519 137.192 210.118 137.791 210.118 138.531V138.531C210.118 139.27 209.519 139.87 208.779 139.87H178.428C177.688 139.87 177.089 139.27 177.089 138.531V138.531Z" fill="white" fill-opacity="0.68"/>
<path d="M168.162 150.136C168.162 149.396 168.762 148.797 169.501 148.797H191.818C192.558 148.797 193.157 149.396 193.157 150.136V150.136C193.157 150.875 192.558 151.475 191.818 151.475H169.501C168.762 151.475 168.162 150.875 168.162 150.136V150.136Z" fill="white" fill-opacity="0.68"/>
<path d="M144.952 161.74C144.952 161.001 145.552 160.401 146.291 160.401H204.316C205.055 160.401 205.655 161.001 205.655 161.74V161.74C205.655 162.48 205.055 163.079 204.316 163.079H146.291C145.552 163.079 144.952 162.48 144.952 161.74V161.74Z" fill="white" fill-opacity="0.68"/>
<path d="M163.698 173.345C163.698 172.606 164.298 172.006 165.037 172.006H207.886C208.626 172.006 209.225 172.606 209.225 173.345V173.345C209.225 174.085 208.626 174.684 207.886 174.684H165.037C164.298 174.684 163.698 174.085 163.698 173.345V173.345Z" fill="white" fill-opacity="0.68"/>
<path d="M177.089 184.95C177.089 184.211 177.688 183.611 178.428 183.611H203.423C204.163 183.611 204.762 184.211 204.762 184.95V184.95C204.762 185.69 204.163 186.289 203.423 186.289H178.428C177.688 186.289 177.089 185.69 177.089 184.95V184.95Z" fill="white" fill-opacity="0.68"/>
<path d="M157.45 196.555C157.45 195.816 158.05 195.216 158.789 195.216H207.887C208.626 195.216 209.226 195.816 209.226 196.555V196.555C209.226 197.295 208.626 197.894 207.887 197.894H158.789C158.05 197.894 157.45 197.295 157.45 196.555V196.555Z" fill="white" fill-opacity="0.68"/>
<path d="M153.435 74.166C153.435 72.7672 154.569 71.6333 155.967 71.6333H278.804L329.459 122.288V295.78C329.459 297.178 328.325 298.312 326.926 298.312H155.967C154.569 298.312 153.435 297.178 153.435 295.78V74.166Z" fill="white"/>
<path d="M167.124 164.003C167.124 162.954 167.974 162.104 169.024 162.104H186.753C187.802 162.104 188.652 162.954 188.652 164.003V164.003C188.652 165.052 187.802 165.903 186.753 165.903H169.024C167.974 165.903 167.124 165.052 167.124 164.003V164.003Z" fill="#1CA1C1" fill-opacity="0.58"/>
<path d="M167.124 180.466C167.124 179.417 167.974 178.566 169.024 178.566H186.753C187.802 178.566 188.652 179.417 188.652 180.466V180.466C188.652 181.515 187.802 182.365 186.753 182.365H169.024C167.974 182.365 167.124 181.515 167.124 180.466V180.466Z" fill="#1CA1C1" fill-opacity="0.58"/>
<path d="M167.124 196.928C167.124 195.879 167.974 195.029 169.024 195.029H186.753C187.802 195.029 188.652 195.879 188.652 196.928V196.928C188.652 197.977 187.802 198.828 186.753 198.828H169.024C167.974 198.828 167.124 197.977 167.124 196.928V196.928Z" fill="#1CA1C1" fill-opacity="0.58"/>
<path d="M167.124 213.391C167.124 212.342 167.974 211.492 169.024 211.492H186.753C187.802 211.492 188.652 212.342 188.652 213.391V213.391C188.652 214.44 187.802 215.291 186.753 215.291H169.024C167.974 215.291 167.124 214.44 167.124 213.391V213.391Z" fill="#1CA1C1" fill-opacity="0.58"/>
<path d="M167.124 229.854C167.124 228.805 167.974 227.955 169.024 227.955H186.753C187.802 227.955 188.652 228.805 188.652 229.854V229.854C188.652 230.903 187.802 231.754 186.753 231.754H169.024C167.974 231.754 167.124 230.903 167.124 229.854V229.854Z" fill="#1CA1C1" fill-opacity="0.58"/>
<path d="M167.124 246.317C167.124 245.267 167.974 244.417 169.024 244.417H186.753C187.802 244.417 188.652 245.267 188.652 246.317V246.317C188.652 247.366 187.802 248.216 186.753 248.216H169.024C167.974 248.216 167.124 247.366 167.124 246.317V246.317Z" fill="#1CA1C1" fill-opacity="0.58"/>
<path d="M167.124 262.779C167.124 261.73 167.974 260.88 169.024 260.88H186.753C187.802 260.88 188.652 261.73 188.652 262.779V262.779C188.652 263.829 187.802 264.679 186.753 264.679H169.024C167.974 264.679 167.124 263.829 167.124 262.779V262.779Z" fill="#1CA1C1" fill-opacity="0.58"/>
<path d="M167.124 279.242C167.124 278.193 167.974 277.343 169.024 277.343H186.753C187.802 277.343 188.652 278.193 188.652 279.242V279.242C188.652 280.291 187.802 281.142 186.753 281.142H169.024C167.974 281.142 167.124 280.291 167.124 279.242V279.242Z" fill="#1CA1C1" fill-opacity="0.58"/>
<path d="M194.983 164.003C194.983 162.954 195.834 162.104 196.883 162.104H234.874C235.923 162.104 236.773 162.954 236.773 164.003V164.003C236.773 165.052 235.923 165.903 234.874 165.903H196.883C195.834 165.903 194.983 165.052 194.983 164.003V164.003Z" fill="#1CA1C1" fill-opacity="0.58"/>
<path d="M194.983 180.466C194.983 179.417 195.834 178.566 196.883 178.566H222.21C223.259 178.566 224.11 179.417 224.11 180.466V180.466C224.11 181.515 223.259 182.365 222.21 182.365H196.883C195.834 182.365 194.983 181.515 194.983 180.466V180.466Z" fill="#1CA1C1" fill-opacity="0.58"/>
<path d="M194.983 196.928C194.983 195.879 195.834 195.029 196.883 195.029H256.402C257.451 195.029 258.302 195.879 258.302 196.928V196.928C258.302 197.977 257.451 198.828 256.402 198.828H196.883C195.834 198.828 194.983 197.977 194.983 196.928V196.928Z" fill="#1CA1C1" fill-opacity="0.58"/>
<path d="M194.983 213.391C194.983 212.342 195.834 211.492 196.883 211.492H243.738C244.787 211.492 245.638 212.342 245.638 213.391V213.391C245.638 214.44 244.787 215.291 243.738 215.291H196.883C195.834 215.291 194.983 214.44 194.983 213.391V213.391Z" fill="#1CA1C1" fill-opacity="0.58"/>
<path d="M194.983 229.854C194.983 228.805 195.834 227.955 196.883 227.955H209.547C210.596 227.955 211.446 228.805 211.446 229.854V229.854C211.446 230.903 210.596 231.754 209.547 231.754H196.883C195.834 231.754 194.983 230.903 194.983 229.854V229.854Z" fill="#1CA1C1" fill-opacity="0.58"/>
<path d="M194.983 246.317C194.983 245.267 195.834 244.417 196.883 244.417H234.874C235.923 244.417 236.773 245.267 236.773 246.317V246.317C236.773 247.366 235.923 248.216 234.874 248.216H196.883C195.834 248.216 194.983 247.366 194.983 246.317V246.317Z" fill="#1CA1C1" fill-opacity="0.58"/>
<path d="M194.983 262.779C194.983 261.73 195.834 260.88 196.883 260.88H256.402C257.451 260.88 258.302 261.73 258.302 262.779V262.779C258.302 263.829 257.451 264.679 256.402 264.679H196.883C195.834 264.679 194.983 263.829 194.983 262.779V262.779Z" fill="#1CA1C1" fill-opacity="0.58"/>
<path d="M194.983 279.242C194.983 278.193 195.834 277.343 196.883 277.343H226.009C227.058 277.343 227.909 278.193 227.909 279.242V279.242C227.909 280.291 227.058 281.142 226.009 281.142H196.883C195.834 281.142 194.983 280.291 194.983 279.242V279.242Z" fill="#1CA1C1" fill-opacity="0.58"/>
<path d="M243.105 164.003C243.105 162.954 243.956 162.104 245.005 162.104H319.72C320.77 162.104 321.62 162.954 321.62 164.003V164.003C321.62 165.052 320.77 165.903 319.72 165.903H245.005C243.956 165.903 243.105 165.052 243.105 164.003V164.003Z" fill="#1CA1C1" fill-opacity="0.58"/>
<path d="M230.441 180.466C230.441 179.417 231.292 178.566 232.341 178.566H282.995C284.045 178.566 284.895 179.417 284.895 180.466V180.466C284.895 181.515 284.045 182.365 282.995 182.365H232.341C231.292 182.365 230.441 181.515 230.441 180.466V180.466Z" fill="#1CA1C1" fill-opacity="0.58"/>
<path d="M262.101 196.928C262.101 195.879 262.951 195.029 264 195.029H307.056C308.106 195.029 308.956 195.879 308.956 196.928V196.928C308.956 197.977 308.106 198.828 307.056 198.828H264C262.951 198.828 262.101 197.977 262.101 196.928V196.928Z" fill="#1CA1C1" fill-opacity="0.58"/>
<path d="M249.438 213.391C249.438 212.342 250.288 211.492 251.337 211.492H282.996C284.045 211.492 284.896 212.342 284.896 213.391V213.391C284.896 214.44 284.045 215.291 282.996 215.291H251.337C250.288 215.291 249.438 214.44 249.438 213.391V213.391Z" fill="#1CA1C1" fill-opacity="0.58"/>
<path d="M216.512 229.854C216.512 228.805 217.362 227.955 218.411 227.955H300.725C301.774 227.955 302.624 228.805 302.624 229.854V229.854C302.624 230.903 301.774 231.754 300.725 231.754H218.411C217.362 231.754 216.512 230.903 216.512 229.854V229.854Z" fill="#1CA1C1" fill-opacity="0.58"/>
<path d="M243.105 246.317C243.105 245.267 243.956 244.417 245.005 244.417H305.79C306.84 244.417 307.69 245.267 307.69 246.317V246.317C307.69 247.366 306.84 248.216 305.79 248.216H245.005C243.956 248.216 243.105 247.366 243.105 246.317V246.317Z" fill="#1CA1C1" fill-opacity="0.58"/>
<path d="M262.101 262.779C262.101 261.73 262.951 260.88 264 260.88H299.458C300.507 260.88 301.358 261.73 301.358 262.779V262.779C301.358 263.829 300.507 264.679 299.458 264.679H264C262.951 264.679 262.101 263.829 262.101 262.779V262.779Z" fill="#1CA1C1" fill-opacity="0.58"/>
<path d="M234.241 279.242C234.241 278.193 235.092 277.343 236.141 277.343H305.791C306.84 277.343 307.69 278.193 307.69 279.242V279.242C307.69 280.291 306.84 281.142 305.791 281.142H236.141C235.092 281.142 234.241 280.291 234.241 279.242V279.242Z" fill="#1CA1C1" fill-opacity="0.58"/>
<path fill-rule="evenodd" clip-rule="evenodd" d="M186.051 97.8453C186.959 98.8289 186.897 100.362 185.914 101.27L171.972 114.14L185.914 127.009C186.897 127.917 186.959 129.451 186.051 130.434C185.143 131.418 183.609 131.479 182.625 130.571L168.684 117.702C166.604 115.782 166.604 112.497 168.684 110.578L182.625 97.7083C183.609 96.8002 185.143 96.8616 186.051 97.8453Z" fill="#1CA1C1"/>
<path fill-rule="evenodd" clip-rule="evenodd" d="M225.445 97.8443C224.537 98.828 224.599 100.361 225.582 101.269L239.524 114.139L225.582 127.008C224.599 127.916 224.537 129.45 225.445 130.433C226.353 131.417 227.887 131.478 228.871 130.57L242.812 117.701C244.892 115.781 244.892 112.496 242.812 110.577L228.871 97.7073C227.887 96.7993 226.353 96.8606 225.445 97.8443Z" fill="#1CA1C1"/>
<path fill-rule="evenodd" clip-rule="evenodd" d="M215.237 84.9858C216.504 85.4177 217.181 86.7951 216.749 88.0622L198.436 141.78C198.004 143.048 196.626 143.725 195.359 143.293C194.092 142.861 193.415 141.483 193.847 140.216L212.16 86.4979C212.592 85.2308 213.969 84.5538 215.237 84.9858Z" fill="#1CA1C1"/>
<path d="M278.805 119.755V71.6333L329.459 122.288H281.337C279.939 122.288 278.805 121.154 278.805 119.755Z" fill="#BBE3ED"/>
</svg>
