<svg width="470" height="400" viewBox="0 0 470 400" fill="none" xmlns="http://www.w3.org/2000/svg">
<path d="M409.267 222.96C385.819 169.94 441.634 118.489 423.168 72.8998C404.701 27.3108 344.653 33.0096 259.203 52.6342C173.753 72.2588 114.808 31.5743 70.4852 52.6342C40.7558 66.76 42.901 112.157 65.4202 160.912C104.822 246.218 19.1696 290.006 44.9196 335.595C70.6695 381.184 161.06 327.902 226.278 333.134C264.337 333.731 289.894 339.475 337.085 354.662C427.6 383.792 452.674 321.107 409.267 222.96Z" fill="#DDF1F6"/>
<path d="M134.198 93.7197C134.198 92.321 135.332 91.187 136.731 91.187H259.568L310.223 141.842V315.333C310.223 316.732 309.089 317.866 307.69 317.866H136.731C135.332 317.866 134.198 316.732 134.198 315.333V93.7197Z" fill="#1CA1C1" fill-opacity="0.15"/>
<path d="M99.5078 119.738C99.5078 118.975 100.126 118.356 100.889 118.356H124.835C125.598 118.356 126.217 118.975 126.217 119.738V119.738C126.217 120.501 125.598 121.119 124.835 121.119H100.889C100.126 121.119 99.5078 120.501 99.5078 119.738V119.738Z" fill="#EEF8FA"/>
<path d="M99.5078 131.711C99.5078 130.948 100.126 130.33 100.889 130.33H141.413C142.176 130.33 142.794 130.948 142.794 131.711V131.711C142.794 132.474 142.176 133.093 141.413 133.093H100.889C100.126 133.093 99.5078 132.474 99.5078 131.711V131.711Z" fill="#EEF8FA"/>
<path d="M99.5078 172.235C99.5078 171.472 100.126 170.853 100.889 170.853H150.623C151.386 170.853 152.004 171.472 152.004 172.235V172.235C152.004 172.997 151.386 173.616 150.623 173.616H100.889C100.126 173.616 99.5078 172.997 99.5078 172.235V172.235Z" fill="#EEF8FA"/>
<path d="M99.5078 184.208C99.5078 183.445 100.126 182.826 100.889 182.826H122.993C123.756 182.826 124.375 183.445 124.375 184.208V184.208C124.375 184.971 123.756 185.589 122.993 185.589H100.889C100.126 185.589 99.5078 184.971 99.5078 184.208V184.208Z" fill="#EEF8FA"/>
<path d="M99.5078 196.18C99.5078 195.417 100.126 194.799 100.889 194.799H144.176C144.939 194.799 145.557 195.417 145.557 196.18V196.18C145.557 196.943 144.939 197.562 144.176 197.562H100.889C100.126 197.562 99.5078 196.943 99.5078 196.18V196.18Z" fill="#EEF8FA"/>
<path d="M129.9 119.738C129.9 118.975 130.519 118.356 131.282 118.356H164.438C165.201 118.356 165.819 118.975 165.819 119.738V119.738C165.819 120.501 165.201 121.119 164.438 121.119H131.282C130.519 121.119 129.9 120.501 129.9 119.738V119.738Z" fill="#EEF8FA"/>
<path d="M99.5078 143.684C99.5078 142.921 100.126 142.302 100.889 142.302H164.438C165.201 142.302 165.819 142.921 165.819 143.684V143.684C165.819 144.447 165.201 145.065 164.438 145.065H100.889C100.126 145.065 99.5078 144.447 99.5078 143.684V143.684Z" fill="#EEF8FA"/>
<path d="M105.955 160.261C105.955 159.498 106.574 158.879 107.337 158.879H130.361C131.124 158.879 131.743 159.498 131.743 160.261V160.261C131.743 161.024 131.124 161.642 130.361 161.642H107.337C106.574 161.642 105.955 161.024 105.955 160.261V160.261Z" fill="#EEF8FA"/>
<path d="M128.058 184.208C128.058 183.445 128.676 182.826 129.439 182.826H164.437C165.2 182.826 165.818 183.445 165.818 184.208V184.208C165.818 184.971 165.2 185.589 164.437 185.589H129.439C128.676 185.589 128.058 184.971 128.058 184.208V184.208Z" fill="#EEF8FA"/>
<path d="M168.583 119.738C168.583 118.975 169.202 118.356 169.964 118.356H210.488C211.251 118.356 211.87 118.975 211.87 119.738V119.738C211.87 120.501 211.251 121.119 210.488 121.119H169.964C169.202 121.119 168.583 120.501 168.583 119.738V119.738Z" fill="#EEF8FA"/>
<path d="M105.955 107.765C105.955 107.002 106.574 106.384 107.337 106.384H140.492C141.255 106.384 141.874 107.002 141.874 107.765V107.765C141.874 108.528 141.255 109.147 140.492 109.147H107.337C106.574 109.147 105.955 108.528 105.955 107.765V107.765Z" fill="#EEF8FA"/>
<path d="M146.479 107.765C146.479 107.002 147.097 106.384 147.86 106.384H175.49C176.253 106.384 176.871 107.002 176.871 107.765V107.765C176.871 108.528 176.253 109.147 175.49 109.147H147.86C147.097 109.147 146.479 108.528 146.479 107.765V107.765Z" fill="#EEF8FA"/>
<path d="M179.633 107.765C179.633 107.002 180.251 106.384 181.014 106.384H210.486C211.249 106.384 211.868 107.002 211.868 107.765V107.765C211.868 108.528 211.249 109.147 210.486 109.147H181.014C180.251 109.147 179.633 108.528 179.633 107.765V107.765Z" fill="#EEF8FA"/>
<path d="M146.479 131.711C146.479 130.948 147.097 130.33 147.86 130.33H192.068C192.831 130.33 193.449 130.948 193.449 131.711V131.711C193.449 132.474 192.831 133.093 192.068 133.093H147.86C147.097 133.093 146.479 132.474 146.479 131.711V131.711Z" fill="#EEF8FA"/>
<path d="M168.583 143.684C168.583 142.921 169.202 142.302 169.964 142.302H201.278C202.041 142.302 202.66 142.921 202.66 143.684V143.684C202.66 144.447 202.041 145.065 201.278 145.065H169.964C169.202 145.065 168.583 144.447 168.583 143.684V143.684Z" fill="#EEF8FA"/>
<path d="M135.426 160.261C135.426 159.498 136.044 158.879 136.807 158.879H191.146C191.909 158.879 192.527 159.498 192.527 160.261V160.261C192.527 161.024 191.909 161.642 191.146 161.642H136.807C136.044 161.642 135.426 161.024 135.426 160.261V160.261Z" fill="#EEF8FA"/>
<path d="M154.768 172.235C154.768 171.472 155.386 170.853 156.149 170.853H210.488C211.251 170.853 211.869 171.472 211.869 172.235V172.235C211.869 172.997 211.251 173.616 210.488 173.616H156.149C155.386 173.616 154.768 172.997 154.768 172.235V172.235Z" fill="#EEF8FA"/>
<path d="M168.583 184.208C168.583 183.445 169.202 182.826 169.964 182.826H195.752C196.515 182.826 197.134 183.445 197.134 184.208V184.208C197.134 184.971 196.515 185.589 195.752 185.589H169.964C169.202 185.589 168.583 184.971 168.583 184.208V184.208Z" fill="#EEF8FA"/>
<path d="M148.321 196.18C148.321 195.417 148.94 194.799 149.703 194.799H205.883C206.646 194.799 207.265 195.417 207.265 196.18V196.18C207.265 196.943 206.646 197.562 205.883 197.562H149.703C148.94 197.562 148.321 196.943 148.321 196.18V196.18Z" fill="#EEF8FA"/>
<path d="M274.766 229.185C274.766 228.403 275.4 227.769 276.182 227.769H300.741C301.524 227.769 302.158 228.403 302.158 229.185V229.185C302.158 229.968 301.524 230.602 300.741 230.602H276.182C275.4 230.602 274.766 229.968 274.766 229.185V229.185Z" fill="#EEF8FA"/>
<path d="M274.766 241.465C274.766 240.682 275.4 240.048 276.182 240.048H317.744C318.526 240.048 319.161 240.682 319.161 241.465V241.465C319.161 242.247 318.526 242.882 317.744 242.882H276.182C275.4 242.882 274.766 242.247 274.766 241.465V241.465Z" fill="#EEF8FA"/>
<path d="M274.766 283.025C274.766 282.243 275.4 281.608 276.182 281.608H327.19C327.972 281.608 328.606 282.243 328.606 283.025V283.025C328.606 283.808 327.972 284.442 327.19 284.442H276.182C275.4 284.442 274.766 283.808 274.766 283.025V283.025Z" fill="#EEF8FA"/>
<path d="M274.766 295.305C274.766 294.523 275.4 293.888 276.182 293.888H298.852C299.635 293.888 300.269 294.523 300.269 295.305V295.305C300.269 296.088 299.635 296.722 298.852 296.722H276.182C275.4 296.722 274.766 296.088 274.766 295.305V295.305Z" fill="#EEF8FA"/>
<path d="M274.766 307.585C274.766 306.802 275.4 306.168 276.182 306.168H320.578C321.36 306.168 321.994 306.802 321.994 307.585V307.585C321.994 308.367 321.36 309.002 320.578 309.002H276.182C275.4 309.002 274.766 308.367 274.766 307.585V307.585Z" fill="#EEF8FA"/>
<path d="M281.378 270.746C281.378 269.963 282.012 269.329 282.795 269.329H306.409C307.192 269.329 307.826 269.963 307.826 270.746V270.746C307.826 271.528 307.192 272.163 306.409 272.163H282.795C282.012 272.163 281.378 271.528 281.378 270.746V270.746Z" fill="#EEF8FA"/>
<path d="M304.047 295.305C304.047 294.523 304.681 293.888 305.464 293.888H341.358C342.14 293.888 342.774 294.523 342.774 295.305V295.305C342.774 296.088 342.14 296.722 341.358 296.722H305.464C304.681 296.722 304.047 296.088 304.047 295.305V295.305Z" fill="#EEF8FA"/>
<path d="M281.378 216.906C281.378 216.123 282.012 215.489 282.795 215.489H316.799C317.582 215.489 318.216 216.123 318.216 216.906V216.906C318.216 217.688 317.582 218.322 316.799 218.322H282.795C282.012 218.322 281.378 217.688 281.378 216.906V216.906Z" fill="#EEF8FA"/>
<path d="M311.604 270.746C311.604 269.963 312.238 269.329 313.02 269.329H368.75C369.533 269.329 370.167 269.963 370.167 270.746V270.746C370.167 271.528 369.533 272.163 368.75 272.163H313.02C312.238 272.163 311.604 271.528 311.604 270.746V270.746Z" fill="#EEF8FA"/>
<path d="M331.44 283.025C331.44 282.243 332.075 281.608 332.857 281.608H388.587C389.37 281.608 390.004 282.243 390.004 283.025V283.025C390.004 283.808 389.37 284.442 388.587 284.442H332.857C332.075 284.442 331.44 283.808 331.44 283.025V283.025Z" fill="#EEF8FA"/>
<path d="M345.609 295.305C345.609 294.523 346.244 293.888 347.026 293.888H373.474C374.257 293.888 374.891 294.523 374.891 295.305V295.305C374.891 296.088 374.257 296.722 373.474 296.722H347.026C346.244 296.722 345.609 296.088 345.609 295.305V295.305Z" fill="#EEF8FA"/>
<path d="M324.829 307.585C324.829 306.802 325.463 306.168 326.246 306.168H383.865C384.648 306.168 385.282 306.802 385.282 307.585V307.585C385.282 308.367 384.648 309.002 383.865 309.002H326.246C325.463 309.002 324.829 308.367 324.829 307.585V307.585Z" fill="#EEF8FA"/>
<path d="M153.435 74.166C153.435 72.7672 154.569 71.6333 155.967 71.6333H278.804L329.459 122.288V295.78C329.459 297.178 328.325 298.312 326.926 298.312H155.967C154.569 298.312 153.435 297.178 153.435 295.78V74.166Z" fill="white"/>
<path d="M164.592 195.662C164.592 194.613 165.442 193.763 166.491 193.763H272.866C273.915 193.763 274.765 194.613 274.765 195.662V195.662C274.765 196.711 273.915 197.562 272.866 197.562H166.491C165.442 197.562 164.592 196.711 164.592 195.662V195.662Z" fill="#1CA1C1"/>
<path d="M164.592 245.05C164.592 244.001 165.442 243.151 166.491 243.151H234.875C235.924 243.151 236.774 244.001 236.774 245.05V245.05C236.774 246.1 235.924 246.95 234.875 246.95H166.491C165.442 246.95 164.592 246.1 164.592 245.05V245.05Z" fill="#1CA1C1" fill-opacity="0.58"/>
<path d="M164.592 261.513C164.592 260.464 165.442 259.613 166.491 259.613H196.884C197.933 259.613 198.784 260.464 198.784 261.513V261.513C198.784 262.562 197.933 263.412 196.884 263.412H166.491C165.442 263.412 164.592 262.562 164.592 261.513V261.513Z" fill="#1CA1C1" fill-opacity="0.58"/>
<path d="M164.592 277.976C164.592 276.927 165.442 276.076 166.491 276.076H226.01C227.059 276.076 227.91 276.927 227.91 277.976V277.976C227.91 279.025 227.059 279.875 226.01 279.875H166.491C165.442 279.875 164.592 279.025 164.592 277.976V277.976Z" fill="#1CA1C1" fill-opacity="0.58"/>
<path d="M164.592 212.125C164.592 211.076 165.442 210.226 166.491 210.226H253.87C254.919 210.226 255.77 211.076 255.77 212.125V212.125C255.77 213.174 254.919 214.025 253.87 214.025H166.491C165.442 214.025 164.592 213.174 164.592 212.125V212.125Z" fill="#1CA1C1" fill-opacity="0.58"/>
<path d="M164.592 228.588C164.592 227.538 165.442 226.688 166.491 226.688H207.015C208.064 226.688 208.914 227.538 208.914 228.588V228.588C208.914 229.637 208.064 230.487 207.015 230.487H166.491C165.442 230.487 164.592 229.637 164.592 228.588V228.588Z" fill="#1CA1C1" fill-opacity="0.58"/>
<path d="M203.85 261.513C203.85 260.464 204.7 259.613 205.749 259.613H253.871C254.92 259.613 255.77 260.464 255.77 261.513V261.513C255.77 262.562 254.92 263.412 253.871 263.412H205.749C204.7 263.412 203.85 262.562 203.85 261.513V261.513Z" fill="#1CA1C1" fill-opacity="0.58"/>
<path d="M164.592 109.549C164.592 108.5 165.442 107.65 166.491 107.65H193.085C194.134 107.65 194.985 108.5 194.985 109.549V109.549C194.985 110.599 194.134 111.449 193.085 111.449H166.491C165.442 111.449 164.592 110.599 164.592 109.549V109.549Z" fill="#1CA1C1" fill-opacity="0.58"/>
<path d="M164.592 93.0866C164.592 92.0375 165.442 91.187 166.491 91.187H226.01C227.059 91.187 227.91 92.0375 227.91 93.0866V93.0866C227.91 94.1356 227.059 94.9861 226.01 94.9861H166.491C165.442 94.9861 164.592 94.1356 164.592 93.0866V93.0866Z" fill="#1CA1C1"/>
<path d="M201.316 109.549C201.316 108.5 202.167 107.65 203.216 107.65H269.067C270.116 107.65 270.966 108.5 270.966 109.549V109.549C270.966 110.599 270.116 111.449 269.067 111.449H203.216C202.167 111.449 201.316 110.599 201.316 109.549V109.549Z" fill="#1CA1C1" fill-opacity="0.58"/>
<path d="M164.592 126.012C164.592 124.963 165.442 124.113 166.491 124.113H212.08C213.129 124.113 213.98 124.963 213.98 126.012V126.012C213.98 127.061 213.129 127.912 212.08 127.912H166.491C165.442 127.912 164.592 127.061 164.592 126.012V126.012Z" fill="#1CA1C1" fill-opacity="0.58"/>
<path d="M164.592 143.108C164.592 141.709 165.726 140.575 167.125 140.575H316.555C317.954 140.575 319.088 141.709 319.088 143.108V178.566C319.088 179.965 317.954 181.099 316.555 181.099H167.125C165.726 181.099 164.592 179.965 164.592 178.566V143.108Z" fill="#7BC8DB" fill-opacity="0.45"/>
<path d="M220.312 126.012C220.312 124.963 221.163 124.113 222.212 124.113H262.736C263.785 124.113 264.635 124.963 264.635 126.012V126.012C264.635 127.061 263.785 127.912 262.736 127.912H222.212C221.163 127.912 220.312 127.061 220.312 126.012V126.012Z" fill="#1CA1C1" fill-opacity="0.58"/>
<path d="M259.569 212.125C259.569 211.076 260.42 210.226 261.469 210.226H304.525C305.574 210.226 306.425 211.076 306.425 212.125V212.125C306.425 213.174 305.574 214.025 304.525 214.025H261.469C260.42 214.025 259.569 213.174 259.569 212.125V212.125Z" fill="#1CA1C1" fill-opacity="0.58"/>
<path d="M213.98 228.588C213.98 227.538 214.831 226.688 215.88 226.688H290.595C291.645 226.688 292.495 227.538 292.495 228.588V228.588C292.495 229.637 291.645 230.487 290.595 230.487H215.88C214.831 230.487 213.98 229.637 213.98 228.588V228.588Z" fill="#1CA1C1" fill-opacity="0.58"/>
<path d="M240.574 245.05C240.574 244.001 241.425 243.151 242.474 243.151H317.189C318.238 243.151 319.089 244.001 319.089 245.05V245.05C319.089 246.1 318.238 246.95 317.189 246.95H242.474C241.425 246.95 240.574 246.1 240.574 245.05V245.05Z" fill="#1CA1C1" fill-opacity="0.58"/>
<path d="M259.569 261.513C259.569 260.464 260.42 259.613 261.469 259.613H296.927C297.976 259.613 298.827 260.464 298.827 261.513V261.513C298.827 262.562 297.976 263.412 296.927 263.412H261.469C260.42 263.412 259.569 262.562 259.569 261.513V261.513Z" fill="#1CA1C1" fill-opacity="0.58"/>
<path d="M231.709 277.976C231.709 276.927 232.559 276.076 233.609 276.076H310.857C311.906 276.076 312.756 276.927 312.756 277.976V277.976C312.756 279.025 311.906 279.875 310.857 279.875H233.609C232.559 279.875 231.709 279.025 231.709 277.976V277.976Z" fill="#1CA1C1" fill-opacity="0.58"/>
<path d="M278.805 119.755V71.6333L329.459 122.288H281.337C279.939 122.288 278.805 121.154 278.805 119.755Z" fill="#BBE3ED"/>
</svg>
