<svg width="470" height="400" viewBox="0 0 470 400" fill="none" xmlns="http://www.w3.org/2000/svg">
<path d="M176.449 80.8736C128.276 102.737 4.73507 70.5528 59.2078 176.628C98.0977 252.358 25.8758 274.675 42.5418 325.133C59.2078 375.59 235.644 350.935 344.264 307.931C386.954 291.03 441.965 303.918 404.345 224.218C381.343 175.487 439.091 147.386 428.746 100.942C418.402 54.498 316.678 17.2285 176.449 80.8736Z" fill="#E9F6F9"/>
<path d="M215.503 110.66C214.868 108.207 216.341 105.703 218.794 105.068L261.401 94.0326C263.854 93.3972 266.358 94.8708 266.993 97.3239L278.029 139.931C278.664 142.384 277.19 144.888 274.737 145.523L232.13 156.558C229.677 157.194 227.174 155.72 226.538 153.267L215.503 110.66Z" fill="#1CA1C1"/>
<path fill-rule="evenodd" clip-rule="evenodd" d="M250.835 143.912C260.857 141.316 266.878 131.087 264.282 121.065C261.686 111.043 251.457 105.022 241.435 107.618C231.413 110.214 225.393 120.443 227.988 130.465C230.584 140.487 240.813 146.507 250.835 143.912ZM251.41 146.132C262.659 143.219 269.416 131.738 266.503 120.49C263.589 109.241 252.109 102.484 240.86 105.397C229.611 108.311 222.854 119.791 225.767 131.04C228.681 142.289 240.162 149.046 251.41 146.132Z" fill="white"/>
<path fill-rule="evenodd" clip-rule="evenodd" d="M237.9 121.057C237.445 119.3 239.114 117.735 240.838 118.303L253.324 122.411C254.935 122.941 255.434 124.975 254.252 126.19L245.231 135.461C243.984 136.743 241.814 136.168 241.366 134.437L237.9 121.057ZM252.607 124.591L240.121 120.482L243.587 133.862L252.607 124.591Z" fill="white"/>
<path d="M115.116 154.216C114.811 145.141 122.085 137.618 131.165 137.618H209.882C213.134 137.618 216.308 138.605 218.986 140.448L242.18 156.41C244.858 158.253 248.032 159.24 251.284 159.24H352.518C361.629 159.24 368.915 166.811 368.565 175.915L364.064 293.088C363.732 301.71 356.646 308.53 348.017 308.53H135.823C127.164 308.53 120.064 301.664 119.773 293.01L115.116 154.216Z" fill="#1CA1C1" fill-opacity="0.3"/>
<path d="M120.47 106.35C120.375 105.724 120.807 105.139 121.433 105.045L189.288 94.8003C189.589 94.7549 189.895 94.8309 190.14 95.0117L220.646 117.535C220.891 117.715 221.054 117.986 221.099 118.286L235.872 216.137C235.966 216.764 235.535 217.348 234.909 217.443L140.553 231.688C139.926 231.783 139.342 231.352 139.247 230.725L120.47 106.35Z" fill="white"/>
<path d="M221.084 117.809L189.753 94.6978L193.691 120.784C193.786 121.411 194.37 121.842 194.997 121.747L221.084 117.809Z" fill="#1CA1C1" fill-opacity="0.3"/>
<path d="M130.561 117.555L156.978 113.566L157.149 114.701L130.732 118.689L130.561 117.555Z" fill="#1CA1C1"/>
<path d="M132.444 130.031L189.155 121.469L189.326 122.604L132.616 131.165L132.444 130.031Z" fill="#1CA1C1"/>
<path d="M134.328 142.507L213.723 130.521L213.894 131.655L134.499 143.642L134.328 142.507Z" fill="#1CA1C1"/>
<path d="M136.212 154.984L215.606 142.997L215.778 144.132L136.383 156.118L136.212 154.984Z" fill="#1CA1C1"/>
<path d="M138.095 167.459L217.489 155.473L217.66 156.607L138.266 168.594L138.095 167.459Z" fill="#1CA1C1"/>
<path d="M139.979 179.936L219.374 167.95L219.545 169.084L140.151 181.07L139.979 179.936Z" fill="#1CA1C1"/>
<path d="M141.862 192.412L221.257 180.426L221.428 181.56L142.034 193.546L141.862 192.412Z" fill="#1CA1C1"/>
<path d="M143.746 204.889L223.14 192.902L223.312 194.036L143.917 206.023L143.746 204.889Z" fill="#1CA1C1"/>
<path d="M145.629 217.365L225.023 205.379L225.195 206.513L145.8 218.499L145.629 217.365Z" fill="#1CA1C1"/>
<path d="M276.53 91.8849C276.67 91.267 277.284 90.8794 277.902 91.0192L370.976 112.074C371.593 112.213 371.981 112.828 371.841 113.446L344.088 236.13C343.949 236.748 343.334 237.136 342.716 236.996L249.643 215.942C249.025 215.802 248.637 215.188 248.777 214.57L276.53 91.8849Z" fill="white"/>
<path d="M279.396 96.424C279.536 95.8061 280.15 95.4185 280.768 95.5583L366.439 114.938C367.057 115.078 367.444 115.692 367.305 116.31L341.226 231.592C341.087 232.21 340.472 232.597 339.854 232.458L254.184 213.078C253.566 212.938 253.178 212.324 253.318 211.706L279.396 96.424Z" fill="#1CA1C1" fill-opacity="0.07"/>
<path d="M340.972 232.711L354.969 170.837C292.979 189.024 333.565 110.659 270.407 136.157L253.064 212.825L340.972 232.711Z" fill="#1CA1C1" fill-opacity="0.14"/>
<path d="M340.972 232.712L351.336 186.894C298.873 201.668 319.047 133.987 266.405 153.847L253.063 212.826L340.972 232.712Z" fill="#1CA1C1" fill-opacity="0.56"/>
<path d="M356.788 132.696C355.343 139.084 348.992 143.091 342.604 141.646C336.216 140.201 332.209 133.851 333.654 127.463C335.099 121.075 341.449 117.067 347.837 118.513C354.226 119.958 358.233 126.308 356.788 132.696Z" fill="#1CA1C1" fill-opacity="0.18"/>
<path d="M352.161 131.649C351.294 135.482 347.484 137.886 343.651 137.019C339.818 136.152 337.414 132.342 338.281 128.509C339.148 124.676 342.958 122.272 346.791 123.139C350.624 124.006 353.028 127.816 352.161 131.649Z" fill="#1CA1C1" fill-opacity="0.48"/>
<path d="M115.116 161.098C114.811 152.023 122.085 144.5 131.165 144.5H209.882C213.134 144.5 216.308 145.487 218.986 147.33L242.18 163.292C244.858 165.135 248.032 166.122 251.284 166.122H352.518C361.629 166.122 368.915 173.693 368.565 182.797L364.064 299.97C363.732 308.593 356.646 315.412 348.017 315.412H135.823C127.164 315.412 120.064 308.547 119.773 299.892L115.116 161.098Z" fill="#1CA1C1" fill-opacity="0.3"/>
<path d="M232.405 130.658C232.868 128.167 235.263 126.522 237.754 126.985L287.178 136.17C289.669 136.633 291.314 139.028 290.851 141.519L281.666 190.943C281.203 193.435 278.808 195.079 276.317 194.616L226.893 185.431C224.401 184.968 222.757 182.573 223.22 180.082L232.405 130.658Z" fill="#85CDDF"/>
<path fill-rule="evenodd" clip-rule="evenodd" d="M258.055 143.642C258.206 142.829 259.141 142.438 259.825 142.901L270.999 150.453C271.377 150.709 271.568 151.165 271.485 151.613L270.276 158.118C270.125 158.93 269.19 159.321 268.506 158.858L259.193 152.564L255.58 172.005L255.565 172.002C255.547 172.152 255.525 172.303 255.497 172.453C254.807 176.167 251.222 178.615 247.491 177.921C243.76 177.228 241.294 173.655 241.984 169.942C242.674 166.229 246.259 163.781 249.99 164.475C251.511 164.757 252.822 165.518 253.794 166.572L258.055 143.642ZM261.038 147.025C260.696 146.794 260.229 146.989 260.153 147.395L259.738 149.628L267.293 154.734C267.635 154.966 268.102 154.77 268.178 154.364L268.524 152.5C268.566 152.276 268.47 152.048 268.281 151.92L261.038 147.025Z" fill="white"/>
<path d="M115.116 167.98C114.811 158.905 122.085 151.383 131.165 151.383H209.882C213.134 151.383 216.308 152.37 218.986 154.213L242.18 170.174C244.858 172.017 248.032 173.004 251.284 173.004H352.518C361.629 173.004 368.915 180.575 368.565 189.679L364.064 306.852C363.732 315.475 356.646 322.295 348.017 322.295H135.823C127.164 322.295 120.064 315.429 119.773 306.774L115.116 167.98Z" fill="#1CA1C1"/>
<path d="M249.833 196.514C249.775 195.886 250.234 195.33 250.86 195.267L304.409 189.863C305.015 189.802 305.563 190.225 305.657 190.827L313.321 239.749C313.417 240.367 313.002 240.948 312.386 241.056L256.112 250.96C255.452 251.077 254.833 250.604 254.771 249.936L249.833 196.514Z" fill="#087F9C" fill-opacity="0.7"/>
<path d="M249.878 195.624C249.796 194.996 250.239 194.42 250.867 194.338L306.229 187.09C306.857 187.008 307.433 187.451 307.515 188.079L314.275 239.716C314.357 240.344 313.915 240.92 313.287 241.002L257.925 248.25C257.296 248.332 256.721 247.889 256.638 247.261L249.878 195.624Z" fill="#A0D8E5"/>
<path fill-rule="evenodd" clip-rule="evenodd" d="M273.791 212.437C274.281 212.838 274.353 213.561 273.952 214.051L268.266 221L275.647 226.113C276.168 226.474 276.298 227.188 275.937 227.709C275.576 228.23 274.862 228.36 274.341 227.999L266.96 222.886C265.859 222.124 265.643 220.584 266.491 219.548L272.177 212.599C272.578 212.108 273.301 212.036 273.791 212.437Z" fill="#1CA1C1"/>
<path fill-rule="evenodd" clip-rule="evenodd" d="M289.285 210.26C288.925 210.781 289.055 211.495 289.575 211.856L296.956 216.969L291.27 223.918C290.869 224.408 290.941 225.131 291.432 225.532C291.922 225.933 292.645 225.861 293.046 225.37L298.732 218.421C299.58 217.385 299.363 215.845 298.263 215.083L290.882 209.97C290.361 209.609 289.646 209.739 289.285 210.26Z" fill="#1CA1C1"/>
<path fill-rule="evenodd" clip-rule="evenodd" d="M285.063 204.709C285.685 204.828 286.093 205.429 285.974 206.051L280.93 232.43C280.811 233.053 280.21 233.46 279.588 233.342C278.966 233.223 278.558 232.622 278.677 231.999L283.721 205.62C283.84 204.998 284.441 204.59 285.063 204.709Z" fill="#1CA1C1"/>
<path fill-rule="evenodd" clip-rule="evenodd" d="M287.697 172.029C287.101 172.029 286.617 172.513 286.617 173.109H284.323C284.323 171.246 285.834 169.735 287.697 169.735H293.697C298.023 169.735 301.529 173.242 301.529 177.567V203.41C301.529 206.984 298.631 209.882 295.056 209.882C291.482 209.882 288.584 206.984 288.584 203.41V179.755H290.878V203.41C290.878 205.717 292.749 207.588 295.056 207.588C297.364 207.588 299.235 205.717 299.235 203.41V177.567C299.235 174.509 296.756 172.029 293.697 172.029H287.697Z" fill="white"/>
</svg>
