<svg width="470" height="400" viewBox="0 0 470 400" fill="none" xmlns="http://www.w3.org/2000/svg">
<path d="M409.225 223.336C385.729 170.208 441.658 118.653 423.154 72.9708C404.65 27.289 351.5 27.5 258.856 52.6639C173.232 72.3285 114.167 31.5612 69.7536 52.6639C39.9637 66.8185 33.1245 116.04 64.6783 161.162C124.08 246.106 18.3337 290.519 44.136 336.201C69.9384 381.883 160.513 328.492 225.863 333.734C263.999 334.333 289.609 340.088 336.896 355.306C427.595 384.495 452.72 321.683 409.225 223.336Z" fill="#DDF1F6"/>
<path fill-rule="evenodd" clip-rule="evenodd" d="M329.968 48.0903C329.978 47.74 330.269 47.4638 330.62 47.4734C331.471 47.4967 332.323 47.5476 333.174 47.6256C333.523 47.6575 333.78 47.9663 333.748 48.3152C333.716 48.6642 333.407 48.9212 333.059 48.8892C332.234 48.8137 331.409 48.7644 330.585 48.7419C330.235 48.7323 329.958 48.4405 329.968 48.0903ZM326.199 48.237C326.236 48.5854 325.984 48.8981 325.636 48.9355C324.816 49.0235 323.999 49.1397 323.185 49.2847C322.84 49.3463 322.511 49.1165 322.449 48.7715C322.388 48.4266 322.617 48.097 322.962 48.0355C323.805 47.8852 324.651 47.7649 325.5 47.6738C325.849 47.6364 326.162 47.8886 326.199 48.237ZM337.48 48.8903C337.554 48.5477 337.892 48.3299 338.234 48.4038C339.063 48.5825 339.889 48.7859 340.713 49.0132C341.051 49.1064 341.249 49.4558 341.156 49.7936C341.062 50.1314 340.713 50.3296 340.375 50.2364C339.575 50.0153 338.772 49.8178 337.967 49.6442C337.624 49.5704 337.406 49.2328 337.48 48.8903ZM318.794 49.6944C318.903 50.0272 318.723 50.3859 318.39 50.4957C317.611 50.7525 316.838 51.0382 316.071 51.3535C315.746 51.4866 315.376 51.3318 315.243 51.0077C315.109 50.6836 315.264 50.3129 315.588 50.1797C316.384 49.853 317.185 49.5568 317.992 49.2906C318.325 49.1808 318.684 49.3616 318.794 49.6944ZM344.735 50.9963C344.864 50.6705 345.233 50.511 345.559 50.64C346.346 50.9515 347.128 51.2846 347.905 51.6387C348.223 51.7841 348.364 52.1604 348.219 52.4792C348.073 52.798 347.697 52.9387 347.378 52.7933C346.621 52.448 345.858 52.1233 345.092 51.8198C344.766 51.6908 344.606 51.3221 344.735 50.9963ZM311.864 52.6833C312.041 52.9857 311.939 53.3744 311.637 53.5514C310.932 53.9637 310.235 54.4038 309.546 54.8723C309.256 55.0692 308.862 54.994 308.665 54.7041C308.468 54.4143 308.543 54.0197 308.833 53.8228C309.545 53.3384 310.267 52.8831 310.995 52.4564C311.298 52.2793 311.686 52.3809 311.864 52.6833ZM351.574 54.2123C351.749 53.9089 352.137 53.8052 352.441 53.9807C353.172 54.4038 353.897 54.8458 354.615 55.3061C354.91 55.4953 354.996 55.8878 354.806 56.1827C354.617 56.4777 354.225 56.5634 353.93 56.3742C353.228 55.9243 352.52 55.4924 351.805 55.0791C351.502 54.9037 351.398 54.5156 351.574 54.2123ZM305.689 57.0215C305.922 57.284 305.897 57.685 305.634 57.9171C305.325 58.1911 305.017 58.4716 304.711 58.7588C304.401 59.0689 304.103 59.3819 303.816 59.6974C303.58 59.9565 303.178 59.9755 302.919 59.7396C302.66 59.5038 302.641 59.1025 302.877 58.8433C303.18 58.5105 303.494 58.181 303.821 57.8548L303.835 57.8411C304.152 57.5428 304.472 57.2512 304.794 56.9665C305.056 56.7344 305.457 56.759 305.689 57.0215ZM357.892 58.3625C358.106 58.0855 358.505 58.0348 358.782 58.2493C359.449 58.7662 360.108 59.2995 360.759 59.8488C361.026 60.0749 361.06 60.4752 360.834 60.7429C360.608 61.0105 360.207 61.0442 359.94 60.818C359.303 60.2803 358.658 59.7584 358.005 59.2526C357.728 59.0381 357.677 58.6396 357.892 58.3625ZM300.658 62.7729C300.959 62.9514 301.059 63.3406 300.881 63.6421C300.448 64.3729 300.064 65.1162 299.728 65.8717C299.586 66.1918 299.211 66.3358 298.891 66.1934C298.57 66.0509 298.426 65.6759 298.569 65.3557C298.925 64.5551 299.331 63.7682 299.789 62.9956C299.967 62.6941 300.356 62.5944 300.658 62.7729ZM363.614 63.2992C363.862 63.0513 364.263 63.051 364.511 63.2987C365.109 63.8954 365.696 64.5065 366.273 65.1316C366.511 65.3891 366.495 65.7905 366.237 66.0281C365.98 66.2658 365.578 66.2497 365.341 65.9922C364.775 65.3798 364.2 64.7811 363.614 64.1965C363.367 63.9489 363.366 63.5471 363.614 63.2992ZM368.684 68.9028C368.96 68.6866 369.358 68.7347 369.575 69.0105C370.096 69.6756 370.607 70.3533 371.105 71.0431C371.31 71.3272 371.246 71.7238 370.962 71.929C370.678 72.1342 370.282 72.0702 370.076 71.7862C369.588 71.1099 369.088 70.4456 368.576 69.7936C368.36 69.5179 368.408 69.1191 368.684 68.9028ZM297.758 69.8161C298.102 69.8822 298.327 70.2148 298.261 70.5589C298.106 71.3664 297.994 72.1868 297.925 73.0201C297.896 73.3693 297.589 73.6288 297.24 73.5997C296.891 73.5706 296.631 73.2639 296.66 72.9147C296.733 72.038 296.851 71.1727 297.015 70.3194C297.081 69.9753 297.413 69.7499 297.758 69.8161ZM373.049 75.0722C373.348 74.89 373.739 74.985 373.921 75.2843C374.361 76.0074 374.788 76.7413 375.202 77.4859C375.372 77.7922 375.262 78.1785 374.956 78.3487C374.65 78.519 374.263 78.4088 374.093 78.1025C373.687 77.3725 373.268 76.6529 372.837 75.9441C372.655 75.6447 372.75 75.2544 373.049 75.0722ZM297.287 77.4C297.636 77.3657 297.946 77.6205 297.98 77.9692C298.063 78.8034 298.18 79.6488 298.331 80.5052C298.391 80.8503 298.161 81.1794 297.816 81.2402C297.471 81.3009 297.142 81.0705 297.081 80.7254C296.925 79.839 296.803 78.9616 296.718 78.0936C296.683 77.7448 296.938 77.4343 297.287 77.4ZM376.658 81.7139C376.976 81.5682 377.353 81.7084 377.498 82.0271C377.851 82.7981 378.19 83.5786 378.514 84.3681C378.647 84.6923 378.492 85.0629 378.167 85.196C377.843 85.329 377.473 85.1741 377.34 84.8499C377.022 84.0758 376.69 83.3107 376.344 82.5548C376.199 82.2361 376.339 81.8597 376.658 81.7139ZM298.704 84.9109C299.04 84.8097 299.394 84.9996 299.495 85.3351C299.736 86.1337 300.001 86.9404 300.291 87.7552C300.408 88.0854 300.236 88.4482 299.905 88.5655C299.575 88.6828 299.213 88.5102 299.095 88.18C298.799 87.347 298.527 86.5208 298.28 85.7015C298.179 85.366 298.369 85.0121 298.704 84.9109ZM208.689 87.2326C208.693 86.8822 208.981 86.6015 209.331 86.6056C210.209 86.6159 211.087 86.6324 211.964 86.6548C212.314 86.6638 212.591 86.955 212.582 87.3053C212.573 87.6556 212.282 87.9323 211.931 87.9234C211.06 87.901 210.188 87.8847 209.316 87.8745C208.966 87.8704 208.685 87.583 208.689 87.2326ZM204.709 87.2422C204.715 87.5926 204.436 87.8814 204.085 87.8873C203.214 87.902 202.342 87.9231 201.471 87.9506C201.121 87.9617 200.828 87.6868 200.817 87.3366C200.806 86.9863 201.081 86.6934 201.431 86.6823C202.308 86.6546 203.186 86.6333 204.064 86.6185C204.414 86.6126 204.703 86.8919 204.709 87.2422ZM216.559 87.4611C216.577 87.1112 216.876 86.8424 217.226 86.8608C218.103 86.9069 218.979 86.9587 219.854 87.0162C220.203 87.0391 220.468 87.3412 220.445 87.6908C220.422 88.0405 220.12 88.3053 219.771 88.2824C218.901 88.2253 218.03 88.1738 217.159 88.128C216.809 88.1096 216.54 87.811 216.559 87.4611ZM196.841 87.5228C196.863 87.8725 196.597 88.1737 196.247 88.1955C195.377 88.2498 194.508 88.3108 193.639 88.3788C193.29 88.4062 192.985 88.1452 192.957 87.7958C192.93 87.4465 193.191 87.1411 193.54 87.1138C194.415 87.0452 195.291 86.9837 196.168 86.929C196.518 86.9072 196.819 87.173 196.841 87.5228ZM224.414 88.0026C224.446 87.6537 224.754 87.3966 225.103 87.4285C225.978 87.5083 226.851 87.5936 227.722 87.6841C228.07 87.7203 228.324 88.0322 228.287 88.3807C228.251 88.7293 227.939 88.9825 227.591 88.9462C226.725 88.8563 225.857 88.7715 224.988 88.6922C224.639 88.6603 224.382 88.3516 224.414 88.0026ZM188.995 88.1713C189.034 88.5196 188.783 88.8334 188.435 88.8723C188.002 88.9206 187.57 88.9707 187.138 89.0226C186.71 89.0741 186.283 89.1271 185.858 89.1816C185.51 89.2262 185.192 88.9806 185.148 88.6331C185.103 88.2855 185.349 87.9676 185.696 87.923C186.125 87.868 186.555 87.8146 186.986 87.7628C187.422 87.7104 187.858 87.6598 188.294 87.6111C188.642 87.5723 188.956 87.8231 188.995 88.1713ZM232.243 88.8408C232.287 88.4932 232.605 88.2477 232.953 88.2924C233.824 88.4045 234.694 88.5217 235.56 88.6438C235.907 88.6927 236.149 89.0136 236.1 89.3605C236.051 89.7075 235.73 89.9492 235.384 89.9003C234.522 89.7789 233.657 89.6624 232.791 89.551C232.443 89.5063 232.198 89.1883 232.243 88.8408ZM181.333 89.1838C181.389 89.5298 181.153 89.8553 180.807 89.9109C179.975 90.0448 179.147 90.1848 178.323 90.3308C177.978 90.3919 177.649 90.1618 177.588 89.8168C177.526 89.4718 177.756 89.1425 178.101 89.0813C178.932 88.9341 179.766 88.793 180.606 88.6581C180.952 88.6025 181.277 88.8378 181.333 89.1838ZM379.46 88.7366C379.794 88.6295 380.151 88.8132 380.258 89.1468C380.516 89.9514 380.76 90.764 380.988 91.5843C381.081 91.9219 380.884 92.2716 380.546 92.3654C380.209 92.4593 379.859 92.2616 379.765 91.924C379.542 91.12 379.303 90.3234 379.05 89.5346C378.943 89.201 379.126 88.8437 379.46 88.7366ZM240.035 89.9625C240.093 89.6167 240.419 89.3827 240.765 89.4398C241.633 89.5829 242.497 89.7309 243.359 89.8835C243.704 89.9446 243.934 90.2738 243.873 90.6188C243.812 90.9639 243.483 91.1941 243.138 91.133C242.281 90.9813 241.421 90.8341 240.558 90.6918C240.212 90.6347 239.978 90.3082 240.035 89.9625ZM173.876 90.5372C173.949 90.8801 173.73 91.2167 173.387 91.2892C172.549 91.4662 171.716 91.6496 170.889 91.8393C170.547 91.9175 170.207 91.7041 170.128 91.3625C170.05 91.021 170.264 90.6806 170.605 90.6024C171.44 90.4111 172.28 90.2261 173.125 90.0476C173.467 89.9752 173.804 90.1944 173.876 90.5372ZM247.783 91.3578C247.852 91.0143 248.186 90.7918 248.53 90.8609C249.393 91.0344 250.253 91.2124 251.109 91.3948C251.452 91.4678 251.67 91.8048 251.597 92.1475C251.524 92.4902 251.187 92.7089 250.844 92.6358C249.993 92.4545 249.138 92.2775 248.28 92.1049C247.936 92.0359 247.714 91.7014 247.783 91.3578ZM166.432 92.2761C166.522 92.6147 166.321 92.9622 165.982 93.0521C165.174 93.2666 164.371 93.4873 163.574 93.714C163.237 93.8097 162.886 93.6141 162.79 93.2771C162.694 92.94 162.89 92.5891 163.227 92.4933C164.032 92.2647 164.841 92.0421 165.656 91.8257C165.995 91.7358 166.342 91.9374 166.432 92.2761ZM301.327 92.1006C301.647 91.9583 302.022 92.1025 302.164 92.4227C302.504 93.187 302.862 93.9574 303.237 94.7339C303.389 95.0495 303.257 95.4288 302.941 95.5811C302.626 95.7335 302.246 95.6012 302.094 95.2857C301.714 94.4978 301.35 93.7153 301.005 92.9381C300.862 92.618 301.007 92.243 301.327 92.1006ZM255.477 93.021C255.558 92.6801 255.9 92.4693 256.241 92.5502C257.099 92.7536 257.951 92.9612 258.799 93.1728C259.139 93.2576 259.346 93.602 259.261 93.942C259.177 94.282 258.832 94.4888 258.492 94.404C257.649 94.1936 256.801 93.9871 255.948 93.7848C255.607 93.7039 255.397 93.362 255.477 93.021ZM159.108 94.3948C159.216 94.7282 159.033 95.0859 158.7 95.1937C157.894 95.4543 157.094 95.7212 156.299 95.9943C155.968 96.1082 155.607 95.9318 155.493 95.6005C155.379 95.2691 155.555 94.9081 155.887 94.7942C156.689 94.5186 157.496 94.2493 158.309 93.9864C158.643 93.8785 159 94.0614 159.108 94.3948ZM263.114 94.9511C263.207 94.6132 263.556 94.4144 263.894 94.5072C264.743 94.7404 265.587 94.9775 266.425 95.2183C266.762 95.3151 266.957 95.6665 266.86 96.0033C266.763 96.3401 266.412 96.5347 266.075 96.4379C265.242 96.1985 264.403 95.9628 263.558 95.7309C263.22 95.6381 263.021 95.289 263.114 94.9511ZM381.412 96.0398C381.756 95.973 382.089 96.1977 382.156 96.5417C382.317 97.3695 382.462 98.204 382.591 99.0447C382.644 99.3911 382.406 99.715 382.06 99.7681C381.714 99.8213 381.39 99.5837 381.337 99.2373C381.21 98.4131 381.068 97.5951 380.91 96.7836C380.843 96.4396 381.068 96.1066 381.412 96.0398ZM151.953 96.8895C152.079 97.2165 151.916 97.5837 151.589 97.7097C150.79 98.0172 149.998 98.3313 149.211 98.6516C148.886 98.7838 148.516 98.6278 148.384 98.3033C148.252 97.9787 148.408 97.6085 148.732 97.4764C149.527 97.153 150.327 96.836 151.133 96.5255C151.46 96.3996 151.827 96.5626 151.953 96.8895ZM270.673 97.1485C270.778 96.8142 271.134 96.6282 271.469 96.7331C272.312 96.9975 273.148 97.2656 273.977 97.537C274.31 97.646 274.492 98.0044 274.382 98.3374C274.273 98.6704 273.915 98.852 273.582 98.743C272.758 98.4732 271.927 98.2067 271.089 97.9438C270.754 97.8389 270.568 97.4829 270.673 97.1485ZM304.689 98.9637C304.996 98.7954 305.382 98.9082 305.55 99.2155C305.958 99.96 306.379 100.709 306.813 101.464C306.988 101.767 306.883 102.155 306.58 102.33C306.276 102.505 305.888 102.4 305.713 102.097C305.275 101.335 304.849 100.578 304.437 99.8249C304.269 99.5176 304.381 99.132 304.689 98.9637ZM278.147 99.6232C278.265 99.2931 278.628 99.1208 278.958 99.2384C279.79 99.5349 280.614 99.8346 281.429 100.137C281.757 100.259 281.925 100.624 281.803 100.953C281.681 101.281 281.315 101.449 280.987 101.327C280.177 101.026 279.359 100.728 278.532 100.434C278.202 100.316 278.029 99.9533 278.147 99.6232ZM144.876 99.8096C145.021 100.129 144.879 100.505 144.56 100.649C143.797 100.995 143.039 101.346 142.288 101.704C141.971 101.854 141.593 101.72 141.442 101.403C141.292 101.087 141.426 100.708 141.742 100.558C142.501 100.197 143.266 99.8418 144.037 99.4931C144.356 99.3486 144.732 99.4904 144.876 99.8096ZM285.517 102.392C285.649 102.067 286.019 101.91 286.343 102.042C287.166 102.374 287.979 102.71 288.78 103.048C289.103 103.184 289.254 103.556 289.118 103.879C288.982 104.202 288.609 104.353 288.287 104.217C287.491 103.881 286.685 103.548 285.868 103.218C285.543 103.087 285.386 102.717 285.517 102.392ZM138.012 103.118C138.175 103.428 138.056 103.812 137.745 103.975C136.997 104.368 136.254 104.767 135.518 105.173C135.211 105.342 134.826 105.23 134.657 104.923C134.488 104.616 134.599 104.23 134.906 104.061C135.65 103.652 136.4 103.248 137.156 102.851C137.466 102.689 137.849 102.808 138.012 103.118ZM382.485 103.516C382.834 103.49 383.138 103.753 383.164 104.102C383.226 104.946 383.272 105.796 383.301 106.65C383.313 107 383.039 107.294 382.689 107.306C382.339 107.318 382.045 107.044 382.033 106.694C382.004 105.856 381.96 105.023 381.899 104.195C381.873 103.846 382.135 103.541 382.485 103.516ZM292.761 105.485C292.908 105.167 293.285 105.028 293.603 105.175C294.001 105.359 294.397 105.543 294.788 105.728C295.105 105.878 295.241 106.256 295.091 106.573C294.942 106.89 294.564 107.025 294.247 106.876C293.858 106.692 293.466 106.51 293.071 106.327C292.753 106.18 292.614 105.804 292.761 105.485ZM308.525 105.57C308.823 105.384 309.214 105.475 309.399 105.773C309.852 106.499 310.315 107.229 310.788 107.963C310.978 108.258 310.893 108.651 310.598 108.84C310.304 109.03 309.911 108.945 309.721 108.651C309.245 107.911 308.779 107.176 308.322 106.444C308.137 106.146 308.228 105.755 308.525 105.57ZM131.378 106.814C131.559 107.114 131.463 107.504 131.163 107.686C130.434 108.126 129.712 108.572 128.997 109.025C128.7 109.212 128.309 109.124 128.121 108.828C127.934 108.531 128.022 108.139 128.318 107.952C129.041 107.495 129.771 107.044 130.507 106.599C130.807 106.418 131.197 106.514 131.378 106.814ZM124.945 110.928C125.144 111.216 125.072 111.612 124.784 111.811C124.095 112.287 123.413 112.77 122.737 113.258C122.453 113.463 122.056 113.399 121.851 113.115C121.646 112.831 121.71 112.434 121.994 112.229C122.677 111.736 123.366 111.249 124.062 110.767C124.351 110.568 124.746 110.64 124.945 110.928ZM382.671 111.075C383.021 111.091 383.292 111.387 383.277 111.737C383.24 112.578 383.188 113.424 383.118 114.273C383.089 114.623 382.783 114.883 382.434 114.854C382.085 114.825 381.825 114.519 381.853 114.17C381.922 113.336 381.973 112.507 382.009 111.682C382.025 111.332 382.321 111.06 382.671 111.075ZM312.685 111.99C312.975 111.793 313.369 111.869 313.566 112.159C314.042 112.859 314.526 113.564 315.017 114.271C315.217 114.559 315.146 114.954 314.858 115.154C314.57 115.354 314.175 115.282 313.975 114.995C313.481 114.284 312.995 113.576 312.517 112.872C312.32 112.582 312.395 112.187 312.685 111.99ZM118.787 115.427C119.004 115.702 118.957 116.101 118.682 116.318C118.02 116.839 117.365 117.367 116.718 117.9C116.447 118.122 116.047 118.083 115.825 117.813C115.602 117.542 115.641 117.142 115.911 116.92C116.566 116.381 117.227 115.848 117.896 115.321C118.171 115.104 118.57 115.152 118.787 115.427ZM317.072 118.281C317.356 118.076 317.753 118.14 317.957 118.425C318.448 119.106 318.945 119.79 319.447 120.477C319.654 120.76 319.592 121.157 319.309 121.363C319.027 121.57 318.63 121.509 318.423 121.226C317.919 120.537 317.421 119.85 316.928 119.166C316.723 118.882 316.788 118.485 317.072 118.281ZM381.984 118.599C382.33 118.654 382.566 118.979 382.512 119.325C382.445 119.747 382.374 120.169 382.299 120.592C382.224 121.019 382.145 121.444 382.065 121.868C382 122.212 381.668 122.439 381.323 122.373C380.979 122.308 380.753 121.976 380.818 121.632C380.898 121.213 380.975 120.792 381.05 120.371C381.123 119.955 381.193 119.541 381.258 119.127C381.313 118.781 381.638 118.545 381.984 118.599ZM112.936 120.293C113.17 120.554 113.148 120.956 112.887 121.189C112.257 121.754 111.634 122.325 111.018 122.901C110.763 123.14 110.361 123.127 110.122 122.871C109.882 122.615 109.896 122.214 110.151 121.974C110.774 121.392 111.403 120.816 112.04 120.245C112.301 120.011 112.702 120.033 112.936 120.293ZM321.618 124.479C321.898 124.269 322.296 124.326 322.506 124.606C323.007 125.274 323.511 125.944 324.02 126.616C324.232 126.895 324.177 127.293 323.897 127.505C323.618 127.716 323.22 127.661 323.008 127.382C322.498 126.708 321.992 126.037 321.491 125.367C321.28 125.087 321.337 124.689 321.618 124.479ZM107.407 125.522C107.657 125.768 107.66 126.169 107.415 126.419C106.822 127.024 106.237 127.633 105.659 128.248C105.419 128.503 105.017 128.516 104.762 128.276C104.507 128.036 104.494 127.634 104.734 127.379C105.318 126.758 105.91 126.141 106.509 125.531C106.755 125.28 107.156 125.277 107.407 125.522ZM380.518 126.12C380.858 126.202 381.068 126.544 380.986 126.885C380.783 127.727 380.571 128.561 380.35 129.389C380.259 129.728 379.911 129.929 379.573 129.838C379.234 129.748 379.033 129.4 379.124 129.061C379.343 128.244 379.552 127.419 379.752 126.588C379.834 126.247 380.177 126.038 380.518 126.12ZM326.228 130.559C326.506 130.345 326.904 130.397 327.118 130.675C327.638 131.352 328.161 132.03 328.688 132.71C328.902 132.988 328.851 133.386 328.574 133.601C328.297 133.815 327.898 133.764 327.684 133.487C327.157 132.805 326.633 132.126 326.112 131.449C325.899 131.171 325.951 130.772 326.228 130.559ZM102.209 131.112C102.475 131.341 102.504 131.741 102.276 132.007C101.727 132.643 101.187 133.284 100.654 133.93C100.431 134.2 100.031 134.239 99.7609 134.016C99.4906 133.793 99.4522 133.393 99.6752 133.122C100.214 132.47 100.76 131.821 101.314 131.178C101.543 130.913 101.944 130.883 102.209 131.112ZM378.487 133.52C378.821 133.627 379.004 133.985 378.896 134.319C378.632 135.136 378.359 135.947 378.076 136.751C377.96 137.081 377.598 137.255 377.267 137.139C376.937 137.022 376.763 136.66 376.879 136.33C377.158 135.537 377.428 134.736 377.689 133.929C377.796 133.595 378.154 133.412 378.487 133.52ZM330.907 136.602C331.183 136.387 331.582 136.436 331.797 136.712C332.32 137.383 332.845 138.055 333.372 138.73C333.588 139.006 333.54 139.404 333.263 139.62C332.987 139.836 332.589 139.787 332.373 139.511C331.845 138.837 331.32 138.164 330.796 137.493C330.581 137.216 330.63 136.818 330.907 136.602ZM97.3922 137.018C97.672 137.229 97.7277 137.627 97.5167 137.906C97.0092 138.579 96.5097 139.256 96.0183 139.938C95.8134 140.222 95.4169 140.287 95.1326 140.082C94.8484 139.877 94.7841 139.48 94.989 139.196C95.4857 138.507 95.9906 137.822 96.5036 137.142C96.7146 136.862 97.1125 136.807 97.3922 137.018ZM375.897 140.729C376.221 140.863 376.376 141.234 376.242 141.558C375.915 142.352 375.578 143.139 375.233 143.918C375.09 144.238 374.716 144.382 374.395 144.24C374.075 144.098 373.931 143.723 374.073 143.403C374.414 142.634 374.746 141.858 375.069 141.074C375.203 140.75 375.574 140.596 375.897 140.729ZM335.629 142.641C335.905 142.425 336.304 142.473 336.52 142.749L338.089 144.751C338.305 145.027 338.257 145.426 337.981 145.642C337.705 145.858 337.306 145.81 337.09 145.534L335.521 143.532C335.305 143.256 335.353 142.857 335.629 142.641ZM92.973 143.219C93.2659 143.412 93.3474 143.805 93.155 144.098C92.6914 144.804 92.2361 145.514 91.7891 146.228C91.6031 146.525 91.2116 146.615 90.9146 146.429C90.6176 146.243 90.5275 145.852 90.7135 145.555C91.1654 144.833 91.6257 144.115 92.0944 143.401C92.2867 143.109 92.6801 143.027 92.973 143.219ZM372.744 147.704C373.056 147.864 373.18 148.246 373.021 148.558C372.628 149.327 372.226 150.088 371.816 150.84C371.648 151.147 371.262 151.26 370.955 151.093C370.647 150.925 370.534 150.539 370.702 150.232C371.107 149.49 371.503 148.74 371.891 147.981C372.05 147.669 372.432 147.545 372.744 147.704ZM340.353 148.674C340.629 148.458 341.028 148.507 341.243 148.783C341.765 149.452 342.287 150.121 342.81 150.793C343.025 151.069 342.975 151.468 342.699 151.683C342.422 151.898 342.024 151.848 341.808 151.572C341.286 150.901 340.765 150.232 340.243 149.564C340.027 149.288 340.077 148.889 340.353 148.674ZM88.968 149.695C89.2728 149.868 89.3798 150.255 89.207 150.56C88.7901 151.295 88.3818 152.034 87.9819 152.777C87.8158 153.086 87.431 153.201 87.1225 153.035C86.814 152.869 86.6985 152.484 86.8646 152.176C87.2688 151.425 87.6817 150.678 88.1031 149.934C88.2759 149.629 88.6631 149.522 88.968 149.695ZM369.022 154.41C369.32 154.595 369.411 154.986 369.226 155.284C368.774 156.013 368.313 156.732 367.844 157.443C367.65 157.735 367.257 157.816 366.964 157.623C366.672 157.43 366.592 157.036 366.785 156.744C367.247 156.043 367.702 155.333 368.148 154.615C368.333 154.317 368.724 154.226 369.022 154.41ZM345.044 154.708C345.322 154.494 345.72 154.545 345.934 154.822C346.454 155.497 346.974 156.172 347.493 156.849C347.707 157.127 347.654 157.525 347.376 157.738C347.098 157.951 346.7 157.899 346.487 157.621C345.968 156.945 345.449 156.271 344.929 155.598C344.715 155.32 344.767 154.922 345.044 154.708ZM85.3889 156.431C85.7044 156.583 85.8365 156.962 85.684 157.278C85.3181 158.035 84.9607 158.796 84.6119 159.559C84.4663 159.878 84.0899 160.019 83.7712 159.873C83.4525 159.727 83.3121 159.351 83.4576 159.032C83.8102 158.26 84.1715 157.491 84.5415 156.726C84.694 156.41 85.0734 156.278 85.3889 156.431ZM364.757 160.767C365.037 160.976 365.095 161.374 364.886 161.655C364.37 162.346 363.846 163.028 363.314 163.7C363.096 163.974 362.697 164.021 362.423 163.803C362.148 163.585 362.102 163.186 362.319 162.912C362.844 162.25 363.36 161.578 363.869 160.896C364.078 160.615 364.476 160.557 364.757 160.767ZM349.701 160.788C349.98 160.576 350.378 160.631 350.59 160.911C351.103 161.589 351.616 162.269 352.126 162.949C352.337 163.23 352.28 163.627 352 163.838C351.719 164.048 351.322 163.991 351.111 163.711C350.602 163.032 350.09 162.354 349.578 161.676C349.366 161.397 349.422 160.999 349.701 160.788ZM82.261 163.381C82.5858 163.512 82.7426 163.882 82.6111 164.207C82.2951 164.988 81.9879 165.771 81.6895 166.558C81.5652 166.885 81.1988 167.05 80.8712 166.926C80.5436 166.801 80.3788 166.435 80.5031 166.107C80.8048 165.312 81.1154 164.52 81.4349 163.731C81.5663 163.406 81.9362 163.25 82.261 163.381ZM359.952 166.743C360.214 166.976 360.236 167.377 360.003 167.638C359.432 168.28 358.852 168.91 358.266 169.531C358.025 169.785 357.623 169.796 357.369 169.555C357.114 169.315 357.103 168.913 357.344 168.659C357.922 168.047 358.493 167.426 359.056 166.794C359.289 166.532 359.69 166.509 359.952 166.743ZM354.285 166.912C354.567 166.704 354.964 166.764 355.172 167.046C355.678 167.734 356.182 168.423 356.684 169.113C356.89 169.396 356.828 169.793 356.545 169.999C356.261 170.205 355.864 170.143 355.658 169.859C355.158 169.172 354.655 168.485 354.15 167.799C353.942 167.516 354.003 167.119 354.285 166.912ZM79.5967 170.519C79.9294 170.629 80.1101 170.988 80.0002 171.32C79.7359 172.121 79.4805 172.924 79.234 173.729C79.1315 174.064 78.7767 174.252 78.4417 174.15C78.1066 174.047 77.9181 173.692 78.0207 173.357C78.2698 172.543 78.528 171.732 78.7952 170.922C78.9051 170.59 79.2639 170.409 79.5967 170.519ZM354.648 172.266C354.888 172.522 354.876 172.923 354.62 173.163C353.992 173.753 353.357 174.332 352.714 174.899C352.452 175.131 352.051 175.106 351.819 174.844C351.587 174.581 351.612 174.18 351.874 173.948C352.507 173.389 353.133 172.819 353.752 172.238C354.007 171.998 354.409 172.011 354.648 172.266ZM358.781 173.111C359.067 172.908 359.463 172.975 359.666 173.261C360.157 173.954 360.646 174.648 361.132 175.343C361.333 175.63 361.263 176.026 360.976 176.226C360.688 176.427 360.293 176.357 360.092 176.07C359.608 175.378 359.121 174.686 358.631 173.995C358.428 173.709 358.495 173.313 358.781 173.111ZM348.866 177.299C349.081 177.575 349.032 177.974 348.756 178.189C348.08 178.718 347.397 179.235 346.708 179.74C346.425 179.947 346.028 179.886 345.821 179.604C345.614 179.321 345.675 178.924 345.957 178.717C346.636 178.219 347.309 177.71 347.975 177.189C348.251 176.974 348.65 177.023 348.866 177.299ZM77.407 177.816C77.7462 177.903 77.9501 178.25 77.8623 178.589C77.6511 179.405 77.449 180.224 77.2559 181.044C77.1757 181.385 76.8341 181.596 76.493 181.516C76.1519 181.436 75.9405 181.094 76.0208 180.753C76.2159 179.924 76.4203 179.096 76.6338 178.271C76.7216 177.932 77.0677 177.728 77.407 177.816ZM363.158 179.397C363.448 179.201 363.842 179.277 364.039 179.567C364.517 180.273 364.991 180.981 365.461 181.688C365.655 181.98 365.576 182.374 365.284 182.568C364.992 182.762 364.598 182.683 364.404 182.391C363.936 181.686 363.464 180.982 362.988 180.278C362.791 179.988 362.868 179.593 363.158 179.397ZM261.25 181.012C261.459 180.731 261.856 180.672 262.137 180.881C262.479 181.135 262.823 181.385 263.168 181.631C263.453 181.835 263.52 182.231 263.316 182.516C263.113 182.801 262.716 182.868 262.431 182.664C262.08 182.413 261.73 182.159 261.381 181.9C261.1 181.691 261.041 181.294 261.25 181.012ZM342.655 181.778C342.845 182.073 342.759 182.465 342.464 182.654C341.739 183.12 341.008 183.573 340.272 184.014C339.972 184.194 339.582 184.096 339.402 183.796C339.222 183.495 339.32 183.105 339.621 182.925C340.345 182.492 341.065 182.045 341.779 181.587C342.074 181.397 342.466 181.483 342.655 181.778ZM266.524 184.627C266.705 184.327 267.095 184.231 267.395 184.412C268.12 184.85 268.849 185.272 269.583 185.678C269.89 185.848 270.001 186.234 269.831 186.541C269.662 186.847 269.276 186.958 268.969 186.789C268.22 186.374 267.477 185.944 266.739 185.498C266.439 185.317 266.343 184.927 266.524 184.627ZM75.7017 185.244C76.046 185.309 76.2722 185.641 76.207 185.985C76.0503 186.813 75.9027 187.642 75.7644 188.473C75.7068 188.818 75.3799 189.052 75.0343 188.994C74.6886 188.937 74.4551 188.61 74.5127 188.264C74.6526 187.424 74.8018 186.586 74.9602 185.749C75.0254 185.405 75.3574 185.179 75.7017 185.244ZM336.047 185.664C336.207 185.975 336.085 186.358 335.774 186.518C335.01 186.912 334.242 187.293 333.47 187.66C333.154 187.811 332.775 187.677 332.624 187.36C332.474 187.044 332.608 186.665 332.925 186.515C333.685 186.153 334.441 185.778 335.192 185.391C335.503 185.23 335.886 185.352 336.047 185.664ZM367.371 185.771C367.666 185.583 368.058 185.669 368.247 185.965C368.709 186.689 369.166 187.415 369.618 188.14C369.804 188.438 369.713 188.829 369.416 189.014C369.118 189.2 368.727 189.109 368.542 188.811C368.092 188.09 367.637 187.368 367.177 186.647C366.988 186.352 367.075 185.959 367.371 185.771ZM273.259 188.268C273.405 187.949 273.781 187.808 274.1 187.953C274.87 188.305 275.646 188.64 276.425 188.959C276.749 189.091 276.904 189.462 276.772 189.786C276.639 190.111 276.268 190.266 275.944 190.133C275.15 189.808 274.359 189.466 273.574 189.108C273.255 188.963 273.114 188.586 273.259 188.268ZM329.104 188.898C329.234 189.223 329.075 189.593 328.749 189.722C327.95 190.041 327.146 190.346 326.34 190.637C326.01 190.756 325.646 190.585 325.527 190.255C325.409 189.926 325.579 189.562 325.909 189.443C326.703 189.157 327.493 188.857 328.28 188.543C328.605 188.414 328.974 188.572 329.104 188.898ZM280.379 191.101C280.486 190.767 280.843 190.583 281.177 190.69C281.98 190.948 282.787 191.189 283.597 191.414C283.935 191.508 284.133 191.858 284.039 192.195C283.945 192.533 283.595 192.731 283.258 192.637C282.432 192.407 281.609 192.161 280.79 191.898C280.456 191.791 280.272 191.434 280.379 191.101ZM321.874 191.437C321.971 191.774 321.776 192.126 321.439 192.222C320.612 192.459 319.783 192.682 318.951 192.89C318.611 192.975 318.266 192.769 318.181 192.429C318.096 192.089 318.303 191.744 318.643 191.659C319.461 191.454 320.276 191.235 321.089 191.002C321.426 190.906 321.777 191.1 321.874 191.437ZM371.4 192.278C371.701 192.099 372.09 192.199 372.269 192.5C372.704 193.234 373.133 193.969 373.555 194.704C373.73 195.008 373.625 195.396 373.322 195.57C373.018 195.745 372.63 195.641 372.455 195.337C372.035 194.607 371.609 193.877 371.177 193.147C370.999 192.845 371.098 192.456 371.4 192.278ZM287.777 193.079C287.844 192.736 288.178 192.511 288.522 192.579C289.35 192.741 290.181 192.887 291.014 193.017C291.36 193.071 291.597 193.396 291.543 193.742C291.489 194.088 291.165 194.325 290.818 194.271C289.969 194.139 289.122 193.99 288.278 193.824C287.934 193.757 287.71 193.423 287.777 193.079ZM314.426 193.232C314.487 193.577 314.257 193.907 313.912 193.968C313.066 194.119 312.218 194.254 311.369 194.374C311.022 194.424 310.701 194.182 310.652 193.835C310.602 193.488 310.844 193.167 311.191 193.118C312.025 193 312.858 192.867 313.69 192.719C314.035 192.657 314.364 192.887 314.426 193.232ZM74.4908 192.769C74.8387 192.811 75.0864 193.127 75.0441 193.475C74.9426 194.311 74.8503 195.148 74.7673 195.986C74.7327 196.334 74.422 196.589 74.0733 196.554C73.7246 196.52 73.47 196.209 73.5045 195.86C73.5884 195.013 73.6818 194.167 73.7844 193.322C73.8267 192.974 74.143 192.726 74.4908 192.769ZM295.357 194.189C295.384 193.84 295.69 193.579 296.039 193.607C296.88 193.673 297.722 193.724 298.565 193.758C298.915 193.773 299.187 194.068 299.173 194.418C299.158 194.768 298.863 195.041 298.513 195.026C297.654 194.991 296.796 194.939 295.939 194.872C295.59 194.844 295.329 194.539 295.357 194.189ZM306.833 194.239C306.857 194.588 306.593 194.891 306.244 194.915C305.385 194.975 304.527 195.019 303.668 195.047C303.318 195.059 303.024 194.784 303.013 194.434C303.001 194.084 303.276 193.79 303.626 193.779C304.469 193.751 305.313 193.708 306.156 193.65C306.506 193.625 306.809 193.889 306.833 194.239ZM375.2 198.939C375.508 198.773 375.893 198.888 376.059 199.197C376.463 199.946 376.86 200.696 377.25 201.446C377.411 201.757 377.29 202.14 376.979 202.302C376.668 202.463 376.285 202.342 376.124 202.031C375.737 201.287 375.343 200.543 374.942 199.799C374.776 199.49 374.891 199.106 375.2 198.939ZM73.7817 200.355C74.1316 200.374 74.3998 200.674 74.3808 201.023C74.335 201.864 74.2986 202.706 74.2715 203.548C74.2603 203.898 73.9673 204.173 73.617 204.161C73.2668 204.15 72.992 203.857 73.0033 203.507C73.0306 202.656 73.0674 201.805 73.1137 200.954C73.1327 200.605 73.4318 200.336 73.7817 200.355ZM378.696 205.742C379.012 205.591 379.391 205.725 379.542 206.041C379.912 206.816 380.274 207.592 380.627 208.367C380.772 208.686 380.632 209.062 380.313 209.207C379.994 209.353 379.617 209.212 379.472 208.893C379.123 208.125 378.764 207.356 378.397 206.588C378.246 206.272 378.38 205.893 378.696 205.742ZM73.5796 207.973C73.93 207.969 74.2176 208.249 74.222 208.599C74.2326 209.441 74.2525 210.283 74.2819 211.125C74.2941 211.475 74.0201 211.769 73.67 211.781C73.3198 211.793 73.026 211.519 73.0137 211.169C72.984 210.318 72.9638 209.466 72.9532 208.615C72.9488 208.265 73.2293 207.977 73.5796 207.973ZM381.82 212.698C382.145 212.566 382.515 212.722 382.647 213.047C382.975 213.85 383.292 214.653 383.598 215.456C383.723 215.784 383.559 216.15 383.232 216.275C382.904 216.4 382.538 216.236 382.413 215.909C382.11 215.115 381.796 214.32 381.472 213.525C381.34 213.201 381.496 212.831 381.82 212.698ZM73.8886 215.589C74.2379 215.561 74.5437 215.822 74.5716 216.171C74.6386 217.009 74.7151 217.847 74.8011 218.684C74.8368 219.033 74.5833 219.344 74.2347 219.38C73.8861 219.416 73.5745 219.162 73.5387 218.814C73.4518 217.967 73.3745 217.12 73.3067 216.272C73.2788 215.923 73.5393 215.617 73.8886 215.589ZM384.506 219.868C384.839 219.759 385.197 219.94 385.306 220.274C385.573 221.091 385.828 221.907 386.071 222.724C386.171 223.06 385.98 223.413 385.644 223.513C385.308 223.613 384.955 223.422 384.855 223.086C384.616 222.28 384.364 221.474 384.1 220.668C383.991 220.335 384.173 219.976 384.506 219.868ZM74.7096 223.164C75.0562 223.112 75.3789 223.351 75.4304 223.698C75.5541 224.531 75.6874 225.363 75.8301 226.194C75.8894 226.54 75.6576 226.868 75.3122 226.927C74.9669 226.986 74.6388 226.754 74.5795 226.409C74.4351 225.569 74.3004 224.727 74.1752 223.884C74.1237 223.538 74.363 223.215 74.7096 223.164ZM386.635 227.23C386.976 227.15 387.318 227.362 387.398 227.703C387.592 228.532 387.773 229.36 387.939 230.188C388.009 230.532 387.786 230.867 387.443 230.936C387.099 231.005 386.765 230.782 386.695 230.439C386.531 229.624 386.354 228.809 386.162 227.993C386.082 227.651 386.294 227.31 386.635 227.23ZM76.0416 230.664C76.3839 230.589 76.7221 230.806 76.797 231.148C76.9771 231.971 77.1667 232.792 77.3658 233.613C77.4485 233.953 77.2395 234.296 76.899 234.379C76.5585 234.461 76.2154 234.252 76.1327 233.912C75.9313 233.083 75.7396 232.252 75.5574 231.419C75.4825 231.077 75.6992 230.739 76.0416 230.664ZM388.074 234.738C388.422 234.693 388.74 234.939 388.785 235.286C388.895 236.137 388.989 236.986 389.067 237.835C389.099 238.184 388.842 238.493 388.493 238.525C388.144 238.557 387.836 238.3 387.804 237.951C387.727 237.118 387.635 236.284 387.527 235.449C387.482 235.102 387.727 234.783 388.074 234.738ZM77.8814 238.058C78.2178 237.959 78.57 238.153 78.6681 238.489C78.9036 239.296 79.1485 240.102 79.4028 240.906C79.5085 241.24 79.3234 241.596 78.9894 241.702C78.6553 241.808 78.2988 241.623 78.193 241.289C77.9358 240.476 77.6881 239.661 77.4499 238.844C77.3518 238.508 77.545 238.156 77.8814 238.058ZM388.692 242.346C389.043 242.342 389.33 242.623 389.334 242.973C389.343 243.833 389.335 244.692 389.308 245.55C389.296 245.9 389.004 246.175 388.653 246.164C388.303 246.153 388.028 245.86 388.039 245.51C388.066 244.671 388.074 243.83 388.065 242.988C388.061 242.637 388.342 242.35 388.692 242.346ZM80.224 245.314C80.5529 245.193 80.9175 245.361 81.0384 245.69C81.3277 246.477 81.6264 247.262 81.9344 248.045C82.0627 248.371 81.9025 248.739 81.5764 248.868C81.2504 248.996 80.882 248.836 80.7536 248.51C80.4421 247.718 80.14 246.924 79.8473 246.128C79.7265 245.799 79.8951 245.435 80.224 245.314ZM388.365 249.971C388.713 250.013 388.961 250.329 388.918 250.677C388.815 251.528 388.692 252.377 388.55 253.225C388.491 253.57 388.164 253.803 387.819 253.745C387.473 253.687 387.24 253.36 387.298 253.014C387.438 252.186 387.558 251.356 387.659 250.524C387.701 250.176 388.017 249.929 388.365 249.971ZM83.0567 252.39C83.3765 252.247 83.7518 252.39 83.8949 252.71C84.2379 253.476 84.5901 254.24 84.9516 255.001C85.1019 255.318 84.9672 255.696 84.6507 255.846C84.3342 255.997 83.9558 255.862 83.8054 255.546C83.4398 254.776 83.0835 254.003 82.7366 253.228C82.5935 252.908 82.7368 252.533 83.0567 252.39ZM387.004 257.498C387.343 257.589 387.544 257.936 387.453 258.275C387.235 259.093 386.997 259.909 386.738 260.723C386.632 261.057 386.276 261.242 385.942 261.136C385.608 261.03 385.423 260.673 385.529 260.339C385.781 259.543 386.014 258.746 386.227 257.948C386.318 257.609 386.665 257.408 387.004 257.498ZM86.361 259.245C86.6703 259.081 87.0545 259.198 87.2191 259.507C87.6154 260.252 88.021 260.995 88.4358 261.733C88.6074 262.039 88.4988 262.426 88.1932 262.597C87.8877 262.769 87.5009 262.66 87.3294 262.355C86.9098 261.607 86.4996 260.857 86.0988 260.103C85.9342 259.794 86.0516 259.41 86.361 259.245ZM384.603 264.754C384.925 264.891 385.076 265.263 384.94 265.586C384.61 266.365 384.26 267.141 383.89 267.916C383.739 268.233 383.361 268.367 383.044 268.216C382.728 268.065 382.594 267.686 382.745 267.37C383.107 266.612 383.449 265.852 383.771 265.091C383.908 264.768 384.28 264.617 384.603 264.754ZM90.1266 265.866C90.4241 265.68 90.8153 265.772 91.0005 266.069C91.4446 266.783 91.8977 267.493 92.3598 268.2C92.5515 268.493 92.4692 268.886 92.176 269.078C91.8827 269.27 91.4895 269.187 91.2977 268.894C90.8304 268.179 90.3722 267.461 89.9231 266.739C89.738 266.442 89.8291 266.051 90.1266 265.866ZM381.258 271.574C381.561 271.752 381.662 272.14 381.484 272.443C381.044 273.193 380.583 273.941 380.102 274.688C379.912 274.982 379.519 275.067 379.225 274.877C378.93 274.687 378.846 274.294 379.035 274C379.507 273.268 379.959 272.535 380.39 271.8C380.568 271.498 380.956 271.397 381.258 271.574ZM94.3382 272.228C94.6226 272.024 95.0191 272.088 95.2237 272.373C95.7118 273.051 96.2086 273.726 96.7142 274.397C96.925 274.676 96.8691 275.074 96.5893 275.285C96.3095 275.496 95.9116 275.44 95.7007 275.16C95.1896 274.482 94.6873 273.8 94.1938 273.114C93.9891 272.83 94.0537 272.433 94.3382 272.228ZM377.084 277.934C377.363 278.146 377.419 278.544 377.207 278.823C376.693 279.502 376.161 280.18 375.611 280.855C375.39 281.127 374.99 281.168 374.719 280.947C374.447 280.726 374.406 280.326 374.627 280.054C375.168 279.39 375.69 278.725 376.195 278.057C376.407 277.778 376.805 277.723 377.084 277.934ZM98.9592 278.29C99.2294 278.067 99.6293 278.105 99.8523 278.375C100.387 279.023 100.93 279.667 101.482 280.307C101.711 280.573 101.681 280.973 101.416 281.202C101.15 281.431 100.75 281.401 100.521 281.136C99.9631 280.489 99.414 279.838 98.8735 279.183C98.6505 278.912 98.6889 278.513 98.9592 278.29ZM372.174 283.864C372.431 284.102 372.445 284.504 372.206 284.76C371.645 285.363 371.068 285.964 370.476 286.564C370.23 286.813 369.828 286.816 369.579 286.569C369.329 286.323 369.327 285.921 369.573 285.672C370.157 285.081 370.725 284.489 371.277 283.896C371.516 283.639 371.918 283.625 372.174 283.864ZM103.953 284.02C104.208 283.78 104.61 283.792 104.85 284.048C105.428 284.663 106.014 285.274 106.609 285.88C106.855 286.131 106.851 286.532 106.6 286.778C106.35 287.023 105.949 287.019 105.703 286.769C105.102 286.156 104.509 285.538 103.925 284.917C103.685 284.661 103.697 284.26 103.953 284.02ZM366.78 289.243C367.015 289.503 366.995 289.904 366.735 290.139C366.083 290.73 365.414 291.318 364.73 291.904C364.464 292.132 364.063 292.101 363.835 291.835C363.607 291.569 363.638 291.169 363.904 290.941C364.58 290.362 365.24 289.781 365.884 289.198C366.144 288.963 366.545 288.983 366.78 289.243ZM109.318 289.434C109.557 289.179 109.959 289.166 110.215 289.406C110.825 289.978 111.444 290.546 112.07 291.11C112.331 291.345 112.352 291.746 112.117 292.006C111.883 292.267 111.482 292.288 111.221 292.053C110.588 291.484 109.963 290.91 109.347 290.331C109.091 290.091 109.078 289.69 109.318 289.434ZM361.006 294.148C361.222 294.424 361.173 294.823 360.897 295.038C360.232 295.558 359.553 296.076 358.862 296.592C358.581 296.801 358.183 296.744 357.974 296.463C357.764 296.182 357.822 295.785 358.103 295.575C358.787 295.064 359.458 294.552 360.116 294.038C360.392 293.823 360.79 293.872 361.006 294.148ZM115.032 294.523C115.256 294.253 115.656 294.216 115.926 294.439C116.565 294.969 117.213 295.495 117.868 296.016C118.142 296.234 118.187 296.633 117.969 296.907C117.751 297.181 117.352 297.227 117.077 297.009C116.416 296.482 115.762 295.952 115.116 295.416C114.846 295.193 114.809 294.793 115.032 294.523ZM354.717 298.789C354.915 299.078 354.841 299.473 354.552 299.671C353.88 300.13 353.197 300.589 352.502 301.046C352.21 301.239 351.816 301.158 351.624 300.865C351.431 300.572 351.512 300.179 351.805 299.986C352.493 299.533 353.169 299.079 353.835 298.623C354.124 298.426 354.519 298.5 354.717 298.789ZM120.987 299.213C121.194 298.93 121.592 298.869 121.874 299.077C122.557 299.578 123.248 300.074 123.946 300.566C124.232 300.768 124.301 301.163 124.099 301.45C123.897 301.736 123.502 301.805 123.215 301.603C122.51 301.107 121.813 300.606 121.123 300.1C120.841 299.893 120.78 299.496 120.987 299.213ZM348.481 302.858C348.664 303.157 348.57 303.548 348.271 303.73C347.544 304.175 346.806 304.619 346.056 305.061C345.755 305.239 345.366 305.139 345.188 304.837C345.01 304.535 345.11 304.146 345.412 303.968C346.155 303.529 346.888 303.089 347.609 302.648C347.908 302.465 348.299 302.559 348.481 302.858ZM127.237 303.572C127.428 303.278 127.821 303.195 128.114 303.385C128.816 303.841 129.525 304.292 130.24 304.738C130.538 304.924 130.628 305.315 130.443 305.612C130.257 305.91 129.866 306 129.569 305.815C128.847 305.365 128.131 304.909 127.423 304.45C127.129 304.259 127.046 303.866 127.237 303.572ZM341.691 306.828C341.86 307.135 341.748 307.52 341.441 307.689C340.737 308.076 340.024 308.463 339.302 308.848C338.993 309.013 338.608 308.896 338.443 308.586C338.279 308.277 338.396 307.893 338.705 307.728C339.422 307.345 340.13 306.962 340.83 306.577C341.137 306.408 341.523 306.521 341.691 306.828ZM133.754 307.594C133.929 307.29 134.316 307.185 134.62 307.359C135.342 307.774 136.071 308.183 136.806 308.588C137.113 308.758 137.224 309.143 137.055 309.45C136.886 309.757 136.5 309.869 136.194 309.7C135.452 309.291 134.717 308.878 133.988 308.46C133.685 308.285 133.58 307.897 133.754 307.594ZM335.143 310.294C335.3 310.607 335.173 310.988 334.86 311.145C334.102 311.526 333.334 311.906 332.557 312.284C332.242 312.438 331.862 312.307 331.709 311.992C331.555 311.677 331.686 311.297 332.001 311.143C332.774 310.767 333.537 310.39 334.291 310.011C334.604 309.854 334.985 309.98 335.143 310.294ZM140.399 311.218C140.557 310.905 140.939 310.78 141.251 310.939C142.006 311.321 142.766 311.699 143.534 312.072C143.849 312.225 143.981 312.604 143.827 312.92C143.674 313.235 143.295 313.366 142.979 313.213C142.206 312.837 141.438 312.456 140.678 312.071C140.365 311.912 140.24 311.53 140.399 311.218ZM328.095 313.7C328.241 314.019 328.102 314.395 327.783 314.542C327.584 314.633 327.385 314.724 327.186 314.815C326.976 314.911 326.765 315.006 326.554 315.102C326.172 315.275 325.789 315.446 325.404 315.617C325.084 315.758 324.709 315.614 324.567 315.293C324.426 314.973 324.57 314.598 324.891 314.456C325.272 314.287 325.652 314.117 326.031 313.946C326.441 313.76 326.848 313.575 327.253 313.389C327.572 313.242 327.949 313.382 328.095 313.7ZM147.288 314.53C147.43 314.21 147.805 314.067 148.125 314.209C148.884 314.548 149.649 314.881 150.42 315.211C150.743 315.348 150.892 315.721 150.755 316.043C150.617 316.366 150.245 316.515 149.922 316.378C149.145 316.046 148.374 315.709 147.609 315.368C147.289 315.226 147.145 314.851 147.288 314.53ZM321.094 316.761C321.225 317.086 321.068 317.456 320.743 317.587C319.963 317.902 319.177 318.212 318.387 318.517C318.06 318.643 317.693 318.48 317.567 318.153C317.441 317.826 317.603 317.459 317.93 317.333C318.714 317.031 319.494 316.723 320.268 316.41C320.593 316.279 320.963 316.436 321.094 316.761ZM154.299 317.491C154.427 317.164 154.795 317.003 155.121 317.13C155.917 317.441 156.719 317.746 157.527 318.048C157.855 318.17 158.022 318.535 157.9 318.864C157.777 319.192 157.412 319.359 157.084 319.237C156.27 318.933 155.462 318.625 154.66 318.312C154.333 318.185 154.172 317.817 154.299 317.491ZM314.026 319.457C314.143 319.787 313.969 320.149 313.638 320.266C312.846 320.544 312.05 320.817 311.25 321.085C310.918 321.197 310.559 321.018 310.447 320.686C310.336 320.354 310.515 319.994 310.847 319.882C311.641 319.616 312.431 319.345 313.217 319.068C313.548 318.952 313.91 319.126 314.026 319.457ZM161.431 320.12C161.543 319.788 161.904 319.61 162.236 319.723C163.028 319.992 163.827 320.257 164.631 320.517C164.964 320.625 165.147 320.983 165.039 321.316C164.931 321.649 164.573 321.832 164.24 321.724C163.43 321.462 162.626 321.196 161.828 320.925C161.496 320.812 161.318 320.452 161.431 320.12ZM306.855 321.835C306.957 322.17 306.768 322.525 306.433 322.627C305.627 322.873 304.818 323.113 304.005 323.349C303.668 323.447 303.316 323.254 303.218 322.917C303.121 322.581 303.314 322.229 303.651 322.131C304.458 321.896 305.262 321.657 306.063 321.413C306.398 321.311 306.753 321.5 306.855 321.835ZM168.735 322.453C168.833 322.117 169.186 321.924 169.522 322.022C169.935 322.143 170.35 322.263 170.766 322.381C171.165 322.495 171.566 322.608 171.968 322.72C172.306 322.813 172.503 323.163 172.41 323.501C172.316 323.838 171.966 324.036 171.629 323.942C171.224 323.83 170.821 323.716 170.418 323.602C169.999 323.483 169.582 323.362 169.166 323.24C168.829 323.142 168.636 322.79 168.735 322.453ZM299.584 323.922C299.673 324.261 299.47 324.607 299.131 324.697C298.319 324.91 297.504 325.119 296.686 325.323C296.346 325.408 296.002 325.201 295.917 324.861C295.832 324.521 296.039 324.176 296.379 324.092C297.192 323.889 298.002 323.681 298.809 323.469C299.148 323.38 299.495 323.583 299.584 323.922ZM176.056 324.462C176.141 324.122 176.485 323.916 176.825 324.001C177.636 324.204 178.451 324.403 179.271 324.597C179.611 324.678 179.822 325.02 179.741 325.361C179.66 325.702 179.318 325.913 178.977 325.832C178.153 325.636 177.333 325.436 176.517 325.232C176.177 325.147 175.97 324.802 176.056 324.462ZM292.247 325.73C292.324 326.072 292.109 326.411 291.767 326.488C290.945 326.672 290.121 326.852 289.294 327.027C288.951 327.1 288.615 326.881 288.542 326.538C288.469 326.195 288.688 325.858 289.031 325.786C289.853 325.611 290.672 325.433 291.489 325.25C291.831 325.173 292.17 325.388 292.247 325.73ZM183.423 326.189C183.495 325.846 183.832 325.627 184.175 325.7C184.99 325.873 185.808 326.043 186.63 326.208C186.973 326.277 187.196 326.611 187.127 326.955C187.058 327.298 186.724 327.521 186.38 327.452C185.554 327.286 184.731 327.116 183.911 326.941C183.568 326.869 183.35 326.532 183.423 326.189ZM284.844 327.278C284.909 327.623 284.682 327.954 284.338 328.019C283.512 328.175 282.684 328.326 281.854 328.474C281.509 328.535 281.18 328.305 281.119 327.96C281.058 327.614 281.288 327.285 281.633 327.224C282.458 327.078 283.282 326.927 284.103 326.772C284.447 326.707 284.779 326.934 284.844 327.278ZM190.833 327.656C190.894 327.311 191.224 327.081 191.569 327.143C192.393 327.289 193.22 327.432 194.051 327.571C194.396 327.628 194.63 327.955 194.572 328.301C194.514 328.646 194.187 328.88 193.842 328.822C193.007 328.683 192.175 328.539 191.346 328.392C191.002 328.33 190.772 328.001 190.833 327.656ZM277.398 328.578C277.452 328.924 277.215 329.248 276.869 329.302C276.037 329.431 275.203 329.556 274.368 329.677C274.021 329.727 273.699 329.486 273.649 329.139C273.599 328.792 273.839 328.471 274.186 328.421C275.017 328.301 275.846 328.176 276.674 328.048C277.02 327.994 277.345 328.231 277.398 328.578ZM198.298 328.883C198.348 328.536 198.67 328.296 199.017 328.346C199.843 328.467 200.672 328.583 201.503 328.695C201.85 328.742 202.093 329.062 202.046 329.409C201.999 329.756 201.68 330 201.333 329.953C200.497 329.84 199.664 329.723 198.834 329.602C198.487 329.551 198.247 329.229 198.298 328.883ZM269.911 329.64C269.954 329.988 269.707 330.305 269.359 330.348C268.524 330.451 267.689 330.55 266.852 330.645C266.503 330.684 266.189 330.434 266.15 330.086C266.11 329.738 266.36 329.423 266.709 329.384C267.541 329.289 268.373 329.191 269.203 329.088C269.551 329.045 269.868 329.292 269.911 329.64ZM205.789 329.877C205.829 329.529 206.144 329.279 206.492 329.319C207.324 329.415 208.158 329.506 208.993 329.594C209.342 329.631 209.595 329.943 209.558 330.291C209.522 330.64 209.209 330.893 208.861 330.856C208.021 330.768 207.183 330.676 206.347 330.58C205.999 330.54 205.749 330.225 205.789 329.877ZM262.398 330.474C262.431 330.822 262.174 331.132 261.825 331.164C260.987 331.243 260.147 331.317 259.307 331.387C258.958 331.416 258.652 331.157 258.622 330.808C258.593 330.459 258.853 330.152 259.202 330.123C260.038 330.053 260.873 329.979 261.707 329.901C262.056 329.868 262.365 330.125 262.398 330.474ZM213.313 330.649C213.342 330.3 213.65 330.041 213.999 330.071C214.832 330.142 215.667 330.21 216.503 330.273C216.852 330.3 217.114 330.604 217.087 330.954C217.061 331.303 216.756 331.565 216.407 331.538C215.566 331.475 214.728 331.407 213.891 331.335C213.542 331.305 213.283 330.998 213.313 330.649ZM254.861 331.086C254.884 331.436 254.619 331.737 254.269 331.76C253.429 331.814 252.588 331.864 251.748 331.91C251.398 331.929 251.099 331.661 251.079 331.311C251.06 330.961 251.328 330.662 251.678 330.643C252.515 330.597 253.351 330.547 254.187 330.493C254.537 330.471 254.839 330.736 254.861 331.086ZM220.851 331.204C220.871 330.854 221.171 330.587 221.52 330.607C222.357 330.654 223.194 330.698 224.033 330.738C224.383 330.755 224.653 331.052 224.637 331.402C224.62 331.752 224.323 332.022 223.973 332.006C223.13 331.966 222.288 331.922 221.448 331.874C221.098 331.854 220.831 331.554 220.851 331.204ZM247.311 331.482C247.324 331.832 247.05 332.126 246.7 332.139C245.859 332.169 245.017 332.195 244.176 332.218C243.825 332.227 243.534 331.951 243.524 331.6C243.515 331.25 243.792 330.959 244.142 330.949C244.979 330.927 245.817 330.901 246.655 330.871C247.005 330.858 247.299 331.132 247.311 331.482ZM228.405 331.547C228.416 331.196 228.708 330.921 229.058 330.931C229.895 330.955 230.732 330.975 231.57 330.992C231.921 330.999 232.199 331.289 232.192 331.639C232.185 331.989 231.895 332.268 231.545 332.261C230.703 332.244 229.862 332.224 229.021 332.199C228.671 332.189 228.395 331.897 228.405 331.547ZM239.754 331.666C239.757 332.016 239.475 332.302 239.124 332.305C238.282 332.312 237.439 332.315 236.597 332.314C236.247 332.313 235.963 332.029 235.964 331.679C235.964 331.328 236.248 331.044 236.599 331.045C237.437 331.046 238.275 331.043 239.114 331.036C239.465 331.034 239.751 331.315 239.754 331.666Z" fill="#1CA1C1" fill-opacity="0.4"/>
<path d="M299.495 78.5206C300.008 75.7645 302.657 73.9455 305.413 74.4577L360.088 84.6184C362.845 85.1306 364.664 87.7801 364.151 90.5361L353.991 145.211C353.478 147.968 350.829 149.787 348.073 149.274L293.398 139.114C290.642 138.601 288.823 135.952 289.335 133.196L299.495 78.5206Z" fill="#85CDDF"/>
<path fill-rule="evenodd" clip-rule="evenodd" d="M327.871 92.8839C328.038 91.9852 329.072 91.5525 329.829 92.0644L342.19 100.419C342.609 100.702 342.82 101.206 342.727 101.702L341.39 108.898C341.223 109.797 340.189 110.229 339.432 109.717L329.13 102.754L325.133 124.261L325.116 124.258C325.097 124.424 325.072 124.59 325.041 124.757C324.277 128.865 320.312 131.573 316.184 130.806C312.057 130.038 309.329 126.087 310.092 121.979C310.856 117.871 314.821 115.163 318.949 115.93C320.631 116.243 322.081 117.085 323.157 118.251L327.871 92.8839ZM331.171 96.6267C330.792 96.3708 330.276 96.5871 330.192 97.0364L329.733 99.5067L338.09 105.155C338.469 105.411 338.986 105.195 339.069 104.745L339.452 102.684C339.498 102.436 339.393 102.184 339.184 102.042L331.171 96.6267Z" fill="white"/>
<path d="M78.2355 102.335C77.9749 101.684 78.2911 100.946 78.9416 100.685L164.571 66.3886C165.222 66.1281 165.961 66.4442 166.221 67.0948L211.466 180.06C211.726 180.711 211.41 181.449 210.76 181.71L125.13 216.006C124.479 216.267 123.741 215.951 123.48 215.3L78.2355 102.335Z" fill="white"/>
<path d="M83.0206 104.383C82.7601 103.732 83.0762 102.993 83.7268 102.733L162.523 71.1736C163.173 70.913 163.912 71.2292 164.173 71.8797L206.68 178.011C206.941 178.662 206.625 179.4 205.974 179.661L127.178 211.22C126.527 211.481 125.789 211.165 125.528 210.514L83.0206 104.383Z" fill="#1CA1C1" fill-opacity="0.07"/>
<path d="M207.153 179.19L184.276 122.071C144.779 170.715 134.06 85.7912 97.6542 140.917L126.001 211.693L207.153 179.19Z" fill="#1CA1C1" fill-opacity="0.14"/>
<path d="M207.153 179.191L190.212 136.895C156.444 177.57 135.305 112.414 104.194 157.249L126.001 211.694L207.153 179.191Z" fill="#1CA1C1" fill-opacity="0.56"/>
<path d="M164.735 90.6094C167.097 96.5066 164.231 103.202 158.334 105.564C152.437 107.926 145.741 105.06 143.379 99.1628C141.017 93.2655 143.883 86.5701 149.78 84.2082C155.678 81.8462 162.373 84.7121 164.735 90.6094Z" fill="#1CA1C1" fill-opacity="0.18"/>
<path d="M160.463 92.3206C161.881 95.8589 160.161 99.8762 156.623 101.293C153.084 102.711 149.067 100.991 147.65 97.4526C146.233 93.9143 147.952 89.8971 151.491 88.4799C155.029 87.0627 159.046 88.7823 160.463 92.3206Z" fill="#1CA1C1" fill-opacity="0.48"/>
<path d="M94.6803 249.759C95.3639 247.041 98.1219 245.391 100.841 246.075L152.527 259.07C155.246 259.753 156.896 262.511 156.212 265.23L143.217 316.917C142.534 319.635 139.776 321.285 137.057 320.602L85.37 307.607C82.6514 306.923 81.0016 304.165 81.6851 301.446L94.6803 249.759Z" fill="#85CDDF"/>
<path fill-rule="evenodd" clip-rule="evenodd" d="M112.519 305.348C124.602 308.386 136.86 301.053 139.898 288.97C142.936 276.887 135.604 264.629 123.521 261.591C111.438 258.553 99.1795 265.886 96.1416 277.969C93.1036 290.052 100.436 302.31 112.519 305.348ZM111.9 307.809C125.343 311.189 138.98 303.031 142.36 289.589C145.739 276.147 137.582 262.51 124.139 259.13C110.697 255.75 97.06 263.907 93.6803 277.35C90.3006 290.792 98.458 304.429 111.9 307.809Z" fill="white"/>
<path fill-rule="evenodd" clip-rule="evenodd" d="M112.23 273.681C112.719 271.733 115.169 271.099 116.543 272.564L127.5 284.251C128.782 285.62 128.189 287.859 126.396 288.412L111.332 293.061C109.441 293.645 107.64 291.936 108.122 290.017L112.23 273.681ZM125.648 285.987L114.691 274.299L110.584 290.636L125.648 285.987Z" fill="white"/>
<path d="M215.963 217.928C216.389 217.371 217.185 217.266 217.742 217.692L266.774 255.256C267.33 255.682 267.436 256.478 267.01 257.035L229.827 305.569C229.401 306.126 228.605 306.231 228.048 305.805L179.016 268.241C178.46 267.815 178.354 267.019 178.78 266.462L215.963 217.928Z" fill="#A0D8E5"/>
<path fill-rule="evenodd" clip-rule="evenodd" d="M221.141 250.613C221.211 251.311 220.704 251.933 220.006 252.004L210.124 253.007L211.913 262.777C212.04 263.467 211.583 264.128 210.894 264.254C210.204 264.38 209.543 263.924 209.417 263.234L207.628 253.464C207.361 252.007 208.394 250.632 209.868 250.482L219.75 249.479C220.447 249.408 221.07 249.916 221.141 250.613Z" fill="#1CA1C1"/>
<path fill-rule="evenodd" clip-rule="evenodd" d="M234.981 261.009C234.292 261.135 233.835 261.797 233.962 262.486L235.751 272.256L225.869 273.259C225.171 273.33 224.664 273.952 224.734 274.65C224.805 275.347 225.428 275.855 226.125 275.784L236.007 274.781C237.481 274.631 238.514 273.256 238.247 271.799L236.458 262.029C236.332 261.339 235.671 260.883 234.981 261.009Z" fill="#1CA1C1"/>
<path fill-rule="evenodd" clip-rule="evenodd" d="M236.008 253.362C236.403 253.941 236.253 254.731 235.674 255.125L211.118 271.851C210.539 272.246 209.75 272.096 209.355 271.517C208.961 270.938 209.11 270.148 209.69 269.754L234.245 253.028C234.824 252.633 235.614 252.783 236.008 253.362Z" fill="#1CA1C1"/>
<path d="M269.567 189.944C269.463 189.251 269.94 188.605 270.633 188.5L345.697 177.167C346.03 177.117 346.37 177.201 346.64 177.401L380.387 202.317C380.658 202.517 380.838 202.816 380.888 203.149L397.231 311.397C397.336 312.09 396.859 312.737 396.166 312.841L291.784 328.6C291.091 328.705 290.445 328.228 290.34 327.535L269.567 189.944Z" fill="white"/>
<path d="M380.872 202.621L346.212 177.054L350.569 205.912C350.673 206.605 351.32 207.082 352.013 206.978L380.872 202.621Z" fill="#1CA1C1" fill-opacity="0.3"/>
<path d="M280.73 202.339L309.955 197.927L310.144 199.182L280.92 203.594L280.73 202.339Z" fill="#1CA1C1"/>
<path d="M282.814 216.142L345.55 206.67L345.74 207.925L283.004 217.396L282.814 216.142Z" fill="#1CA1C1"/>
<path d="M284.897 229.943L372.728 216.683L372.917 217.938L285.087 231.198L284.897 229.943Z" fill="#1CA1C1"/>
<path d="M286.982 243.746L374.813 230.486L375.002 231.74L287.172 245L286.982 243.746Z" fill="#1CA1C1"/>
<path d="M289.065 257.547L376.896 244.287L377.085 245.541L289.255 258.802L289.065 257.547Z" fill="#1CA1C1"/>
<path d="M291.149 271.349L378.98 258.089L379.169 259.344L291.339 272.604L291.149 271.349Z" fill="#1CA1C1"/>
<path d="M293.232 285.151L381.063 271.891L381.252 273.146L293.422 286.406L293.232 285.151Z" fill="#1CA1C1"/>
<path d="M295.317 298.953L383.148 285.693L383.337 286.948L295.507 300.208L295.317 298.953Z" fill="#1CA1C1"/>
<path d="M297.4 312.755L385.231 299.495L385.42 300.75L297.59 314.01L297.4 312.755Z" fill="#1CA1C1"/>
<path fill-rule="evenodd" clip-rule="evenodd" d="M347.35 178.473C347.56 178.754 347.502 179.152 347.221 179.361C346.871 179.621 346.52 179.879 346.167 180.133C345.883 180.338 345.487 180.274 345.282 179.989C345.077 179.705 345.141 179.309 345.425 179.104C345.773 178.853 346.118 178.6 346.463 178.343C346.744 178.134 347.141 178.192 347.35 178.473ZM342.041 182.175C342.228 182.471 342.139 182.863 341.843 183.05C341.105 183.514 340.362 183.966 339.613 184.405C339.311 184.582 338.922 184.48 338.745 184.178C338.568 183.876 338.669 183.487 338.971 183.31C339.708 182.878 340.44 182.433 341.166 181.976C341.463 181.789 341.855 181.878 342.041 182.175ZM335.312 186.045C335.469 186.358 335.343 186.74 335.03 186.897C334.251 187.289 333.468 187.667 332.68 188.031C332.362 188.178 331.985 188.04 331.838 187.722C331.69 187.404 331.829 187.027 332.147 186.879C332.922 186.521 333.693 186.149 334.46 185.763C334.773 185.606 335.154 185.732 335.312 186.045ZM272.91 188.103C273.058 187.785 273.435 187.646 273.753 187.794C274.142 187.974 274.532 188.15 274.923 188.321C275.244 188.462 275.39 188.836 275.249 189.157C275.108 189.478 274.733 189.624 274.413 189.483C274.014 189.308 273.616 189.129 273.22 188.945C272.902 188.798 272.763 188.421 272.91 188.103ZM328.239 189.245C328.364 189.572 328.201 189.939 327.874 190.065C327.061 190.378 326.243 190.677 325.423 190.961C325.092 191.076 324.731 190.9 324.616 190.569C324.501 190.238 324.676 189.877 325.007 189.762C325.814 189.482 326.618 189.188 327.419 188.881C327.746 188.755 328.113 188.918 328.239 189.245ZM278.886 190.585C279.001 190.254 279.363 190.079 279.694 190.194C280.503 190.475 281.315 190.74 282.131 190.987C282.466 191.089 282.656 191.444 282.554 191.779C282.452 192.114 282.098 192.303 281.763 192.202C280.931 191.949 280.102 191.68 279.277 191.393C278.946 191.278 278.771 190.916 278.886 190.585ZM320.882 191.723C320.974 192.061 320.774 192.41 320.436 192.502C319.595 192.731 318.751 192.945 317.905 193.144C317.564 193.224 317.223 193.012 317.143 192.671C317.062 192.33 317.274 191.989 317.615 191.908C318.447 191.713 319.276 191.503 320.103 191.278C320.441 191.186 320.79 191.385 320.882 191.723ZM286.335 192.765C286.41 192.423 286.749 192.207 287.091 192.282C287.926 192.465 288.765 192.631 289.605 192.781C289.95 192.843 290.18 193.173 290.118 193.517C290.057 193.862 289.727 194.092 289.382 194.031C288.526 193.878 287.671 193.708 286.819 193.521C286.477 193.446 286.26 193.108 286.335 192.765ZM313.309 193.432C313.365 193.778 313.13 194.103 312.784 194.159C311.923 194.299 311.061 194.422 310.199 194.53C309.851 194.574 309.534 194.327 309.49 193.98C309.447 193.632 309.693 193.315 310.041 193.271C310.889 193.165 311.735 193.044 312.581 192.907C312.927 192.851 313.253 193.086 313.309 193.432ZM293.99 194.054C294.025 193.705 294.335 193.451 294.684 193.486C295.535 193.57 296.387 193.638 297.24 193.69C297.59 193.712 297.856 194.012 297.835 194.362C297.814 194.712 297.513 194.978 297.163 194.957C296.294 194.904 295.425 194.834 294.558 194.748C294.21 194.714 293.955 194.403 293.99 194.054ZM305.597 194.324C305.615 194.674 305.346 194.973 304.996 194.991C304.126 195.036 303.256 195.065 302.386 195.077C302.035 195.082 301.747 194.802 301.742 194.452C301.737 194.102 302.017 193.814 302.367 193.808C303.222 193.796 304.076 193.768 304.931 193.724C305.281 193.705 305.579 193.974 305.597 194.324Z" fill="#1CA1C1" fill-opacity="0.3"/>
<path fill-rule="evenodd" clip-rule="evenodd" d="M237.65 164.894C241.154 164.894 243.994 162.053 243.994 158.549C243.994 155.045 241.154 152.204 237.65 152.204C234.146 152.204 231.305 155.045 231.305 158.549C231.305 162.053 234.146 164.894 237.65 164.894ZM237.65 166.163C241.855 166.163 245.263 162.754 245.263 158.549C245.263 154.344 241.855 150.936 237.65 150.936C233.445 150.936 230.036 154.344 230.036 158.549C230.036 162.754 233.445 166.163 237.65 166.163Z" fill="#1CA1C1" fill-opacity="0.4"/>
<path fill-rule="evenodd" clip-rule="evenodd" d="M237.65 168.701C243.256 168.701 247.801 164.156 247.801 158.549C247.801 152.943 243.256 148.398 237.65 148.398C232.043 148.398 227.498 152.943 227.498 158.549C227.498 164.156 232.043 168.701 237.65 168.701ZM237.65 169.97C243.957 169.97 249.07 164.857 249.07 158.549C249.07 152.242 243.957 147.129 237.65 147.129C231.343 147.129 226.229 152.242 226.229 158.549C226.229 164.857 231.343 169.97 237.65 169.97Z" fill="#1CA1C1" fill-opacity="0.2"/>
<path fill-rule="evenodd" clip-rule="evenodd" d="M237.65 172.507C245.359 172.507 251.608 166.258 251.608 158.549C251.608 150.84 245.359 144.591 237.65 144.591C229.941 144.591 223.692 150.84 223.692 158.549C223.692 166.258 229.941 172.507 237.65 172.507ZM237.65 173.776C246.06 173.776 252.877 166.959 252.877 158.549C252.877 150.139 246.06 143.322 237.65 143.322C229.24 143.322 222.423 150.139 222.423 158.549C222.423 166.959 229.24 173.776 237.65 173.776Z" fill="#1CA1C1" fill-opacity="0.1"/>
<path d="M236.381 157.926L249.937 185.763L252.396 176.025L260.632 183.647L263.899 180.117L255.663 172.495L265.182 169.291L236.381 157.926Z" fill="#1CA1C1"/>
</svg>
