<svg width="470" height="400" viewBox="0 0 470 400" fill="none" xmlns="http://www.w3.org/2000/svg">
<path d="M409.508 222.814C386.331 170.409 441.499 119.555 423.247 74.4948C404.995 29.4348 345.643 35.0675 261.185 54.4644C176.727 73.8613 118.465 33.6489 74.6567 54.4644C45.2722 68.4263 47.3926 113.296 69.6504 161.486C108.595 245.802 17.7934 278.842 45.2722 327.493C72.751 376.143 164.181 326.538 228.642 331.709C266.259 332.3 291.519 337.977 338.163 352.988C427.628 381.78 452.411 319.822 409.508 222.814Z" fill="#DDF1F6"/>
<path d="M102.583 111.345C102.583 101.667 110.428 93.8218 120.106 93.8218H206.6C210.148 93.8218 213.612 94.8986 216.534 96.9098L241.843 120.585C244.647 123.236 248.229 123.862 251.777 123.862H362.93C372.608 123.862 380.454 131.707 380.454 141.385V269.055C380.454 278.733 372.608 286.579 362.93 286.579H120.106C110.428 286.579 102.583 278.733 102.583 269.055L102.583 111.345Z" fill="#ACDDE9"/>
<path d="M102.583 141.385C102.583 131.707 110.428 123.862 120.106 123.862C201.048 123.862 281.989 123.862 362.93 123.862C372.608 123.862 380.454 132.311 380.454 142.733V280.224C380.454 290.647 372.608 299.096 362.93 299.096H120.106C110.428 299.096 102.583 290.647 102.583 280.224V141.385Z" fill="#1CA1C1"/>
<path d="M227.75 194.581C227.75 192.162 229.711 190.2 232.131 190.2H249.654C252.074 190.2 254.035 192.162 254.035 194.581V194.581C254.035 197.001 252.074 198.962 249.654 198.962H232.131C229.711 198.962 227.75 197.001 227.75 194.581V194.581Z" fill="#ADDDE9"/>
<path d="M227.75 207.098C227.75 204.678 229.711 202.717 232.131 202.717H249.654C252.074 202.717 254.035 204.678 254.035 207.098V207.098C254.035 209.517 252.074 211.478 249.654 211.478H232.131C229.711 211.478 227.75 209.517 227.75 207.098V207.098Z" fill="#ADDDE9"/>
<path d="M254.035 182.064C254.035 179.645 252.074 177.684 249.654 177.684H232.131C229.711 177.684 227.75 179.645 227.75 182.064V182.064C227.75 184.484 229.711 186.445 232.131 186.445H249.654C252.074 186.445 254.035 184.484 254.035 182.064V182.064Z" fill="#ADDDE9"/>
<path d="M227.75 169.548C227.75 167.128 229.711 165.167 232.131 165.167H249.654C252.074 165.167 254.035 167.128 254.035 169.548V169.548C254.035 171.967 252.074 173.929 249.654 173.929H232.131C229.711 173.929 227.75 171.967 227.75 169.548V169.548Z" fill="#ADDDE9"/>
<path d="M254.035 157.031C254.035 154.612 252.074 152.65 249.654 152.65H232.131C229.711 152.65 227.75 154.612 227.75 157.031V157.031C227.75 159.451 229.711 161.412 232.131 161.412H249.654C252.074 161.412 254.035 159.451 254.035 157.031V157.031Z" fill="#ADDDE9"/>
<path d="M227.75 144.515C227.75 142.095 229.711 140.134 232.131 140.134H249.654C252.074 140.134 254.035 142.095 254.035 144.515V144.515C254.035 146.934 252.074 148.895 249.654 148.895H232.131C229.711 148.895 227.75 146.934 227.75 144.515V144.515Z" fill="#ADDDE9"/>
<path d="M254.035 131.998C254.035 129.578 252.074 127.617 249.654 127.617H232.131C229.711 127.617 227.75 129.578 227.75 131.998V131.998C227.75 134.417 229.711 136.378 232.131 136.378H249.654C252.074 136.378 254.035 134.417 254.035 131.998V131.998Z" fill="#ADDDE9"/>
<path d="M227.288 218.461C227.553 216.609 229.139 215.234 231.009 215.234H250.774C252.645 215.234 254.231 216.609 254.495 218.461L258.624 247.359C260.165 258.15 251.792 267.804 240.892 267.804V267.804C229.992 267.804 221.618 258.15 223.16 247.359L227.288 218.461Z" fill="#ADDDE9"/>
<path d="M251.531 250.906C251.531 256.782 246.768 261.545 240.892 261.545C235.016 261.545 230.253 256.782 230.253 250.906C230.253 245.03 235.016 240.267 240.892 240.267C246.768 240.267 251.531 245.03 251.531 250.906Z" fill="#1CA1C1"/>
</svg>
