<svg width="470" height="400" viewBox="0 0 470 400" fill="none" xmlns="http://www.w3.org/2000/svg">
<path d="M409.508 222.814C386.331 170.409 441.499 119.555 423.247 74.4948C404.995 29.4348 345.643 35.0675 261.185 54.4644C176.727 73.8613 118.465 33.6489 74.6567 54.4644C45.2722 68.4263 47.3926 113.296 69.6504 161.486C108.595 245.802 17.7934 278.842 45.2722 327.493C72.751 376.143 164.181 326.538 228.642 331.709C266.259 332.3 291.519 337.977 338.163 352.988C427.628 381.78 452.411 319.822 409.508 222.814Z" fill="#E9F6F9"/>
<path d="M402.984 257.79C402.984 288.898 377.767 314.116 346.659 314.116C315.552 314.116 290.334 288.898 290.334 257.79C290.334 226.683 315.552 201.465 346.659 201.465C377.767 201.465 402.984 226.683 402.984 257.79Z" fill="#ACDDE9" fill-opacity="0.57"/>
<path d="M98.8281 105.087C98.8281 95.409 106.674 87.5635 116.351 87.5635H202.845C206.393 87.5635 209.857 88.6403 212.779 90.6515L238.088 108.069C241.01 110.08 244.474 111.157 248.022 111.157H359.175C368.853 111.157 376.699 119.002 376.699 128.68V256.539C376.699 266.217 368.853 274.062 359.175 274.062H116.352C106.674 274.062 98.8281 266.217 98.8281 256.539V105.087Z" fill="#1CA1C1" fill-opacity="0.3"/>
<path d="M98.8281 121.358C98.8281 111.68 106.674 103.835 116.351 103.835H202.845C206.393 103.835 209.857 104.912 212.779 106.923L238.088 124.34C241.01 126.351 244.474 127.428 248.022 127.428H359.175C368.853 127.428 376.699 135.274 376.699 144.952V272.81C376.699 282.488 368.853 290.334 359.175 290.334H116.352C106.674 290.334 98.8281 282.488 98.8281 272.81L98.8281 121.358Z" fill="#1CA1C1"/>
<path d="M176.432 173.929C176.432 172.546 177.552 171.425 178.935 171.425H299.095C300.478 171.425 301.599 172.546 301.599 173.929V201.465C301.599 202.848 300.478 203.969 299.095 203.969H178.935C177.552 203.969 176.432 202.848 176.432 201.465V173.929Z" fill="white" fill-opacity="0.29"/>
<path fill-rule="evenodd" clip-rule="evenodd" d="M181.732 200.024L182.211 198.867C182.357 198.928 182.518 198.962 182.69 198.962H183.914V200.214H182.69C182.35 200.214 182.027 200.146 181.732 200.024ZM294.116 200.214V198.962H295.34C295.512 198.962 295.673 198.928 295.819 198.867L296.298 200.024C296.003 200.146 295.68 200.214 295.34 200.214H294.116ZM297.843 178.935H296.592V177.684C296.592 177.511 296.558 177.351 296.497 177.205L297.653 176.725C297.776 177.02 297.843 177.344 297.843 177.684V178.935ZM183.914 175.18H182.69C182.35 175.18 182.027 175.248 181.732 175.37L182.211 176.526C182.357 176.466 182.518 176.432 182.69 176.432H183.914V175.18ZM180.187 196.459H181.438V197.71C181.438 197.882 181.472 198.043 181.533 198.189L180.376 198.668C180.254 198.373 180.187 198.05 180.187 197.71V196.459ZM180.187 193.955H181.438V191.452H180.187V193.955ZM180.187 188.949H181.438V186.445H180.187V188.949ZM180.187 183.942H181.438V181.439H180.187V183.942ZM180.187 178.935H181.438V177.684C181.438 177.511 181.472 177.351 181.533 177.205L180.376 176.725C180.254 177.02 180.187 177.344 180.187 177.684V178.935ZM186.363 175.18V176.432H188.812V175.18H186.363ZM191.261 175.18V176.432H193.71V175.18H191.261ZM196.159 175.18V176.432H198.608V175.18H196.159ZM201.057 175.18V176.432H203.506V175.18H201.057ZM205.955 175.18V176.432H208.404V175.18H205.955ZM210.852 175.18V176.432H213.301V175.18H210.852ZM215.75 175.18V176.432H218.199V175.18H215.75ZM220.648 175.18V176.432H223.097V175.18H220.648ZM225.546 175.18V176.432H227.995V175.18H225.546ZM230.444 175.18V176.432H232.893V175.18H230.444ZM235.342 175.18V176.432H237.791V175.18H235.342ZM240.239 175.18V176.432H242.688V175.18H240.239ZM245.137 175.18V176.432H247.586V175.18H245.137ZM250.035 175.18V176.432H252.484V175.18H250.035ZM254.933 175.18V176.432H257.382V175.18H254.933ZM259.831 175.18V176.432H262.28V175.18H259.831ZM264.729 175.18V176.432H267.178V175.18H264.729ZM269.626 175.18V176.432H272.075V175.18H269.626ZM274.524 175.18V176.432H276.973V175.18H274.524ZM279.422 175.18V176.432H281.871V175.18H279.422ZM284.32 175.18V176.432H286.769V175.18H284.32ZM289.218 175.18V176.432H291.667V175.18H289.218ZM294.116 175.18V176.432H295.34C295.512 176.432 295.673 176.466 295.819 176.526L296.298 175.37C296.003 175.248 295.68 175.18 295.34 175.18H294.116ZM297.843 181.439H296.592V183.942H297.843V181.439ZM297.843 186.445H296.592V188.949H297.843V186.445ZM297.843 191.452H296.592V193.955H297.843V191.452ZM297.843 196.459H296.592V197.71C296.592 197.882 296.558 198.043 296.497 198.189L297.653 198.668C297.776 198.373 297.843 198.05 297.843 197.71V196.459ZM291.667 200.214V198.962H289.218V200.214H291.667ZM286.769 200.214V198.962H284.32V200.214H286.769ZM281.871 200.214V198.962H279.422V200.214H281.871ZM276.973 200.214V198.962H274.524V200.214H276.973ZM272.075 200.214V198.962H269.626V200.214H272.075ZM267.178 200.214V198.962H264.729V200.214H267.178ZM262.28 200.214V198.962H259.831V200.214H262.28ZM257.382 200.214V198.962H254.933V200.214H257.382ZM252.484 200.214V198.962H250.035V200.214H252.484ZM247.586 200.214V198.962H245.137V200.214H247.586ZM242.688 200.214V198.962H240.239V200.214H242.688ZM237.791 200.214V198.962H235.342V200.214H237.791ZM232.893 200.214V198.962H230.444V200.214H232.893ZM227.995 200.214V198.962H225.546V200.214H227.995ZM223.097 200.214V198.962H220.648V200.214H223.097ZM218.199 200.214V198.962H215.75V200.214H218.199ZM213.301 200.214V198.962H210.852V200.214H213.301ZM208.404 200.214V198.962H205.955V200.214H208.404ZM203.506 200.214V198.962H201.057V200.214H203.506ZM198.608 200.214V198.962H196.159V200.214H198.608ZM193.71 200.214V198.962H191.261V200.214H193.71ZM188.812 200.214V198.962H186.363V200.214H188.812Z" fill="#1CA1C1"/>
<path d="M399.229 257.79C399.229 286.824 375.693 310.36 346.659 310.36C317.625 310.36 294.089 286.824 294.089 257.79C294.089 228.757 317.625 205.22 346.659 205.22C375.693 205.22 399.229 228.757 399.229 257.79Z" fill="white"/>
<path fill-rule="evenodd" clip-rule="evenodd" d="M341.361 234.299C342.583 235.521 342.583 237.503 341.361 238.725L325.425 254.661H375.447C377.175 254.661 378.576 256.062 378.576 257.79C378.576 259.519 377.175 260.92 375.447 260.92H325.425L341.361 276.856C342.583 278.078 342.583 280.059 341.361 281.281C340.139 282.503 338.158 282.503 336.936 281.281L315.658 260.003C314.436 258.781 314.436 256.8 315.658 255.578L336.936 234.299C338.158 233.077 340.139 233.077 341.361 234.299Z" fill="#1CA1C1"/>
<path fill-rule="evenodd" clip-rule="evenodd" d="M346.659 214.608C343.424 214.608 340.274 214.963 337.246 215.637C336.234 215.862 335.231 215.223 335.006 214.211C334.781 213.199 335.419 212.196 336.431 211.971C339.725 211.239 343.148 210.853 346.659 210.853C347.696 210.853 348.537 211.694 348.537 212.731C348.537 213.767 347.696 214.608 346.659 214.608ZM330.473 215.683C330.886 216.634 330.449 217.74 329.498 218.152C314.183 224.792 303.477 240.043 303.477 257.791C303.477 258.828 302.636 259.668 301.599 259.668C300.562 259.668 299.722 258.828 299.722 257.791C299.722 238.494 311.366 221.921 328.004 214.707C328.955 214.295 330.061 214.731 330.473 215.683Z" fill="#ACDDE9"/>
</svg>
