<svg width="470" height="400" viewBox="0 0 470 400" fill="none" xmlns="http://www.w3.org/2000/svg">
<path d="M407.508 222.769C384.331 170.377 439.499 119.535 421.247 74.4863C402.995 29.4374 343.644 35.0687 259.185 54.4608C174.727 73.8529 116.465 33.6504 72.6569 54.4608C43.2724 68.4193 45.3928 113.278 67.6506 161.456C106.595 245.752 21.9367 289.021 47.3879 334.07C72.8391 379.119 162.181 326.467 226.642 331.637C264.259 332.228 289.52 337.903 336.163 352.91C425.628 381.695 450.411 319.753 407.508 222.769Z" fill="#DDF1F6"/>
<path d="M135.631 95.0599C135.631 93.6776 136.752 92.5571 138.134 92.5571H259.546L309.613 142.612V314.048C309.613 315.43 308.492 316.551 307.11 316.551H138.134C136.752 316.551 135.631 315.43 135.631 314.048V95.0599Z" fill="#1CA1C1" fill-opacity="0.15"/>
<path d="M154.645 75.7376C154.645 74.3554 155.765 73.2349 157.148 73.2349H278.56L328.627 123.289V294.726C328.627 296.108 327.506 297.228 326.123 297.228H157.148C155.765 297.228 154.645 296.108 154.645 294.726V75.7376Z" fill="white"/>
<path d="M278.56 120.787V73.2349L328.626 123.289H281.063C279.68 123.289 278.56 122.169 278.56 120.787Z" fill="#BBE3ED"/>
<path d="M302.102 209.559C302.102 243.078 274.923 270.25 241.396 270.25C207.869 270.25 180.69 243.078 180.69 209.559C180.69 176.04 207.869 148.868 241.396 148.868C274.923 148.868 302.102 176.04 302.102 209.559Z" fill="#1CA1C1" fill-opacity="0.23"/>
<path fill-rule="evenodd" clip-rule="evenodd" d="M242.023 157.002C238.221 157.002 234.516 157.409 230.946 158.18C229.933 158.399 228.934 157.756 228.715 156.742C228.495 155.729 229.139 154.73 230.153 154.511C233.981 153.683 237.953 153.248 242.023 153.248C243.06 153.248 243.9 154.088 243.9 155.125C243.9 156.162 243.06 157.002 242.023 157.002ZM224.676 157.934C225.043 158.904 224.553 159.987 223.583 160.354C206.124 166.947 193.055 182.64 190.056 201.717C189.895 202.741 188.934 203.441 187.909 203.28C186.885 203.119 186.185 202.158 186.346 201.134C189.557 180.712 203.544 163.908 222.257 156.842C223.227 156.475 224.31 156.965 224.676 157.934Z" fill="white"/>
<path d="M239.991 226.533C238.306 226.533 236.93 225.149 237.08 223.47C237.316 220.809 237.809 218.572 238.56 216.76C239.582 214.291 241.78 211.394 245.154 208.067C248.528 204.707 250.693 202.341 251.647 200.969C252.635 199.563 253.385 198.037 253.896 196.391C254.442 194.711 254.714 192.808 254.714 190.682C254.714 186.395 253.573 183.035 251.289 180.6C249.04 178.131 245.887 176.896 241.831 176.896C237.742 176.896 234.436 178.079 231.914 180.446C230.077 182.167 228.9 184.346 228.382 186.983C228.061 188.615 226.746 189.961 225.082 189.961V189.961C223.384 189.961 221.986 188.567 222.231 186.886C222.847 182.676 224.66 179.209 227.671 176.485C231.386 173.09 236.106 171.393 241.831 171.393C247.694 171.393 252.312 173.124 255.686 176.588C259.094 180.017 260.798 184.681 260.798 190.579C260.798 194.282 259.963 197.763 258.293 201.02C256.623 204.244 253.453 208.016 248.784 212.337C245.582 215.046 243.711 218.774 243.171 223.522C242.983 225.177 241.657 226.533 239.991 226.533V226.533ZM236.106 243.713C236.106 242.548 236.464 241.57 237.179 240.782C237.929 239.959 238.969 239.547 240.298 239.547C241.593 239.547 242.615 239.959 243.365 240.782C244.149 241.57 244.541 242.548 244.541 243.713C244.541 244.845 244.149 245.805 243.365 246.594C242.615 247.348 241.593 247.726 240.298 247.726C238.969 247.726 237.929 247.348 237.179 246.594C236.464 245.805 236.106 244.845 236.106 243.713Z" fill="#1CA1C1"/>
<rect x="170.678" y="92.5571" width="53.8218" height="3.75409" rx="1.87704" fill="#1CA1C1" fill-opacity="0.58"/>
<rect x="170.678" y="108.825" width="98.8819" height="3.75409" rx="1.87704" fill="#1CA1C1" fill-opacity="0.58"/>
</svg>
