<svg width="470" height="400" viewBox="0 0 470 400" fill="none" xmlns="http://www.w3.org/2000/svg">
<path d="M409.508 222.814C386.331 170.409 441.499 119.555 423.247 74.4948C404.995 29.4348 345.643 35.0675 261.185 54.4644C176.727 73.8613 118.465 33.6489 74.6567 54.4644C45.2722 68.4263 47.3926 113.296 69.6504 161.486C108.595 245.802 17.7934 278.842 45.2722 327.493C72.751 376.143 164.181 326.538 228.642 331.709C266.259 332.3 291.519 337.977 338.163 352.988C427.628 381.78 452.411 319.822 409.508 222.814Z" fill="#DDF1F6"/>
<path d="M156.405 95.0737C156.405 93.6911 157.526 92.5703 158.909 92.5703H327.884C329.267 92.5703 330.387 93.6911 330.387 95.0737V314.116C330.387 315.498 329.267 316.619 327.884 316.619H158.909C157.526 316.619 156.405 315.498 156.405 314.116V95.0737Z" fill="#C5E7F0"/>
<path d="M138.882 81.3051C138.882 79.9225 140.003 78.8018 141.385 78.8018H310.361C311.743 78.8018 312.864 79.9225 312.864 81.3051V300.347C312.864 301.73 311.743 302.851 310.361 302.851H141.385C140.003 302.851 138.882 301.73 138.882 300.347V81.3051Z" fill="white"/>
<path d="M307.857 86.3112C307.857 84.9287 306.737 83.8079 305.354 83.8079C252.326 83.806 199.297 83.8082 146.269 83.8082C144.954 83.8082 143.889 84.8487 143.889 86.1323V295.52C143.889 296.803 144.954 297.844 146.269 297.844H305.477C306.792 297.844 307.857 296.803 307.857 295.52V86.3112Z" fill="#1CA1C1" fill-opacity="0.07"/>
<path d="M143.889 297.844V185.34C246.585 241.055 206.024 89.6207 307.857 158.44V297.844H143.889Z" fill="#1CA1C1" fill-opacity="0.14"/>
<path d="M143.889 297.844V214.586C231.051 260.641 222.421 135.754 307.857 190.672V297.844H143.889Z" fill="#1CA1C1" fill-opacity="0.56"/>
<path d="M158.159 118.271C158.159 129.877 167.567 139.285 179.173 139.285C190.778 139.285 200.187 129.877 200.187 118.271C200.187 106.666 190.778 97.2578 179.173 97.2578C167.567 97.2578 158.159 106.666 158.159 118.271Z" fill="#1CA1C1" fill-opacity="0.1"/>
<path d="M166.567 118.271C166.567 125.235 172.212 130.879 179.175 130.879C186.138 130.879 191.783 125.235 191.783 118.271C191.783 111.308 186.138 105.663 179.175 105.663C172.212 105.663 166.567 111.308 166.567 118.271Z" fill="#1CA1C1" fill-opacity="0.48"/>
</svg>
