<svg width="470" height="400" viewBox="0 0 470 400" fill="none" xmlns="http://www.w3.org/2000/svg">
<path d="M409.508 221.814C386.331 169.409 441.499 118.555 423.247 73.4948C404.995 28.4348 345.643 34.0675 261.185 53.4644C176.727 72.8613 118.465 32.6489 74.6567 53.4644C45.2722 67.4263 47.3926 112.296 69.6504 160.486C108.595 244.802 17.7934 277.842 45.2722 326.493C72.751 375.143 164.181 325.538 228.642 330.709C266.259 331.3 291.519 336.977 338.163 351.988C427.628 380.78 452.411 318.822 409.508 221.814Z" fill="#E9F6F9"/>
<path fill-rule="evenodd" clip-rule="evenodd" d="M319.793 166.103C320.972 162.981 324.819 161.864 327.486 163.871C330.784 166.35 329.835 171.53 325.872 172.68C321.91 173.83 318.336 169.963 319.793 166.103ZM325.982 165.871C324.648 164.868 322.725 165.426 322.135 166.987C321.406 168.917 323.194 170.851 325.175 170.276C327.156 169.701 327.63 167.111 325.982 165.871Z" fill="#C9E8F1"/>
<path fill-rule="evenodd" clip-rule="evenodd" d="M369.277 190.623L373.173 198.003L377.452 188.95L369.277 190.623ZM366.674 191.054C366.089 189.947 366.731 188.589 367.958 188.338L378.176 186.246C379.692 185.936 380.911 187.489 380.25 188.888L374.901 200.204C374.24 201.603 372.265 201.646 371.543 200.278L366.674 191.054Z" fill="#C9E8F1"/>
<path fill-rule="evenodd" clip-rule="evenodd" d="M331.018 62.7988L322.724 61.8817L327.815 70.5042L331.018 62.7988ZM332.123 60.4023C333.367 60.5399 334.13 61.8333 333.65 62.9891L329.646 72.6208C329.053 74.0494 327.083 74.187 326.296 72.8548L319.932 62.0767C319.145 60.7445 320.217 59.0859 321.755 59.256L332.123 60.4023Z" fill="#C9E8F1"/>
<path fill-rule="evenodd" clip-rule="evenodd" d="M127.901 96.9178L124.953 104.724L134.57 101.933L127.901 96.9178ZM125.854 95.2528C126.296 94.0818 127.739 93.6632 128.739 94.4156L137.075 100.685C138.312 101.615 137.956 103.558 136.47 103.989L124.449 107.477C122.963 107.908 121.623 106.458 122.169 105.011L125.854 95.2528Z" fill="#C9E8F1"/>
<path fill-rule="evenodd" clip-rule="evenodd" d="M129.773 306.164L121.502 307.275L128.524 314.414L129.773 306.164ZM130.266 303.572C131.507 303.405 132.56 304.476 132.373 305.713L130.812 316.026C130.58 317.556 128.702 318.165 127.617 317.062L118.84 308.138C117.755 307.035 118.395 305.167 119.929 304.961L130.266 303.572Z" fill="#C9E8F1"/>
<path fill-rule="evenodd" clip-rule="evenodd" d="M396.378 254.845L388.108 255.956L395.129 263.095L396.378 254.845ZM396.872 252.253C398.112 252.086 399.165 253.157 398.978 254.395L397.417 264.708C397.186 266.237 395.307 266.846 394.222 265.743L385.446 256.819C384.361 255.716 385.001 253.848 386.534 253.642L396.872 252.253Z" fill="#C9E8F1"/>
<path fill-rule="evenodd" clip-rule="evenodd" d="M266.625 308.558L265.469 316.822L274.235 311.981L266.625 308.558ZM264.261 307.385C264.434 306.146 265.749 305.419 266.891 305.933L276.403 310.212C277.814 310.847 277.895 312.82 276.541 313.568L265.584 319.619C264.229 320.367 262.602 319.248 262.817 317.715L264.261 307.385Z" fill="#C9E8F1"/>
<path fill-rule="evenodd" clip-rule="evenodd" d="M105.371 233.35L102.423 241.156L112.04 238.366L105.371 233.35ZM103.324 231.685C103.766 230.514 105.208 230.095 106.209 230.848L114.545 237.117C115.781 238.047 115.425 239.99 113.94 240.421L101.919 243.909C100.433 244.341 99.0925 242.89 99.639 241.443L103.324 231.685Z" fill="#C9E8F1"/>
<path fill-rule="evenodd" clip-rule="evenodd" d="M108.108 142.965C109.287 139.842 113.133 138.726 115.801 140.732C119.098 143.212 118.149 148.392 114.187 149.542C110.225 150.692 106.65 146.825 108.108 142.965ZM114.296 142.733C112.962 141.73 111.039 142.288 110.45 143.849C109.721 145.779 111.508 147.713 113.489 147.138C115.47 146.563 115.945 143.973 114.296 142.733Z" fill="#C9E8F1"/>
<path d="M101.691 190.687C103.656 190.117 104.127 187.547 102.491 186.317C101.168 185.321 99.2594 185.875 98.6744 187.424C97.9513 189.339 99.7247 191.258 101.691 190.687Z" fill="#C9E8F1"/>
<path d="M353.276 124.349C355.242 123.779 355.713 121.209 354.077 119.978C352.754 118.983 350.845 119.537 350.26 121.086C349.537 123.001 351.311 124.92 353.276 124.349Z" fill="#C9E8F1"/>
<path d="M352.024 233.244C353.99 232.674 354.461 230.104 352.825 228.873C351.502 227.878 349.593 228.432 349.008 229.981C348.285 231.896 350.059 233.815 352.024 233.244Z" fill="#C9E8F1"/>
<path d="M71.6505 287.066C73.6163 286.495 74.0871 283.926 72.4513 282.695C71.1278 281.7 69.2194 282.254 68.6343 283.803C67.9112 285.718 69.6846 287.636 71.6505 287.066Z" fill="#C9E8F1"/>
<path d="M176.791 317.106C178.757 316.535 179.228 313.966 177.592 312.735C176.268 311.74 174.36 312.294 173.775 313.843C173.052 315.758 174.825 317.676 176.791 317.106Z" fill="#C9E8F1"/>
<path d="M349.521 313.351C351.486 312.781 351.957 310.211 350.321 308.98C348.998 307.985 347.089 308.539 346.504 310.088C345.781 312.003 347.555 313.922 349.521 313.351Z" fill="#C9E8F1"/>
<path fill-rule="evenodd" clip-rule="evenodd" d="M375.964 82.8849C377.143 79.7623 380.99 78.646 383.657 80.6523C386.955 83.1322 386.006 88.312 382.043 89.4619C378.081 90.6117 374.507 86.7446 375.964 82.8849ZM382.153 82.6529C380.819 81.6498 378.896 82.2079 378.306 83.7692C377.577 85.6991 379.364 87.6326 381.346 87.0577C383.327 86.4828 383.801 83.8929 382.153 82.6529Z" fill="#C9E8F1"/>
<path fill-rule="evenodd" clip-rule="evenodd" d="M230.771 72.8712C231.95 69.7486 235.796 68.6323 238.464 70.6386C241.761 73.1185 240.812 78.2984 236.85 79.4482C232.888 80.598 229.313 76.7309 230.771 72.8712ZM236.959 72.6393C235.626 71.6361 233.702 72.1943 233.113 73.7556C232.384 75.6854 234.171 77.619 236.152 77.0441C238.133 76.4691 238.608 73.8792 236.959 72.6393Z" fill="#C9E8F1"/>
<path fill-rule="evenodd" clip-rule="evenodd" d="M71.8088 321.953C72.9879 318.831 76.8346 317.714 79.5021 319.721C82.7993 322.201 81.8503 327.38 77.888 328.53C73.9258 329.68 70.3513 325.813 71.8088 321.953ZM77.9974 321.721C76.6636 320.718 74.7403 321.276 74.1507 322.838C73.422 324.767 75.2092 326.701 77.1903 326.126C79.1715 325.551 79.646 322.961 77.9974 321.721Z" fill="#C9E8F1"/>
<path fill-rule="evenodd" clip-rule="evenodd" d="M384.726 310.689C385.905 307.566 389.752 306.45 392.419 308.456C395.716 310.936 394.767 316.116 390.805 317.266C386.843 318.415 383.268 314.548 384.726 310.689ZM390.914 310.457C389.581 309.454 387.657 310.012 387.068 311.573C386.339 313.503 388.126 315.436 390.107 314.861C392.088 314.287 392.563 311.697 390.914 310.457Z" fill="#C9E8F1"/>
<path fill-rule="evenodd" clip-rule="evenodd" d="M75.5637 71.6197C76.7428 68.4972 80.5895 67.3809 83.257 69.3872C86.5542 71.8671 85.6052 77.0469 81.6429 78.1967C77.6807 79.3466 74.1062 75.4795 75.5637 71.6197ZM81.7523 71.3878C80.4185 70.3847 78.4952 70.9428 77.9056 72.5041C77.1769 74.4339 78.9641 76.3675 80.9452 75.7926C82.9264 75.2177 83.4009 72.6278 81.7523 71.3878Z" fill="#C9E8F1"/>
<path fill-rule="evenodd" clip-rule="evenodd" d="M152.301 188.678L143.987 189.398L150.664 196.86L152.301 188.678ZM152.916 186.112C154.163 186.004 155.165 187.123 154.919 188.35L152.874 198.578C152.57 200.095 150.665 200.615 149.634 199.462L141.287 190.134C140.256 188.981 140.983 187.145 142.524 187.012L152.916 186.112Z" fill="#C9E8F1"/>
<path d="M148.898 77.8017C148.898 76.4191 150.019 75.2983 151.402 75.2983H272.814L322.88 125.365V296.844C322.88 298.226 321.76 299.347 320.377 299.347H151.402C150.019 299.347 148.898 298.226 148.898 296.844V77.8017Z" fill="white"/>
<path d="M272.812 122.862V75.2983L322.879 125.365H275.316C273.933 125.365 272.812 124.244 272.812 122.862Z" fill="#BBE3ED"/>
<path fill-rule="evenodd" clip-rule="evenodd" d="M291.585 154.153L178.935 154.153V235.512H291.585V154.153ZM178.935 150.398C176.861 150.398 175.18 152.08 175.18 154.153V235.512C175.18 237.586 176.861 239.267 178.935 239.267H291.585C293.659 239.267 295.34 237.586 295.34 235.512V154.153C295.34 152.08 293.659 150.398 291.585 150.398H178.935Z" fill="#1CA1C1"/>
<path d="M276.564 224.247H285.326V228.002H276.564V224.247Z" fill="#1CA1C1"/>
<path d="M276.564 211.73H285.326V215.485H276.564V211.73Z" fill="#1CA1C1"/>
<path d="M276.564 199.214H285.326V202.969H276.564V199.214Z" fill="#1CA1C1"/>
<path d="M276.564 186.697H285.326V190.452H276.564V186.697Z" fill="#1CA1C1"/>
<path d="M276.564 174.18H285.326V177.935H276.564V174.18Z" fill="#1CA1C1"/>
<path d="M276.564 161.664H285.326V165.419H276.564V161.664Z" fill="#1CA1C1"/>
<path d="M185.192 224.247H193.954V228.002H185.192V224.247Z" fill="#1CA1C1"/>
<path d="M185.192 211.73H193.954V215.485H185.192V211.73Z" fill="#1CA1C1"/>
<path d="M185.192 199.214H193.954V202.969H185.192V199.214Z" fill="#1CA1C1"/>
<path d="M185.192 186.697H193.954V190.452H185.192V186.697Z" fill="#1CA1C1"/>
<path d="M185.192 174.18H193.954V177.935H185.192V174.18Z" fill="#1CA1C1"/>
<path d="M185.192 161.664H193.954V165.419H185.192V161.664Z" fill="#1CA1C1"/>
<path d="M218.987 212.077V176.337C218.987 175.376 220.026 174.773 220.86 175.25L252.132 193.12C252.973 193.601 252.973 194.813 252.132 195.294L220.86 213.163C220.026 213.64 218.987 213.038 218.987 212.077Z" fill="#1CA1C1"/>
<path fill-rule="evenodd" clip-rule="evenodd" d="M220.865 177.416V210.999L250.25 194.207L220.865 177.416ZM217.11 176.337C217.11 173.935 219.706 172.428 221.792 173.621L253.064 191.49C255.167 192.692 255.166 195.723 253.064 196.924L221.792 214.794C219.706 215.986 217.11 214.48 217.11 212.077V176.337Z" fill="#1CA1C1"/>
<path d="M113.848 276.191C113.848 275.155 114.688 274.314 115.725 274.314H353.542C354.579 274.314 355.42 275.155 355.42 276.191V276.191C355.42 277.228 354.579 278.069 353.542 278.069H115.725C114.688 278.069 113.848 277.228 113.848 276.191V276.191Z" fill="#ADDDE9"/>
<path d="M113.848 276.191C113.848 275.155 114.688 274.314 115.725 274.314H165.792C166.829 274.314 167.669 275.155 167.669 276.191V276.191C167.669 277.228 166.829 278.069 165.792 278.069H115.725C114.688 278.069 113.848 277.228 113.848 276.191V276.191Z" fill="#25A5C4"/>
<path d="M166.418 276.191C166.418 275.155 167.259 274.314 168.295 274.314H244.647C245.684 274.314 246.525 275.155 246.525 276.191V276.191C246.525 277.228 245.684 278.069 244.647 278.069H168.295C167.259 278.069 166.418 277.228 166.418 276.191V276.191Z" fill="#56B9D1" fill-opacity="0.44"/>
<path d="M165.166 273.062C165.166 271.679 166.287 270.559 167.669 270.559V270.559C169.052 270.559 170.173 271.679 170.173 273.062V279.32C170.173 280.703 169.052 281.824 167.669 281.824V281.824C166.287 281.824 165.166 280.703 165.166 279.32V273.062Z" fill="#25A5C4"/>
</svg>
