<svg width="390" height="320" viewBox="0 0 390 320" fill="none" xmlns="http://www.w3.org/2000/svg">
<path fill-rule="evenodd" clip-rule="evenodd" d="M278.514 128.73C278.585 128.376 279.008 128.207 279.317 128.41L289.072 134.819C289.243 134.931 289.328 135.131 289.289 135.327L288.119 141.211C288.049 141.565 287.626 141.734 287.317 141.53L279.285 136.254L276.286 151.339L276.274 151.338C276.259 151.454 276.241 151.57 276.217 151.687C275.644 154.569 272.733 156.452 269.715 155.894C266.697 155.337 264.715 152.549 265.288 149.668C265.861 146.787 268.772 144.903 271.79 145.461C273.019 145.688 274.078 146.286 274.861 147.11L278.514 128.73ZM280.477 131.747C280.353 131.666 280.184 131.734 280.156 131.875L279.789 133.718C279.758 133.874 279.826 134.034 279.963 134.124L286.157 138.194C286.281 138.274 286.45 138.207 286.479 138.066L286.87 136.094C286.886 136.016 286.852 135.936 286.783 135.891L280.477 131.747Z" fill="#7A67EB"/>
<path fill-rule="evenodd" clip-rule="evenodd" d="M312.535 87.6025C312.374 87.2769 312.612 86.9001 312.986 86.8873L319.028 86.6833C319.235 86.6761 319.426 86.7881 319.515 86.9681L320.78 89.5321C320.94 89.8577 320.703 90.2353 320.329 90.2473L315.291 90.4177L319.087 98.1153L319.081 98.1186C319.114 98.1754 319.145 98.2338 319.174 98.293C319.899 99.7634 319.239 101.527 317.699 102.233C316.159 102.939 314.323 102.319 313.598 100.85C312.873 99.3794 313.533 97.6154 315.073 96.909C315.701 96.6218 316.378 96.5538 317.008 96.6746L312.535 87.6025ZM314.429 88.0201C314.28 88.0249 314.185 88.1761 314.249 88.3065L314.6 89.0177C314.672 89.1625 314.824 89.2521 314.99 89.2465L318.885 89.1145C319.034 89.1097 319.129 88.9585 319.065 88.8289L318.656 87.9977C318.62 87.9257 318.544 87.8809 318.461 87.8841L314.429 88.0201Z" fill="#7A67EB"/>
<path fill-rule="evenodd" clip-rule="evenodd" d="M81.3605 135.253C81.2493 134.909 81.5399 134.567 81.9115 134.605L91.9108 135.637C92.1166 135.657 92.2892 135.795 92.3514 135.985L93.9056 140.792C94.0168 141.135 93.7263 141.477 93.3546 141.438L85.1024 140.587L89.204 153.269L89.1941 153.273C89.2322 153.368 89.2671 153.464 89.2986 153.562C90.0819 155.985 88.6605 158.566 86.123 159.329C83.5855 160.092 80.894 158.746 80.1105 156.325C79.3271 153.902 80.7489 151.32 83.286 150.557C84.3207 150.246 85.3804 150.285 86.3263 150.605L81.3605 135.253ZM84.1448 136.687C83.9963 136.671 83.8801 136.808 83.9241 136.945L84.402 138.421C84.451 138.573 84.5896 138.683 84.7539 138.701L91.1208 139.357C91.2702 139.373 91.3864 139.236 91.3415 139.098L90.8238 137.497C90.7989 137.421 90.73 137.366 90.6478 137.357L84.1448 136.687Z" fill="#7A67EB"/>
<path fill-rule="evenodd" clip-rule="evenodd" d="M117.264 81.3791C117.009 81.2007 116.648 81.3359 116.585 81.6327L112.942 98.5727C112.235 97.8039 111.272 97.2398 110.146 97.0142C107.382 96.4622 104.679 98.1599 104.111 100.807C103.541 103.454 105.321 106.048 108.085 106.6C110.848 107.153 113.55 105.454 114.12 102.808C114.142 102.7 114.162 102.593 114.177 102.485L114.188 102.488L117.168 88.6287L125.524 94.4918L123.021 106.137C122.313 105.369 121.35 104.805 120.223 104.579C117.459 104.027 114.758 105.725 114.188 108.372C113.619 111.019 115.398 113.613 118.162 114.165C120.926 114.717 123.628 113.019 124.197 110.373C124.221 110.265 124.24 110.157 124.255 110.051L124.266 110.053L127.45 95.2071C127.46 95.1831 127.468 95.1575 127.474 95.1303L128.655 89.6391C128.69 89.4775 128.623 89.3119 128.485 89.2151L117.264 81.3791ZM118.037 84.5855C118.063 84.4663 118.208 84.4127 118.31 84.4847L126.351 90.1647C126.405 90.2031 126.432 90.2687 126.418 90.3335L126.021 92.1783C125.995 92.2975 125.851 92.3511 125.749 92.2791L117.798 86.6639C117.688 86.5863 117.635 86.4543 117.663 86.3255L118.037 84.5855Z" fill="#7A67EB"/>
<path fill-rule="evenodd" clip-rule="evenodd" d="M268.472 62.2358C268.274 62.1933 268.097 62.3617 268.138 62.553L270.47 73.4677C269.847 73.1871 269.129 73.0904 268.403 73.2345C266.622 73.5881 265.473 75.2573 265.838 76.9627C266.202 78.6682 267.941 79.7641 269.722 79.4105C271.503 79.0569 272.651 77.3877 272.287 75.6823C272.272 75.6131 272.255 75.5449 272.236 75.4778L272.243 75.4764L270.335 66.5469L276.83 67.9574L278.433 75.4609C277.811 75.1803 277.092 75.0836 276.366 75.2277C274.585 75.5813 273.437 77.2505 273.801 78.956C274.165 80.6617 275.905 81.7577 277.685 81.4041C279.466 81.0505 280.614 79.3809 280.25 77.6755C280.235 77.6063 280.219 77.5381 280.199 77.471L280.206 77.4697L278.157 67.9066C278.157 67.8897 278.156 67.8723 278.152 67.8548L277.397 64.3169C277.374 64.213 277.29 64.1314 277.183 64.1083L268.472 62.2358ZM269.779 63.9419C269.763 63.8651 269.834 63.7977 269.914 63.8152L276.173 65.1947C276.215 65.2041 276.248 65.2367 276.257 65.278L276.511 66.4669C276.528 66.5437 276.456 66.6112 276.377 66.5937L270.187 65.2296C270.102 65.2107 270.036 65.1457 270.018 65.0629L269.779 63.9419Z" fill="#7A67EB"/>
<path d="M126.326 68.6081C126.326 67.7952 127.015 67.1054 127.903 67.1054H228.447L269.694 106.872V243.842C269.694 244.655 269.005 245.345 268.116 245.345H127.903C127.015 245.345 126.326 244.655 126.326 243.842V68.6081Z" fill="#E4E1FB" stroke="#7A67EB"/>
<path d="M229.15 104.656V67.7819L268.956 106.159H230.727C229.839 106.159 229.15 105.469 229.15 104.656Z" fill="#7A67EB" stroke="#7A67EB"/>
<path fill-rule="evenodd" clip-rule="evenodd" d="M209.799 134.31C210.813 133.66 212.184 133.925 212.86 134.905C215.883 139.289 217.646 144.555 217.646 150.21C217.646 155.865 215.883 161.131 212.86 165.516C212.184 166.495 210.813 166.761 209.799 166.11C208.783 165.459 208.507 164.137 209.182 163.158C211.74 159.45 213.229 155.001 213.229 150.21C213.229 145.419 211.74 140.97 209.182 137.262C208.507 136.283 208.783 134.961 209.799 134.31Z" fill="#7A67EB"/>
<path fill-rule="evenodd" clip-rule="evenodd" d="M213.975 126.084C214.89 125.306 216.285 125.39 217.092 126.271C222.932 132.65 226.478 141.034 226.478 150.211C226.478 159.389 222.932 167.773 217.092 174.152C216.285 175.034 214.89 175.117 213.975 174.339C213.061 173.561 212.974 172.216 213.781 171.334C218.936 165.703 222.062 158.312 222.062 150.211C222.062 142.111 218.936 134.72 213.781 129.089C212.974 128.207 213.061 126.862 213.975 126.084Z" fill="#7A67EB"/>
<path fill-rule="evenodd" clip-rule="evenodd" d="M218.277 118.312C219.13 117.472 220.529 117.459 221.399 118.282C229.982 126.394 235.311 137.704 235.311 150.21C235.311 162.716 229.982 174.026 221.399 182.137C220.529 182.961 219.13 182.948 218.277 182.108C217.423 181.269 217.437 179.921 218.307 179.097C226.077 171.753 230.894 161.526 230.894 150.21C230.894 138.894 226.077 128.666 218.307 121.322C217.437 120.499 217.423 119.152 218.277 118.312Z" fill="#7A67EB"/>
<path d="M160.1 142.707C160.1 140.495 161.96 138.702 164.255 138.702H173.602V163.735H164.255C161.96 163.735 160.1 161.942 160.1 159.73V142.707Z" fill="#7A67EB"/>
<path fill-rule="evenodd" clip-rule="evenodd" d="M178.796 140.528V161.909L200.607 172.812V129.624L178.796 140.528ZM175.68 163.735L200.689 176.238C202.073 176.929 203.723 175.961 203.723 174.459V127.978C203.723 126.475 202.073 125.508 200.689 126.199L175.68 138.702V163.735Z" fill="#7A67EB"/>
<path d="M61.4294 215.077C61.4294 214.247 62.127 213.574 62.9874 213.574C63.8478 213.574 64.5453 214.247 64.5453 215.077V222.516C64.5453 223.346 63.8478 224.018 62.9874 224.018C62.127 224.018 61.4294 223.346 61.4294 222.516V215.077Z" fill="#7A67EB"/>
<path d="M67.6609 211.943C67.6609 211.114 68.3584 210.442 69.2188 210.442C70.0793 210.442 70.7767 211.114 70.7767 211.943V225.649C70.7767 226.478 70.0793 227.15 69.2188 227.15C68.3584 227.15 67.6609 226.478 67.6609 225.649V211.943Z" fill="#7A67EB"/>
<path d="M73.8933 199.412C73.8933 198.582 74.5908 197.91 75.4512 197.91C76.3116 197.91 77.0092 198.582 77.0092 199.412V237.137C77.0092 237.966 76.3116 238.638 75.4512 238.638C74.5908 238.638 73.8933 237.966 73.8933 237.137V199.412Z" fill="#7A67EB"/>
<path d="M80.1245 208.81C80.1245 207.981 80.822 207.309 81.6825 207.309C82.5429 207.309 83.2408 207.981 83.2408 208.81V228.782C83.2408 229.611 82.5429 230.284 81.6825 230.284C80.822 230.284 80.1245 229.611 80.1245 228.782V208.81Z" fill="#7A67EB"/>
<path d="M86.3562 211.943C86.3562 211.114 87.054 210.442 87.9145 210.442C88.775 210.442 89.472 211.114 89.472 211.943V225.649C89.472 226.478 88.775 227.15 87.9145 227.15C87.054 227.15 86.3562 226.478 86.3562 225.649V211.943Z" fill="#7A67EB"/>
<path d="M92.5874 217.165C92.5874 216.336 93.2853 215.663 94.1457 215.663C95.0054 215.663 95.7033 216.336 95.7033 217.165V220.427C95.7033 221.257 95.0054 221.929 94.1457 221.929C93.2853 221.929 92.5874 221.257 92.5874 220.427V217.165Z" fill="#7A67EB"/>
<path d="M304.467 212.816C304.467 211.986 305.164 211.313 306.024 211.313C306.885 211.313 307.582 211.986 307.582 212.816V226.521C307.582 227.35 306.885 228.023 306.024 228.023C305.164 228.023 304.467 227.35 304.467 226.521V212.816Z" fill="#7A67EB"/>
<path d="M310.698 200.284C310.698 199.454 311.395 198.782 312.255 198.782C313.116 198.782 313.814 199.454 313.814 200.284V238.009C313.814 238.838 313.116 239.51 312.255 239.51C311.395 239.51 310.698 238.838 310.698 238.009V200.284Z" fill="#7A67EB"/>
<path d="M316.929 209.683C316.929 208.853 317.627 208.181 318.488 208.181C319.348 208.181 320.045 208.853 320.045 209.683V229.654C320.045 230.483 319.348 231.156 318.488 231.156C317.627 231.156 316.929 230.483 316.929 229.654V209.683Z" fill="#7A67EB"/>
<path d="M323.161 212.816C323.161 211.986 323.859 211.313 324.719 211.313C325.58 211.313 326.277 211.986 326.277 212.816V226.521C326.277 227.35 325.58 228.023 324.719 228.023C323.859 228.023 323.161 227.35 323.161 226.521V212.816Z" fill="#7A67EB"/>
<path d="M329.393 218.038C329.393 217.208 330.091 216.535 330.951 216.535C331.811 216.535 332.509 217.208 332.509 218.038V221.299C332.509 222.129 331.811 222.802 330.951 222.802C330.091 222.802 329.393 222.129 329.393 221.299V218.038Z" fill="#7A67EB"/>
<path d="M98.8206 209.855C98.8206 209.026 99.5176 208.353 100.378 208.353C101.239 208.353 101.936 209.026 101.936 209.855V227.738C101.936 228.567 101.239 229.239 100.378 229.239C99.5176 229.239 98.8206 228.567 98.8206 227.738V209.855Z" fill="#7A67EB"/>
<path d="M105.052 206.722C105.052 205.892 105.749 205.219 106.609 205.219C107.47 205.219 108.168 205.892 108.168 206.722V230.871C108.168 231.699 107.47 232.372 106.609 232.372C105.749 232.372 105.052 231.699 105.052 230.871V206.722Z" fill="#7A67EB"/>
<path d="M111.283 199.412C111.283 198.582 111.981 197.91 112.841 197.91C113.702 197.91 114.399 198.582 114.399 199.412V237.137C114.399 237.966 113.702 238.638 112.841 238.638C111.981 238.638 111.283 237.966 111.283 237.137V199.412Z" fill="#7A67EB"/>
<path d="M117.514 202.544C117.514 201.714 118.212 201.042 119.073 201.042C119.933 201.042 120.63 201.714 120.63 202.544V235.047C120.63 235.877 119.933 236.55 119.073 236.55C118.212 236.55 117.514 235.877 117.514 235.047V202.544Z" fill="#7A67EB"/>
<path d="M123.747 209.855C123.747 209.026 124.444 208.353 125.305 208.353C126.165 208.353 126.863 209.026 126.863 209.855V227.738C126.863 228.567 126.165 229.239 125.305 229.239C124.444 229.239 123.747 228.567 123.747 227.738V209.855Z" fill="#7A67EB"/>
<path d="M129.979 212.988C129.979 212.159 130.676 211.486 131.536 211.486C132.397 211.486 133.094 212.159 133.094 212.988V224.605C133.094 225.435 132.397 226.107 131.536 226.107C130.676 226.107 129.979 225.435 129.979 224.605V212.988Z" fill="#7A67EB"/>
<path d="M136.21 205.678C136.21 204.848 136.908 204.176 137.768 204.176C138.629 204.176 139.326 204.848 139.326 205.678V231.915C139.326 232.745 138.629 233.417 137.768 233.417C136.908 233.417 136.21 232.745 136.21 231.915V205.678Z" fill="#7A67EB"/>
<path d="M142.441 208.81C142.441 207.981 143.139 207.309 143.999 207.309C144.86 207.309 145.557 207.981 145.557 208.81V228.782C145.557 229.611 144.86 230.284 143.999 230.284C143.139 230.284 142.441 229.611 142.441 228.782V208.81Z" fill="#7A67EB"/>
<path d="M148.674 216.12C148.674 215.291 149.371 214.619 150.232 214.619C151.092 214.619 151.79 215.291 151.79 216.12V221.471C151.79 222.301 151.092 222.973 150.232 222.973C149.371 222.973 148.674 222.301 148.674 221.471V216.12Z" fill="#7A67EB"/>
<path d="M154.905 210.899C154.905 210.069 155.602 209.397 156.463 209.397C157.323 209.397 158.021 210.069 158.021 210.899V226.693C158.021 227.522 157.323 228.195 156.463 228.195C155.602 228.195 154.905 227.522 154.905 226.693V210.899Z" fill="#7A67EB"/>
<path d="M161.136 205.678C161.136 204.848 161.834 204.176 162.695 204.176C163.555 204.176 164.252 204.848 164.252 205.678V235.048C164.252 235.878 163.555 236.55 162.695 236.55C161.834 236.55 161.136 235.878 161.136 235.048V205.678Z" fill="#7A67EB"/>
<path d="M167.368 196.278C167.368 195.449 168.066 194.777 168.926 194.777C169.787 194.777 170.484 195.449 170.484 196.278V238.181C170.484 239.01 169.787 239.682 168.926 239.682C168.066 239.682 167.368 239.01 167.368 238.181V196.278Z" fill="#7A67EB"/>
<path d="M173.601 207.766C173.601 206.937 174.299 206.264 175.158 206.264C176.019 206.264 176.717 206.937 176.717 207.766V229.825C176.717 230.655 176.019 231.328 175.158 231.328C174.299 231.328 173.601 230.655 173.601 229.825V207.766Z" fill="#7A67EB"/>
<path d="M179.832 215.077C179.832 214.247 180.529 213.574 181.39 213.574C182.25 213.574 182.948 214.247 182.948 215.077V222.516C182.948 223.346 182.25 224.018 181.39 224.018C180.529 224.018 179.832 223.346 179.832 222.516V215.077Z" fill="#7A67EB"/>
<path d="M186.063 211.943C186.063 211.114 186.761 210.442 187.622 210.442C188.482 210.442 189.179 211.114 189.179 211.943V225.649C189.179 226.478 188.482 227.15 187.622 227.15C186.761 227.15 186.063 226.478 186.063 225.649V211.943Z" fill="#7A67EB"/>
<path d="M192.294 199.412C192.294 198.582 192.992 197.91 193.853 197.91C194.713 197.91 195.41 198.582 195.41 199.412V237.137C195.41 237.966 194.713 238.638 193.853 238.638C192.992 238.638 192.294 237.966 192.294 237.137V199.412Z" fill="#7A67EB"/>
<path d="M198.528 208.81C198.528 207.981 199.225 207.309 200.085 207.309C200.946 207.309 201.643 207.981 201.643 208.81V228.782C201.643 229.611 200.946 230.284 200.085 230.284C199.225 230.284 198.528 229.611 198.528 228.782V208.81Z" fill="#7A67EB"/>
<path d="M204.759 211.943C204.759 211.114 205.456 210.442 206.316 210.442C207.177 210.442 207.875 211.114 207.875 211.943V225.649C207.875 226.478 207.177 227.15 206.316 227.15C205.456 227.15 204.759 226.478 204.759 225.649V211.943Z" fill="#7A67EB"/>
<path d="M210.991 217.165C210.991 216.336 211.688 215.663 212.548 215.663C213.409 215.663 214.107 216.336 214.107 217.165V220.427C214.107 221.257 213.409 221.929 212.548 221.929C211.688 221.929 210.991 221.257 210.991 220.427V217.165Z" fill="#7A67EB"/>
<path d="M217.222 209.855C217.222 209.026 217.92 208.353 218.78 208.353C219.641 208.353 220.338 209.026 220.338 209.855V227.738C220.338 228.567 219.641 229.239 218.78 229.239C217.92 229.239 217.222 228.567 217.222 227.738V209.855Z" fill="#7A67EB"/>
<path d="M223.454 206.722C223.454 205.892 224.152 205.219 225.012 205.219C225.872 205.219 226.57 205.892 226.57 206.722V230.871C226.57 231.699 225.872 232.372 225.012 232.372C224.152 232.372 223.454 231.699 223.454 230.871V206.722Z" fill="#7A67EB"/>
<path d="M229.686 199.412C229.686 198.582 230.383 197.91 231.244 197.91C232.104 197.91 232.802 198.582 232.802 199.412V237.137C232.802 237.966 232.104 238.638 231.244 238.638C230.383 238.638 229.686 237.966 229.686 237.137V199.412Z" fill="#7A67EB"/>
<path d="M235.917 202.544C235.917 201.714 236.614 201.042 237.475 201.042C238.335 201.042 239.033 201.714 239.033 202.544V235.047C239.033 235.877 238.335 236.55 237.475 236.55C236.614 236.55 235.917 235.877 235.917 235.047V202.544Z" fill="#7A67EB"/>
<path d="M242.149 209.855C242.149 209.026 242.847 208.353 243.707 208.353C244.568 208.353 245.265 209.026 245.265 209.855V227.738C245.265 228.567 244.568 229.239 243.707 229.239C242.847 229.239 242.149 228.567 242.149 227.738V209.855Z" fill="#7A67EB"/>
<path d="M248.381 212.988C248.381 212.159 249.079 211.486 249.939 211.486C250.799 211.486 251.497 212.159 251.497 212.988V224.605C251.497 225.435 250.799 226.107 249.939 226.107C249.079 226.107 248.381 225.435 248.381 224.605V212.988Z" fill="#7A67EB"/>
<path d="M254.613 205.678C254.613 204.848 255.31 204.176 256.171 204.176C257.031 204.176 257.729 204.848 257.729 205.678V231.915C257.729 232.745 257.031 233.417 256.171 233.417C255.31 233.417 254.613 232.745 254.613 231.915V205.678Z" fill="#7A67EB"/>
<path d="M260.844 208.81C260.844 207.981 261.541 207.309 262.402 207.309C263.262 207.309 263.96 207.981 263.96 208.81V228.782C263.96 229.611 263.262 230.284 262.402 230.284C261.541 230.284 260.844 229.611 260.844 228.782V208.81Z" fill="#7A67EB"/>
<path d="M267.075 216.12C267.075 215.291 267.773 214.619 268.634 214.619C269.494 214.619 270.191 215.291 270.191 216.12V221.471C270.191 222.301 269.494 222.973 268.634 222.973C267.773 222.973 267.075 222.301 267.075 221.471V216.12Z" fill="#7A67EB"/>
<path d="M273.308 210.899C273.308 210.069 274.005 209.397 274.866 209.397C275.726 209.397 276.423 210.069 276.423 210.899V226.693C276.423 227.522 275.726 228.195 274.866 228.195C274.005 228.195 273.308 227.522 273.308 226.693V210.899Z" fill="#7A67EB"/>
<path d="M279.54 205.678C279.54 204.848 280.237 204.176 281.097 204.176C281.958 204.176 282.656 204.848 282.656 205.678V235.048C282.656 235.878 281.958 236.55 281.097 236.55C280.237 236.55 279.54 235.878 279.54 235.048V205.678Z" fill="#7A67EB"/>
<path d="M285.771 196.278C285.771 195.449 286.468 194.777 287.329 194.777C288.189 194.777 288.887 195.449 288.887 196.278V238.181C288.887 239.01 288.189 239.682 287.329 239.682C286.468 239.682 285.771 239.01 285.771 238.181V196.278Z" fill="#7A67EB"/>
<path d="M292.002 207.766C292.002 206.937 292.7 206.264 293.561 206.264C294.421 206.264 295.118 206.937 295.118 207.766V229.825C295.118 230.655 294.421 231.328 293.561 231.328C292.7 231.328 292.002 230.655 292.002 229.825V207.766Z" fill="#7A67EB"/>
<path d="M298.234 215.077C298.234 214.247 298.932 213.574 299.793 213.574C300.653 213.574 301.35 214.247 301.35 215.077V222.516C301.35 223.346 300.653 224.018 299.793 224.018C298.932 224.018 298.234 223.346 298.234 222.516V215.077Z" fill="#7A67EB"/>
</svg>
