<svg width="390" height="320" viewBox="0 0 390 320" fill="none" xmlns="http://www.w3.org/2000/svg">
<path d="M277.383 127.15C277.383 128.549 276.208 129.683 274.756 129.683C273.306 129.683 272.129 128.549 272.129 127.15C272.129 125.751 273.306 124.618 274.756 124.618C276.208 124.618 277.383 125.751 277.383 127.15Z" fill="#E4E1FB" fill-opacity="0.97"/>
<path d="M287.892 127.15C287.892 128.549 286.716 129.683 285.265 129.683C283.814 129.683 282.637 128.549 282.637 127.15C282.637 125.751 283.814 124.618 285.265 124.618C286.716 124.618 287.892 125.751 287.892 127.15Z" fill="#E4E1FB" fill-opacity="0.97"/>
<path d="M298.401 127.15C298.401 128.549 297.225 129.683 295.774 129.683C294.323 129.683 293.147 128.549 293.147 127.15C293.147 125.751 294.323 124.618 295.774 124.618C297.225 124.618 298.401 125.751 298.401 127.15Z" fill="#E4E1FB" fill-opacity="0.97"/>
<path d="M111.355 74.9757C111.355 73.8568 112.296 72.9496 113.457 72.9496H215.386L257.419 113.474V252.266C257.419 253.386 256.478 254.293 255.317 254.293H113.457C112.296 254.293 111.355 253.386 111.355 252.266V74.9757Z" fill="#E4E1FB"/>
<path d="M124.596 246.492C124.596 247.779 123.514 248.822 122.179 248.822C120.844 248.822 119.762 247.779 119.762 246.492C119.762 245.205 120.844 244.162 122.179 244.162C123.514 244.162 124.596 245.205 124.596 246.492Z" fill="#E4E1FB"/>
<path d="M134.264 246.492C134.264 247.779 133.182 248.822 131.847 248.822C130.512 248.822 129.429 247.779 129.429 246.492C129.429 245.205 130.512 244.162 131.847 244.162C133.182 244.162 134.264 245.205 134.264 246.492Z" fill="#E4E1FB"/>
<path d="M143.93 246.492C143.93 247.779 142.848 248.822 141.514 248.822C140.179 248.822 139.097 247.779 139.097 246.492C139.097 245.205 140.179 244.162 141.514 244.162C142.848 244.162 143.93 245.205 143.93 246.492Z" fill="#E4E1FB"/>
<path d="M91.3906 92.2569C91.3906 91.6649 91.8877 91.1857 92.5017 91.1857H102.872C103.486 91.1857 103.983 91.6649 103.983 92.2569C103.983 92.8481 103.486 93.3281 102.872 93.3281H92.5017C91.8877 93.3281 91.3906 92.8481 91.3906 92.2569Z" fill="#E4E1FB"/>
<path d="M91.3906 101.541C91.3906 100.949 91.8877 100.47 92.5017 100.47H102.872C103.486 100.47 103.983 100.949 103.983 101.541C103.983 102.132 103.486 102.612 102.872 102.612H92.5017C91.8877 102.612 91.3906 102.132 91.3906 101.541Z" fill="#E4E1FB"/>
<path d="M91.3906 110.825C91.3906 110.233 91.8877 109.754 92.5017 109.754H102.872C103.486 109.754 103.983 110.233 103.983 110.825C103.983 111.416 103.486 111.896 102.872 111.896H92.5017C91.8877 111.896 91.3906 111.416 91.3906 110.825Z" fill="#E4E1FB"/>
<path d="M91.3906 120.109C91.3906 119.517 91.8877 119.038 92.5017 119.038H102.872C103.486 119.038 103.983 119.517 103.983 120.109C103.983 120.7 103.486 121.18 102.872 121.18H92.5017C91.8877 121.18 91.3906 120.7 91.3906 120.109Z" fill="#E4E1FB"/>
<path d="M91.3906 129.392C91.3906 128.801 91.8877 128.321 92.5017 128.321H102.872C103.486 128.321 103.983 128.801 103.983 129.392C103.983 129.984 103.486 130.463 102.872 130.463H92.5017C91.8877 130.463 91.3906 129.984 91.3906 129.392Z" fill="#E4E1FB"/>
<path d="M91.3906 138.676C91.3906 138.085 91.8877 137.605 92.5017 137.605H102.872C103.486 137.605 103.983 138.085 103.983 138.676C103.983 139.268 103.486 139.747 102.872 139.747H92.5017C91.8877 139.747 91.3906 139.268 91.3906 138.676Z" fill="#E4E1FB"/>
<path d="M91.3906 147.96C91.3906 147.369 91.8877 146.889 92.5017 146.889H102.872C103.486 146.889 103.983 147.369 103.983 147.96C103.983 148.552 103.486 149.031 102.872 149.031H92.5017C91.8877 149.031 91.3906 148.552 91.3906 147.96Z" fill="#E4E1FB"/>
<path d="M91.3906 157.244C91.3906 156.653 91.8877 156.173 92.5017 156.173H102.872C103.486 156.173 103.983 156.653 103.983 157.244C103.983 157.836 103.486 158.315 102.872 158.315H92.5017C91.8877 158.315 91.3906 157.836 91.3906 157.244Z" fill="#E4E1FB"/>
<path d="M107.688 92.2569C107.688 91.6649 108.185 91.1857 108.799 91.1857H131.021C131.634 91.1857 132.132 91.6649 132.132 92.2569C132.132 92.8481 131.634 93.3281 131.021 93.3281H108.799C108.185 93.3281 107.688 92.8481 107.688 92.2569Z" fill="#E4E1FB"/>
<path d="M107.688 101.541C107.688 100.949 108.185 100.47 108.799 100.47H123.614C124.228 100.47 124.725 100.949 124.725 101.541C124.725 102.132 124.228 102.612 123.614 102.612H108.799C108.185 102.612 107.688 102.132 107.688 101.541Z" fill="#E4E1FB"/>
<path d="M107.688 110.825C107.688 110.233 108.185 109.754 108.799 109.754H143.614C144.227 109.754 144.725 110.233 144.725 110.825C144.725 111.416 144.227 111.896 143.614 111.896H108.799C108.185 111.896 107.688 111.416 107.688 110.825Z" fill="#E4E1FB"/>
<path d="M107.688 120.109C107.688 119.517 108.185 119.038 108.799 119.038H136.206C136.82 119.038 137.318 119.517 137.318 120.109C137.318 120.7 136.82 121.18 136.206 121.18H108.799C108.185 121.18 107.688 120.7 107.688 120.109Z" fill="#E4E1FB"/>
<path d="M107.688 129.392C107.688 128.801 108.185 128.321 108.799 128.321H116.206C116.82 128.321 117.317 128.801 117.317 129.392C117.317 129.984 116.82 130.463 116.206 130.463H108.799C108.185 130.463 107.688 129.984 107.688 129.392Z" fill="#E4E1FB"/>
<path d="M107.688 138.676C107.688 138.085 108.185 137.605 108.799 137.605H131.021C131.634 137.605 132.132 138.085 132.132 138.676C132.132 139.268 131.634 139.747 131.021 139.747H108.799C108.185 139.747 107.688 139.268 107.688 138.676Z" fill="#E4E1FB"/>
<path d="M107.688 147.96C107.688 147.369 108.185 146.889 108.799 146.889H143.614C144.227 146.889 144.725 147.369 144.725 147.96C144.725 148.552 144.227 149.031 143.614 149.031H108.799C108.185 149.031 107.688 148.552 107.688 147.96Z" fill="#E4E1FB"/>
<path d="M107.688 157.244C107.688 156.653 108.185 156.173 108.799 156.173H125.836C126.45 156.173 126.947 156.653 126.947 157.244C126.947 157.836 126.45 158.315 125.836 158.315H108.799C108.185 158.315 107.688 157.836 107.688 157.244Z" fill="#E4E1FB"/>
<path d="M135.834 92.2569C135.834 91.6649 136.332 91.1857 136.945 91.1857H180.649C181.262 91.1857 181.76 91.6649 181.76 92.2569C181.76 92.8481 181.262 93.3281 180.649 93.3281H136.945C136.332 93.3281 135.834 92.8481 135.834 92.2569Z" fill="#E4E1FB"/>
<path d="M128.427 101.541C128.427 100.949 128.925 100.47 129.539 100.47H159.168C159.781 100.47 160.279 100.949 160.279 101.541C160.279 102.132 159.781 102.612 159.168 102.612H129.539C128.925 102.612 128.427 102.132 128.427 101.541Z" fill="#E4E1FB"/>
<path d="M146.947 110.825C146.947 110.233 147.444 109.754 148.058 109.754H173.242C173.857 109.754 174.354 110.233 174.354 110.825C174.354 111.416 173.857 111.896 173.242 111.896H148.058C147.444 111.896 146.947 111.416 146.947 110.825Z" fill="#E4E1FB"/>
<path d="M139.539 120.109C139.539 119.517 140.036 119.038 140.65 119.038H159.168C159.782 119.038 160.279 119.517 160.279 120.109C160.279 120.7 159.782 121.18 159.168 121.18H140.65C140.036 121.18 139.539 120.7 139.539 120.109Z" fill="#E4E1FB"/>
<path d="M120.279 129.392C120.279 128.801 120.777 128.321 121.39 128.321H169.539C170.152 128.321 170.65 128.801 170.65 129.392C170.65 129.984 170.152 130.463 169.539 130.463H121.39C120.777 130.463 120.279 129.984 120.279 129.392Z" fill="#E4E1FB"/>
<path d="M135.834 138.676C135.834 138.085 136.332 137.605 136.945 137.605H172.501C173.115 137.605 173.612 138.085 173.612 138.676C173.612 139.268 173.115 139.747 172.501 139.747H136.945C136.332 139.747 135.834 139.268 135.834 138.676Z" fill="#E4E1FB"/>
<path d="M146.947 147.96C146.947 147.369 147.444 146.889 148.058 146.889H168.798C169.412 146.889 169.909 147.369 169.909 147.96C169.909 148.552 169.412 149.031 168.798 149.031H148.058C147.444 149.031 146.947 148.552 146.947 147.96Z" fill="#E4E1FB"/>
<path d="M130.65 157.244C130.65 156.653 131.148 156.173 131.761 156.173H172.502C173.115 156.173 173.613 156.653 173.613 157.244C173.613 157.836 173.115 158.315 172.502 158.315H131.761C131.148 158.315 130.65 157.836 130.65 157.244Z" fill="#E4E1FB"/>
<path d="M127.818 59.3328C127.818 58.5069 128.518 57.8066 129.419 57.8066H231.146L272.881 98.0429V236.624C272.881 237.449 272.181 238.15 271.279 238.15H129.419C128.518 238.15 127.818 237.449 127.818 236.624V59.3328Z" fill="#E4E1FB" stroke="#7A67EB"/>
<path d="M138.677 131.202C138.677 130.363 139.383 129.683 140.254 129.683H154.965C155.836 129.683 156.541 130.363 156.541 131.202C156.541 132.042 155.836 132.722 154.965 132.722H140.254C139.383 132.722 138.677 132.042 138.677 131.202Z" fill="#7A67EB"/>
<path d="M138.677 144.373C138.677 143.534 139.383 142.853 140.254 142.853H154.965C155.836 142.853 156.541 143.534 156.541 144.373C156.541 145.212 155.836 145.892 154.965 145.892H140.254C139.383 145.892 138.677 145.212 138.677 144.373Z" fill="#7A67EB"/>
<path d="M138.677 157.542C138.677 156.703 139.383 156.023 140.254 156.023H154.965C155.836 156.023 156.541 156.703 156.541 157.542C156.541 158.382 155.836 159.062 154.965 159.062H140.254C139.383 159.062 138.677 158.382 138.677 157.542Z" fill="#7A67EB"/>
<path d="M138.677 170.713C138.677 169.874 139.383 169.194 140.254 169.194H154.965C155.836 169.194 156.541 169.874 156.541 170.713C156.541 171.552 155.836 172.233 154.965 172.233H140.254C139.383 172.233 138.677 171.552 138.677 170.713Z" fill="#7A67EB"/>
<path d="M138.677 183.883C138.677 183.044 139.383 182.364 140.254 182.364H154.965C155.836 182.364 156.541 183.044 156.541 183.883C156.541 184.722 155.836 185.403 154.965 185.403H140.254C139.383 185.403 138.677 184.722 138.677 183.883Z" fill="#7A67EB"/>
<path d="M138.677 197.054C138.677 196.214 139.383 195.534 140.254 195.534H154.965C155.836 195.534 156.541 196.214 156.541 197.054C156.541 197.893 155.836 198.573 154.965 198.573H140.254C139.383 198.573 138.677 197.893 138.677 197.054Z" fill="#7A67EB"/>
<path d="M138.677 210.223C138.677 209.384 139.383 208.704 140.254 208.704H154.965C155.836 208.704 156.541 209.384 156.541 210.223C156.541 211.063 155.836 211.743 154.965 211.743H140.254C139.383 211.743 138.677 211.063 138.677 210.223Z" fill="#7A67EB"/>
<path d="M138.677 223.394C138.677 222.554 139.383 221.874 140.254 221.874H154.965C155.836 221.874 156.541 222.554 156.541 223.394C156.541 224.233 155.836 224.914 154.965 224.914H140.254C139.383 224.914 138.677 224.233 138.677 223.394Z" fill="#7A67EB"/>
<path d="M161.795 131.202C161.795 130.363 162.501 129.683 163.371 129.683H194.896C195.766 129.683 196.471 130.363 196.471 131.202C196.471 132.042 195.766 132.722 194.896 132.722H163.371C162.501 132.722 161.795 132.042 161.795 131.202Z" fill="#7A67EB"/>
<path d="M161.795 144.373C161.795 143.534 162.501 142.853 163.371 142.853H184.387C185.258 142.853 185.964 143.534 185.964 144.373C185.964 145.212 185.258 145.892 184.387 145.892H163.371C162.501 145.892 161.795 145.212 161.795 144.373Z" fill="#7A67EB"/>
<path d="M161.795 157.542C161.795 156.703 162.501 156.023 163.371 156.023H212.759C213.63 156.023 214.336 156.703 214.336 157.542C214.336 158.382 213.63 159.062 212.759 159.062H163.371C162.501 159.062 161.795 158.382 161.795 157.542Z" fill="#7A67EB"/>
<path d="M161.795 170.713C161.795 169.874 162.501 169.194 163.371 169.194H202.251C203.121 169.194 203.828 169.874 203.828 170.713C203.828 171.552 203.121 172.233 202.251 172.233H163.371C162.501 172.233 161.795 171.552 161.795 170.713Z" fill="#7A67EB"/>
<path d="M161.795 183.883C161.795 183.044 162.501 182.364 163.371 182.364H173.88C174.75 182.364 175.455 183.044 175.455 183.883C175.455 184.722 174.75 185.403 173.88 185.403H163.371C162.501 185.403 161.795 184.722 161.795 183.883Z" fill="#7A67EB"/>
<path d="M161.795 197.054C161.795 196.214 162.501 195.534 163.371 195.534H194.896C195.766 195.534 196.471 196.214 196.471 197.054C196.471 197.893 195.766 198.573 194.896 198.573H163.371C162.501 198.573 161.795 197.893 161.795 197.054Z" fill="#7A67EB"/>
<path d="M161.795 210.223C161.795 209.384 162.501 208.704 163.371 208.704H212.759C213.63 208.704 214.336 209.384 214.336 210.223C214.336 211.063 213.63 211.743 212.759 211.743H163.371C162.501 211.743 161.795 211.063 161.795 210.223Z" fill="#7A67EB"/>
<path d="M161.795 223.394C161.795 222.554 162.501 221.874 163.371 221.874H187.54C188.41 221.874 189.116 222.554 189.116 223.394C189.116 224.233 188.41 224.914 187.54 224.914H163.371C162.501 224.914 161.795 224.233 161.795 223.394Z" fill="#7A67EB"/>
<path d="M201.726 131.202C201.726 130.363 202.432 129.683 203.302 129.683H265.3C266.171 129.683 266.876 130.363 266.876 131.202C266.876 132.042 266.171 132.722 265.3 132.722H203.302C202.432 132.722 201.726 132.042 201.726 131.202Z" fill="#7A67EB"/>
<path d="M191.217 144.373C191.217 143.534 191.923 142.853 192.794 142.853H234.826C235.697 142.853 236.402 143.534 236.402 144.373C236.402 145.212 235.697 145.892 234.826 145.892H192.794C191.923 145.892 191.217 145.212 191.217 144.373Z" fill="#7A67EB"/>
<path d="M217.488 157.542C217.488 156.703 218.193 156.023 219.064 156.023H254.791C255.662 156.023 256.368 156.703 256.368 157.542C256.368 158.382 255.662 159.062 254.791 159.062H219.064C218.193 159.062 217.488 158.382 217.488 157.542Z" fill="#7A67EB"/>
<path d="M206.98 170.713C206.98 169.874 207.686 169.194 208.556 169.194H234.826C235.697 169.194 236.403 169.874 236.403 170.713C236.403 171.552 235.697 172.233 234.826 172.233H208.556C207.686 172.233 206.98 171.552 206.98 170.713Z" fill="#7A67EB"/>
<path d="M179.658 183.883C179.658 183.044 180.364 182.364 181.234 182.364H249.537C250.408 182.364 251.113 183.044 251.113 183.883C251.113 184.722 250.408 185.403 249.537 185.403H181.234C180.364 185.403 179.658 184.722 179.658 183.883Z" fill="#7A67EB"/>
<path d="M201.726 197.054C201.726 196.214 202.432 195.534 203.302 195.534H253.741C254.612 195.534 255.317 196.214 255.317 197.054C255.317 197.893 254.612 198.573 253.741 198.573H203.302C202.432 198.573 201.726 197.893 201.726 197.054Z" fill="#7A67EB"/>
<path d="M217.488 210.223C217.488 209.384 218.193 208.704 219.064 208.704H248.486C249.357 208.704 250.063 209.384 250.063 210.223C250.063 211.063 249.357 211.743 248.486 211.743H219.064C218.193 211.743 217.488 211.063 217.488 210.223Z" fill="#7A67EB"/>
<path d="M194.37 223.394C194.37 222.554 195.076 221.874 195.946 221.874H253.741C254.612 221.874 255.317 222.554 255.317 223.394C255.317 224.233 254.612 224.914 253.741 224.914H195.946C195.076 224.914 194.37 224.233 194.37 223.394Z" fill="#7A67EB"/>
<path fill-rule="evenodd" clip-rule="evenodd" d="M154.383 78.2762C155.136 79.0631 155.085 80.2896 154.269 81.016L142.7 91.312L154.269 101.607C155.085 102.334 155.136 103.561 154.383 104.347C153.629 105.134 152.356 105.183 151.54 104.457L139.972 94.1616C138.246 92.6256 138.246 89.9976 139.972 88.4624L151.54 78.1666C152.356 77.4401 153.629 77.4893 154.383 78.2762Z" fill="#7A67EB"/>
<path fill-rule="evenodd" clip-rule="evenodd" d="M187.072 78.2754C186.318 79.0624 186.37 80.2888 187.185 81.0152L198.754 91.3112L187.185 101.606C186.37 102.333 186.318 103.56 187.072 104.346C187.825 105.134 189.098 105.182 189.915 104.456L201.483 94.1608C203.209 92.6248 203.209 89.9968 201.483 88.4616L189.915 78.1658C189.098 77.4394 187.825 77.4885 187.072 78.2754Z" fill="#7A67EB"/>
<path fill-rule="evenodd" clip-rule="evenodd" d="M178.601 67.9886C179.652 68.3342 180.214 69.4361 179.855 70.4498L164.659 113.424C164.301 114.438 163.158 114.98 162.106 114.634C161.055 114.289 160.493 113.186 160.852 112.173L176.047 69.1983C176.406 68.1846 177.549 67.643 178.601 67.9886Z" fill="#7A67EB"/>
<path d="M231.348 95.804V57.3066L273.38 97.8304H233.449C232.289 97.8304 231.348 96.9232 231.348 95.804Z" fill="#7A67EB"/>
</svg>
