<svg width="390" height="320" viewBox="0 0 390 320" fill="none" xmlns="http://www.w3.org/2000/svg">
<path d="M178.822 88.5278C178.295 86.5654 179.517 84.5622 181.553 84.0542L216.907 75.2259C218.943 74.7176 221.021 75.8964 221.547 77.8589L230.705 111.945C231.232 113.907 230.009 115.91 227.973 116.418L192.619 125.246C190.583 125.755 188.506 124.576 187.978 122.613L178.822 88.5278Z" fill="#7A67EB"/>
<path fill-rule="evenodd" clip-rule="evenodd" d="M208.14 115.13C216.456 113.053 221.452 104.87 219.298 96.8521C217.144 88.8345 208.656 84.0177 200.34 86.0945C192.024 88.1713 187.029 96.3545 189.182 104.372C191.336 112.39 199.824 117.206 208.14 115.13ZM208.617 116.906C217.952 114.575 223.558 105.39 221.141 96.3921C218.723 87.3929 209.197 81.9873 199.863 84.3177C190.529 86.6489 184.922 95.8329 187.339 104.832C189.757 113.831 199.284 119.237 208.617 116.906Z" fill="white"/>
<path fill-rule="evenodd" clip-rule="evenodd" d="M197.406 96.8455C197.029 95.4399 198.414 94.1879 199.844 94.6423L210.205 97.9287C211.542 98.3527 211.956 99.9799 210.975 100.952L203.489 108.369C202.455 109.394 200.654 108.934 200.282 107.549L197.406 96.8455ZM209.61 99.6727L199.249 96.3855L202.125 107.089L209.61 99.6727Z" fill="white"/>
<path d="M95.5213 123.373C95.2683 116.113 101.304 110.095 108.839 110.095H174.157C176.855 110.095 179.489 110.884 181.711 112.359L200.957 125.128C203.18 126.603 205.813 127.392 208.512 127.392H292.515C300.075 127.392 306.121 133.449 305.83 140.732L302.095 234.471C301.82 241.368 295.94 246.824 288.78 246.824H112.704C105.519 246.824 99.6271 241.331 99.3857 234.408L95.5213 123.373Z" fill="#E4E1FB"/>
<path d="M100.458 85.0029L100.458 85.0025C100.425 84.7935 100.574 84.5688 100.835 84.5311L100.835 84.531L157.14 76.3352C157.264 76.3172 157.388 76.3478 157.485 76.4169C157.485 76.4169 157.485 76.417 157.485 76.417L182.799 94.4356L182.8 94.4362C182.895 94.5039 182.955 94.6025 182.971 94.7059L182.971 94.7064L195.229 172.987C195.262 173.197 195.113 173.422 194.852 173.46C194.852 173.46 194.852 173.46 194.852 173.46L116.557 184.856L116.556 184.856C116.292 184.895 116.073 184.718 116.039 184.503C116.039 184.503 116.039 184.503 116.039 184.503L100.458 85.0029Z" fill="#E4E1FB" stroke="#7A67EB"/>
<path d="M158.132 76.8538L182.147 93.9321L161.734 96.9029L161.734 96.9029C161.469 96.9416 161.25 96.7652 161.216 96.5499L158.132 76.8538ZM158.132 76.8538L161.216 96.5496L158.132 76.8538Z" fill="#7A67EB" stroke="#7A67EB"/>
<path d="M108.338 94.0442L130.258 90.853L130.4 91.761L108.48 94.9514L108.338 94.0442Z" fill="#7A67EB"/>
<path d="M109.901 104.025L156.959 97.1752L157.101 98.0832L110.044 104.932L109.901 104.025Z" fill="#7A67EB"/>
<path d="M111.463 114.006L177.344 104.417L177.486 105.324L111.605 114.914L111.463 114.006Z" fill="#7A67EB"/>
<path d="M113.027 123.987L178.907 114.397L179.05 115.305L113.169 124.894L113.027 123.987Z" fill="#7A67EB"/>
<path d="M114.589 133.967L180.469 124.379L180.611 125.286L114.731 134.875L114.589 133.967Z" fill="#7A67EB"/>
<path d="M116.153 143.949L182.034 134.36L182.176 135.267L116.296 144.856L116.153 143.949Z" fill="#7A67EB"/>
<path d="M117.716 153.93L183.597 144.341L183.739 145.248L117.859 154.837L117.716 153.93Z" fill="#7A67EB"/>
<path d="M119.278 163.911L185.158 154.321L185.301 155.229L119.42 164.818L119.278 163.911Z" fill="#7A67EB"/>
<path d="M120.841 173.892L186.721 164.303L186.864 165.211L120.983 174.799L120.841 173.892Z" fill="#7A67EB"/>
<path d="M229.461 73.5078C229.577 73.0135 230.087 72.7034 230.599 72.8153L307.831 89.6591C308.343 89.7703 308.665 90.2623 308.549 90.7567L285.52 188.904C285.404 189.398 284.894 189.709 284.381 189.597L207.151 172.754C206.638 172.642 206.316 172.15 206.432 171.656L229.461 73.5078Z" fill="white"/>
<path d="M231.839 77.1392C231.955 76.6448 232.464 76.3348 232.977 76.4466L304.066 91.9504C304.579 92.0624 304.9 92.5536 304.784 93.048L283.144 185.274C283.029 185.768 282.519 186.078 282.006 185.966L210.918 170.462C210.405 170.35 210.083 169.859 210.199 169.365L231.839 77.1392Z" fill="#E4E1FB"/>
<path d="M282.934 186.169L294.549 136.67C243.11 151.219 276.788 88.5271 224.38 108.926L209.989 170.26L282.934 186.169Z" fill="#7A67EB"/>
<path d="M282.934 186.169L291.534 149.515C248.001 161.334 264.741 107.189 221.059 123.077L209.988 170.261L282.934 186.169Z" fill="#7A67EB"/>
<path d="M296.058 106.157C294.859 111.267 289.589 114.473 284.288 113.317C278.987 112.161 275.662 107.081 276.861 101.971C278.06 96.8602 283.33 93.6538 288.63 94.8106C293.932 95.9666 297.257 101.047 296.058 106.157Z" fill="#7A67EB" fill-opacity="0.18"/>
<path d="M292.219 105.319C291.5 108.385 288.338 110.309 285.157 109.615C281.977 108.921 279.982 105.874 280.701 102.807C281.421 99.7407 284.582 97.8175 287.763 98.5111C290.944 99.2047 292.938 102.253 292.219 105.319Z" fill="#7A67EB"/>
<path d="M95.5213 128.878C95.2683 121.618 101.304 115.6 108.839 115.6H174.157C176.855 115.6 179.489 116.39 181.711 117.864L200.957 130.634C203.18 132.108 205.813 132.898 208.512 132.898H292.515C300.075 132.898 306.121 138.954 305.83 146.238L302.095 239.976C301.82 246.874 295.94 252.33 288.78 252.33H112.704C105.519 252.33 99.6271 246.838 99.3857 239.914L95.5213 128.878Z" fill="#E4E1FB"/>
<path d="M197.197 102.08L197.197 102.08L238.208 109.428C240.017 109.752 241.182 111.417 240.853 113.121L241.344 113.215L240.853 113.121L233.232 152.66C232.902 154.369 231.186 155.526 229.372 155.201L229.284 155.693L229.372 155.201L188.361 147.853C186.551 147.528 185.388 145.863 185.716 144.16L185.225 144.066L185.716 144.16L193.337 104.621C193.337 104.621 193.337 104.621 193.337 104.621C193.667 102.912 195.384 101.755 197.197 102.08Z" fill="#E4E1FB" stroke="#7A67EB"/>
<path fill-rule="evenodd" clip-rule="evenodd" d="M214.131 114.914C214.256 114.263 215.032 113.95 215.599 114.321L224.871 120.362C225.185 120.567 225.344 120.932 225.275 121.29L224.272 126.494C224.146 127.144 223.37 127.457 222.803 127.086L215.075 122.051L212.077 137.604L212.065 137.602C212.05 137.722 212.031 137.842 212.008 137.962C211.436 140.934 208.461 142.892 205.365 142.337C202.269 141.782 200.223 138.924 200.795 135.954C201.368 132.983 204.343 131.025 207.439 131.58C208.701 131.806 209.788 132.414 210.595 133.258L214.131 114.914ZM216.606 117.62C216.322 117.435 215.935 117.591 215.872 117.916L215.527 119.702L221.796 123.787C222.08 123.973 222.468 123.816 222.531 123.491L222.818 122C222.853 121.821 222.773 121.638 222.616 121.536L216.606 117.62Z" fill="white"/>
<path d="M95.5213 134.384C95.2683 127.124 101.304 121.106 108.839 121.106H174.157C176.855 121.106 179.489 121.896 181.711 123.37L200.957 136.139C203.18 137.613 205.813 138.403 208.512 138.403H292.515C300.075 138.403 306.121 144.46 305.83 151.743L302.095 245.481C301.82 252.38 295.94 257.836 288.78 257.836H112.704C105.519 257.836 99.6271 252.343 99.3857 245.419L95.5213 134.384Z" fill="#7A67EB"/>
<path d="M207.308 157.211C207.26 156.709 207.641 156.264 208.161 156.214L252.595 151.89C253.098 151.842 253.552 152.18 253.63 152.662L259.99 191.799C260.07 192.294 259.725 192.758 259.214 192.845L212.519 200.768C211.971 200.862 211.457 200.483 211.406 199.949L207.308 157.211Z" fill="#7A67EB"/>
<path d="M207.346 156.499C207.277 155.997 207.645 155.536 208.166 155.47L254.105 149.672C254.626 149.606 255.104 149.961 255.172 150.463L260.781 191.773C260.849 192.275 260.483 192.736 259.961 192.801L214.023 198.6C213.501 198.665 213.024 198.311 212.955 197.809L207.346 156.499Z" fill="#E4E1FB"/>
<path fill-rule="evenodd" clip-rule="evenodd" d="M227.188 169.95C227.595 170.27 227.654 170.849 227.322 171.241L222.604 176.8L228.728 180.891C229.161 181.179 229.268 181.75 228.969 182.167C228.669 182.584 228.077 182.688 227.645 182.399L221.52 178.309C220.606 177.699 220.427 176.467 221.131 175.638L225.849 170.079C226.182 169.686 226.782 169.629 227.188 169.95Z" fill="#7A67EB"/>
<path fill-rule="evenodd" clip-rule="evenodd" d="M240.045 168.208C239.746 168.625 239.854 169.196 240.286 169.485L246.41 173.575L241.692 179.134C241.359 179.526 241.419 180.105 241.826 180.426C242.233 180.746 242.833 180.689 243.166 180.296L247.884 174.737C248.588 173.908 248.407 172.676 247.495 172.066L241.37 167.976C240.938 167.687 240.344 167.791 240.045 168.208Z" fill="#7A67EB"/>
<path fill-rule="evenodd" clip-rule="evenodd" d="M236.542 163.767C237.058 163.862 237.396 164.343 237.298 164.841L233.112 185.944C233.013 186.442 232.515 186.768 231.999 186.673C231.483 186.578 231.144 186.097 231.243 185.599L235.428 164.496C235.527 163.998 236.026 163.672 236.542 163.767Z" fill="#7A67EB"/>
<path fill-rule="evenodd" clip-rule="evenodd" d="M238.727 137.623C238.232 137.623 237.831 138.01 237.831 138.487H235.927C235.927 136.997 237.181 135.788 238.727 135.788H243.706C247.295 135.788 250.205 138.593 250.205 142.053V162.728C250.205 165.587 247.8 167.905 244.833 167.905C241.868 167.905 239.463 165.587 239.463 162.728V143.804H241.366V162.728C241.366 164.573 242.919 166.07 244.833 166.07C246.748 166.07 248.301 164.573 248.301 162.728V142.053C248.301 139.607 246.244 137.623 243.706 137.623H238.727Z" fill="white"/>
</svg>
