<svg width="390" height="320" viewBox="0 0 390 320" fill="none" xmlns="http://www.w3.org/2000/svg">
<path d="M131 80.0027C131 78.8966 131.93 78 133.078 78H273.291C274.439 78 275.368 78.8966 275.368 80.0027V255.237C275.368 256.342 274.439 257.239 273.291 257.239H133.078C131.93 257.239 131 256.342 131 255.237V80.0027Z" fill="#E4E1FB"/>
<path d="M115.743 65.0442C115.743 64.2313 116.432 63.5415 117.32 63.5415H257.534C258.422 63.5415 259.111 64.2313 259.111 65.0442V240.278C259.111 241.091 258.422 241.781 257.534 241.781H117.32C116.432 241.781 115.743 241.091 115.743 240.278V65.0442Z" fill="white" stroke="#7A67EB"/>
<path d="M255.456 69.049C255.456 67.943 254.526 67.0463 253.379 67.0463C209.377 67.0448 165.374 67.0466 121.372 67.0466C120.281 67.0466 119.397 67.879 119.397 68.9058V236.416C119.397 237.442 120.281 238.275 121.372 238.275H253.481C254.572 238.275 255.456 237.442 255.456 236.416V69.049Z" fill="#E4E1FB"/>
<path d="M119.397 238.275V148.272C204.613 192.844 170.956 71.6965 255.456 126.752V238.275H119.397Z" fill="#7A67EB"/>
<path d="M119.397 238.275V171.669C191.723 208.513 184.562 108.603 255.456 152.538V238.275H119.397Z" fill="#7A67EB"/>
<path d="M131.238 94.6168C131.238 103.902 139.044 111.428 148.675 111.428C158.305 111.428 166.112 103.902 166.112 94.6168C166.112 85.3328 158.305 77.8062 148.675 77.8062C139.044 77.8062 131.238 85.3328 131.238 94.6168Z" fill="#7A67EB"/>
<path d="M138.215 94.6166C138.215 100.188 142.899 104.703 148.677 104.703C154.455 104.703 159.139 100.188 159.139 94.6166C159.139 89.0462 154.455 84.5302 148.677 84.5302C142.899 84.5302 138.215 89.0462 138.215 94.6166Z" fill="#E4E1FB"/>
</svg>
