<svg width="390" height="320" viewBox="0 0 390 320" fill="none" xmlns="http://www.w3.org/2000/svg">
<path d="M85.1221 89.0761C85.1221 81.3337 91.6318 75.0575 99.6624 75.0575H171.434C174.378 75.0575 177.253 75.9189 179.677 77.5279L200.678 96.4681C203.005 98.5889 205.977 99.0897 208.921 99.0897H301.155C309.185 99.0897 315.696 105.366 315.696 113.108V215.244C315.696 222.986 309.185 229.263 301.155 229.263H99.6624C91.6318 229.263 85.1221 222.986 85.1221 215.244V89.0761Z" fill="#D5EAF7"/>
<path d="M85.1221 113.108C85.1221 105.365 91.6318 99.0895 99.6624 99.0895C166.827 99.0895 233.991 99.0895 301.155 99.0895C309.185 99.0895 315.696 105.849 315.696 114.186V224.179C315.696 232.517 309.185 239.277 301.155 239.277H99.6624C91.6318 239.277 85.1221 232.517 85.1221 224.179V113.108Z" fill="#37A9EF"/>
<path d="M188.984 155.665C188.984 153.73 190.611 152.16 192.619 152.16H207.16C209.168 152.16 210.795 153.73 210.795 155.665C210.795 157.601 209.168 159.17 207.16 159.17H192.619C190.611 159.17 188.984 157.601 188.984 155.665Z" fill="#D5EAF7"/>
<path d="M188.984 165.678C188.984 163.742 190.611 162.174 192.619 162.174H207.16C209.168 162.174 210.795 163.742 210.795 165.678C210.795 167.614 209.168 169.182 207.16 169.182H192.619C190.611 169.182 188.984 167.614 188.984 165.678Z" fill="#D5EAF7"/>
<path d="M210.795 145.651C210.795 143.716 209.168 142.147 207.16 142.147H192.619C190.611 142.147 188.984 143.716 188.984 145.651C188.984 147.587 190.611 149.156 192.619 149.156H207.16C209.168 149.156 210.795 147.587 210.795 145.651Z" fill="#D5EAF7"/>
<path d="M188.984 135.638C188.984 133.702 190.611 132.134 192.619 132.134H207.16C209.168 132.134 210.795 133.702 210.795 135.638C210.795 137.574 209.168 139.143 207.16 139.143H192.619C190.611 139.143 188.984 137.574 188.984 135.638Z" fill="#D5EAF7"/>
<path d="M210.795 125.625C210.795 123.69 209.168 122.12 207.16 122.12H192.619C190.611 122.12 188.984 123.69 188.984 125.625C188.984 127.561 190.611 129.13 192.619 129.13H207.16C209.168 129.13 210.795 127.561 210.795 125.625Z" fill="#D5EAF7"/>
<path d="M188.984 115.612C188.984 113.676 190.611 112.107 192.619 112.107H207.16C209.168 112.107 210.795 113.676 210.795 115.612C210.795 117.547 209.168 119.116 207.16 119.116H192.619C190.611 119.116 188.984 117.547 188.984 115.612Z" fill="#D5EAF7"/>
<path d="M210.795 105.598C210.795 103.662 209.168 102.094 207.16 102.094H192.619C190.611 102.094 188.984 103.662 188.984 105.598C188.984 107.534 190.611 109.102 192.619 109.102H207.16C209.168 109.102 210.795 107.534 210.795 105.598Z" fill="#D5EAF7"/>
<path d="M188.601 174.769C188.82 173.287 190.137 172.187 191.688 172.187H208.089C209.642 172.187 210.958 173.287 211.177 174.769L214.603 197.887C215.882 206.52 208.934 214.243 199.889 214.243C190.844 214.243 183.896 206.52 185.175 197.887L188.601 174.769Z" fill="#D5EAF7"/>
<path d="M208.717 200.725C208.717 205.425 204.765 209.236 199.889 209.236C195.013 209.236 191.061 205.425 191.061 200.725C191.061 196.024 195.013 192.213 199.889 192.213C204.765 192.213 208.717 196.024 208.717 200.725Z" fill="#37A9EF"/>
</svg>
