<svg width="390" height="320" viewBox="0 0 390 320" fill="none" xmlns="http://www.w3.org/2000/svg">
<path fill-rule="evenodd" clip-rule="evenodd" d="M265.36 132.882C266.338 130.385 269.531 129.491 271.744 131.097C274.48 133.08 273.693 137.224 270.404 138.144C267.117 139.064 264.151 135.97 265.36 132.882ZM270.496 132.697C269.389 131.894 267.793 132.341 267.303 133.59C266.699 135.134 268.182 136.681 269.826 136.221C271.47 135.761 271.863 133.689 270.496 132.697Z" fill="#37A9EF"/>
<path fill-rule="evenodd" clip-rule="evenodd" d="M306.422 152.498L309.654 158.402L313.205 151.16L306.422 152.498ZM304.262 152.843C303.776 151.958 304.309 150.871 305.327 150.67L313.806 148.997C315.064 148.749 316.075 149.991 315.527 151.11L311.088 160.163C310.54 161.282 308.901 161.317 308.302 160.222L304.262 152.843Z" fill="#37A9EF"/>
<path fill-rule="evenodd" clip-rule="evenodd" d="M274.675 50.2391L267.792 49.5054L272.017 56.4034L274.675 50.2391ZM275.592 48.3219C276.624 48.4319 277.257 49.4667 276.859 50.3913L273.536 58.0966C273.044 59.2395 271.41 59.3496 270.756 58.2838L265.476 49.6614C264.823 48.5956 265.712 47.2687 266.988 47.4048L275.592 48.3219Z" fill="#37A9EF"/>
<path fill-rule="evenodd" clip-rule="evenodd" d="M106.13 77.5341L103.684 83.7791L111.664 81.5463L106.13 77.5341ZM104.432 76.2021C104.798 75.2653 105.996 74.9305 106.825 75.5324L113.743 80.5479C114.769 81.2919 114.474 82.8463 113.241 83.1911L103.266 85.9815C102.033 86.3263 100.921 85.1663 101.374 84.0087L104.432 76.2021Z" fill="#37A9EF"/>
<path fill-rule="evenodd" clip-rule="evenodd" d="M107.684 244.931L100.821 245.82L106.648 251.531L107.684 244.931ZM108.093 242.858C109.123 242.724 109.997 243.581 109.842 244.571L108.546 252.821C108.354 254.045 106.796 254.532 105.895 253.65L98.6121 246.511C97.7118 245.628 98.2429 244.134 99.5158 243.969L108.093 242.858Z" fill="#37A9EF"/>
<path fill-rule="evenodd" clip-rule="evenodd" d="M328.908 203.876L322.046 204.765L327.872 210.476L328.908 203.876ZM329.318 201.802C330.347 201.669 331.221 202.525 331.066 203.516L329.771 211.766C329.579 212.989 328.02 213.477 327.119 212.594L319.837 205.455C318.937 204.573 319.468 203.078 320.74 202.913L329.318 201.802Z" fill="#37A9EF"/>
<path fill-rule="evenodd" clip-rule="evenodd" d="M221.242 246.847L220.283 253.458L227.556 249.585L221.242 246.847ZM219.28 245.908C219.424 244.917 220.515 244.335 221.462 244.747L229.355 248.17C230.526 248.678 230.593 250.256 229.47 250.855L220.378 255.695C219.254 256.294 217.903 255.399 218.082 254.172L219.28 245.908Z" fill="#37A9EF"/>
<path fill-rule="evenodd" clip-rule="evenodd" d="M87.4349 186.68L84.9887 192.925L92.9688 190.693L87.4349 186.68ZM85.7364 185.348C86.1031 184.411 87.2997 184.076 88.1303 184.678L95.0474 189.693C96.073 190.437 95.7776 191.992 94.5454 192.337L84.5705 195.127C83.3374 195.473 82.2251 194.312 82.6786 193.154L85.7364 185.348Z" fill="#37A9EF"/>
<path fill-rule="evenodd" clip-rule="evenodd" d="M89.7066 114.372C90.6849 111.874 93.8763 110.981 96.0902 112.586C98.826 114.57 98.0385 118.714 94.7509 119.634C91.4633 120.554 88.4968 117.46 89.7066 114.372ZM94.8413 114.187C93.7344 113.384 92.1387 113.831 91.65 115.079C91.045 116.623 92.5279 118.171 94.1717 117.711C95.8155 117.251 96.2096 115.179 94.8413 114.187Z" fill="#37A9EF"/>
<path d="M84.3812 152.549C86.0117 152.093 86.4025 150.037 85.045 149.053C83.9472 148.257 82.3635 148.7 81.878 149.939C81.278 151.471 82.7496 153.006 84.3812 152.549Z" fill="#37A9EF"/>
<path d="M293.145 99.4791C294.776 99.0232 295.167 96.9672 293.809 95.9824C292.712 95.1864 291.128 95.6296 290.642 96.8688C290.042 98.4008 291.514 99.9359 293.145 99.4791Z" fill="#37A9EF"/>
<path d="M292.106 186.595C293.737 186.139 294.128 184.083 292.77 183.098C291.673 182.302 290.088 182.746 289.603 183.985C289.003 185.517 290.475 187.052 292.106 186.595Z" fill="#37A9EF"/>
<path d="M59.4541 229.653C61.0853 229.196 61.476 227.141 60.1186 226.156C59.0204 225.36 57.4368 225.803 56.9513 227.042C56.3513 228.574 57.8228 230.109 59.4541 229.653Z" fill="#37A9EF"/>
<path d="M146.699 253.685C148.33 253.228 148.721 251.173 147.363 250.188C146.265 249.392 144.681 249.835 144.196 251.075C143.596 252.607 145.067 254.141 146.699 253.685Z" fill="#37A9EF"/>
<path d="M290.029 250.681C291.659 250.225 292.05 248.169 290.693 247.184C289.595 246.388 288.011 246.831 287.525 248.07C286.925 249.602 288.398 251.138 290.029 250.681Z" fill="#37A9EF"/>
<path fill-rule="evenodd" clip-rule="evenodd" d="M311.97 66.3081C312.948 63.81 316.141 62.917 318.354 64.522C321.09 66.506 320.303 70.6498 317.014 71.5697C313.727 72.4896 310.761 69.3959 311.97 66.3081ZM317.106 66.1225C315.999 65.32 314.403 65.7665 313.913 67.0156C313.308 68.5595 314.791 70.1063 316.436 69.6464C318.08 69.1864 318.473 67.1145 317.106 66.1225Z" fill="#37A9EF"/>
<path fill-rule="evenodd" clip-rule="evenodd" d="M191.491 58.2971C192.469 55.799 195.66 54.906 197.874 56.511C200.61 58.4949 199.823 62.6389 196.535 63.5587C193.247 64.4785 190.281 61.3849 191.491 58.2971ZM196.625 58.1116C195.519 57.309 193.923 57.7556 193.434 59.0046C192.829 60.5485 194.312 62.0953 195.956 61.6354C197.6 61.1754 197.994 59.1035 196.625 58.1116Z" fill="#37A9EF"/>
<path fill-rule="evenodd" clip-rule="evenodd" d="M59.5859 257.562C60.5643 255.065 63.7562 254.171 65.9696 255.777C68.7056 257.761 67.9181 261.904 64.6303 262.824C61.3425 263.744 58.3764 260.65 59.5859 257.562ZM64.7211 257.377C63.6143 256.574 62.0184 257.021 61.5291 258.27C60.9245 259.813 62.4075 261.361 64.0513 260.901C65.6953 260.441 66.089 258.369 64.7211 257.377Z" fill="#37A9EF"/>
<path fill-rule="evenodd" clip-rule="evenodd" d="M319.241 248.551C320.219 246.053 323.411 245.16 325.624 246.765C328.36 248.749 327.573 252.893 324.285 253.813C320.997 254.732 318.031 251.638 319.241 248.551ZM324.375 248.366C323.269 247.563 321.673 248.01 321.184 249.258C320.579 250.802 322.062 252.349 323.706 251.889C325.35 251.43 325.744 249.358 324.375 248.366Z" fill="#37A9EF"/>
<path fill-rule="evenodd" clip-rule="evenodd" d="M62.7016 57.2956C63.68 54.7976 66.8719 53.9045 69.0854 55.5096C71.8213 57.4935 71.0339 61.6373 67.746 62.5572C64.4582 63.4771 61.4922 60.3834 62.7016 57.2956ZM67.8368 57.11C66.73 56.3076 65.1341 56.754 64.6448 58.0031C64.0402 59.5469 65.5232 61.0938 67.1671 60.6339C68.811 60.174 69.2048 58.102 67.8368 57.11Z" fill="#37A9EF"/>
<path fill-rule="evenodd" clip-rule="evenodd" d="M126.377 150.942L119.478 151.518L125.019 157.488L126.377 150.942ZM126.887 148.89C127.922 148.803 128.754 149.698 128.549 150.68L126.852 158.862C126.6 160.076 125.019 160.492 124.164 159.57L117.238 152.107C116.382 151.185 116.985 149.716 118.264 149.61L126.887 148.89Z" fill="#37A9EF"/>
<path d="M124.053 62.2413C124.053 61.4285 124.742 60.7386 125.631 60.7386H226.175L267.421 100.504V237.475C267.421 238.288 266.733 238.978 265.844 238.978H125.631C124.742 238.978 124.053 238.287 124.053 237.475V62.2413Z" fill="white" stroke="#37A9EF"/>
<path d="M226.375 98.2895V60.2386L267.92 100.292H228.453C227.305 100.292 226.375 99.3951 226.375 98.2895Z" fill="#37A9EF"/>
<path fill-rule="evenodd" clip-rule="evenodd" d="M241.954 123.322H148.479V188.41H241.954V123.322ZM148.479 120.318C146.758 120.318 145.363 121.664 145.363 123.322V188.41C145.363 190.069 146.758 191.414 148.479 191.414H241.954C243.675 191.414 245.07 190.069 245.07 188.41V123.322C245.07 121.664 243.675 120.318 241.954 120.318H148.479Z" fill="#37A9EF"/>
<path d="M229.488 179.397H236.759V182.401H229.488V179.397Z" fill="#37A9EF"/>
<path d="M229.488 169.384H236.759V172.388H229.488V169.384Z" fill="#37A9EF"/>
<path d="M229.488 159.371H236.759V162.375H229.488V159.371Z" fill="#37A9EF"/>
<path d="M229.488 149.358H236.759V152.362H229.488V149.358Z" fill="#37A9EF"/>
<path d="M229.488 139.344H236.759V142.348H229.488V139.344Z" fill="#37A9EF"/>
<path d="M229.488 129.331H236.759V132.335H229.488V129.331Z" fill="#37A9EF"/>
<path d="M153.669 179.397H160.94V182.401H153.669V179.397Z" fill="#37A9EF"/>
<path d="M153.669 169.384H160.94V172.388H153.669V169.384Z" fill="#37A9EF"/>
<path d="M153.669 159.371H160.94V162.375H153.669V159.371Z" fill="#37A9EF"/>
<path d="M153.669 149.358H160.94V152.362H153.669V149.358Z" fill="#37A9EF"/>
<path d="M153.669 139.344H160.94V142.348H153.669V139.344Z" fill="#37A9EF"/>
<path d="M153.669 129.331H160.94V132.335H153.669V129.331Z" fill="#37A9EF"/>
<path d="M181.712 169.661V141.07C181.712 140.301 182.574 139.818 183.266 140.2L209.215 154.496C209.913 154.881 209.913 155.85 209.215 156.235L183.266 170.53C182.574 170.912 181.712 170.43 181.712 169.661Z" fill="#37A9EF"/>
<path fill-rule="evenodd" clip-rule="evenodd" d="M183.27 141.933V168.799L207.653 155.366L183.27 141.933ZM180.154 141.07C180.154 139.148 182.308 137.942 184.039 138.897L209.988 153.192C211.734 154.154 211.733 156.578 209.988 157.539L184.039 171.835C182.308 172.789 180.154 171.584 180.154 169.662V141.07Z" fill="#37A9EF"/>
<path d="M94.4702 220.953C94.4702 220.124 95.1672 219.451 96.0277 219.451H293.365C294.226 219.451 294.924 220.124 294.924 220.953C294.924 221.782 294.226 222.455 293.365 222.455H96.0277C95.1672 222.455 94.4702 221.782 94.4702 220.953Z" fill="#37A9EF"/>
<path d="M94.4702 220.953C94.4702 220.124 95.1672 219.451 96.0277 219.451H137.573C138.433 219.451 139.13 220.124 139.13 220.953C139.13 221.782 138.433 222.455 137.573 222.455H96.0277C95.1672 222.455 94.4702 221.782 94.4702 220.953Z" fill="#37A9EF"/>
<path d="M138.092 220.953C138.092 220.124 138.79 219.451 139.649 219.451H203.005C203.866 219.451 204.564 220.124 204.564 220.953C204.564 221.782 203.866 222.455 203.005 222.455H139.649C138.79 222.455 138.092 221.782 138.092 220.953Z" fill="#37A9EF" fill-opacity="0.44"/>
<path d="M137.053 218.449C137.053 217.343 137.983 216.447 139.13 216.447C140.277 216.447 141.207 217.343 141.207 218.449V223.456C141.207 224.562 140.277 225.459 139.13 225.459C137.983 225.459 137.053 224.562 137.053 223.456V218.449Z" fill="#37A9EF"/>
</svg>
