<svg width="24" height="28" viewBox="0 0 24 28" fill="none" xmlns="http://www.w3.org/2000/svg">
<path d="M1.71427 0H17L24 7V26.25C24 27.2169 23.232 28 22.2857 28H1.71427C0.76796 28 0 27.2169 0 26.25V1.74998C0 0.783142 0.768048 0 1.71427 0Z" fill="#49C1B1"/>
<path d="M17 5V0L24 7H19C17.8954 7 17 6.10457 17 5Z" fill="#3B988B"/>
<path d="M4.80078 13.3125H5.97266V17.25C5.97266 17.612 5.89193 17.9323 5.73047 18.2109C5.57161 18.487 5.34635 18.7005 5.05469 18.8516C4.76302 19.0026 4.43359 19.0781 4.06641 19.0781C3.46484 19.0781 2.99609 18.9258 2.66016 18.6211C2.32422 18.3138 2.15625 17.8802 2.15625 17.3203H3.33594C3.33594 17.599 3.39453 17.8047 3.51172 17.9375C3.62891 18.0703 3.8138 18.1367 4.06641 18.1367C4.29036 18.1367 4.46875 18.0599 4.60156 17.9062C4.73438 17.7526 4.80078 17.5339 4.80078 17.25V13.3125Z" fill="white"/>
<path d="M8.14844 16.9961V19H6.97656V13.3125H9.19531C9.6224 13.3125 9.9974 13.3906 10.3203 13.5469C10.6458 13.7031 10.8958 13.9258 11.0703 14.2148C11.2448 14.5013 11.332 14.8281 11.332 15.1953C11.332 15.7526 11.1406 16.1927 10.7578 16.5156C10.3776 16.8359 9.85026 16.9961 9.17578 16.9961H8.14844ZM8.14844 16.0469H9.19531C9.50521 16.0469 9.74089 15.974 9.90234 15.8281C10.0664 15.6823 10.1484 15.474 10.1484 15.2031C10.1484 14.9245 10.0664 14.6992 9.90234 14.5273C9.73828 14.3555 9.51172 14.2669 9.22266 14.2617H8.14844V16.0469Z" fill="white"/>
<path d="M15.5625 16.5352H13.3125V18.0586H15.9531V19H12.1406V13.3125H15.9453V14.2617H13.3125V15.6172H15.5625V16.5352Z" fill="white"/>
<path d="M21.1406 18.2812C20.9297 18.5339 20.6315 18.7305 20.2461 18.8711C19.8607 19.0091 19.4336 19.0781 18.9648 19.0781C18.4727 19.0781 18.0404 18.9714 17.668 18.7578C17.2982 18.5417 17.0117 18.2292 16.8086 17.8203C16.6081 17.4115 16.5052 16.931 16.5 16.3789V15.9922C16.5 15.4245 16.5951 14.9336 16.7852 14.5195C16.9779 14.1029 17.2539 13.7852 17.6133 13.5664C17.9753 13.3451 18.3984 13.2344 18.8828 13.2344C19.5573 13.2344 20.0846 13.3958 20.4648 13.7188C20.8451 14.0391 21.0703 14.5065 21.1406 15.1211H20C19.9479 14.7956 19.832 14.5573 19.6523 14.4062C19.4753 14.2552 19.2305 14.1797 18.918 14.1797C18.5195 14.1797 18.2161 14.3294 18.0078 14.6289C17.7995 14.9284 17.694 15.3737 17.6914 15.9648V16.3281C17.6914 16.9245 17.8047 17.375 18.0312 17.6797C18.2578 17.9844 18.5898 18.1367 19.0273 18.1367C19.4674 18.1367 19.7812 18.043 19.9688 17.8555V16.875H18.9023V16.0117H21.1406V18.2812Z" fill="white"/>
</svg>
