<svg width="24" height="28" viewBox="0 0 24 28" fill="none" xmlns="http://www.w3.org/2000/svg">
<path d="M1.71427 0H17L24 7V26.25C24 27.2169 23.232 28 22.2857 28H1.71427C0.76796 28 0 27.2169 0 26.25V1.74998C0 0.783142 0.768048 0 1.71427 0Z" fill="#FFA978"/>
<path d="M17 5V0L24 7H19C17.8954 7 17 6.10457 17 5Z" fill="#FF833E"/>
<path d="M4.29395 12.6016L5.9375 17.2422L7.57227 12.6016H9.30371V19H7.98096V17.251L8.11279 14.2319L6.38574 19H5.48047L3.75781 14.2363L3.88965 17.251V19H2.57129V12.6016H4.29395Z" fill="white"/>
<path d="M11.7734 16.7456V19H10.4551V12.6016H12.9512C13.4316 12.6016 13.8535 12.6895 14.2168 12.8652C14.583 13.041 14.8643 13.2915 15.0605 13.6167C15.2568 13.939 15.355 14.3066 15.355 14.7197C15.355 15.3467 15.1396 15.8418 14.709 16.2051C14.2812 16.5654 13.688 16.7456 12.9292 16.7456H11.7734ZM11.7734 15.6777H12.9512C13.2998 15.6777 13.5649 15.5957 13.7466 15.4316C13.9312 15.2676 14.0234 15.0332 14.0234 14.7285C14.0234 14.415 13.9312 14.1616 13.7466 13.9683C13.562 13.7749 13.3071 13.6753 12.9819 13.6694H11.7734V15.6777Z" fill="white"/>
<path d="M19.8857 16.5918H20.6108V17.6157H19.8857V19H18.6157V17.6157H15.9922L15.9351 16.8159L18.6025 12.6016H19.8857V16.5918ZM17.2007 16.5918H18.6157V14.333L18.5322 14.478L17.2007 16.5918Z" fill="white"/>
</svg>
