<svg width="24" height="28" viewBox="0 0 24 28" fill="none" xmlns="http://www.w3.org/2000/svg">
<path d="M1.71427 0H17L24 7V26.25C24 27.2169 23.232 28 22.2857 28H1.71427C0.76796 28 0 27.2169 0 26.25V1.74998C0 0.783142 0.768048 0 1.71427 0Z" fill="#FFA978"/>
<path d="M17 5V0L24 7H19C17.8954 7 17 6.10457 17 5Z" fill="#FF833E"/>
<path d="M3.03906 13.3125L4.5 17.4375L5.95312 13.3125H7.49219V19H6.31641V17.4453L6.43359 14.7617L4.89844 19H4.09375L2.5625 14.7656L2.67969 17.4453V19H1.50781V13.3125H3.03906Z" fill="white"/>
<path d="M9.6875 16.9961V19H8.51562V13.3125H10.7344C11.1615 13.3125 11.5365 13.3906 11.8594 13.5469C12.1849 13.7031 12.4349 13.9258 12.6094 14.2148C12.7839 14.5013 12.8711 14.8281 12.8711 15.1953C12.8711 15.7526 12.6797 16.1927 12.2969 16.5156C11.9167 16.8359 11.3893 16.9961 10.7148 16.9961H9.6875ZM9.6875 16.0469H10.7344C11.0443 16.0469 11.2799 15.974 11.4414 15.8281C11.6055 15.6823 11.6875 15.474 11.6875 15.2031C11.6875 14.9245 11.6055 14.6992 11.4414 14.5273C11.2773 14.3555 11.0508 14.2669 10.7617 14.2617H9.6875V16.0469Z" fill="white"/>
<path d="M17.1016 16.5352H14.8516V18.0586H17.4922V19H13.6797V13.3125H17.4844V14.2617H14.8516V15.6172H17.1016V16.5352Z" fill="white"/>
<path d="M22.6797 18.2812C22.4688 18.5339 22.1706 18.7305 21.7852 18.8711C21.3997 19.0091 20.9727 19.0781 20.5039 19.0781C20.0117 19.0781 19.5794 18.9714 19.207 18.7578C18.8372 18.5417 18.5508 18.2292 18.3477 17.8203C18.1471 17.4115 18.0443 16.931 18.0391 16.3789V15.9922C18.0391 15.4245 18.1341 14.9336 18.3242 14.5195C18.5169 14.1029 18.793 13.7852 19.1523 13.5664C19.5143 13.3451 19.9375 13.2344 20.4219 13.2344C21.0964 13.2344 21.6237 13.3958 22.0039 13.7188C22.3841 14.0391 22.6094 14.5065 22.6797 15.1211H21.5391C21.487 14.7956 21.3711 14.5573 21.1914 14.4062C21.0143 14.2552 20.7695 14.1797 20.457 14.1797C20.0586 14.1797 19.7552 14.3294 19.5469 14.6289C19.3385 14.9284 19.2331 15.3737 19.2305 15.9648V16.3281C19.2305 16.9245 19.3438 17.375 19.5703 17.6797C19.7969 17.9844 20.1289 18.1367 20.5664 18.1367C21.0065 18.1367 21.3203 18.043 21.5078 17.8555V16.875H20.4414V16.0117H22.6797V18.2812Z" fill="white"/>
</svg>
