<svg width="24" height="28" viewBox="0 0 24 28" fill="none" xmlns="http://www.w3.org/2000/svg">
<path d="M1.71427 0H17L24 7V26.25C24 27.2169 23.232 28 22.2857 28H1.71427C0.76796 28 0 27.2169 0 26.25V1.74998C0 0.783142 0.768048 0 1.71427 0Z" fill="#FFA978"/>
<path d="M17 5V0L24 7H19C17.8954 7 17 6.10457 17 5Z" fill="#FF833E"/>
<path d="M4.29395 12.6016L5.9375 17.2422L7.57227 12.6016H9.30371V19H7.98096V17.251L8.11279 14.2319L6.38574 19H5.48047L3.75781 14.2363L3.88965 17.251V19H2.57129V12.6016H4.29395Z" fill="white"/>
<path d="M11.7734 16.7456V19H10.4551V12.6016H12.9512C13.4316 12.6016 13.8535 12.6895 14.2168 12.8652C14.583 13.041 14.8643 13.2915 15.0605 13.6167C15.2568 13.939 15.355 14.3066 15.355 14.7197C15.355 15.3467 15.1396 15.8418 14.709 16.2051C14.2812 16.5654 13.688 16.7456 12.9292 16.7456H11.7734ZM11.7734 15.6777H12.9512C13.2998 15.6777 13.5649 15.5957 13.7466 15.4316C13.9312 15.2676 14.0234 15.0332 14.0234 14.7285C14.0234 14.415 13.9312 14.1616 13.7466 13.9683C13.562 13.7749 13.3071 13.6753 12.9819 13.6694H11.7734V15.6777Z" fill="white"/>
<path d="M21.3271 18.1914C21.0898 18.4756 20.7544 18.6968 20.3208 18.855C19.8872 19.0103 19.4067 19.0879 18.8794 19.0879C18.3257 19.0879 17.8394 18.9678 17.4204 18.7275C17.0044 18.4844 16.6821 18.1328 16.4536 17.6729C16.228 17.2129 16.1123 16.6724 16.1064 16.0513V15.6162C16.1064 14.9775 16.2134 14.4253 16.4272 13.9595C16.644 13.4907 16.9546 13.1333 17.3589 12.8872C17.7661 12.6382 18.2422 12.5137 18.7871 12.5137C19.5459 12.5137 20.1392 12.6953 20.5669 13.0586C20.9946 13.4189 21.248 13.9448 21.3271 14.6362H20.0439C19.9854 14.27 19.855 14.002 19.6528 13.832C19.4536 13.6621 19.1782 13.5771 18.8267 13.5771C18.3784 13.5771 18.0371 13.7456 17.8027 14.0825C17.5684 14.4194 17.4497 14.9204 17.4468 15.5854V15.9941C17.4468 16.665 17.5742 17.1719 17.8291 17.5146C18.084 17.8574 18.4575 18.0288 18.9497 18.0288C19.4448 18.0288 19.7979 17.9233 20.0088 17.7124V16.6094H18.8091V15.6382H21.3271V18.1914Z" fill="white"/>
</svg>
