<svg width="24" height="28" viewBox="0 0 24 28" fill="none" xmlns="http://www.w3.org/2000/svg">
<path d="M1.71427 0H17L24 7V26.25C24 27.2169 23.232 28 22.2857 28H1.71427C0.76796 28 0 27.2169 0 26.25V1.74998C0 0.783142 0.768048 0 1.71427 0Z" fill="#FF9F98"/>
<path d="M5.45605 16.7456V19H4.1377V12.6016H6.63379C7.11426 12.6016 7.53613 12.6895 7.89941 12.8652C8.26562 13.041 8.54688 13.2915 8.74316 13.6167C8.93945 13.939 9.0376 14.3066 9.0376 14.7197C9.0376 15.3467 8.82227 15.8418 8.3916 16.2051C7.96387 16.5654 7.37061 16.7456 6.61182 16.7456H5.45605ZM5.45605 15.6777H6.63379C6.98242 15.6777 7.24756 15.5957 7.4292 15.4316C7.61377 15.2676 7.70605 15.0332 7.70605 14.7285C7.70605 14.415 7.61377 14.1616 7.4292 13.9683C7.24463 13.7749 6.98975 13.6753 6.66455 13.6694H5.45605V15.6777Z" fill="white"/>
<path d="M10.1273 19V12.6016H12.096C12.6585 12.6016 13.161 12.729 13.6033 12.9839C14.0487 13.2358 14.3958 13.5962 14.6448 14.0649C14.8939 14.5308 15.0184 15.061 15.0184 15.6558V15.9502C15.0184 16.5449 14.8953 17.0737 14.6492 17.5366C14.4061 17.9995 14.0618 18.3584 13.6165 18.6133C13.1712 18.8682 12.6688 18.9971 12.1092 19H10.1273ZM11.4456 13.6694V17.9409H12.0828C12.5985 17.9409 12.9925 17.7725 13.265 17.4355C13.5374 17.0986 13.6766 16.6167 13.6824 15.9897V15.6514C13.6824 15.001 13.5477 14.5088 13.2781 14.1748C13.0086 13.8379 12.6146 13.6694 12.096 13.6694H11.4456Z" fill="white"/>
<path d="M20.0104 16.3853H17.4791V19H16.1608V12.6016H20.3268V13.6694H17.4791V15.3218H20.0104V16.3853Z" fill="white"/>
<path d="M17 5V0L24 7H19C17.8954 7 17 6.10457 17 5Z" fill="#FA7066"/>
</svg>
