<svg width="24" height="28" viewBox="0 0 24 28" fill="none" xmlns="http://www.w3.org/2000/svg">
<path d="M1.71427 0H17L24 7V26.25C24 27.2169 23.232 28 22.2857 28H1.71427C0.76796 28 0 27.2169 0 26.25V1.74998C0 0.783142 0.768048 0 1.71427 0Z" fill="#49C1B1"/>
<path d="M17 5V0L24 7H19C17.8954 7 17 6.10457 17 5Z" fill="#3B988B"/>
<path d="M4.88965 16.7456V19H3.57129V12.6016H6.06738C6.54785 12.6016 6.96973 12.6895 7.33301 12.8652C7.69922 13.041 7.98047 13.2915 8.17676 13.6167C8.37305 13.939 8.47119 14.3066 8.47119 14.7197C8.47119 15.3467 8.25586 15.8418 7.8252 16.2051C7.39746 16.5654 6.8042 16.7456 6.04541 16.7456H4.88965ZM4.88965 15.6777H6.06738C6.41602 15.6777 6.68115 15.5957 6.86279 15.4316C7.04736 15.2676 7.13965 15.0332 7.13965 14.7285C7.13965 14.415 7.04736 14.1616 6.86279 13.9683C6.67822 13.7749 6.42334 13.6753 6.09814 13.6694H4.88965V15.6777Z" fill="white"/>
<path d="M12.6987 17.3213C12.6987 17.0723 12.6108 16.8818 12.4351 16.75C12.2593 16.6152 11.9429 16.4746 11.4858 16.3281C11.0288 16.1787 10.667 16.0322 10.4004 15.8887C9.67383 15.4961 9.31055 14.9673 9.31055 14.3022C9.31055 13.9565 9.40723 13.6489 9.60059 13.3794C9.79688 13.1069 10.0767 12.8945 10.4399 12.7422C10.8062 12.5898 11.2163 12.5137 11.6704 12.5137C12.1274 12.5137 12.5347 12.5972 12.8921 12.7642C13.2495 12.9282 13.5264 13.1611 13.7227 13.4629C13.9219 13.7646 14.0215 14.1074 14.0215 14.4912H12.7031C12.7031 14.1982 12.6108 13.9712 12.4263 13.8101C12.2417 13.646 11.9824 13.564 11.6484 13.564C11.3262 13.564 11.0757 13.6328 10.897 13.7705C10.7183 13.9053 10.6289 14.084 10.6289 14.3066C10.6289 14.5146 10.7329 14.689 10.9409 14.8296C11.1519 14.9702 11.4609 15.1021 11.8682 15.2251C12.6182 15.4507 13.1646 15.7305 13.5073 16.0645C13.8501 16.3984 14.0215 16.8145 14.0215 17.3125C14.0215 17.8662 13.812 18.3013 13.3931 18.6177C12.9741 18.9312 12.4102 19.0879 11.7012 19.0879C11.209 19.0879 10.7607 18.9985 10.3564 18.8198C9.95215 18.6382 9.64307 18.3906 9.4292 18.0771C9.21826 17.7637 9.11279 17.4004 9.11279 16.9873H10.4355C10.4355 17.6934 10.8574 18.0464 11.7012 18.0464C12.0146 18.0464 12.2593 17.9834 12.4351 17.8574C12.6108 17.7285 12.6987 17.5498 12.6987 17.3213Z" fill="white"/>
<path d="M14.918 19V12.6016H16.8867C17.4492 12.6016 17.9517 12.729 18.394 12.9839C18.8394 13.2358 19.1865 13.5962 19.4355 14.0649C19.6846 14.5308 19.8091 15.061 19.8091 15.6558V15.9502C19.8091 16.5449 19.686 17.0737 19.4399 17.5366C19.1968 17.9995 18.8525 18.3584 18.4072 18.6133C17.9619 18.8682 17.4595 18.9971 16.8999 19H14.918ZM16.2363 13.6694V17.9409H16.8735C17.3892 17.9409 17.7832 17.7725 18.0557 17.4355C18.3281 17.0986 18.4673 16.6167 18.4731 15.9897V15.6514C18.4731 15.001 18.3384 14.5088 18.0688 14.1748C17.7993 13.8379 17.4053 13.6694 16.8867 13.6694H16.2363Z" fill="white"/>
</svg>
