<svg width="24" height="28" viewBox="0 0 24 28" fill="none" xmlns="http://www.w3.org/2000/svg">
<path d="M1.71427 0H17L24 7V26.25C24 27.2169 23.232 28 22.2857 28H1.71427C0.76796 28 0 27.2169 0 26.25V1.74998C0 0.783142 0.768048 0 1.71427 0Z" fill="#49C1B1"/>
<path d="M17 5V0L24 7H19C17.8954 7 17 6.10457 17 5Z" fill="#3B988B"/>
<path d="M4.93994 16.6577H3.88965V19H2.57129V12.6016H4.94873C5.70459 12.6016 6.2876 12.77 6.69775 13.1069C7.10791 13.4438 7.31299 13.9199 7.31299 14.5352C7.31299 14.9717 7.21777 15.3364 7.02734 15.6294C6.83984 15.9194 6.5542 16.1509 6.17041 16.3237L7.55469 18.9385V19H6.13965L4.93994 16.6577ZM3.88965 15.5898H4.95312C5.28418 15.5898 5.54053 15.5063 5.72217 15.3394C5.90381 15.1694 5.99463 14.9365 5.99463 14.6406C5.99463 14.3389 5.9082 14.1016 5.73535 13.9287C5.56543 13.7559 5.30322 13.6694 4.94873 13.6694H3.88965V15.5898Z" fill="white"/>
<path d="M11.9316 17.6816H9.62012L9.18066 19H7.77881L10.1606 12.6016H11.3823L13.7773 19H12.3755L11.9316 17.6816ZM9.97607 16.6138H11.5757L10.7715 14.2188L9.97607 16.6138Z" fill="white"/>
<path d="M19.1826 17.1543L20.0439 12.6016H21.3579L19.9385 19H18.6113L17.5698 14.7197L16.5283 19H15.2012L13.7817 12.6016H15.0957L15.9614 17.1455L17.0161 12.6016H18.1323L19.1826 17.1543Z" fill="white"/>
</svg>
