<svg width="24" height="28" viewBox="0 0 24 28" fill="none" xmlns="http://www.w3.org/2000/svg">
<path d="M1.71427 0H17L24 7V26.25C24 27.2169 23.232 28 22.2857 28H1.71427C0.76796 28 0 27.2169 0 26.25V1.74998C0 0.783142 0.768048 0 1.71427 0Z" fill="#6CA3F0"/>
<path d="M17 5V0L24 7H19C17.8954 7 17 6.10457 17 5Z" fill="#2F7AE2"/>
<path d="M8.3877 13.6694H6.42773V19H5.10938V13.6694H3.17578V12.6016H8.3877V13.6694Z" fill="white"/>
<path d="M11.4331 14.8076L12.6328 12.6016H14.1489L12.2856 15.7744L14.1973 19H12.6636L11.4331 16.7588L10.2026 19H8.66895L10.5806 15.7744L8.71729 12.6016H10.2334L11.4331 14.8076Z" fill="white"/>
<path d="M19.6816 13.6694H17.7217V19H16.4033V13.6694H14.4697V12.6016H19.6816V13.6694Z" fill="white"/>
</svg>
