<svg width="24" height="28" viewBox="0 0 24 28" fill="none" xmlns="http://www.w3.org/2000/svg">
<path d="M1.71427 0H17L24 7V26.25C24 27.2169 23.232 28 22.2857 28H1.71427C0.76796 28 0 27.2169 0 26.25V1.74998C0 0.783142 0.768048 0 1.71427 0Z" fill="#AB93D8"/>
<path d="M17 5V0L24 7H19C17.8954 7 17 6.10457 17 5Z" fill="#8664C6"/>
<path d="M6.9375 17.3594L7.70312 13.3125H8.87109L7.60938 19H6.42969L5.50391 15.1953L4.57812 19H3.39844L2.13672 13.3125H3.30469L4.07422 17.3516L5.01172 13.3125H6.00391L6.9375 17.3594Z" fill="white"/>
<path d="M11.0391 13.3125L12.5 17.4375L13.9531 13.3125H15.4922V19H14.3164V17.4453L14.4336 14.7617L12.8984 19H12.0938L10.5625 14.7656L10.6797 17.4453V19H9.50781V13.3125H11.0391Z" fill="white"/>
<path d="M19.7969 17.8281H17.7422L17.3516 19H16.1055L18.2227 13.3125H19.3086L21.4375 19H20.1914L19.7969 17.8281ZM18.0586 16.8789H19.4805L18.7656 14.75L18.0586 16.8789Z" fill="white"/>
</svg>
