<svg width="24" height="28" viewBox="0 0 24 28" fill="none" xmlns="http://www.w3.org/2000/svg">
<path d="M1.71427 0H17L24 7V26.25C24 27.2169 23.232 28 22.2857 28H1.71427C0.76796 28 0 27.2169 0 26.25V1.74998C0 0.783142 0.768048 0 1.71427 0Z" fill="#86DBAC"/>
<path d="M6.76416 14.2939L7.96387 12.0879H9.47998L7.6167 15.2607L9.52832 18.4863H7.99463L6.76416 16.2451L5.53369 18.4863H4L5.91162 15.2607L4.04834 12.0879H5.56445L6.76416 14.2939Z" fill="white"/>
<path d="M11.6946 17.4272H14.494V18.4863H10.3763V12.0879H11.6946V17.4272Z" fill="white"/>
<path d="M18.7521 16.8076C18.7521 16.5586 18.6642 16.3682 18.4884 16.2363C18.3126 16.1016 17.9962 15.9609 17.5392 15.8145C17.0822 15.665 16.7204 15.5186 16.4537 15.375C15.7272 14.9824 15.3639 14.4536 15.3639 13.7886C15.3639 13.4429 15.4606 13.1353 15.6539 12.8657C15.8502 12.5933 16.13 12.3809 16.4933 12.2285C16.8595 12.0762 17.2697 12 17.7238 12C18.1808 12 18.588 12.0835 18.9454 12.2505C19.3029 12.4146 19.5797 12.6475 19.776 12.9492C19.9752 13.251 20.0748 13.5937 20.0748 13.9775H18.7565C18.7565 13.6846 18.6642 13.4575 18.4796 13.2964C18.2951 13.1323 18.0358 13.0503 17.7018 13.0503C17.3795 13.0503 17.129 13.1191 16.9503 13.2568C16.7716 13.3916 16.6823 13.5703 16.6823 13.793C16.6823 14.001 16.7863 14.1753 16.9943 14.3159C17.2052 14.4565 17.5143 14.5884 17.9215 14.7114C18.6715 14.937 19.2179 15.2168 19.5607 15.5508C19.9035 15.8848 20.0748 16.3008 20.0748 16.7988C20.0748 17.3525 19.8654 17.7876 19.4464 18.104C19.0275 18.4175 18.4635 18.5742 17.7545 18.5742C17.2623 18.5742 16.8141 18.4849 16.4098 18.3062C16.0055 18.1245 15.6964 17.877 15.4826 17.5635C15.2716 17.25 15.1662 16.8867 15.1662 16.4736H16.4889C16.4889 17.1797 16.9108 17.5327 17.7545 17.5327C18.068 17.5327 18.3126 17.4697 18.4884 17.3437C18.6642 17.2148 18.7521 17.0361 18.7521 16.8076Z" fill="white"/>
<path d="M17 5V0L24 7H19C17.8954 7 17 6.10457 17 5Z" fill="#56BC84"/>
</svg>
