<svg width="24" height="28" viewBox="0 0 24 28" fill="none" xmlns="http://www.w3.org/2000/svg">
<path d="M1.71427 0H17L24 7V26.25C24 27.2169 23.232 28 22.2857 28H1.71427C0.76796 28 0 27.2169 0 26.25V1.74998C0 0.783142 0.768048 0 1.71427 0Z" fill="#F17399"/>
<path d="M17 5V0L24 7H19C17.8954 7 17 6.10457 17 5Z" fill="#EA366C"/>
<path d="M6.96826 16.9409H10.1938V18H5.32031V17.2266L8.48438 12.6694H5.32471V11.6016H10.1235V12.3574L6.96826 16.9409Z" fill="white"/>
<path d="M12.4307 18H11.1123V11.6016H12.4307V18Z" fill="white"/>
<path d="M14.9751 15.7456V18H13.6567V11.6016H16.1528C16.6333 11.6016 17.0552 11.6895 17.4185 11.8652C17.7847 12.041 18.0659 12.2915 18.2622 12.6167C18.4585 12.939 18.5566 13.3066 18.5566 13.7197C18.5566 14.3467 18.3413 14.8418 17.9106 15.2051C17.4829 15.5654 16.8896 15.7456 16.1309 15.7456H14.9751ZM14.9751 14.6777H16.1528C16.5015 14.6777 16.7666 14.5957 16.9482 14.4316C17.1328 14.2676 17.2251 14.0332 17.2251 13.7285C17.2251 13.415 17.1328 13.1616 16.9482 12.9683C16.7637 12.7749 16.5088 12.6753 16.1836 12.6694H14.9751V14.6777Z" fill="white"/>
<path d="M0 24L0 23H15V24H0Z" fill="white"/>
<path fill-rule="evenodd" clip-rule="evenodd" d="M16.2058 25.6511C15.5047 25.5109 15 24.8953 15 24.1803V22.8199C15 22.1048 15.5047 21.4892 16.2058 21.349L19.2058 20.749C20.134 20.5634 21 21.2733 21 22.2199V24.7803C21 25.7268 20.134 26.4368 19.2058 26.2511L16.2058 25.6511ZM16 24.1803C16 24.4186 16.1682 24.6238 16.4019 24.6705L19.4019 25.2705C19.7113 25.3324 20 25.0958 20 24.7803V22.2199C20 21.9043 19.7113 21.6677 19.4019 21.7296L16.4019 22.3296C16.1682 22.3763 16 22.5815 16 22.8199V24.1803Z" fill="white"/>
<path d="M11.5 21C11.2239 21 11 21.2239 11 21.5V23H12V21.5C12 21.2239 11.7761 21 11.5 21Z" fill="white"/>
<path d="M7.5 21C7.22386 21 7 21.2239 7 21.5V23H8V21.5C8 21.2239 7.77614 21 7.5 21Z" fill="white"/>
<path d="M3.5 21C3.22386 21 3 21.2239 3 21.5V23H4V21.5C4 21.2239 3.77614 21 3.5 21Z" fill="white"/>
<path d="M13.5 26C13.7761 26 14 25.7761 14 25.5V24H13V25.5C13 25.7761 13.2239 26 13.5 26Z" fill="white"/>
<path d="M9.5 26C9.77614 26 10 25.7761 10 25.5V24H9V25.5C9 25.7761 9.22386 26 9.5 26Z" fill="white"/>
<path d="M5.5 26C5.77614 26 6 25.7761 6 25.5V24H5V25.5C5 25.7761 5.22386 26 5.5 26Z" fill="white"/>
<path d="M1.5 26C1.77614 26 2 25.7761 2 25.5L2 24H1L1 25.5C1 25.7761 1.22386 26 1.5 26Z" fill="white"/>
</svg>
